<?xml version="1.0" standalone="no"?>
<!DOCTYPE svg PUBLIC "-//W3C//DTD SVG 1.1//EN" "http://www.w3.org/Graphics/SVG/1.1/DTD/svg11.dtd" >
<svg xmlns="http://www.w3.org/2000/svg" xmlns:xlink="http://www.w3.org/1999/xlink" version="1.1">
<metadata>
Created by FontForge 20161003 at Wed Jan 11 10:04:10 2017
 By www-data
Copyright (c) 2008 by Mrio Feliciano. All rights reserved.
</metadata>
<defs>
<font id="FlamaUltralight" horiz-adv-x="652" >
  <font-face 
    font-family="FlamaUltralight"
    font-weight="450"
    font-stretch="normal"
    units-per-em="1000"
    panose-1="2 0 0 0 0 0 0 0 0 0"
    ascent="800"
    descent="-200"
    x-height="491"
    cap-height="713"
    bbox="-144 -210 987 1011"
    underline-thickness="50"
    underline-position="-150"
    unicode-range="U+0020-F8FF"
  />
<missing-glyph horiz-adv-x="822" 
d="M235 118l-40 40l185 185l-185 185l40 40l185 -185l185 185l40 -40l-185 -185l185 -185l-40 -40l-185 185zM55 -18v716h712v-716h-712zM115 42h592v596h-592v-596z" />
    <glyph glyph-name="fi" unicode="fi" horiz-adv-x="513" 
d="M404 0v491h30v-491h-30zM404 607v90h30v-90h-30zM142 0v465h-104v25h104v102q0 64 33 99.5t90 35.5q28 0 52 -7v-27q-20 6 -54 6q-41 0 -66 -25t-25 -78v-106h137v-25h-137v-465h-30z" />
    <glyph glyph-name="fl" unicode="fl" horiz-adv-x="606" 
d="M511 -4q-52 0 -79 30.5t-27 83.5v603h31v-609q0 -37 21.5 -59.5t62.5 -22.5q29 0 55 6v-25q-27 -7 -64 -7zM142 0v465h-104v25h104v102q0 64 33 99.5t90 35.5q28 0 52 -7v-27q-20 6 -54 6q-41 0 -66 -25t-25 -78v-106h137v-25h-137v-465h-30z" />
    <glyph glyph-name=".notdef" horiz-adv-x="822" 
d="M235 118l-40 40l185 185l-185 185l40 40l185 -185l185 185l40 -40l-185 -185l185 -185l-40 -40l-185 185zM55 -18v716h712v-716h-712zM115 42h592v596h-592v-596z" />
    <glyph glyph-name=".null" horiz-adv-x="0" 
 />
    <glyph glyph-name="nonmarkingreturn" horiz-adv-x="333" 
 />
    <glyph glyph-name="space" unicode=" " horiz-adv-x="232" 
 />
    <glyph glyph-name="exclam" unicode="!" horiz-adv-x="270" 
d="M124 185l-4 302v226h32v-226l-4 -302h-24zM117 0v87h36v-87h-36z" />
    <glyph glyph-name="quotedbl" unicode="&#x22;" horiz-adv-x="319" 
d="M84 538l-7 95v84h34v-84l-6 -95h-21zM214 538l-6 95v84h33v-84l-6 -95h-21z" />
    <glyph glyph-name="numbersign" unicode="#" horiz-adv-x="556" 
d="M91 -6l36 205h-102l5 23h101l47 267h-106l5 22h105l34 188h22l-34 -188h209l34 188h22l-32 -188h100l-4 -22h-101l-47 -267h104l-4 -23h-103l-36 -205h-24l35 205h-207l-34 -205h-25zM155 222h206l49 267h-209z" />
    <glyph glyph-name="dollar" unicode="$" horiz-adv-x="518" 
d="M247 -34v106q-76 3 -126 38t-67 95l28 8q19 -55 65.5 -85t115.5 -30q71 0 115.5 34.5t44.5 90.5q0 90 -100 123q-16 5 -60 17.5t-63 18.5q-63 19 -88.5 52t-25.5 83q0 59 45 99.5t116 42.5v98h26v-98q121 -6 168 -98l-26 -12q-47 83 -156 83q-58 0 -99.5 -30t-41.5 -82
q0 -42 19.5 -68t82.5 -44l120 -36q114 -35 114 -145q0 -63 -48.5 -107t-132.5 -48v-106h-26z" />
    <glyph glyph-name="percent" unicode="%" horiz-adv-x="739" 
d="M179 365q-57 0 -87.5 31.5t-30.5 85.5v127q0 57 33.5 86t86.5 29q54 0 88 -28.5t34 -86.5v-134q0 -52 -35.5 -81t-88.5 -29zM181 386q45 0 71.5 25.5t26.5 62.5v141q0 37 -26.5 63t-71.5 26t-70.5 -25t-25.5 -64v-141q0 -40 25 -64t71 -24zM554 -11q-54 0 -86 28.5
t-32 82.5v126q0 57 34 89.5t86 32.5q54 0 88 -29t34 -87v-133q0 -52 -35.5 -81t-88.5 -29zM556 10q45 0 72 25.5t27 62.5v140q0 37 -27 63.5t-72 26.5t-70.5 -25.5t-25.5 -64.5v-140q0 -40 25 -64t71 -24zM141 0l442 717h26l-440 -717h-28z" />
    <glyph glyph-name="ampersand" unicode="&#x26;" horiz-adv-x="730" 
d="M297 -13q-101 0 -160 58t-59 139q0 65 44.5 123.5t149.5 88.5q-100 100 -100 182q0 24 8 47t27 47.5t57 39.5t91 15q77 0 118.5 -41.5t41.5 -99.5q0 -143 -193 -201l223 -241q42 62 72 155l26 -7q-20 -74 -78 -169l118 -123h-41l-99 102q-92 -115 -246 -115zM306 404
q89 29 133 70.5t44 110.5q0 57 -39.5 86.5t-90.5 29.5q-69 0 -108 -34.5t-39 -88.5q0 -62 74 -144q18 -20 26 -30zM299 14q67 0 128 28.5t98 79.5l-235 255q-87 -22 -133 -74t-46 -113q0 -76 53 -126t135 -50z" />
    <glyph glyph-name="quotesingle" unicode="'" horiz-adv-x="188" 
d="M84 538l-7 95v84h34v-84l-6 -95h-21z" />
    <glyph glyph-name="parenleft" unicode="(" horiz-adv-x="292" 
d="M227 -185q-65 90 -96.5 220t-31.5 241q0 261 128 459l20 -3q-61 -116 -91 -217t-30 -240q0 -252 123 -458z" />
    <glyph glyph-name="parenright" unicode=")" horiz-adv-x="292" 
d="M66 -185l-20 2q120 204 120 458q0 140 -29.5 241t-90.5 216l20 3q128 -200 128 -459q0 -111 -31.5 -241t-96.5 -220z" />
    <glyph glyph-name="asterisk" unicode="*" horiz-adv-x="401" 
d="M108 412l-21 15l82 116l-125 77l13 20l131 -80v153h25v-153l131 80l13 -20l-126 -77l84 -116l-20 -15l-95 128z" />
    <glyph glyph-name="plus" unicode="+" horiz-adv-x="560" 
d="M269 81v225h-224v22h224v224h24v-224h222v-22h-222v-225h-24z" />
    <glyph glyph-name="comma" unicode="," horiz-adv-x="185" 
d="M74 -94l13 94h-12v87h36v-87l-18 -94h-19z" />
    <glyph glyph-name="hyphen" unicode="-" horiz-adv-x="351" 
d="M54 271v30h243v-30h-243z" />
    <glyph glyph-name="period" unicode="." horiz-adv-x="185" 
d="M75 0v87h36v-87h-36z" />
    <glyph glyph-name="slash" unicode="/" horiz-adv-x="335" 
d="M22 -114l258 840h24l-255 -840h-27z" />
    <glyph glyph-name="zero" unicode="0" horiz-adv-x="570" 
d="M287 -13q-98 0 -160.5 52t-62.5 144v346q0 92 64.5 145t158.5 53q97 0 158 -53t61 -145v-345q0 -91 -62.5 -144t-156.5 -53zM287 13q87 0 136.5 48.5t49.5 127.5v342q0 71 -50.5 120.5t-136.5 49.5t-138 -50.5t-52 -124.5v-341q0 -74 52 -123t139 -49z" />
    <glyph glyph-name="one" unicode="1" horiz-adv-x="485" 
d="M49 0v26h192v657l-176 -38l-3 22l191 46h19v-687h178v-26h-401z" />
    <glyph glyph-name="two" unicode="2" horiz-adv-x="497" 
d="M69 0v20l166 180q81 91 123 169.5t42 172.5v5q0 69 -40 111t-119 42q-68 0 -112.5 -34.5t-44.5 -94.5v-29h-29v26q0 77 52 118t139 41q92 0 140 -49t48 -129q0 -100 -45.5 -186t-139.5 -191l-135 -144v-1h343v-27h-388z" />
    <glyph glyph-name="three" unicode="3" horiz-adv-x="522" 
d="M265 -13q-98 0 -151 44t-53 101v34h30v-27q0 -60 52.5 -92.5t121.5 -32.5q74 0 126 47t52 125q0 41 -14.5 73t-35 50t-46.5 30t-46 15.5t-37 3.5h-79v28h82q70 0 112.5 42t42.5 119q0 79 -45.5 116t-111.5 37q-69 0 -118.5 -32t-49.5 -102v-22h-29v28q0 69 54 111.5
t144 42.5q51 0 89 -16.5t57.5 -43.5t29 -55.5t9.5 -57.5q0 -150 -127 -178v-3q66 -15 109.5 -62t43.5 -116q0 -93 -58.5 -150t-153.5 -57z" />
    <glyph glyph-name="four" unicode="4" horiz-adv-x="563" 
d="M366 0v212h-322v26l310 475h36l-313 -474h289v199l31 18v-217h114v-27h-114v-212h-31z" />
    <glyph glyph-name="five" unicode="5" horiz-adv-x="523" 
d="M261 -13q-98 0 -149 44t-51 101v34h30v-27q0 -60 50 -92.5t118 -32.5q34 0 64 9t58.5 29.5t45 61.5t16.5 99v14q0 91 -47 136t-123 45q-85 0 -160 -59l-32 4l23 361h334v-28h-310l-19 -310q84 59 175 59q81 0 136 -53.5t55 -149.5v-12q0 -116 -58 -174.5t-156 -58.5z" />
    <glyph glyph-name="six" unicode="6" horiz-adv-x="535" 
d="M265 -13q-92 0 -146 56t-54 143v347q0 90 57.5 141.5t150.5 51.5q88 0 139 -42t51 -114v-20h-29v15q0 64 -44 99.5t-117 35.5q-82 0 -129.5 -47.5t-47.5 -118.5v-199q30 54 84 83t111 29q73 0 126.5 -45.5t53.5 -115.5v-117q0 -86 -56.5 -134t-149.5 -48zM272 14
q79 0 123.5 42t44.5 106v109q0 76 -48.5 112t-113.5 36t-123.5 -46t-58.5 -116v-78q0 -67 47 -116t129 -49z" />
    <glyph glyph-name="seven" unicode="7" horiz-adv-x="496" 
d="M154 0q0 196 84.5 397t180.5 288h-374v28h411v-22q-108 -113 -187.5 -298.5t-80.5 -392.5h-34z" />
    <glyph glyph-name="eight" unicode="8" horiz-adv-x="529" 
d="M264 -13q-91 0 -148 49t-57 129v34q0 59 38.5 104t97.5 63q-59 14 -93.5 56.5t-34.5 92.5v34q0 84 58.5 130.5t139.5 46.5q83 0 140 -43.5t57 -125.5q1 -35 0 -36q0 -49 -35 -93.5t-96 -59.5q60 -15 99.5 -59.5t39.5 -108.5v-31q0 -85 -57 -133.5t-149 -48.5zM265 12
q76 0 124 43t48 118v27q0 74 -52.5 113.5t-119.5 39.5q-69 0 -121.5 -40.5t-52.5 -114.5v-30q0 -69 51 -112.5t123 -43.5zM267 377q61 0 112 41.5t51 106.5v36q0 66 -50.5 102.5t-118.5 36.5q-63 0 -113 -39.5t-50 -104.5v-32q0 -48 28.5 -83t65.5 -49.5t75 -14.5z" />
    <glyph glyph-name="nine" unicode="9" horiz-adv-x="546" 
d="M262 -12q-88 0 -139 42t-51 114v20h29v-15q0 -64 44 -99.5t118 -35.5q81 0 128.5 47.5t47.5 118.5v202q-29 -61 -81 -88t-113 -27q-74 0 -127.5 45.5t-53.5 115.5v106q0 87 57 140t149 53t146 -55.5t54 -142.5v-349q0 -89 -57.5 -140.5t-150.5 -51.5zM257 294
q64 0 123 46t59 116v79q0 67 -47 116.5t-129 49.5q-78 0 -123 -47.5t-45 -111.5v-99q0 -76 48.5 -112.5t113.5 -36.5z" />
    <glyph glyph-name="colon" unicode=":" horiz-adv-x="185" 
d="M75 0v87h36v-87h-36zM75 384v87h36v-87h-36z" />
    <glyph glyph-name="semicolon" unicode=";" horiz-adv-x="185" 
d="M74 -94l13 94h-12v87h36v-87l-18 -94h-19zM75 384v87h36v-87h-36z" />
    <glyph glyph-name="less" unicode="&#x3c;" horiz-adv-x="566" 
d="M483 102l-421 205v19l427 195l10 -20l-405 -185l399 -194z" />
    <glyph glyph-name="equal" unicode="=" horiz-adv-x="566" 
d="M47 219v23h471v-23h-471zM47 399v22h471v-22h-471z" />
    <glyph glyph-name="greater" unicode="&#x3e;" horiz-adv-x="566" 
d="M83 102l-10 20l399 194l-404 185l9 20l427 -195v-19z" />
    <glyph glyph-name="question" unicode="?" horiz-adv-x="512" 
d="M226 184v46q3 33 18.5 63t29 45.5t43.5 45.5q49 49 71.5 86.5t22.5 90.5q0 70 -41.5 104.5t-113.5 34.5q-37 0 -69.5 -11t-58.5 -42.5t-26 -78.5v-25h-30v19q0 81 53 122.5t135 41.5q84 0 133.5 -42t49.5 -122q0 -43 -18 -83.5t-36.5 -62t-52.5 -55.5q-24 -24 -37 -38.5
t-26 -40t-16 -53.5v-45h-31zM223 0v87h36v-87h-36z" />
    <glyph glyph-name="at" unicode="@" horiz-adv-x="955" 
d="M491 -159q-81 0 -155 23q-123 40 -197.5 138t-70.5 243q0 195 127 319t325 124q164 0 274 -102.5t110 -252.5q0 -75 -27.5 -135.5t-71.5 -96.5t-93 -55t-97 -19h-23l21 115h-3q-39 -68 -90 -98t-102 -30q-66 0 -101.5 31t-35.5 86q0 19 3 35q0 2 15 87t15 86
q16 89 73 133t127 44q55 0 95.5 -31t44.5 -88h2l20 114h27l-82 -466q42 1 86 20t83 54t64 92.5t25 126.5q0 138 -106.5 233.5t-254.5 95.5q-187 0 -307 -119t-120 -301q0 -145 70.5 -237t186.5 -127q69 -20 147 -20q106 0 189 25l4 -19q-87 -28 -197 -28zM433 39
q60 0 121.5 60.5t75.5 143.5l11 67q4 26 4 39q0 71 -38 107t-95 36q-64 0 -110 -37t-58 -107l-30 -176q-3 -27 -3 -40q0 -44 31 -68.5t91 -24.5z" />
    <glyph glyph-name="A" unicode="A" horiz-adv-x="642" 
d="M41 0l267 717h32l262 -717h-33l-94 257h-309l-94 -257h-31zM175 284h291l-143 396h-1z" />
    <glyph glyph-name="B" unicode="B" horiz-adv-x="593" 
d="M85 0v713h244q86 0 137.5 -44.5t51.5 -125.5q0 -65 -40.5 -115t-105.5 -59v-1q79 -9 122.5 -58t43.5 -117q0 -95 -61.5 -144t-148.5 -49h-243zM116 28h201q83 0 135.5 41t52.5 124q0 80 -54.5 120t-136.5 40h-198v-325zM116 380h185q76 0 131 39.5t55 116.5
q0 75 -47.5 112.5t-123.5 37.5h-200v-306z" />
    <glyph glyph-name="C" unicode="C" horiz-adv-x="620" 
d="M326 -13q-116 0 -187 60t-71 171v267q0 104 72 173.5t186 69.5q107 0 172.5 -56.5t65.5 -138.5v-47h-30v38q0 77 -55 125.5t-158 48.5q-100 0 -160 -61.5t-60 -155.5v-252q0 -98 60.5 -156t164.5 -58q102 0 155 48.5t53 126.5v21h30v-31q0 -85 -64.5 -139t-173.5 -54z
" />
    <glyph glyph-name="D" unicode="D" horiz-adv-x="640" 
d="M85 0v713h253q108 0 171 -57t63 -164v-263q0 -106 -64 -167.5t-170 -61.5h-253zM116 28h218q102 0 154 58t52 139v260q0 89 -52 144.5t-154 55.5h-218v-657z" />
    <glyph glyph-name="E" unicode="E" horiz-adv-x="567" 
d="M85 0v713h423v-28h-392v-300h315v-28h-315v-329h392v-28h-423z" />
    <glyph glyph-name="F" unicode="F" horiz-adv-x="536" 
d="M85 0v713h421v-28h-390v-300h312v-28h-312v-357h-31z" />
    <glyph glyph-name="G" unicode="G" 
d="M331 -13q-115 0 -186 60t-71 171v267q0 104 71.5 173.5t185.5 69.5q108 0 173.5 -56.5t65.5 -137.5v-47h-31v38q0 77 -54.5 125t-158.5 48q-100 0 -160 -61.5t-60 -155.5v-252q0 -98 61 -156t164 -58q104 0 158.5 47.5t54.5 124.5v139h-207v29h238v-175
q0 -86 -64.5 -139.5t-179.5 -53.5z" />
    <glyph glyph-name="H" unicode="H" horiz-adv-x="667" 
d="M85 0v713h31v-327h433v327h32v-713h-32v358h-433v-358h-31z" />
    <glyph glyph-name="I" unicode="I" horiz-adv-x="201" 
d="M85 0v713h31v-713h-31z" />
    <glyph glyph-name="J" unicode="J" horiz-adv-x="564" 
d="M263 -13q-98 0 -156.5 52.5t-58.5 150.5v55h29v-44q0 -80 46 -133.5t149 -53.5q86 0 134 52.5t48 121.5v525h31v-507q0 -99 -54.5 -159t-167.5 -60z" />
    <glyph glyph-name="K" unicode="K" horiz-adv-x="589" 
d="M85 0v713h31v-413l401 413h39l-271 -279l283 -434h-37l-268 411l-147 -150v-261h-31z" />
    <glyph glyph-name="L" unicode="L" horiz-adv-x="545" 
d="M85 0v713h31v-685h390v-28h-421z" />
    <glyph glyph-name="M" unicode="M" horiz-adv-x="770" 
d="M85 0v713h40l261 -431h1l256 431h42v-713h-31v662h-3l-253 -421h-26l-253 421h-4v-662h-30z" />
    <glyph glyph-name="N" unicode="N" horiz-adv-x="658" 
d="M85 0v713h36l422 -655h2v655h29v-713h-31l-428 670h-1v-670h-29z" />
    <glyph glyph-name="O" unicode="O" 
d="M326 -13q-113 0 -185.5 60t-72.5 171v258q0 115 71 183.5t187 68.5q115 0 186 -61.5t71 -172.5v-255q0 -115 -71 -183.5t-186 -68.5zM326 15q102 0 163.5 60t61.5 158v260q0 95 -61.5 150t-168.5 55q-101 0 -160.5 -63t-59.5 -164v-242q0 -98 60.5 -156t164.5 -58z" />
    <glyph glyph-name="P" unicode="P" horiz-adv-x="581" 
d="M85 0v713h224q101 0 160 -58t59 -147q0 -97 -66 -154t-178 -57h-168v-297h-31zM116 324h155q107 0 165.5 46.5t58.5 137.5q0 77 -53 127.5t-136 50.5h-190v-362z" />
    <glyph glyph-name="Q" unicode="Q" 
d="M571 -114l-184 107q-29 -6 -61 -6q-113 0 -185.5 60t-72.5 171v258q0 115 71 183.5t187 68.5q115 0 186 -61.5t71 -172.5v-255q0 -88 -43 -150t-118 -85l171 -91zM326 15q102 0 163.5 60t61.5 158v260q0 95 -61.5 150t-168.5 55q-101 0 -160.5 -63t-59.5 -164v-242
q0 -98 60.5 -156t164.5 -58z" />
    <glyph glyph-name="R" unicode="R" horiz-adv-x="600" 
d="M85 0v713h225q104 0 165 -54t61 -147q0 -87 -52.5 -143t-153.5 -63l235 -306h-38l-233 305h-178v-305h-31zM116 332h174q212 0 212 180q0 84 -55.5 129t-156.5 45h-174v-354z" />
    <glyph glyph-name="S" unicode="S" horiz-adv-x="570" 
d="M293 -13q-97 0 -162 44t-86 121l30 9q23 -69 80.5 -107.5t141.5 -38.5q86 0 141 44.5t55 116.5q0 69 -31 104t-91 54l-148 47q-144 45 -144 173q0 75 60 124t150 49q158 0 219 -120l-26 -12q-59 104 -190 104q-73 0 -126.5 -37t-53.5 -104q0 -52 28 -89t102 -62l148 -46
q135 -40 135 -179q0 -87 -62 -141t-170 -54z" />
    <glyph glyph-name="T" unicode="T" horiz-adv-x="593" 
d="M282 0v685h-258v28h545v-28h-256v-685h-31z" />
    <glyph glyph-name="U" unicode="U" horiz-adv-x="657" 
d="M326 -13q-45 0 -86.5 12.5t-78.5 38.5t-59.5 73t-22.5 109v493h31v-480q0 -114 63 -166t157 -52q101 0 161 56.5t57 153.5v488h29v-492q2 -108 -67 -171t-184 -63z" />
    <glyph glyph-name="V" unicode="V" horiz-adv-x="570" 
d="M266 -4l-244 717h33l228 -680h2l233 680h31l-250 -717h-33z" />
    <glyph glyph-name="W" unicode="W" horiz-adv-x="846" 
d="M219 -4l-184 717h33l167 -674h1l171 674h34l168 -671h1l169 671h31l-185 -717h-33l-168 671h-2l-169 -671h-34z" />
    <glyph glyph-name="X" unicode="X" horiz-adv-x="535" 
d="M31 0l220 375l-196 338h37l179 -318l186 318h32l-201 -341l219 -372h-36l-203 348l-204 -348h-33z" />
    <glyph glyph-name="Y" unicode="Y" horiz-adv-x="558" 
d="M263 0v306l-223 407h37l203 -375l203 375h35l-224 -407v-306h-31z" />
    <glyph glyph-name="Z" unicode="Z" horiz-adv-x="520" 
d="M31 0v22l405 665h-392v26h429v-24l-402 -661h400v-28h-440z" />
    <glyph glyph-name="bracketleft" unicode="[" horiz-adv-x="359" 
d="M154 -190v962h171v-24h-141v-914h141v-24h-171z" />
    <glyph glyph-name="backslash" unicode="\" horiz-adv-x="335" 
d="M305 -114l-256 840h25l257 -840h-26z" />
    <glyph glyph-name="bracketright" unicode="]" horiz-adv-x="359" 
d="M34 -190v24h141v914h-141v24h170v-962h-170z" />
    <glyph glyph-name="asciicircum" unicode="^" horiz-adv-x="444" 
d="M117 194l93 372h34l83 -372h-31l-69 332l-79 -332h-31z" />
    <glyph glyph-name="underscore" unicode="_" horiz-adv-x="500" 
d="M0 -110v27h500v-27h-500z" />
    <glyph glyph-name="grave" unicode="`" horiz-adv-x="276" 
d="M142 571l-115 147h38l105 -147h-28z" />
    <glyph glyph-name="a" unicode="a" horiz-adv-x="487" 
d="M213 -12q-66 0 -112 36.5t-46 100.5q0 42 17.5 72t46.5 45.5t58.5 22.5t60.5 7h151v89q0 117 -141 117q-59 0 -101.5 -24.5t-42.5 -78.5v-16h-28v16q0 66 50.5 97.5t126.5 31.5q74 0 120 -31.5t46 -101.5v-239q0 -19 3 -73.5t3 -58.5h-29q-4 44 -4 93h-2
q-46 -105 -177 -105zM221 14q76 0 122 44t46 118v70h-141q-162 0 -162 -120q0 -54 40.5 -83t94.5 -29z" />
    <glyph glyph-name="b" unicode="b" horiz-adv-x="499" 
d="M271 -13q-55 0 -102 31.5t-60 88.5h-2v-107h-28v713h30v-324h3q22 57 69.5 86t99.5 29q75 0 119.5 -44t44.5 -114v-180q0 -91 -51 -135t-123 -44zM270 13q58 0 101 38t43 107v189q0 56 -38 93t-106 37q-62 0 -112 -53.5t-50 -137.5v-91q0 -80 47.5 -131t114.5 -51z" />
    <glyph glyph-name="c" unicode="c" horiz-adv-x="456" 
d="M238 -13q-91 0 -137 50.5t-46 145.5v123q0 92 48 145t134 53t130.5 -42t44.5 -107v-17h-29v23q0 43 -34 80t-110 37q-78 0 -116 -49t-38 -125v-121q0 -170 154 -170q76 0 110 37t34 80v23h29v-17q0 -65 -44 -107t-130 -42z" />
    <glyph glyph-name="d" unicode="d" horiz-adv-x="501" 
d="M219 -13q-76 0 -120 42.5t-44 111.5v184q0 91 51 135t122 44q55 0 101 -31.5t59 -88.5h3v329h30v-713h-28v116h-3q-27 -68 -73.5 -98.5t-97.5 -30.5zM229 14q62 0 112 55.5t50 139.5v87q0 80 -47.5 131t-113.5 51q-59 0 -102 -37.5t-43 -107.5v-185q0 -57 38.5 -95.5
t105.5 -38.5z" />
    <glyph glyph-name="e" unicode="e" horiz-adv-x="480" 
d="M250 -13q-93 0 -144 49t-51 148v112q0 98 54 153t142 55q83 0 131 -51t48 -143v-62h-345v-73q0 -75 44 -118.5t125 -43.5q85 0 142 63l21 -15q-57 -74 -167 -74zM85 272h315v42q0 69 -37.5 116.5t-118.5 47.5q-76 0 -117.5 -51.5t-41.5 -119.5v-35z" />
    <glyph glyph-name="f" unicode="f" horiz-adv-x="326" 
d="M142 0v465h-104v25h104v102q0 64 33 99.5t90 35.5q28 0 52 -7v-27q-20 6 -54 6q-41 0 -66 -25t-25 -78v-106h137v-25h-137v-465h-30z" />
    <glyph glyph-name="g" unicode="g" horiz-adv-x="498" 
d="M224 -203q-99 0 -160 68l24 17q52 -60 137 -60q75 0 120.5 44.5t45.5 121.5v130h-2q-25 -58 -71 -86t-100 -28q-76 0 -119.5 44t-43.5 114v170q0 83 52.5 127.5t119.5 44.5q49 0 97.5 -28t65.5 -88h1v103h29v-504q0 -86 -53.5 -138t-142.5 -52zM230 30q64 0 112.5 49.5
t48.5 139.5v87q0 78 -50 125t-111 47q-58 0 -101.5 -38t-43.5 -107v-170q0 -57 37.5 -95t107.5 -38z" />
    <glyph glyph-name="h" unicode="h" horiz-adv-x="512" 
d="M79 0v713h30v-331h2q25 59 74 90.5t108 31.5q70 0 107 -40.5t37 -99.5v-364h-30v338q0 139 -124 139q-65 0 -119.5 -51.5t-54.5 -125.5v-300h-30z" />
    <glyph glyph-name="i" unicode="i" horiz-adv-x="187" 
d="M79 0v491h30v-491h-30zM79 607v90h30v-90h-30z" />
    <glyph glyph-name="j" unicode="j" horiz-adv-x="212" 
d="M4 -210q-26 0 -35 1v27q11 -1 37 -1q54 0 75.5 29t21.5 83v562h30v-567q0 -134 -129 -134zM103 607v90h30v-90h-30z" />
    <glyph glyph-name="k" unicode="k" horiz-adv-x="451" 
d="M79 0v713h30v-502l260 280h38l-165 -178l185 -313h-34l-174 291l-110 -116v-175h-30z" />
    <glyph glyph-name="l" unicode="l" horiz-adv-x="280" 
d="M186 -4q-52 0 -79 30.5t-27 83.5v603h31v-609q0 -37 21.5 -59.5t62.5 -22.5q29 0 55 6v-25q-27 -7 -64 -7z" />
    <glyph glyph-name="m" unicode="m" horiz-adv-x="839" 
d="M79 0v491h28v-109h2q25 59 75 90.5t109 31.5q63 0 98.5 -35.5t41.5 -87.5h1q25 60 75.5 91.5t110.5 31.5q69 0 106.5 -40.5t37.5 -98.5v-365h-31v339q0 71 -33 104.5t-90 33.5q-64 0 -117.5 -49.5t-56.5 -119.5v-308h-30v345q-4 132 -124 132q-64 0 -118.5 -51
t-54.5 -125v-301h-30z" />
    <glyph glyph-name="n" unicode="n" horiz-adv-x="512" 
d="M79 0v491h28v-109h2q25 59 75 90.5t109 31.5q70 0 107 -40.5t37 -99.5v-364h-30v338q0 139 -124 139q-65 0 -119.5 -51.5t-54.5 -125.5v-300h-30z" />
    <glyph glyph-name="o" unicode="o" horiz-adv-x="486" 
d="M246 -13q-93 0 -142 47.5t-49 139.5v141q0 93 50.5 141t138.5 48q92 0 140 -48t48 -141v-139q0 -92 -49.5 -140.5t-136.5 -48.5zM246 13q82 0 118.5 42.5t36.5 123.5v138q0 73 -38 117t-120 44q-81 0 -119.5 -44.5t-38.5 -121.5v-136q0 -163 161 -163z" />
    <glyph glyph-name="p" unicode="p" horiz-adv-x="499" 
d="M79 -194v685h28v-102h3q22 57 70.5 86t100.5 29q76 0 120 -42.5t44 -111.5v-184q0 -91 -51 -135t-122 -44q-55 0 -101 31.5t-60 88.5h-2v-301h-30zM270 13q58 0 101 38t43 107v185q0 57 -38 95.5t-106 38.5q-63 0 -112.5 -52t-49.5 -135v-95q0 -80 47.5 -131t114.5 -51z
" />
    <glyph glyph-name="q" unicode="q" horiz-adv-x="499" 
d="M391 -194v301h-3q-54 -120 -169 -120q-76 0 -120 42.5t-44 111.5v184q0 91 51 135t122 44q55 0 102 -31.5t60 -88.5h2v107h29v-685h-30zM229 14q62 0 112 55.5t50 139.5v87q0 80 -47.5 131t-113.5 51q-59 0 -102 -37.5t-43 -107.5v-185q0 -57 38.5 -95.5t105.5 -38.5z
" />
    <glyph glyph-name="r" unicode="r" horiz-adv-x="346" 
d="M78 0v491h29v-122h1q50 128 194 128q15 0 31 -2v-29q-17 2 -45 2q-76 0 -126.5 -51.5t-53.5 -140.5v-276h-30z" />
    <glyph glyph-name="s" unicode="s" horiz-adv-x="443" 
d="M221 -13q-116 0 -181 62l21 20q67 -55 161 -55q56 0 98.5 31t42.5 82q0 50 -27.5 73t-84.5 35l-49 11q-142 28 -142 125q0 56 41.5 94.5t119.5 38.5q97 0 149 -42l-19 -19q-57 36 -134 36q-55 0 -90.5 -29.5t-35.5 -72.5t28.5 -66.5t91.5 -37.5l72 -16q111 -29 111 -119
q0 -71 -51 -111t-122 -40z" />
    <glyph glyph-name="t" unicode="t" horiz-adv-x="363" 
d="M238 -9q-110 0 -110 99v375h-104v25h104v158h30v-158h165v-25h-165v-365q0 -45 22 -63.5t69 -18.5q29 0 83 13v-25q-39 -15 -94 -15z" />
    <glyph glyph-name="u" unicode="u" horiz-adv-x="511" 
d="M218 -13q-70 0 -107 41t-37 106v357h31v-346q0 -71 32.5 -101t91.5 -30q65 0 119.5 52.5t54.5 126.5v298h30v-491h-28v110h-2q-25 -59 -75.5 -91t-109.5 -32z" />
    <glyph glyph-name="v" unicode="v" horiz-adv-x="454" 
d="M208 -2l-179 493h33l162 -457h1l170 457h29l-184 -493h-32z" />
    <glyph glyph-name="w" unicode="w" horiz-adv-x="732" 
d="M187 -2l-154 493h33l137 -455h1l146 455h34l139 -455h1l145 455h30l-161 -493h-31l-140 456h-2l-146 -456h-32z" />
    <glyph glyph-name="x" unicode="x" horiz-adv-x="428" 
d="M21 0l175 258l-159 233h35l144 -214l145 214h33l-159 -233l172 -258h-33l-161 237l-159 -237h-33z" />
    <glyph glyph-name="y" unicode="y" horiz-adv-x="460" 
d="M68 -204q-29 0 -60 8v27q28 -9 65 -9q77 0 108 81l41 107l-189 481h33l170 -441h1l162 441h30l-216 -581q-38 -114 -145 -114z" />
    <glyph glyph-name="z" unicode="z" horiz-adv-x="432" 
d="M42 0v20l306 446h-297v25h335v-22l-306 -445h307v-24h-345z" />
    <glyph glyph-name="braceleft" unicode="{" horiz-adv-x="320" 
d="M153 -184q-20 0 -32.5 11.5t-12.5 32.5v387q0 40 -44 46v22q44 10 44 44v310q0 21 12.5 32.5t32.5 11.5h125v-24h-124q-17 0 -17 -20v-311q0 -36 -37 -52v-2q37 -16 37 -55v-389q0 -20 17 -20h124v-24h-125z" />
    <glyph glyph-name="bar" unicode="|" horiz-adv-x="324" 
d="M148 -53v778h28v-778h-28z" />
    <glyph glyph-name="braceright" unicode="}" horiz-adv-x="320" 
d="M42 -184v24h125q16 0 16 20v389q0 38 37 55v2q-37 16 -37 52v311q0 20 -16 20h-125v24h125q20 0 33 -11.5t13 -32.5v-310q0 -34 44 -44v-22q-44 -6 -44 -46v-387q0 -21 -13 -32.5t-33 -11.5h-125z" />
    <glyph glyph-name="asciitilde" unicode="~" horiz-adv-x="566" 
d="M66 279l-21 3q5 31 24 51.5t50 20.5q27 0 162.5 -21t164.5 -21q22 0 33.5 13t20.5 39l21 -4q-9 -33 -28.5 -53.5t-47.5 -20.5q-29 0 -167 21.5t-162 21.5q-17 0 -28 -9.5t-14 -16.5t-8 -24z" />
    <glyph glyph-name="nbspace" unicode="&#xa0;" horiz-adv-x="232" 
 />
    <glyph glyph-name="exclamdown" unicode="&#xa1;" horiz-adv-x="270" 
d="M119 -186v227l4 302h23l4 -302v-227h-31zM118 441v87h35v-87h-35z" />
    <glyph glyph-name="cent" unicode="&#xa2;" horiz-adv-x="510" 
d="M251 -88v109q-171 4 -171 192v130q0 88 44.5 139.5t126.5 54.5v110h27v-110q77 -4 116.5 -44.5t39.5 -101.5v-19h-29v25q0 42 -33.5 78.5t-108.5 36.5q-78 0 -115.5 -48.5t-37.5 -124.5v-124q0 -169 152 -169q75 0 109 36.5t34 78.5v25h29v-19q0 -61 -39.5 -101.5
t-116.5 -44.5v-109h-27z" />
    <glyph glyph-name="sterling" unicode="&#xa3;" horiz-adv-x="562" 
d="M64 0v28h85v325h-81v24h81v167q0 94 50 138t130 44t123 -38.5t43 -111.5v-22h-30v30q0 59 -38 87t-101 28q-65 0 -106 -36t-41 -113v-173h234v-24h-234v-325h335l-10 -28h-440z" />
    <glyph glyph-name="currency" unicode="&#xa4;" horiz-adv-x="312" 
d="M58 221l-26 27l31 31q-24 33 -24 70q0 36 23 67l-30 30l26 27l30 -30q33 22 66 22q39 0 70 -22l30 30l26 -26l-30 -30q24 -34 24 -70t-25 -69l31 -30l-26 -26l-31 30q-29 -20 -66 -20q-38 0 -69 20zM155 265q37 0 58.5 22.5t21.5 61.5q0 37 -23.5 60t-54.5 23
q-37 0 -58.5 -22.5t-21.5 -63.5q0 -33 22 -57t56 -24z" />
    <glyph glyph-name="yen" unicode="&#xa5;" horiz-adv-x="565" 
d="M263 0v291h-228v25h225l-220 397h37l203 -371l203 371h35l-221 -397h230v-25h-233v-291h-31z" />
    <glyph glyph-name="brokenbar" unicode="&#xa6;" horiz-adv-x="455" 
d="M214 -51v370h27v-370h-27zM214 387v327h27v-327h-27z" />
    <glyph glyph-name="section" unicode="&#xa7;" horiz-adv-x="581" 
d="M299 -91q-48 0 -88.5 12t-70 43.5t-29.5 77.5v24h26v-16q0 -56 45.5 -85t118.5 -29q72 0 115.5 31t43.5 85q0 25 -9 43t-24 29t-32.5 18.5t-36.5 14.5q-3 1 -5.5 1.5t-4.5 1.5l-96 31q-121 37 -121 128q0 40 26 77t80 60q-59 25 -82.5 53.5t-23.5 72.5q0 55 44 93.5
t130 38.5q83 0 128 -35t45 -97v-21h-26v20q0 51 -38.5 80t-107.5 29q-65 0 -105.5 -28t-40.5 -81q0 -68 96 -103q1 -1 50 -21t50 -20q58 -21 93 -50t35 -76q0 -91 -108 -133q57 -16 86.5 -48t27.5 -75q0 -65 -52 -105.5t-139 -40.5zM345 189q51 15 81 46t30 75q0 20 -9 36.5
t-26 28.5t-30.5 19t-33.5 15l-94 35q-41 -15 -71.5 -48t-30.5 -74q0 -39 29 -65.5t67 -38.5z" />
    <glyph glyph-name="dieresis" unicode="&#xa8;" horiz-adv-x="390" 
d="M88 577v79h31v-79h-31zM273 577v79h32v-79h-32z" />
    <glyph glyph-name="copyright" unicode="&#xa9;" horiz-adv-x="936" 
d="M467 68q-192 0 -192 203v136q0 95 50.5 149.5t141.5 54.5t137 -43t46 -110v-20h-29v25q0 45 -35 83.5t-117 38.5q-84 0 -123.5 -51.5t-39.5 -130.5v-131q0 -178 162 -178q43 0 75 12.5t48 32.5t23 39.5t7 37.5v26h29v-20q0 -68 -46 -111t-137 -43zM466 -64
q-187 0 -293 113t-106 298q0 171 112 289.5t287 118.5q181 0 292 -117.5t111 -290.5q0 -175 -109 -293t-294 -118zM471 -42q161 0 266.5 107.5t105.5 281.5q0 179 -109.5 281t-267.5 102q-157 0 -264.5 -104.5t-107.5 -278.5q0 -182 105 -285.5t272 -103.5z" />
    <glyph glyph-name="ordfeminine" unicode="&#xaa;" horiz-adv-x="368" 
d="M165 386q-42 0 -72.5 23.5t-30.5 64.5q0 29 12.5 49.5t33 30.5t40 14t39.5 4h85v53q0 75 -83 75q-35 0 -61 -16t-26 -48v-11h-25v10q0 43 33.5 64.5t83.5 21.5q47 0 77 -21.5t30 -66.5v-160q0 -51 3 -79h-27l-3 55q-32 -63 -109 -63zM171 409q43 0 72 26t29 70v46h-81
q-100 0 -100 -74q0 -32 24 -50t56 -18zM78 310v26h228v-26h-228z" />
    <glyph glyph-name="guillemotleft" unicode="&#xab;" horiz-adv-x="543" 
d="M242 91l-178 178l176 178l20 -18l-149 -160l150 -160zM460 91l-177 178l175 178l20 -18l-148 -160l149 -160z" />
    <glyph glyph-name="logicalnot" unicode="&#xac;" horiz-adv-x="576" 
d="M493 69v207h-457v24h482v-231h-25z" />
    <glyph glyph-name="registered" unicode="&#xae;" horiz-adv-x="520" 
d="M192 397v264h91q40 0 64.5 -20.5t24.5 -55.5q0 -32 -18.5 -53t-54.5 -25q37 -51 85 -110h-27l-84 109h-57v-109h-24zM270 318q-96 0 -152.5 60t-56.5 150q0 92 58.5 152t150.5 60q95 0 153 -59t58 -153q0 -88 -59 -149t-152 -61zM270 340q76 0 132.5 52t56.5 136
q0 86 -55 139t-134 53t-133 -52.5t-54 -139.5q0 -85 55.5 -136.5t131.5 -51.5zM216 526h59q72 0 72 58q0 56 -73 56h-58v-114z" />
    <glyph glyph-name="macron" unicode="&#xaf;" horiz-adv-x="402" 
d="M77 605v28h247v-28h-247z" />
    <glyph glyph-name="degree" unicode="&#xb0;" horiz-adv-x="369" 
d="M184 519q-43 0 -72.5 29t-29.5 72q0 42 30 72.5t72 30.5q43 0 73 -30t30 -73t-29.5 -72t-73.5 -29zM184 537q35 0 60 24t25 59t-25 60t-60 25t-59 -25t-24 -60t24 -59t59 -24z" />
    <glyph glyph-name="plusminus" unicode="&#xb1;" horiz-adv-x="566" 
d="M48 27v24h469v-24h-469zM271 157v224h-224v23h224v224h25v-224h222v-23h-222v-224h-25z" />
    <glyph glyph-name="twosuperior" unicode="&#xb2;" horiz-adv-x="341" 
d="M63 380v17l99 108q85 98 85 177v3q0 36 -21.5 58t-62.5 22q-37 0 -60.5 -18t-23.5 -51v-16h-24v15q0 44 30.5 68t80.5 24q53 0 80.5 -28t27.5 -74q0 -54 -25.5 -100.5t-77.5 -105.5l-72 -75v-2h187v-22h-223z" />
    <glyph glyph-name="threesuperior" unicode="&#xb3;" horiz-adv-x="342" 
d="M167 367q-56 0 -86 25.5t-30 58.5v19h25v-15q0 -32 28 -49t65 -17q39 0 67 24.5t28 66.5q0 27 -11 46.5t-28 28.5t-31.5 12.5t-26.5 3.5h-44v21h45q38 0 60.5 22.5t22.5 63.5q0 42 -24 62t-59 20q-37 0 -63 -17.5t-26 -54.5v-11h-24v15q0 40 31 64.5t83 24.5q55 0 81 -30
t26 -68q0 -83 -70 -99v-1q37 -9 61 -35t24 -65q0 -52 -35 -84t-89 -32z" />
    <glyph glyph-name="acute" unicode="&#xb4;" horiz-adv-x="276" 
d="M91 571l105 147h38l-115 -147h-28z" />
    <glyph glyph-name="mu" unicode="&#xb5;" horiz-adv-x="485" 
d="M81 -178v679h40v-372q0 -55 30 -80t79 -25q53 0 93.5 44t40.5 106v327h40v-373q0 -64 49 -84v-46q-34 13 -55 38t-25 55q-45 -103 -151 -103q-77 0 -110 60h-2l16 -223z" />
    <glyph glyph-name="paragraph" unicode="&#xb6;" horiz-adv-x="621" 
d="M265 -90v329q-96 5 -142.5 71t-46.5 164q0 95 54.5 167t139.5 72h292v-26h-94v-777h-25v777h-154v-777h-24z" />
    <glyph glyph-name="periodcentered" unicode="&#xb7;" horiz-adv-x="185" 
d="M75 378v87h36v-87h-36z" />
    <glyph glyph-name="periodcentered" unicode="&#x22c5;" horiz-adv-x="185" 
d="M75 378v87h36v-87h-36z" />
    <glyph glyph-name="cedilla" unicode="&#xb8;" horiz-adv-x="275" 
d="M124 -199q-55 0 -99 20v22q48 -19 99 -19q75 0 75 51q0 46 -86 47h-21l14 84h22l-12 -64q110 0 110 -65q0 -34 -25.5 -55t-76.5 -21z" />
    <glyph glyph-name="onesuperior" unicode="&#xb9;" horiz-adv-x="305" 
d="M43 380v20h104v352l-95 -19l-3 18l110 26h14v-377h97v-20h-227z" />
    <glyph glyph-name="ordmasculine" unicode="&#xba;" horiz-adv-x="368" 
d="M185 387q-119 0 -119 121v83q0 60 31.5 91t87.5 31q119 0 119 -122v-83q0 -58 -31.5 -89.5t-87.5 -31.5zM185 409q91 0 91 101v83q0 97 -91 97q-92 0 -92 -100v-81q0 -100 92 -100zM71 310v26h228v-26h-228z" />
    <glyph glyph-name="guillemotright" unicode="&#xbb;" horiz-adv-x="543" 
d="M84 91l-19 18l148 160l-149 160l18 18l178 -178zM303 91l-20 18l148 160l-149 160l19 18l177 -178z" />
    <glyph glyph-name="onequarter" unicode="&#xbc;" horiz-adv-x="803" 
d="M43 317v20h104v352l-95 -19l-3 18l110 26h14v-377h97v-20h-227zM655 0v116h-177v20l168 263h30l-171 -262h150v102l25 18v-120h61v-21h-61v-116h-25zM190 -2l394 716h25l-392 -716h-27z" />
    <glyph glyph-name="onehalf" unicode="&#xbd;" horiz-adv-x="803" 
d="M43 317v20h104v352l-95 -19l-3 18l110 26h14v-377h97v-20h-227zM504 0v17l99 108q85 98 85 177v3q0 36 -21.5 58t-62.5 22q-37 0 -60.5 -18t-23.5 -51v-16h-24v15q0 44 30.5 68t80.5 24q53 0 80.5 -28t27.5 -74q0 -54 -25.5 -100.5t-77.5 -105.5l-72 -75v-2h187v-22h-223
zM190 -2l394 716h25l-392 -716h-27z" />
    <glyph glyph-name="threequarters" unicode="&#xbe;" horiz-adv-x="803" 
d="M655 0v116h-177v20l168 263h30l-171 -262h150v102l25 18v-120h61v-21h-61v-116h-25zM167 304q-56 0 -86 25.5t-30 58.5v19h25v-15q0 -32 28 -49t65 -17q39 0 67 24.5t28 66.5q0 27 -11 46.5t-28 28.5t-31.5 12.5t-26.5 3.5h-44v21h45q38 0 60.5 22.5t22.5 63.5
q0 42 -24 62t-59 20q-37 0 -63 -17.5t-26 -54.5v-11h-24v15q0 40 31 64.5t83 24.5q55 0 81 -30t26 -68q0 -83 -70 -99v-1q37 -9 61 -35t24 -65q0 -52 -35 -84t-89 -32zM191 -2l394 716h25l-392 -716h-27z" />
    <glyph glyph-name="questiondown" unicode="&#xbf;" horiz-adv-x="512" 
d="M257 -198q-84 0 -133.5 42t-49.5 121q0 33 8.5 62.5t28.5 57t34 43.5t41 42q23 23 35.5 38t24.5 39.5t14 51.5v45h31v-46q-3 -33 -18 -63t-29.5 -46.5t-43.5 -45.5q-49 -49 -71.5 -86t-22.5 -90q0 -71 41.5 -105.5t113.5 -34.5q60 0 107 32t47 101v25h30v-20
q0 -80 -53 -121.5t-135 -41.5zM258 441v87h36v-87h-36z" />
    <glyph glyph-name="Agrave" unicode="&#xc0;" horiz-adv-x="642" 
d="M41 0l267 717h32l262 -717h-33l-94 257h-309l-94 -257h-31zM175 284h291l-143 396h-1zM310 791l-115 147h38l105 -147h-28z" />
    <glyph glyph-name="Aacute" unicode="&#xc1;" horiz-adv-x="642" 
d="M41 0l267 717h32l262 -717h-33l-94 257h-309l-94 -257h-31zM175 284h291l-143 396h-1zM308 791l105 147h38l-115 -147h-28z" />
    <glyph glyph-name="Acircumflex" unicode="&#xc2;" horiz-adv-x="642" 
d="M41 0l267 717h32l262 -717h-33l-94 257h-309l-94 -257h-31zM175 284h291l-143 396h-1zM218 787l89 147h32l84 -147h-31l-69 123l-73 -123h-32z" />
    <glyph glyph-name="Atilde" unicode="&#xc3;" horiz-adv-x="642" 
d="M41 0l267 717h32l262 -717h-33l-94 257h-309l-94 -257h-31zM175 284h291l-143 396h-1zM195 797l-24 4q5 30 25.5 51t50.5 21q28 0 76 -19.5t71 -19.5q22 0 34 12t20 37l23 -5q-8 -34 -29 -53t-49 -19q-26 0 -75 20t-73 20q-34 0 -50 -49z" />
    <glyph glyph-name="Adieresis" unicode="&#xc4;" horiz-adv-x="642" 
d="M41 0l267 717h32l262 -717h-33l-94 257h-309l-94 -257h-31zM175 284h291l-143 396h-1zM212 797v79h31v-79h-31zM397 797v79h32v-79h-32z" />
    <glyph glyph-name="Aring" unicode="&#xc5;" horiz-adv-x="642" 
d="M41 0l267 717h32l262 -717h-33l-94 257h-309l-94 -257h-31zM175 284h291l-143 396h-1zM321 776q-39 0 -59.5 23.5t-20.5 55.5q0 34 22 58.5t56 24.5q40 0 61 -22t21 -57t-22.5 -59t-57.5 -24zM321 794q25 0 42.5 16.5t17.5 46.5q0 29 -17 45.5t-45 16.5q-26 0 -41.5 -17
t-15.5 -47q0 -31 17.5 -46t41.5 -15z" />
    <glyph glyph-name="AE" unicode="&#xc6;" horiz-adv-x="948" 
d="M27 0l421 713h442v-28h-392v-299h315v-28h-315v-330h392v-28h-423v228h-271l-134 -228h-35zM212 255h255v433z" />
    <glyph glyph-name="Ccedilla" unicode="&#xc7;" horiz-adv-x="620" 
d="M331 -199q-55 0 -99 20v22q48 -19 99 -19q75 0 75 51q0 46 -86 47h-21l11 65q-110 5 -176 64t-66 167v267q0 104 72 173.5t186 69.5q107 0 172.5 -56.5t65.5 -138.5v-47h-30v38q0 77 -55 125.5t-158 48.5q-100 0 -160 -61.5t-60 -155.5v-252q0 -98 60.5 -156t164.5 -58
q102 0 155 48.5t53 126.5v21h30v-31q0 -85 -63 -138.5t-170 -54.5l-8 -45q110 0 110 -65q0 -34 -25.5 -55t-76.5 -21z" />
    <glyph glyph-name="Egrave" unicode="&#xc8;" horiz-adv-x="567" 
d="M85 0v713h423v-28h-392v-300h315v-28h-315v-329h392v-28h-423zM296 791l-115 147h38l105 -147h-28z" />
    <glyph glyph-name="Eacute" unicode="&#xc9;" horiz-adv-x="567" 
d="M218 791l105 147h38l-115 -147h-28zM85 0v713h423v-28h-392v-300h315v-28h-315v-329h392v-28h-423z" />
    <glyph glyph-name="Ecircumflex" unicode="&#xca;" horiz-adv-x="567" 
d="M192 787l89 147h32l84 -147h-31l-69 123l-73 -123h-32zM85 0v713h423v-28h-392v-300h315v-28h-315v-329h392v-28h-423z" />
    <glyph glyph-name="Edieresis" unicode="&#xcb;" horiz-adv-x="567" 
d="M192 797v79h31v-79h-31zM377 797v79h32v-79h-32zM85 0v713h423v-28h-392v-300h315v-28h-315v-329h392v-28h-423z" />
    <glyph glyph-name="Igrave" unicode="&#xcc;" horiz-adv-x="201" 
d="M85 0v713h31v-713h-31zM85 791l-115 147h38l105 -147h-28z" />
    <glyph glyph-name="Iacute" unicode="&#xcd;" horiz-adv-x="201" 
d="M85 0v713h31v-713h-31zM88 791l105 147h38l-115 -147h-28z" />
    <glyph glyph-name="Icircumflex" unicode="&#xce;" horiz-adv-x="201" 
d="M85 0v713h31v-713h-31zM-1 787l89 147h32l84 -147h-31l-69 123l-73 -123h-32z" />
    <glyph glyph-name="Idieresis" unicode="&#xcf;" horiz-adv-x="201" 
d="M85 0v713h31v-713h-31zM-8 797v79h31v-79h-31zM177 797v79h32v-79h-32z" />
    <glyph glyph-name="Eth" unicode="&#xd0;" horiz-adv-x="667" 
d="M32 364v25h79v324h253q108 0 171 -57t63 -164v-263q0 -106 -64 -167.5t-170 -61.5h-253v364h-79zM142 28h218q102 0 154 58t52 139v260q0 89 -52 144.5t-154 55.5h-218v-296h243v-25h-243v-336z" />
    <glyph glyph-name="Ntilde" unicode="&#xd1;" horiz-adv-x="658" 
d="M85 0v713h36l422 -655h2v655h29v-713h-31l-428 670h-1v-670h-29zM203 797l-24 4q5 30 25.5 51t50.5 21q28 0 76 -19.5t71 -19.5q22 0 34 12t20 37l23 -5q-8 -34 -29 -53t-49 -19q-26 0 -75 20t-73 20q-34 0 -50 -49z" />
    <glyph glyph-name="Ograve" unicode="&#xd2;" 
d="M326 -13q-113 0 -185.5 60t-72.5 171v258q0 115 71 183.5t187 68.5q115 0 186 -61.5t71 -172.5v-255q0 -115 -71 -183.5t-186 -68.5zM326 15q102 0 163.5 60t61.5 158v260q0 95 -61.5 150t-168.5 55q-101 0 -160.5 -63t-59.5 -164v-242q0 -98 60.5 -156t164.5 -58z
M322 791l-115 147h38l105 -147h-28z" />
    <glyph glyph-name="Oacute" unicode="&#xd3;" 
d="M311 791l105 147h38l-115 -147h-28zM326 -13q-113 0 -185.5 60t-72.5 171v258q0 115 71 183.5t187 68.5q115 0 186 -61.5t71 -172.5v-255q0 -115 -71 -183.5t-186 -68.5zM326 15q102 0 163.5 60t61.5 158v260q0 95 -61.5 150t-168.5 55q-101 0 -160.5 -63t-59.5 -164
v-242q0 -98 60.5 -156t164.5 -58z" />
    <glyph glyph-name="Ocircumflex" unicode="&#xd4;" 
d="M222 787l89 147h32l84 -147h-31l-69 123l-73 -123h-32zM326 -13q-113 0 -185.5 60t-72.5 171v258q0 115 71 183.5t187 68.5q115 0 186 -61.5t71 -172.5v-255q0 -115 -71 -183.5t-186 -68.5zM326 15q102 0 163.5 60t61.5 158v260q0 95 -61.5 150t-168.5 55
q-101 0 -160.5 -63t-59.5 -164v-242q0 -98 60.5 -156t164.5 -58z" />
    <glyph glyph-name="Otilde" unicode="&#xd5;" 
d="M326 -13q-113 0 -185.5 60t-72.5 171v258q0 115 71 183.5t187 68.5q115 0 186 -61.5t71 -172.5v-255q0 -115 -71 -183.5t-186 -68.5zM326 15q102 0 163.5 60t61.5 158v260q0 95 -61.5 150t-168.5 55q-101 0 -160.5 -63t-59.5 -164v-242q0 -98 60.5 -156t164.5 -58z
M199 797l-24 4q5 30 25.5 51t50.5 21q28 0 76 -19.5t71 -19.5q22 0 34 12t20 37l23 -5q-8 -34 -29 -53t-49 -19q-26 0 -75 20t-73 20q-34 0 -50 -49z" />
    <glyph glyph-name="Odieresis" unicode="&#xd6;" 
d="M217 797v79h31v-79h-31zM402 797v79h32v-79h-32zM326 -13q-113 0 -185.5 60t-72.5 171v258q0 115 71 183.5t187 68.5q115 0 186 -61.5t71 -172.5v-255q0 -115 -71 -183.5t-186 -68.5zM326 15q102 0 163.5 60t61.5 158v260q0 95 -61.5 150t-168.5 55q-101 0 -160.5 -63
t-59.5 -164v-242q0 -98 60.5 -156t164.5 -58z" />
    <glyph glyph-name="multiply" unicode="&#xd7;" horiz-adv-x="560" 
d="M93 113l-17 17l187 187l-187 187l18 17l186 -186l185 185l18 -17l-185 -186l185 -184l-17 -18l-186 185z" />
    <glyph glyph-name="Oslash" unicode="&#xd8;" 
d="M114 -37l-22 12l44 76q-68 60 -68 167v258q0 115 71 183.5t187 68.5q106 0 173 -51l38 66l23 -12l-41 -71q64 -62 64 -166v-255q0 -115 -71 -183.5t-186 -68.5q-102 0 -170 48zM101 229q0 -93 52 -148l329 568q-62 49 -161 49q-101 0 -160.5 -63t-59.5 -164v-242zM326 15
q102 0 163.5 60t61.5 158v260q0 84 -49 138l-330 -568q59 -48 154 -48z" />
    <glyph glyph-name="Ugrave" unicode="&#xd9;" horiz-adv-x="657" 
d="M326 -13q-45 0 -86.5 12.5t-78.5 38.5t-59.5 73t-22.5 109v493h31v-480q0 -114 63 -166t157 -52q101 0 161 56.5t57 153.5v488h29v-492q2 -108 -67 -171t-184 -63zM335 791l-115 147h38l105 -147h-28z" />
    <glyph glyph-name="Uacute" unicode="&#xda;" horiz-adv-x="657" 
d="M315 791l105 147h38l-115 -147h-28zM326 -13q-45 0 -86.5 12.5t-78.5 38.5t-59.5 73t-22.5 109v493h31v-480q0 -114 63 -166t157 -52q101 0 161 56.5t57 153.5v488h29v-492q2 -108 -67 -171t-184 -63z" />
    <glyph glyph-name="Ucircumflex" unicode="&#xdb;" horiz-adv-x="657" 
d="M225 787l89 147h32l84 -147h-31l-69 123l-73 -123h-32zM326 -13q-45 0 -86.5 12.5t-78.5 38.5t-59.5 73t-22.5 109v493h31v-480q0 -114 63 -166t157 -52q101 0 161 56.5t57 153.5v488h29v-492q2 -108 -67 -171t-184 -63z" />
    <glyph glyph-name="Udieresis" unicode="&#xdc;" horiz-adv-x="657" 
d="M221 797v79h31v-79h-31zM406 797v79h32v-79h-32zM326 -13q-45 0 -86.5 12.5t-78.5 38.5t-59.5 73t-22.5 109v493h31v-480q0 -114 63 -166t157 -52q101 0 161 56.5t57 153.5v488h29v-492q2 -108 -67 -171t-184 -63z" />
    <glyph glyph-name="Yacute" unicode="&#xdd;" horiz-adv-x="558" 
d="M263 0v306l-223 407h37l203 -375l203 375h35l-224 -407v-306h-31zM267 791l105 147h38l-115 -147h-28z" />
    <glyph glyph-name="Thorn" unicode="&#xde;" horiz-adv-x="590" 
d="M85 0v713h31v-136h193q101 0 160 -58t59 -147q0 -97 -66 -154t-178 -57h-168v-161h-31zM116 188h155q107 0 165.5 46.5t58.5 137.5q0 77 -53 127.5t-136 50.5h-190v-362z" />
    <glyph glyph-name="germandbls" unicode="&#xdf;" horiz-adv-x="637" 
d="M392 -9q-74 0 -113 12l2 26q57 -12 108 -12q71 0 119 43t48 113q0 47 -22 82.5t-57 54.5t-71 28t-70 9v24h25q74 26 112 75.5t38 107.5q0 70 -45 108.5t-121 38.5q-80 0 -126.5 -47.5t-46.5 -104.5v-549h-31v465h-103v25h103v50q0 85 59 136t148 51q92 0 142.5 -47.5
t50.5 -121.5q0 -62 -34.5 -114.5t-106.5 -79.5v-1q98 -16 143 -69.5t45 -118.5q0 -82 -56 -133.5t-140 -50.5z" />
    <glyph glyph-name="agrave" unicode="&#xe0;" horiz-adv-x="487" 
d="M213 -12q-66 0 -112 36.5t-46 100.5q0 42 17.5 72t46.5 45.5t58.5 22.5t60.5 7h151v89q0 117 -141 117q-59 0 -101.5 -24.5t-42.5 -78.5v-16h-28v16q0 66 50.5 97.5t126.5 31.5q74 0 120 -31.5t46 -101.5v-239q0 -19 3 -73.5t3 -58.5h-29q-4 44 -4 93h-2
q-46 -105 -177 -105zM221 14q76 0 122 44t46 118v70h-141q-162 0 -162 -120q0 -54 40.5 -83t94.5 -29zM247 571l-115 147h38l105 -147h-28z" />
    <glyph glyph-name="aacute" unicode="&#xe1;" horiz-adv-x="487" 
d="M213 -12q-66 0 -112 36.5t-46 100.5q0 42 17.5 72t46.5 45.5t58.5 22.5t60.5 7h151v89q0 117 -141 117q-59 0 -101.5 -24.5t-42.5 -78.5v-16h-28v16q0 66 50.5 97.5t126.5 31.5q74 0 120 -31.5t46 -101.5v-239q0 -19 3 -73.5t3 -58.5h-29q-4 44 -4 93h-2
q-46 -105 -177 -105zM221 14q76 0 122 44t46 118v70h-141q-162 0 -162 -120q0 -54 40.5 -83t94.5 -29zM236 571l105 147h38l-115 -147h-28z" />
    <glyph glyph-name="acircumflex" unicode="&#xe2;" horiz-adv-x="487" 
d="M213 -12q-66 0 -112 36.5t-46 100.5q0 42 17.5 72t46.5 45.5t58.5 22.5t60.5 7h151v89q0 117 -141 117q-59 0 -101.5 -24.5t-42.5 -78.5v-16h-28v16q0 66 50.5 97.5t126.5 31.5q74 0 120 -31.5t46 -101.5v-239q0 -19 3 -73.5t3 -58.5h-29q-4 44 -4 93h-2
q-46 -105 -177 -105zM221 14q76 0 122 44t46 118v70h-141q-162 0 -162 -120q0 -54 40.5 -83t94.5 -29zM140 567l89 147h32l84 -147h-31l-69 123l-73 -123h-32z" />
    <glyph glyph-name="atilde" unicode="&#xe3;" horiz-adv-x="487" 
d="M213 -12q-66 0 -112 36.5t-46 100.5q0 42 17.5 72t46.5 45.5t58.5 22.5t60.5 7h151v89q0 117 -141 117q-59 0 -101.5 -24.5t-42.5 -78.5v-16h-28v16q0 66 50.5 97.5t126.5 31.5q74 0 120 -31.5t46 -101.5v-239q0 -19 3 -73.5t3 -58.5h-29q-4 44 -4 93h-2
q-46 -105 -177 -105zM221 14q76 0 122 44t46 118v70h-141q-162 0 -162 -120q0 -54 40.5 -83t94.5 -29zM118 577l-24 4q5 30 25.5 51t50.5 21q28 0 76 -19.5t71 -19.5q22 0 34 12t20 37l23 -5q-8 -34 -29 -53t-49 -19q-26 0 -75 20t-73 20q-34 0 -50 -49z" />
    <glyph glyph-name="adieresis" unicode="&#xe4;" horiz-adv-x="487" 
d="M213 -12q-66 0 -112 36.5t-46 100.5q0 42 17.5 72t46.5 45.5t58.5 22.5t60.5 7h151v89q0 117 -141 117q-59 0 -101.5 -24.5t-42.5 -78.5v-16h-28v16q0 66 50.5 97.5t126.5 31.5q74 0 120 -31.5t46 -101.5v-239q0 -19 3 -73.5t3 -58.5h-29q-4 44 -4 93h-2
q-46 -105 -177 -105zM221 14q76 0 122 44t46 118v70h-141q-162 0 -162 -120q0 -54 40.5 -83t94.5 -29zM134 577v79h31v-79h-31zM319 577v79h32v-79h-32z" />
    <glyph glyph-name="aring" unicode="&#xe5;" horiz-adv-x="487" 
d="M213 -12q-66 0 -112 36.5t-46 100.5q0 42 17.5 72t46.5 45.5t58.5 22.5t60.5 7h151v89q0 117 -141 117q-59 0 -101.5 -24.5t-42.5 -78.5v-16h-28v16q0 66 50.5 97.5t126.5 31.5q74 0 120 -31.5t46 -101.5v-239q0 -19 3 -73.5t3 -58.5h-29q-4 44 -4 93h-2
q-46 -105 -177 -105zM221 14q76 0 122 44t46 118v70h-141q-162 0 -162 -120q0 -54 40.5 -83t94.5 -29zM243 556q-39 0 -59.5 23.5t-20.5 55.5q0 34 22 58.5t56 24.5q40 0 61 -22t21 -57t-22.5 -59t-57.5 -24zM243 574q25 0 42.5 16.5t17.5 46.5q0 29 -17 45.5t-45 16.5
q-26 0 -41.5 -17t-15.5 -47q0 -31 17.5 -46t41.5 -15z" />
    <glyph glyph-name="ae" unicode="&#xe6;" horiz-adv-x="814" 
d="M584 -13q-150 0 -185 121q-45 -120 -186 -120q-66 0 -112 36.5t-46 100.5q0 42 17.5 72t46.5 45.5t58.5 22.5t60.5 7h151v89q0 117 -141 117q-59 0 -101.5 -24.5t-42.5 -78.5v-16h-28v16q0 66 50.5 97.5t126.5 31.5q63 0 106.5 -24.5t53.5 -76.5q23 49 68 75t104 26
q83 0 131 -51t48 -143v-62h-345v-73q0 -75 44 -118.5t125 -43.5q85 0 142 63l22 -15q-58 -74 -168 -74zM221 14q75 0 121 43.5t47 117.5v71h-141q-162 0 -162 -120q0 -54 40.5 -83t94.5 -29zM419 272h315v42q0 69 -37.5 116.5t-118.5 47.5q-74 0 -115.5 -50t-43.5 -116v-40z
" />
    <glyph glyph-name="ccedilla" unicode="&#xe7;" horiz-adv-x="456" 
d="M250 -199q-55 0 -99 20v22q48 -19 99 -19q75 0 75 51q0 46 -86 47h-21l11 65q-174 6 -174 196v123q0 92 48 145t134 53t130.5 -42t44.5 -107v-17h-29v23q0 43 -34 80t-110 37q-78 0 -116 -49t-38 -125v-121q0 -170 154 -170q76 0 110 37t34 80v23h29v-17q0 -63 -41 -104
t-121 -45l-8 -45q110 0 110 -65q0 -34 -25.5 -55t-76.5 -21z" />
    <glyph glyph-name="egrave" unicode="&#xe8;" horiz-adv-x="480" 
d="M250 -13q-93 0 -144 49t-51 148v112q0 98 54 153t142 55q83 0 131 -51t48 -143v-62h-345v-73q0 -75 44 -118.5t125 -43.5q85 0 142 63l21 -15q-57 -74 -167 -74zM85 272h315v42q0 69 -37.5 116.5t-118.5 47.5q-76 0 -117.5 -51.5t-41.5 -119.5v-35zM229 571l-115 147h38
l105 -147h-28z" />
    <glyph glyph-name="eacute" unicode="&#xe9;" horiz-adv-x="480" 
d="M239 571l105 147h38l-115 -147h-28zM250 -13q-93 0 -144 49t-51 148v112q0 98 54 153t142 55q83 0 131 -51t48 -143v-62h-345v-73q0 -75 44 -118.5t125 -43.5q85 0 142 63l21 -15q-57 -74 -167 -74zM85 272h315v42q0 69 -37.5 116.5t-118.5 47.5q-76 0 -117.5 -51.5
t-41.5 -119.5v-35z" />
    <glyph glyph-name="ecircumflex" unicode="&#xea;" horiz-adv-x="480" 
d="M137 567l89 147h32l84 -147h-31l-69 123l-73 -123h-32zM250 -13q-93 0 -144 49t-51 148v112q0 98 54 153t142 55q83 0 131 -51t48 -143v-62h-345v-73q0 -75 44 -118.5t125 -43.5q85 0 142 63l21 -15q-57 -74 -167 -74zM85 272h315v42q0 69 -37.5 116.5t-118.5 47.5
q-76 0 -117.5 -51.5t-41.5 -119.5v-35z" />
    <glyph glyph-name="edieresis" unicode="&#xeb;" horiz-adv-x="480" 
d="M131 577v79h31v-79h-31zM316 577v79h32v-79h-32zM250 -13q-93 0 -144 49t-51 148v112q0 98 54 153t142 55q83 0 131 -51t48 -143v-62h-345v-73q0 -75 44 -118.5t125 -43.5q85 0 142 63l21 -15q-57 -74 -167 -74zM85 272h315v42q0 69 -37.5 116.5t-118.5 47.5
q-76 0 -117.5 -51.5t-41.5 -119.5v-35z" />
    <glyph glyph-name="igrave" unicode="&#xec;" horiz-adv-x="187" 
d="M79 0v491h30v-491h-30zM84 571l-115 147h38l105 -147h-28z" />
    <glyph glyph-name="iacute" unicode="&#xed;" horiz-adv-x="187" 
d="M79 571l105 147h38l-115 -147h-28zM79 0v491h30v-491h-30z" />
    <glyph glyph-name="icircumflex" unicode="&#xee;" horiz-adv-x="187" 
d="M-8 567l89 147h32l84 -147h-31l-69 123l-73 -123h-32zM79 0v491h30v-491h-30z" />
    <glyph glyph-name="idieresis" unicode="&#xef;" horiz-adv-x="187" 
d="M-14 577v79h31v-79h-31zM171 577v79h32v-79h-32zM79 0v491h30v-491h-30z" />
    <glyph glyph-name="eth" unicode="&#xf0;" horiz-adv-x="486" 
d="M245 -13q-92 0 -141 47.5t-49 139.5v133q0 92 54 144t142 53q51 0 91 -21l-89 145l-107 -30l-9 20l100 29l-49 75l29 10l47 -76l119 34l10 -20l-114 -33q10 -16 56.5 -90.5t67.5 -105.5q28 -48 28 -133v-124q0 -96 -46.5 -146.5t-139.5 -50.5zM245 13q86 0 121 45t35 129
v122q0 80 -32.5 125t-113.5 45q-83 0 -126.5 -47.5t-43.5 -127.5v-130q0 -161 160 -161z" />
    <glyph glyph-name="ntilde" unicode="&#xf1;" horiz-adv-x="512" 
d="M79 0v491h28v-109h2q25 59 75 90.5t109 31.5q70 0 107 -40.5t37 -99.5v-364h-30v338q0 139 -124 139q-65 0 -119.5 -51.5t-54.5 -125.5v-300h-30zM131 577l-24 4q5 30 25.5 51t50.5 21q28 0 76 -19.5t71 -19.5q22 0 34 12t20 37l23 -5q-8 -34 -29 -53t-49 -19
q-26 0 -75 20t-73 20q-34 0 -50 -49z" />
    <glyph glyph-name="ograve" unicode="&#xf2;" horiz-adv-x="486" 
d="M246 -13q-93 0 -142 47.5t-49 139.5v141q0 93 50.5 141t138.5 48q92 0 140 -48t48 -141v-139q0 -92 -49.5 -140.5t-136.5 -48.5zM246 13q82 0 118.5 42.5t36.5 123.5v138q0 73 -38 117t-120 44q-81 0 -119.5 -44.5t-38.5 -121.5v-136q0 -163 161 -163zM233 571l-115 147
h38l105 -147h-28z" />
    <glyph glyph-name="oacute" unicode="&#xf3;" horiz-adv-x="486" 
d="M219 571l105 147h38l-115 -147h-28zM246 -13q-93 0 -142 47.5t-49 139.5v141q0 93 50.5 141t138.5 48q92 0 140 -48t48 -141v-139q0 -92 -49.5 -140.5t-136.5 -48.5zM246 13q82 0 118.5 42.5t36.5 123.5v138q0 73 -38 117t-120 44q-81 0 -119.5 -44.5t-38.5 -121.5v-136
q0 -163 161 -163z" />
    <glyph glyph-name="ocircumflex" unicode="&#xf4;" horiz-adv-x="486" 
d="M140 567l89 147h32l84 -147h-31l-69 123l-73 -123h-32zM246 -13q-93 0 -142 47.5t-49 139.5v141q0 93 50.5 141t138.5 48q92 0 140 -48t48 -141v-139q0 -92 -49.5 -140.5t-136.5 -48.5zM246 13q82 0 118.5 42.5t36.5 123.5v138q0 73 -38 117t-120 44q-81 0 -119.5 -44.5
t-38.5 -121.5v-136q0 -163 161 -163z" />
    <glyph glyph-name="otilde" unicode="&#xf5;" horiz-adv-x="486" 
d="M246 -13q-93 0 -142 47.5t-49 139.5v141q0 93 50.5 141t138.5 48q92 0 140 -48t48 -141v-139q0 -92 -49.5 -140.5t-136.5 -48.5zM246 13q82 0 118.5 42.5t36.5 123.5v138q0 73 -38 117t-120 44q-81 0 -119.5 -44.5t-38.5 -121.5v-136q0 -163 161 -163zM117 577l-24 4
q5 30 25.5 51t50.5 21q28 0 76 -19.5t71 -19.5q22 0 34 12t20 37l23 -5q-8 -34 -29 -53t-49 -19q-26 0 -75 20t-73 20q-34 0 -50 -49z" />
    <glyph glyph-name="odieresis" unicode="&#xf6;" horiz-adv-x="486" 
d="M134 577v79h31v-79h-31zM319 577v79h32v-79h-32zM246 -13q-93 0 -142 47.5t-49 139.5v141q0 93 50.5 141t138.5 48q92 0 140 -48t48 -141v-139q0 -92 -49.5 -140.5t-136.5 -48.5zM246 13q82 0 118.5 42.5t36.5 123.5v138q0 73 -38 117t-120 44q-81 0 -119.5 -44.5
t-38.5 -121.5v-136q0 -163 161 -163z" />
    <glyph glyph-name="divide" unicode="&#xf7;" horiz-adv-x="566" 
d="M266 112v85h35v-85h-35zM48 306v22h469v-22h-469zM266 430v84h35v-84h-35z" />
    <glyph glyph-name="oslash" unicode="&#xf8;" horiz-adv-x="486" 
d="M100 -45l-21 11l34 60q-58 47 -58 148v141q0 93 50.5 141t138.5 48q76 0 122 -33l34 60l21 -11l-37 -65q48 -46 48 -140v-139q0 -92 -49.5 -140.5t-136.5 -48.5q-68 0 -113 25zM85 176q0 -82 43 -124l223 393q-41 33 -108 33q-81 0 -119.5 -44.5t-38.5 -121.5v-136z
M246 13q82 0 118.5 42.5t36.5 123.5v138q0 70 -33 110l-221 -390q38 -24 99 -24z" />
    <glyph glyph-name="ugrave" unicode="&#xf9;" horiz-adv-x="511" 
d="M218 -13q-70 0 -107 41t-37 106v357h31v-346q0 -71 32.5 -101t91.5 -30q65 0 119.5 52.5t54.5 126.5v298h30v-491h-28v110h-2q-25 -59 -75.5 -91t-109.5 -32zM265 571l-115 147h38l105 -147h-28z" />
    <glyph glyph-name="uacute" unicode="&#xfa;" horiz-adv-x="511" 
d="M244 571l105 147h38l-115 -147h-28zM218 -13q-70 0 -107 41t-37 106v357h31v-346q0 -71 32.5 -101t91.5 -30q65 0 119.5 52.5t54.5 126.5v298h30v-491h-28v110h-2q-25 -59 -75.5 -91t-109.5 -32z" />
    <glyph glyph-name="ucircumflex" unicode="&#xfb;" horiz-adv-x="511" 
d="M161 567l89 147h32l84 -147h-31l-69 123l-73 -123h-32zM218 -13q-70 0 -107 41t-37 106v357h31v-346q0 -71 32.5 -101t91.5 -30q65 0 119.5 52.5t54.5 126.5v298h30v-491h-28v110h-2q-25 -59 -75.5 -91t-109.5 -32z" />
    <glyph glyph-name="udieresis" unicode="&#xfc;" horiz-adv-x="511" 
d="M146 577v79h31v-79h-31zM331 577v79h32v-79h-32zM218 -13q-70 0 -107 41t-37 106v357h31v-346q0 -71 32.5 -101t91.5 -30q65 0 119.5 52.5t54.5 126.5v298h30v-491h-28v110h-2q-25 -59 -75.5 -91t-109.5 -32z" />
    <glyph glyph-name="yacute" unicode="&#xfd;" horiz-adv-x="460" 
d="M68 -204q-29 0 -60 8v27q28 -9 65 -9q77 0 108 81l41 107l-189 481h33l170 -441h1l162 441h30l-216 -581q-38 -114 -145 -114zM218 571l105 147h38l-115 -147h-28z" />
    <glyph glyph-name="thorn" unicode="&#xfe;" horiz-adv-x="499" 
d="M79 -194v907h30v-324h3q22 57 69.5 86t99.5 29q76 0 120 -42.5t44 -111.5v-184q0 -91 -51 -135t-122 -44q-55 0 -101 31.5t-60 88.5h-2v-301h-30zM270 13q58 0 101 38t43 107v185q0 57 -38 95.5t-106 38.5q-63 0 -112.5 -52t-49.5 -135v-95q0 -80 47.5 -131t114.5 -51z
" />
    <glyph glyph-name="ydieresis" unicode="&#xff;" horiz-adv-x="460" 
d="M68 -204q-29 0 -60 8v27q28 -9 65 -9q77 0 108 81l41 107l-189 481h33l170 -441h1l162 441h30l-216 -581q-38 -114 -145 -114zM133 577v79h31v-79h-31zM318 577v79h32v-79h-32z" />
    <glyph glyph-name="Amacron" unicode="&#x100;" horiz-adv-x="642" 
d="M41 0l267 717h32l262 -717h-33l-94 257h-309l-94 -257h-31zM175 284h291l-143 396h-1zM197 825v28h247v-28h-247z" />
    <glyph glyph-name="amacron" unicode="&#x101;" horiz-adv-x="487" 
d="M213 -12q-66 0 -112 36.5t-46 100.5q0 42 17.5 72t46.5 45.5t58.5 22.5t60.5 7h151v89q0 117 -141 117q-59 0 -101.5 -24.5t-42.5 -78.5v-16h-28v16q0 66 50.5 97.5t126.5 31.5q74 0 120 -31.5t46 -101.5v-239q0 -19 3 -73.5t3 -58.5h-29q-4 44 -4 93h-2
q-46 -105 -177 -105zM221 14q76 0 122 44t46 118v70h-141q-162 0 -162 -120q0 -54 40.5 -83t94.5 -29zM119 605v28h247v-28h-247z" />
    <glyph glyph-name="Abreve" unicode="&#x102;" horiz-adv-x="642" 
d="M41 0l267 717h32l262 -717h-33l-94 257h-309l-94 -257h-31zM175 284h291l-143 396h-1zM323 796q-51 0 -86 32t-37 87h26q4 -42 29 -68.5t71 -26.5q38 0 63 26.5t27 68.5h26q-3 -58 -38.5 -88.5t-80.5 -30.5z" />
    <glyph glyph-name="abreve" unicode="&#x103;" horiz-adv-x="487" 
d="M213 -12q-66 0 -112 36.5t-46 100.5q0 42 17.5 72t46.5 45.5t58.5 22.5t60.5 7h151v89q0 117 -141 117q-59 0 -101.5 -24.5t-42.5 -78.5v-16h-28v16q0 66 50.5 97.5t126.5 31.5q74 0 120 -31.5t46 -101.5v-239q0 -19 3 -73.5t3 -58.5h-29q-4 44 -4 93h-2
q-46 -105 -177 -105zM221 14q76 0 122 44t46 118v70h-141q-162 0 -162 -120q0 -54 40.5 -83t94.5 -29zM246 576q-51 0 -86 32t-37 87h26q4 -42 29 -68.5t71 -26.5q38 0 63 26.5t27 68.5h26q-3 -58 -38.5 -88.5t-80.5 -30.5z" />
    <glyph glyph-name="Aogonek" unicode="&#x104;" horiz-adv-x="642" 
d="M589 -193q-36 0 -64.5 22t-28.5 67q0 71 71 108l-92 253h-309l-94 -257h-31l267 717h32l262 -717h-1q-34 -13 -55 -41.5t-21 -56.5q0 -35 19.5 -52.5t51.5 -17.5t67 20l12 -18q-32 -27 -86 -27zM175 284h291l-143 396h-1z" />
    <glyph glyph-name="aogonek" unicode="&#x105;" horiz-adv-x="487" 
d="M413 -193q-36 0 -64.5 22t-28.5 67q0 74 75 110q-3 36 -3 87h-2q-46 -105 -177 -105q-66 0 -112 36.5t-46 100.5q0 42 17.5 72t46.5 45.5t58.5 22.5t60.5 7h151v89q0 117 -141 117q-59 0 -101.5 -24.5t-42.5 -78.5v-16h-28v16q0 66 50.5 97.5t126.5 31.5q74 0 120 -31.5
t46 -101.5v-239q0 -19 3 -73.5t3 -58.5q-34 -13 -55 -41.5t-21 -56.5q0 -35 19.5 -52.5t51.5 -17.5t67 20l12 -18q-32 -27 -86 -27zM221 14q76 0 122 44t46 118v70h-141q-162 0 -162 -120q0 -54 40.5 -83t94.5 -29z" />
    <glyph glyph-name="Cacute" unicode="&#x106;" horiz-adv-x="620" 
d="M300 791l105 147h38l-115 -147h-28zM326 -13q-116 0 -187 60t-71 171v267q0 104 72 173.5t186 69.5q107 0 172.5 -56.5t65.5 -138.5v-47h-30v38q0 77 -55 125.5t-158 48.5q-100 0 -160 -61.5t-60 -155.5v-252q0 -98 60.5 -156t164.5 -58q102 0 155 48.5t53 126.5v21h30
v-31q0 -85 -64.5 -139t-173.5 -54z" />
    <glyph glyph-name="cacute" unicode="&#x107;" horiz-adv-x="456" 
d="M220 571l105 147h38l-115 -147h-28zM238 -13q-91 0 -137 50.5t-46 145.5v123q0 92 48 145t134 53t130.5 -42t44.5 -107v-17h-29v23q0 43 -34 80t-110 37q-78 0 -116 -49t-38 -125v-121q0 -170 154 -170q76 0 110 37t34 80v23h29v-17q0 -65 -44 -107t-130 -42z" />
    <glyph glyph-name="Ccircumflex" unicode="&#x108;" horiz-adv-x="620" 
d="M207 787l89 147h32l84 -147h-31l-69 123l-73 -123h-32zM326 -13q-116 0 -187 60t-71 171v267q0 104 72 173.5t186 69.5q107 0 172.5 -56.5t65.5 -138.5v-47h-30v38q0 77 -55 125.5t-158 48.5q-100 0 -160 -61.5t-60 -155.5v-252q0 -98 60.5 -156t164.5 -58
q102 0 155 48.5t53 126.5v21h30v-31q0 -85 -64.5 -139t-173.5 -54z" />
    <glyph glyph-name="ccircumflex" unicode="&#x109;" horiz-adv-x="456" 
d="M134 567l89 147h32l84 -147h-31l-69 123l-73 -123h-32zM238 -13q-91 0 -137 50.5t-46 145.5v123q0 92 48 145t134 53t130.5 -42t44.5 -107v-17h-29v23q0 43 -34 80t-110 37q-78 0 -116 -49t-38 -125v-121q0 -170 154 -170q76 0 110 37t34 80v23h29v-17q0 -65 -44 -107
t-130 -42z" />
    <glyph glyph-name="Cdotaccent" unicode="&#x10a;" horiz-adv-x="620" 
d="M326 -13q-116 0 -187 60t-71 171v267q0 104 72 173.5t186 69.5q107 0 172.5 -56.5t65.5 -138.5v-47h-30v38q0 77 -55 125.5t-158 48.5q-100 0 -160 -61.5t-60 -155.5v-252q0 -98 60.5 -156t164.5 -58q102 0 155 48.5t53 126.5v21h30v-31q0 -85 -64.5 -139t-173.5 -54z
M292 796v85h35v-85h-35z" />
    <glyph glyph-name="cdotaccent" unicode="&#x10b;" horiz-adv-x="456" 
d="M238 -13q-91 0 -137 50.5t-46 145.5v123q0 92 48 145t134 53t130.5 -42t44.5 -107v-17h-29v23q0 43 -34 80t-110 37q-78 0 -116 -49t-38 -125v-121q0 -170 154 -170q76 0 110 37t34 80v23h29v-17q0 -65 -44 -107t-130 -42zM225 576v85h35v-85h-35z" />
    <glyph glyph-name="Ccaron" unicode="&#x10c;" horiz-adv-x="620" 
d="M309 787l-82 147h31l67 -123l75 123h32l-91 -147h-32zM326 -13q-116 0 -187 60t-71 171v267q0 104 72 173.5t186 69.5q107 0 172.5 -56.5t65.5 -138.5v-47h-30v38q0 77 -55 125.5t-158 48.5q-100 0 -160 -61.5t-60 -155.5v-252q0 -98 60.5 -156t164.5 -58q102 0 155 48.5
t53 126.5v21h30v-31q0 -85 -64.5 -139t-173.5 -54z" />
    <glyph glyph-name="ccaron" unicode="&#x10d;" horiz-adv-x="456" 
d="M228 567l-82 147h31l67 -123l75 123h32l-91 -147h-32zM238 -13q-91 0 -137 50.5t-46 145.5v123q0 92 48 145t134 53t130.5 -42t44.5 -107v-17h-29v23q0 43 -34 80t-110 37q-78 0 -116 -49t-38 -125v-121q0 -170 154 -170q76 0 110 37t34 80v23h29v-17q0 -65 -44 -107
t-130 -42z" />
    <glyph glyph-name="Dcaron" unicode="&#x10e;" horiz-adv-x="640" 
d="M278 787l-82 147h31l67 -123l75 123h32l-91 -147h-32zM85 0v713h253q108 0 171 -57t63 -164v-263q0 -106 -64 -167.5t-170 -61.5h-253zM116 28h218q102 0 154 58t52 139v260q0 89 -52 144.5t-154 55.5h-218v-657z" />
    <glyph glyph-name="dcaron" unicode="&#x10f;" horiz-adv-x="501" 
d="M498 571l4 142h36l-17 -142h-23zM219 -13q-76 0 -120 42.5t-44 111.5v184q0 91 51 135t122 44q55 0 101 -31.5t59 -88.5h3v329h30v-713h-28v116h-3q-27 -68 -73.5 -98.5t-97.5 -30.5zM229 14q62 0 112 55.5t50 139.5v87q0 80 -47.5 131t-113.5 51q-59 0 -102 -37.5
t-43 -107.5v-185q0 -57 38.5 -95.5t105.5 -38.5z" />
    <glyph glyph-name="Dcroat" unicode="&#x110;" horiz-adv-x="667" 
d="M32 364v25h79v324h253q108 0 171 -57t63 -164v-263q0 -106 -64 -167.5t-170 -61.5h-253v364h-79zM142 28h218q102 0 154 58t52 139v260q0 89 -52 144.5t-154 55.5h-218v-296h243v-25h-243v-336z" />
    <glyph glyph-name="dcroat" unicode="&#x111;" horiz-adv-x="503" 
d="M280 605v25h111v83h30v-83h57v-25h-57v-605h-28v116h-3q-27 -68 -73.5 -98.5t-97.5 -30.5q-76 0 -120 42.5t-44 111.5v184q0 91 51 135t122 44q55 0 101 -31.5t59 -88.5h3v221h-111zM229 14q62 0 112 55.5t50 139.5v87q0 80 -47.5 131t-113.5 51q-59 0 -102 -37.5
t-43 -107.5v-185q0 -57 38.5 -95.5t105.5 -38.5z" />
    <glyph glyph-name="Emacron" unicode="&#x112;" horiz-adv-x="567" 
d="M85 0v713h423v-28h-392v-300h315v-28h-315v-329h392v-28h-423zM178 825v28h247v-28h-247z" />
    <glyph glyph-name="emacron" unicode="&#x113;" horiz-adv-x="480" 
d="M250 -13q-93 0 -144 49t-51 148v112q0 98 54 153t142 55q83 0 131 -51t48 -143v-62h-345v-73q0 -75 44 -118.5t125 -43.5q85 0 142 63l21 -15q-57 -74 -167 -74zM85 272h315v42q0 69 -37.5 116.5t-118.5 47.5q-76 0 -117.5 -51.5t-41.5 -119.5v-35zM116 605v28h247v-28
h-247z" />
    <glyph glyph-name="Ebreve" unicode="&#x114;" horiz-adv-x="567" 
d="M85 0v713h423v-28h-392v-300h315v-28h-315v-329h392v-28h-423zM285 796q-51 0 -86 32t-37 87h26q4 -42 29 -68.5t71 -26.5q38 0 63 26.5t27 68.5h26q-3 -58 -38.5 -88.5t-80.5 -30.5z" />
    <glyph glyph-name="ebreve" unicode="&#x115;" horiz-adv-x="480" 
d="M250 -13q-93 0 -144 49t-51 148v112q0 98 54 153t142 55q83 0 131 -51t48 -143v-62h-345v-73q0 -75 44 -118.5t125 -43.5q85 0 142 63l21 -15q-57 -74 -167 -74zM85 272h315v42q0 69 -37.5 116.5t-118.5 47.5q-76 0 -117.5 -51.5t-41.5 -119.5v-35zM242 576q-51 0 -86 32
t-37 87h26q4 -42 29 -68.5t71 -26.5q38 0 63 26.5t27 68.5h26q-3 -58 -38.5 -88.5t-80.5 -30.5z" />
    <glyph glyph-name="Edotaccent" unicode="&#x116;" horiz-adv-x="567" 
d="M85 0v713h423v-28h-392v-300h315v-28h-315v-329h392v-28h-423zM284 796v85h35v-85h-35z" />
    <glyph glyph-name="edotaccent" unicode="&#x117;" horiz-adv-x="480" 
d="M250 -13q-93 0 -144 49t-51 148v112q0 98 54 153t142 55q83 0 131 -51t48 -143v-62h-345v-73q0 -75 44 -118.5t125 -43.5q85 0 142 63l21 -15q-57 -74 -167 -74zM85 272h315v42q0 69 -37.5 116.5t-118.5 47.5q-76 0 -117.5 -51.5t-41.5 -119.5v-35zM230 576v85h35v-85
h-35z" />
    <glyph glyph-name="Eogonek" unicode="&#x118;" horiz-adv-x="567" 
d="M85 0v713h423v-28h-392v-300h315v-28h-315v-329h392v-28h-14q-34 -13 -55 -41.5t-21 -56.5q0 -35 19.5 -52.5t51.5 -17.5t67 20l12 -18q-32 -27 -86 -27q-36 0 -64.5 22t-28.5 67q0 67 65 104h-369z" />
    <glyph glyph-name="eogonek" unicode="&#x119;" horiz-adv-x="480" 
d="M250 -13q-93 0 -144 49t-51 148v112q0 98 54 153t142 55q83 0 131 -51t48 -143v-62h-345v-73q0 -75 44 -118.5t125 -43.5q85 0 142 63l21 -15q-21 -27 -45 -42h1l-2 -1q-12 -8 -19 -11q-26 -19 -45.5 -50.5t-19.5 -54.5q0 -35 19.5 -52.5t50.5 -17.5q32 0 67 20l12 -18
q-30 -27 -85 -27q-36 0 -65 22t-29 67q0 53 51 97q-30 -6 -58 -6zM85 272h315v42q0 69 -37.5 116.5t-118.5 47.5q-76 0 -117.5 -51.5t-41.5 -119.5v-35z" />
    <glyph glyph-name="Ecaron" unicode="&#x11a;" horiz-adv-x="567" 
d="M280 787l-82 147h31l67 -123l75 123h32l-91 -147h-32zM85 0v713h423v-28h-392v-300h315v-28h-315v-329h392v-28h-423z" />
    <glyph glyph-name="ecaron" unicode="&#x11b;" horiz-adv-x="480" 
d="M228 567l-82 147h31l67 -123l75 123h32l-91 -147h-32zM250 -13q-93 0 -144 49t-51 148v112q0 98 54 153t142 55q83 0 131 -51t48 -143v-62h-345v-73q0 -75 44 -118.5t125 -43.5q85 0 142 63l21 -15q-57 -74 -167 -74zM85 272h315v42q0 69 -37.5 116.5t-118.5 47.5
q-76 0 -117.5 -51.5t-41.5 -119.5v-35z" />
    <glyph glyph-name="Gcircumflex" unicode="&#x11c;" 
d="M223 787l89 147h32l84 -147h-31l-69 123l-73 -123h-32zM331 -13q-115 0 -186 60t-71 171v267q0 104 71.5 173.5t185.5 69.5q108 0 173.5 -56.5t65.5 -137.5v-47h-31v38q0 77 -54.5 125t-158.5 48q-100 0 -160 -61.5t-60 -155.5v-252q0 -98 61 -156t164 -58
q104 0 158.5 47.5t54.5 124.5v139h-207v29h238v-175q0 -86 -64.5 -139.5t-179.5 -53.5z" />
    <glyph glyph-name="gcircumflex" unicode="&#x11d;" horiz-adv-x="498" 
d="M128 567l89 147h32l84 -147h-31l-69 123l-73 -123h-32zM224 -203q-99 0 -160 68l24 17q52 -60 137 -60q75 0 120.5 44.5t45.5 121.5v130h-2q-25 -58 -71 -86t-100 -28q-76 0 -119.5 44t-43.5 114v170q0 83 52.5 127.5t119.5 44.5q49 0 97.5 -28t65.5 -88h1v103h29v-504
q0 -86 -53.5 -138t-142.5 -52zM230 30q64 0 112.5 49.5t48.5 139.5v87q0 78 -50 125t-111 47q-58 0 -101.5 -38t-43.5 -107v-170q0 -57 37.5 -95t107.5 -38z" />
    <glyph glyph-name="Gbreve" unicode="&#x11e;" 
d="M331 -13q-115 0 -186 60t-71 171v267q0 104 71.5 173.5t185.5 69.5q108 0 173.5 -56.5t65.5 -137.5v-47h-31v38q0 77 -54.5 125t-158.5 48q-100 0 -160 -61.5t-60 -155.5v-252q0 -98 61 -156t164 -58q104 0 158.5 47.5t54.5 124.5v139h-207v29h238v-175
q0 -86 -64.5 -139.5t-179.5 -53.5zM328 796q-51 0 -86 32t-37 87h26q4 -42 29 -68.5t71 -26.5q38 0 63 26.5t27 68.5h26q-3 -58 -38.5 -88.5t-80.5 -30.5z" />
    <glyph glyph-name="gbreve" unicode="&#x11f;" horiz-adv-x="498" 
d="M224 -203q-99 0 -160 68l24 17q52 -60 137 -60q75 0 120.5 44.5t45.5 121.5v130h-2q-25 -58 -71 -86t-100 -28q-76 0 -119.5 44t-43.5 114v170q0 83 52.5 127.5t119.5 44.5q49 0 97.5 -28t65.5 -88h1v103h29v-504q0 -86 -53.5 -138t-142.5 -52zM230 30q64 0 112.5 49.5
t48.5 139.5v87q0 78 -50 125t-111 47q-58 0 -101.5 -38t-43.5 -107v-170q0 -57 37.5 -95t107.5 -38zM236 576q-51 0 -86 32t-37 87h26q4 -42 29 -68.5t71 -26.5q38 0 63 26.5t27 68.5h26q-3 -58 -38.5 -88.5t-80.5 -30.5z" />
    <glyph glyph-name="Gdotaccent" unicode="&#x120;" 
d="M331 -13q-115 0 -186 60t-71 171v267q0 104 71.5 173.5t185.5 69.5q108 0 173.5 -56.5t65.5 -137.5v-47h-31v38q0 77 -54.5 125t-158.5 48q-100 0 -160 -61.5t-60 -155.5v-252q0 -98 61 -156t164 -58q104 0 158.5 47.5t54.5 124.5v139h-207v29h238v-175
q0 -86 -64.5 -139.5t-179.5 -53.5zM308 796v85h35v-85h-35z" />
    <glyph glyph-name="gdotaccent" unicode="&#x121;" horiz-adv-x="498" 
d="M224 -203q-99 0 -160 68l24 17q52 -60 137 -60q75 0 120.5 44.5t45.5 121.5v130h-2q-25 -58 -71 -86t-100 -28q-76 0 -119.5 44t-43.5 114v170q0 83 52.5 127.5t119.5 44.5q49 0 97.5 -28t65.5 -88h1v103h29v-504q0 -86 -53.5 -138t-142.5 -52zM230 30q64 0 112.5 49.5
t48.5 139.5v87q0 78 -50 125t-111 47q-58 0 -101.5 -38t-43.5 -107v-170q0 -57 37.5 -95t107.5 -38zM221 576v85h35v-85h-35z" />
    <glyph glyph-name="Gcommaaccent" unicode="&#x122;" 
d="M318 -187l4 139h38l-17 -139h-25zM331 -13q-115 0 -186 60t-71 171v267q0 104 71.5 173.5t185.5 69.5q108 0 173.5 -56.5t65.5 -137.5v-47h-31v38q0 77 -54.5 125t-158.5 48q-100 0 -160 -61.5t-60 -155.5v-252q0 -98 61 -156t164 -58q104 0 158.5 47.5t54.5 124.5v139
h-207v29h238v-175q0 -86 -64.5 -139.5t-179.5 -53.5z" />
    <glyph glyph-name="gcommaaccent" unicode="&#x123;" horiz-adv-x="498" 
d="M224 -203q-99 0 -160 68l24 17q52 -60 137 -60q75 0 120.5 44.5t45.5 121.5v130h-2q-25 -58 -71 -86t-100 -28q-76 0 -119.5 44t-43.5 114v170q0 83 52.5 127.5t119.5 44.5q49 0 97.5 -28t65.5 -88h1v103h29v-504q0 -86 -53.5 -138t-142.5 -52zM230 30q64 0 112.5 49.5
t48.5 139.5v87q0 78 -50 125t-111 47q-58 0 -101.5 -38t-43.5 -107v-170q0 -57 37.5 -95t107.5 -38zM206 581v56l17 55h18l-12 -53h13v-58h-36z" />
    <glyph glyph-name="Hcircumflex" unicode="&#x124;" horiz-adv-x="667" 
d="M230 787l89 147h32l84 -147h-31l-69 123l-73 -123h-32zM85 0v713h31v-327h433v327h32v-713h-32v358h-433v-358h-31z" />
    <glyph glyph-name="hcircumflex" unicode="&#x125;" horiz-adv-x="512" 
d="M-3 740l89 147h32l84 -147h-31l-69 123l-73 -123h-32zM79 0v713h30v-331h2q25 59 74 90.5t108 31.5q70 0 107 -40.5t37 -99.5v-364h-30v338q0 139 -124 139q-65 0 -119.5 -51.5t-54.5 -125.5v-300h-30z" />
    <glyph glyph-name="Hbar" unicode="&#x126;" horiz-adv-x="671" 
d="M31 576v26h56v111h31v-111h433v111h32v-111h47v-26h-47v-576h-32v358h-433v-358h-31v576h-56zM118 386h433v190h-433v-190z" />
    <glyph glyph-name="hbar" unicode="&#x127;" horiz-adv-x="513" 
d="M23 605v25h57v83h30v-83h154v-25h-154v-223h2q25 59 74 90.5t108 31.5q70 0 107 -40.5t37 -99.5v-364h-30v338q0 139 -124 139q-65 0 -119.5 -51.5t-54.5 -125.5v-300h-30v605h-57z" />
    <glyph glyph-name="Itilde" unicode="&#x128;" horiz-adv-x="201" 
d="M85 0v713h31v-713h-31zM-24 797l-24 4q5 30 25.5 51t50.5 21q28 0 76 -19.5t71 -19.5q22 0 34 12t20 37l23 -5q-8 -34 -29 -53t-49 -19q-26 0 -75 20t-73 20q-34 0 -50 -49z" />
    <glyph glyph-name="itilde" unicode="&#x129;" horiz-adv-x="187" 
d="M79 0v491h30v-491h-30zM-31 577l-24 4q5 30 25.5 51t50.5 21q28 0 76 -19.5t71 -19.5q22 0 34 12t20 37l23 -5q-8 -34 -29 -53t-49 -19q-26 0 -75 20t-73 20q-34 0 -50 -49z" />
    <glyph glyph-name="Imacron" unicode="&#x12a;" horiz-adv-x="201" 
d="M85 0v713h31v-713h-31zM-23 825v28h247v-28h-247z" />
    <glyph glyph-name="imacron" unicode="&#x12b;" horiz-adv-x="187" 
d="M79 0v491h30v-491h-30zM-29 605v28h247v-28h-247z" />
    <glyph glyph-name="Ibreve" unicode="&#x12c;" horiz-adv-x="201" 
d="M85 0v713h31v-713h-31zM104 796q-51 0 -86 32t-37 87h26q4 -42 29 -68.5t71 -26.5q38 0 63 26.5t27 68.5h26q-3 -58 -38.5 -88.5t-80.5 -30.5z" />
    <glyph glyph-name="ibreve" unicode="&#x12d;" horiz-adv-x="187" 
d="M79 0v491h30v-491h-30zM97 576q-51 0 -86 32t-37 87h26q4 -42 29 -68.5t71 -26.5q38 0 63 26.5t27 68.5h26q-3 -58 -38.5 -88.5t-80.5 -30.5z" />
    <glyph glyph-name="Iogonek" unicode="&#x12e;" horiz-adv-x="201" 
d="M118 -193q-36 0 -63.5 22t-27.5 67q0 69 58 108v709h31v-713q-28 -13 -43.5 -41t-15.5 -57q0 -70 68 -70q31 0 66 20l12 -18q-30 -27 -85 -27z" />
    <glyph glyph-name="iogonek" unicode="&#x12f;" horiz-adv-x="187" 
d="M111 -193q-36 0 -63.5 22t-27.5 67q0 70 59 109v486h30v-491q-28 -13 -43.5 -41t-15.5 -57q0 -70 68 -70q31 0 66 20l12 -18q-30 -27 -85 -27zM79 607v90h30v-90h-30z" />
    <glyph glyph-name="Idotaccent" unicode="&#x130;" horiz-adv-x="201" 
d="M85 0v713h31v-713h-31zM82 796v85h35v-85h-35z" />
    <glyph glyph-name="dotlessi" unicode="&#x131;" horiz-adv-x="187" 
d="M79 0v491h30v-491h-30z" />
    <glyph glyph-name="IJ" unicode="&#x132;" horiz-adv-x="721" 
d="M85 0v713h31v-713h-31zM420 -12q-98 0 -156.5 52.5t-58.5 150.5v55h29v-44q0 -80 46 -133.5t149 -53.5q86 0 134 52.5t48 121.5v525h31v-507q0 -99 -54.5 -159t-167.5 -60z" />
    <glyph glyph-name="ij" unicode="&#x133;" horiz-adv-x="367" 
d="M79 0v491h30v-491h-30zM79 607v90h30v-90h-30zM158 -210q-26 0 -35 1v27q11 -1 37 -1q54 0 75.5 29t21.5 83v562h30v-567q0 -134 -129 -134zM257 607v90h30v-90h-30z" />
    <glyph glyph-name="Jcircumflex" unicode="&#x134;" horiz-adv-x="564" 
d="M344 787l89 147h32l84 -147h-31l-69 123l-73 -123h-32zM263 -13q-98 0 -156.5 52.5t-58.5 150.5v55h29v-44q0 -80 46 -133.5t149 -53.5q86 0 134 52.5t48 121.5v525h31v-507q0 -99 -54.5 -159t-167.5 -60z" />
    <glyph glyph-name="jcircumflex" unicode="&#x135;" horiz-adv-x="212" 
d="M4 -210q-26 0 -35 1v27q11 -1 37 -1q54 0 75.5 29t21.5 83v562h30v-567q0 -134 -129 -134zM4 567l89 147h32l84 -147h-31l-69 123l-73 -123h-32z" />
    <glyph glyph-name="Kcommaaccent" unicode="&#x136;" horiz-adv-x="589" 
d="M280 -187l4 139h38l-17 -139h-25zM85 0v713h31v-413l401 413h39l-271 -279l283 -434h-37l-268 411l-147 -150v-261h-31z" />
    <glyph glyph-name="kcommaaccent" unicode="&#x137;" horiz-adv-x="451" 
d="M219 -187l4 139h38l-17 -139h-25zM79 0v713h30v-502l260 280h38l-165 -178l185 -313h-34l-174 291l-110 -116v-175h-30z" />
    <glyph glyph-name="kgreenlandic" unicode="&#x138;" horiz-adv-x="451" 
d="M79 0v491h30v-280l260 280h38l-165 -178l185 -313h-34l-174 291l-110 -116v-175h-30z" />
    <glyph glyph-name="Lacute" unicode="&#x139;" horiz-adv-x="545" 
d="M94 791l105 147h38l-115 -147h-28zM85 0v713h31v-685h390v-28h-421z" />
    <glyph glyph-name="lacute" unicode="&#x13a;" horiz-adv-x="280" 
d="M83 745l105 147h38l-115 -147h-28zM186 -4q-52 0 -79 30.5t-27 83.5v603h31v-609q0 -37 21.5 -59.5t62.5 -22.5q29 0 55 6v-25q-27 -7 -64 -7z" />
    <glyph glyph-name="Lcommaaccent" unicode="&#x13b;" horiz-adv-x="545" 
d="M282 -187l4 139h38l-17 -139h-25zM85 0v713h31v-685h390v-28h-421z" />
    <glyph glyph-name="lcommaaccent" unicode="&#x13c;" horiz-adv-x="280" 
d="M95 -187l4 139h38l-17 -139h-25zM186 -4q-52 0 -79 30.5t-27 83.5v603h31v-609q0 -37 21.5 -59.5t62.5 -22.5q29 0 55 6v-25q-27 -7 -64 -7z" />
    <glyph glyph-name="Lcaron" unicode="&#x13d;" horiz-adv-x="545" 
d="M205 571l4 142h36l-17 -142h-23zM85 0v713h31v-685h390v-28h-421z" />
    <glyph glyph-name="lcaron" unicode="&#x13e;" horiz-adv-x="280" 
d="M202 571l4 142h36l-17 -142h-23zM186 -4q-52 0 -79 30.5t-27 83.5v603h31v-609q0 -37 21.5 -59.5t62.5 -22.5q29 0 55 6v-25q-27 -7 -64 -7z" />
    <glyph glyph-name="Ldot" unicode="&#x13f;" horiz-adv-x="545" 
d="M85 0v713h31v-685h390v-28h-421zM285 354v73h37v-73h-37z" />
    <glyph glyph-name="ldot" unicode="&#x140;" horiz-adv-x="286" 
d="M186 -4q-52 0 -79 30.5t-27 83.5v603h31v-609q0 -37 21.5 -59.5t62.5 -22.5q29 0 55 6v-25q-27 -7 -64 -7zM218 368v70h32v-70h-32z" />
    <glyph glyph-name="Lslash" unicode="&#x141;" horiz-adv-x="546" 
d="M23 256v37l63 59v361h31v-331l119 113v-37l-119 -113v-317h390v-28h-421v315z" />
    <glyph glyph-name="lslash" unicode="&#x142;" horiz-adv-x="282" 
d="M23 258v34l58 63v358h31v-324l95 104v-35l-95 -104v-250q0 -37 21.5 -59.5t62.5 -22.5q29 0 55 6v-25q-27 -7 -64 -7q-52 0 -79 30.5t-27 83.5v211z" />
    <glyph glyph-name="Nacute" unicode="&#x143;" horiz-adv-x="658" 
d="M316 791l105 147h38l-115 -147h-28zM85 0v713h36l422 -655h2v655h29v-713h-31l-428 670h-1v-670h-29z" />
    <glyph glyph-name="nacute" unicode="&#x144;" horiz-adv-x="512" 
d="M250 571l105 147h38l-115 -147h-28zM79 0v491h28v-109h2q25 59 75 90.5t109 31.5q70 0 107 -40.5t37 -99.5v-364h-30v338q0 139 -124 139q-65 0 -119.5 -51.5t-54.5 -125.5v-300h-30z" />
    <glyph glyph-name="Ncommaaccent" unicode="&#x145;" horiz-adv-x="658" 
d="M315 -187l4 139h38l-17 -139h-25zM85 0v713h36l422 -655h2v655h29v-713h-31l-428 670h-1v-670h-29z" />
    <glyph glyph-name="ncommaaccent" unicode="&#x146;" horiz-adv-x="512" 
d="M236 -187l4 139h38l-17 -139h-25zM79 0v491h28v-109h2q25 59 75 90.5t109 31.5q70 0 107 -40.5t37 -99.5v-364h-30v338q0 139 -124 139q-65 0 -119.5 -51.5t-54.5 -125.5v-300h-30z" />
    <glyph glyph-name="Ncaron" unicode="&#x147;" horiz-adv-x="658" 
d="M321 787l-82 147h31l67 -123l75 123h32l-91 -147h-32zM85 0v713h36l422 -655h2v655h29v-713h-31l-428 670h-1v-670h-29z" />
    <glyph glyph-name="ncaron" unicode="&#x148;" horiz-adv-x="512" 
d="M237 567l-82 147h31l67 -123l75 123h32l-91 -147h-32zM79 0v491h28v-109h2q25 59 75 90.5t109 31.5q70 0 107 -40.5t37 -99.5v-364h-30v338q0 139 -124 139q-65 0 -119.5 -51.5t-54.5 -125.5v-300h-30z" />
    <glyph glyph-name="Eng" unicode="&#x14a;" horiz-adv-x="658" 
d="M445 -210q-26 0 -35 1v27q11 -1 37 -1q54 0 75.5 29t21.5 83v70l-429 671h-1v-670h-29v713h36l422 -655h2v655h29v-789q0 -134 -129 -134z" />
    <glyph glyph-name="eng" unicode="&#x14b;" horiz-adv-x="512" 
d="M308 -210q-26 0 -35 1v27q11 -1 37 -1q54 0 75.5 29t21.5 83v409q0 139 -124 139q-65 0 -119.5 -51.5t-54.5 -125.5v-300h-30v491h28v-109h2q25 59 75 90.5t109 31.5q70 0 107 -40.5t37 -99.5v-440q0 -134 -129 -134z" />
    <glyph glyph-name="Omacron" unicode="&#x14c;" 
d="M202 825v28h247v-28h-247zM326 -13q-113 0 -185.5 60t-72.5 171v258q0 115 71 183.5t187 68.5q115 0 186 -61.5t71 -172.5v-255q0 -115 -71 -183.5t-186 -68.5zM326 15q102 0 163.5 60t61.5 158v260q0 95 -61.5 150t-168.5 55q-101 0 -160.5 -63t-59.5 -164v-242
q0 -98 60.5 -156t164.5 -58z" />
    <glyph glyph-name="omacron" unicode="&#x14d;" horiz-adv-x="486" 
d="M119 605v28h247v-28h-247zM246 -13q-93 0 -142 47.5t-49 139.5v141q0 93 50.5 141t138.5 48q92 0 140 -48t48 -141v-139q0 -92 -49.5 -140.5t-136.5 -48.5zM246 13q82 0 118.5 42.5t36.5 123.5v138q0 73 -38 117t-120 44q-81 0 -119.5 -44.5t-38.5 -121.5v-136
q0 -163 161 -163z" />
    <glyph glyph-name="Obreve" unicode="&#x14e;" 
d="M326 -13q-113 0 -185.5 60t-72.5 171v258q0 115 71 183.5t187 68.5q115 0 186 -61.5t71 -172.5v-255q0 -115 -71 -183.5t-186 -68.5zM326 15q102 0 163.5 60t61.5 158v260q0 95 -61.5 150t-168.5 55q-101 0 -160.5 -63t-59.5 -164v-242q0 -98 60.5 -156t164.5 -58z
M328 796q-51 0 -86 32t-37 87h26q4 -42 29 -68.5t71 -26.5q38 0 63 26.5t27 68.5h26q-3 -58 -38.5 -88.5t-80.5 -30.5z" />
    <glyph glyph-name="obreve" unicode="&#x14f;" horiz-adv-x="486" 
d="M246 -13q-93 0 -142 47.5t-49 139.5v141q0 93 50.5 141t138.5 48q92 0 140 -48t48 -141v-139q0 -92 -49.5 -140.5t-136.5 -48.5zM246 13q82 0 118.5 42.5t36.5 123.5v138q0 73 -38 117t-120 44q-81 0 -119.5 -44.5t-38.5 -121.5v-136q0 -163 161 -163zM245 576
q-51 0 -86 32t-37 87h26q4 -42 29 -68.5t71 -26.5q38 0 63 26.5t27 68.5h26q-3 -58 -38.5 -88.5t-80.5 -30.5z" />
    <glyph glyph-name="Ohungarumlaut" unicode="&#x150;" 
d="M244 800l38 105h39l-51 -105h-26zM366 800l38 105h39l-50 -105h-27zM326 -13q-113 0 -185.5 60t-72.5 171v258q0 115 71 183.5t187 68.5q115 0 186 -61.5t71 -172.5v-255q0 -115 -71 -183.5t-186 -68.5zM326 15q102 0 163.5 60t61.5 158v260q0 95 -61.5 150t-168.5 55
q-101 0 -160.5 -63t-59.5 -164v-242q0 -98 60.5 -156t164.5 -58z" />
    <glyph glyph-name="ohungarumlaut" unicode="&#x151;" horiz-adv-x="486" 
d="M169 580l38 105h39l-51 -105h-26zM291 580l38 105h39l-50 -105h-27zM246 -13q-93 0 -142 47.5t-49 139.5v141q0 93 50.5 141t138.5 48q92 0 140 -48t48 -141v-139q0 -92 -49.5 -140.5t-136.5 -48.5zM246 13q82 0 118.5 42.5t36.5 123.5v138q0 73 -38 117t-120 44
q-81 0 -119.5 -44.5t-38.5 -121.5v-136q0 -163 161 -163z" />
    <glyph glyph-name="OE" unicode="&#x152;" horiz-adv-x="1033" 
d="M325 -13q-113 0 -185 60t-72 171v257q0 115 71 183.5t186 68.5q79 0 138 -30t88 -88v104h423v-28h-392v-299h315v-28h-315v-330h392v-28h-423v116q-29 -61 -88 -95t-138 -34zM326 15q102 0 163.5 60t61.5 158v259q0 95 -61.5 150t-168.5 55q-101 0 -160.5 -63t-59.5 -164
v-241q0 -98 60.5 -156t164.5 -58z" />
    <glyph glyph-name="oe" unicode="&#x153;" horiz-adv-x="826" 
d="M246 -13q-93 0 -142 47.5t-49 139.5v141q0 93 50.5 141t138.5 48q143 0 175 -115q22 55 68 85t110 30q84 0 131.5 -51t47.5 -143v-62h-344v-80q0 -71 44.5 -113t123.5 -42q86 0 143 63l21 -15q-58 -74 -167 -74q-141 0 -180 114q-18 -55 -62 -84.5t-109 -29.5zM246 13
q155 0 155 170v134q0 73 -38 117t-120 44q-81 0 -119.5 -44.5t-38.5 -121.5v-136q0 -163 161 -163zM432 272h315v42q0 69 -38 116.5t-119 47.5q-76 0 -117 -51.5t-41 -119.5v-35z" />
    <glyph glyph-name="Racute" unicode="&#x154;" horiz-adv-x="600" 
d="M252 791l105 147h38l-115 -147h-28zM85 0v713h225q104 0 165 -54t61 -147q0 -87 -52.5 -143t-153.5 -63l235 -306h-38l-233 305h-178v-305h-31zM116 332h174q212 0 212 180q0 84 -55.5 129t-156.5 45h-174v-354z" />
    <glyph glyph-name="racute" unicode="&#x155;" horiz-adv-x="346" 
d="M164 571l105 147h38l-115 -147h-28zM78 0v491h29v-122h1q50 128 194 128q15 0 31 -2v-29q-17 2 -45 2q-76 0 -126.5 -51.5t-53.5 -140.5v-276h-30z" />
    <glyph glyph-name="Rcommaaccent" unicode="&#x156;" horiz-adv-x="600" 
d="M273 -187l4 139h38l-17 -139h-25zM85 0v713h225q104 0 165 -54t61 -147q0 -87 -52.5 -143t-153.5 -63l235 -306h-38l-233 305h-178v-305h-31zM116 332h174q212 0 212 180q0 84 -55.5 129t-156.5 45h-174v-354z" />
    <glyph glyph-name="rcommaaccent" unicode="&#x157;" horiz-adv-x="346" 
d="M78 -187l4 139h38l-17 -139h-25zM78 0v491h29v-122h1q50 128 194 128q15 0 31 -2v-29q-17 2 -45 2q-76 0 -126.5 -51.5t-53.5 -140.5v-276h-30z" />
    <glyph glyph-name="Rcaron" unicode="&#x158;" horiz-adv-x="600" 
d="M260 787l-82 147h31l67 -123l75 123h32l-91 -147h-32zM85 0v713h225q104 0 165 -54t61 -147q0 -87 -52.5 -143t-153.5 -63l235 -306h-38l-233 305h-178v-305h-31zM116 332h174q212 0 212 180q0 84 -55.5 129t-156.5 45h-174v-354z" />
    <glyph glyph-name="rcaron" unicode="&#x159;" horiz-adv-x="346" 
d="M166 567l-82 147h31l67 -123l75 123h32l-91 -147h-32zM78 0v491h29v-122h1q50 128 194 128q15 0 31 -2v-29q-17 2 -45 2q-76 0 -126.5 -51.5t-53.5 -140.5v-276h-30z" />
    <glyph glyph-name="Sacute" unicode="&#x15a;" horiz-adv-x="570" 
d="M268 780l105 147h38l-115 -147h-28zM293 -13q-97 0 -162 44t-86 121l30 9q23 -69 80.5 -107.5t141.5 -38.5q86 0 141 44.5t55 116.5q0 69 -31 104t-91 54l-148 47q-144 45 -144 173q0 75 60 124t150 49q158 0 219 -120l-26 -12q-59 104 -190 104q-73 0 -126.5 -37
t-53.5 -104q0 -52 28 -89t102 -62l148 -46q135 -40 135 -179q0 -87 -62 -141t-170 -54z" />
    <glyph glyph-name="sacute" unicode="&#x15b;" horiz-adv-x="443" 
d="M200 571l105 147h38l-115 -147h-28zM221 -13q-116 0 -181 62l21 20q67 -55 161 -55q56 0 98.5 31t42.5 82q0 50 -27.5 73t-84.5 35l-49 11q-142 28 -142 125q0 56 41.5 94.5t119.5 38.5q97 0 149 -42l-19 -19q-57 36 -134 36q-55 0 -90.5 -29.5t-35.5 -72.5t28.5 -66.5
t91.5 -37.5l72 -16q111 -29 111 -119q0 -71 -51 -111t-122 -40z" />
    <glyph glyph-name="Scircumflex" unicode="&#x15c;" horiz-adv-x="570" 
d="M191 787l89 147h32l84 -147h-31l-69 123l-73 -123h-32zM293 -13q-97 0 -162 44t-86 121l30 9q23 -69 80.5 -107.5t141.5 -38.5q86 0 141 44.5t55 116.5q0 69 -31 104t-91 54l-148 47q-144 45 -144 173q0 75 60 124t150 49q158 0 219 -120l-26 -12q-59 104 -190 104
q-73 0 -126.5 -37t-53.5 -104q0 -52 28 -89t102 -62l148 -46q135 -40 135 -179q0 -87 -62 -141t-170 -54z" />
    <glyph glyph-name="scircumflex" unicode="&#x15d;" horiz-adv-x="443" 
d="M118 567l89 147h32l84 -147h-31l-69 123l-73 -123h-32zM221 -13q-116 0 -181 62l21 20q67 -55 161 -55q56 0 98.5 31t42.5 82q0 50 -27.5 73t-84.5 35l-49 11q-142 28 -142 125q0 56 41.5 94.5t119.5 38.5q97 0 149 -42l-19 -19q-57 36 -134 36q-55 0 -90.5 -29.5
t-35.5 -72.5t28.5 -66.5t91.5 -37.5l72 -16q111 -29 111 -119q0 -71 -51 -111t-122 -40z" />
    <glyph glyph-name="Scedilla" unicode="&#x15e;" horiz-adv-x="570" 
d="M309 -199q-55 0 -99 20v22q48 -19 99 -19q75 0 75 51q0 46 -86 47h-21l11 65q-95 1 -159 45t-84 120l30 9q23 -69 80.5 -107.5t141.5 -38.5q86 0 141 44.5t55 116.5q0 69 -31 104t-91 54l-148 47q-144 45 -144 173q0 75 60 124t150 49q158 0 219 -120l-26 -12
q-59 104 -190 104q-73 0 -126.5 -37t-53.5 -104q0 -52 28 -89t102 -62l148 -46q135 -40 135 -179q0 -83 -57.5 -136.5t-158.5 -57.5l-8 -46q110 0 110 -65q0 -34 -25.5 -55t-76.5 -21z" />
    <glyph glyph-name="scedilla" unicode="&#x15f;" horiz-adv-x="443" 
d="M222 -199q-55 0 -99 20v22q48 -19 99 -19q75 0 75 51q0 46 -86 47h-21l11 66q-102 5 -161 61l21 20q67 -55 161 -55q56 0 98.5 31t42.5 82q0 50 -27.5 73t-84.5 35l-49 11q-142 28 -142 125q0 56 41.5 94.5t119.5 38.5q97 0 149 -42l-19 -19q-57 36 -134 36
q-55 0 -90.5 -29.5t-35.5 -72.5t28.5 -66.5t91.5 -37.5l72 -16q111 -29 111 -119q0 -71 -50.5 -110.5t-121.5 -40.5l-8 -45q110 0 110 -65q0 -34 -25.5 -55t-76.5 -21z" />
    <glyph glyph-name="Scaron" unicode="&#x160;" horiz-adv-x="570" 
d="M276 787l-82 147h31l67 -123l75 123h32l-91 -147h-32zM293 -13q-97 0 -162 44t-86 121l30 9q23 -69 80.5 -107.5t141.5 -38.5q86 0 141 44.5t55 116.5q0 69 -31 104t-91 54l-148 47q-144 45 -144 173q0 75 60 124t150 49q158 0 219 -120l-26 -12q-59 104 -190 104
q-73 0 -126.5 -37t-53.5 -104q0 -52 28 -89t102 -62l148 -46q135 -40 135 -179q0 -87 -62 -141t-170 -54z" />
    <glyph glyph-name="scaron" unicode="&#x161;" horiz-adv-x="443" 
d="M200 567l-82 147h31l67 -123l75 123h32l-91 -147h-32zM221 -13q-116 0 -181 62l21 20q67 -55 161 -55q56 0 98.5 31t42.5 82q0 50 -27.5 73t-84.5 35l-49 11q-142 28 -142 125q0 56 41.5 94.5t119.5 38.5q97 0 149 -42l-19 -19q-57 36 -134 36q-55 0 -90.5 -29.5
t-35.5 -72.5t28.5 -66.5t91.5 -37.5l72 -16q111 -29 111 -119q0 -71 -51 -111t-122 -40z" />
    <glyph glyph-name="Tcommaaccent" unicode="&#x162;" horiz-adv-x="593" 
d="M276 -187l4 139h38l-17 -139h-25zM282 0v685h-258v28h545v-28h-256v-685h-31z" />
    <glyph glyph-name="tcommaaccent" unicode="&#x163;" horiz-adv-x="363" 
d="M142 -187l4 139h38l-17 -139h-25zM238 -9q-110 0 -110 99v375h-104v25h104v158h30v-158h165v-25h-165v-365q0 -45 22 -63.5t69 -18.5q29 0 83 13v-25q-39 -15 -94 -15z" />
    <glyph glyph-name="Tcaron" unicode="&#x164;" horiz-adv-x="593" 
d="M276 787l-82 147h31l67 -123l75 123h32l-91 -147h-32zM282 0v685h-258v28h545v-28h-256v-685h-31z" />
    <glyph glyph-name="tcaron" unicode="&#x165;" horiz-adv-x="363" 
d="M238 -9q-110 0 -110 99v375h-104v25h104v158h30v-158h165v-25h-165v-365q0 -45 22 -63.5t69 -18.5q29 0 83 13v-25q-39 -15 -94 -15zM249 571l4 142h36l-17 -142h-23z" />
    <glyph glyph-name="Tbar" unicode="&#x166;" horiz-adv-x="593" 
d="M153 362v25h129v298h-258v28h545v-28h-256v-298h128v-25h-128v-362h-31v362h-129z" />
    <glyph glyph-name="tbar" unicode="&#x167;" horiz-adv-x="363" 
d="M70 291v24h58v150h-104v25h104v158h30v-158h165v-25h-165v-150h89v-24h-89v-191q0 -45 22 -63.5t69 -18.5q29 0 83 13v-25q-39 -15 -94 -15q-110 0 -110 99v201h-58z" />
    <glyph glyph-name="Utilde" unicode="&#x168;" horiz-adv-x="657" 
d="M326 -13q-45 0 -86.5 12.5t-78.5 38.5t-59.5 73t-22.5 109v493h31v-480q0 -114 63 -166t157 -52q101 0 161 56.5t57 153.5v488h29v-492q2 -108 -67 -171t-184 -63zM202 797l-24 4q5 30 25.5 51t50.5 21q28 0 76 -19.5t71 -19.5q22 0 34 12t20 37l23 -5q-8 -34 -29 -53
t-49 -19q-26 0 -75 20t-73 20q-34 0 -50 -49z" />
    <glyph glyph-name="utilde" unicode="&#x169;" horiz-adv-x="511" 
d="M218 -13q-70 0 -107 41t-37 106v357h31v-346q0 -71 32.5 -101t91.5 -30q65 0 119.5 52.5t54.5 126.5v298h30v-491h-28v110h-2q-25 -59 -75.5 -91t-109.5 -32zM136 577l-24 4q5 30 25.5 51t50.5 21q28 0 76 -19.5t71 -19.5q22 0 34 12t20 37l23 -5q-8 -34 -29 -53t-49 -19
q-26 0 -75 20t-73 20q-34 0 -50 -49z" />
    <glyph glyph-name="Umacron" unicode="&#x16a;" horiz-adv-x="657" 
d="M326 -13q-45 0 -86.5 12.5t-78.5 38.5t-59.5 73t-22.5 109v493h31v-480q0 -114 63 -166t157 -52q101 0 161 56.5t57 153.5v488h29v-492q2 -108 -67 -171t-184 -63zM210 825v28h247v-28h-247z" />
    <glyph glyph-name="umacron" unicode="&#x16b;" horiz-adv-x="511" 
d="M218 -13q-70 0 -107 41t-37 106v357h31v-346q0 -71 32.5 -101t91.5 -30q65 0 119.5 52.5t54.5 126.5v298h30v-491h-28v110h-2q-25 -59 -75.5 -91t-109.5 -32zM137 605v28h247v-28h-247z" />
    <glyph glyph-name="Ubreve" unicode="&#x16c;" horiz-adv-x="657" 
d="M326 -13q-45 0 -86.5 12.5t-78.5 38.5t-59.5 73t-22.5 109v493h31v-480q0 -114 63 -166t157 -52q101 0 161 56.5t57 153.5v488h29v-492q2 -108 -67 -171t-184 -63zM331 796q-51 0 -86 32t-37 87h26q4 -42 29 -68.5t71 -26.5q38 0 63 26.5t27 68.5h26q-3 -58 -38.5 -88.5
t-80.5 -30.5z" />
    <glyph glyph-name="ubreve" unicode="&#x16d;" horiz-adv-x="511" 
d="M218 -13q-70 0 -107 41t-37 106v357h31v-346q0 -71 32.5 -101t91.5 -30q65 0 119.5 52.5t54.5 126.5v298h30v-491h-28v110h-2q-25 -59 -75.5 -91t-109.5 -32zM258 576q-51 0 -86 32t-37 87h26q4 -42 29 -68.5t71 -26.5q38 0 63 26.5t27 68.5h26q-3 -58 -38.5 -88.5
t-80.5 -30.5z" />
    <glyph glyph-name="Uring" unicode="&#x16e;" horiz-adv-x="657" 
d="M332 761q-39 0 -59.5 23.5t-20.5 55.5q0 34 22 58.5t56 24.5q40 0 61 -22t21 -57t-22.5 -59t-57.5 -24zM332 779q25 0 42.5 16.5t17.5 46.5q0 29 -17 45.5t-45 16.5q-26 0 -41.5 -17t-15.5 -47q0 -31 17.5 -46t41.5 -15zM326 -13q-45 0 -86.5 12.5t-78.5 38.5t-59.5 73
t-22.5 109v493h31v-480q0 -114 63 -166t157 -52q101 0 161 56.5t57 153.5v488h29v-492q2 -108 -67 -171t-184 -63z" />
    <glyph glyph-name="uring" unicode="&#x16f;" horiz-adv-x="511" 
d="M255 556q-39 0 -59.5 23.5t-20.5 55.5q0 34 22 58.5t56 24.5q40 0 61 -22t21 -57t-22.5 -59t-57.5 -24zM255 574q25 0 42.5 16.5t17.5 46.5q0 29 -17 45.5t-45 16.5q-26 0 -41.5 -17t-15.5 -47q0 -31 17.5 -46t41.5 -15zM218 -13q-70 0 -107 41t-37 106v357h31v-346
q0 -71 32.5 -101t91.5 -30q65 0 119.5 52.5t54.5 126.5v298h30v-491h-28v110h-2q-25 -59 -75.5 -91t-109.5 -32z" />
    <glyph glyph-name="Uhungarumlaut" unicode="&#x170;" horiz-adv-x="657" 
d="M326 -13q-45 0 -86.5 12.5t-78.5 38.5t-59.5 73t-22.5 109v493h31v-480q0 -114 63 -166t157 -52q101 0 161 56.5t57 153.5v488h29v-492q2 -108 -67 -171t-184 -63zM252 783l38 105h39l-51 -105h-26zM374 783l38 105h39l-50 -105h-27z" />
    <glyph glyph-name="uhungarumlaut" unicode="&#x171;" horiz-adv-x="511" 
d="M218 -13q-70 0 -107 41t-37 106v357h31v-346q0 -71 32.5 -101t91.5 -30q65 0 119.5 52.5t54.5 126.5v298h30v-491h-28v110h-2q-25 -59 -75.5 -91t-109.5 -32zM183 580l38 105h39l-51 -105h-26zM305 580l38 105h39l-50 -105h-27z" />
    <glyph glyph-name="Uogonek" unicode="&#x172;" horiz-adv-x="657" 
d="M326 -13q-45 0 -86.5 12.5t-78.5 38.5t-59.5 73t-22.5 109v493h31v-480q0 -114 63 -166t157 -52q101 0 161 56.5t57 153.5v488h29v-492q1 -89 -46 -148t-129 -77q-26 -17 -42.5 -43.5t-16.5 -50.5q0 -35 19 -52.5t51 -17.5t67 20l12 -18q-30 -27 -85 -27q-36 0 -65 22
t-29 67q0 54 52 93q-24 -2 -39 -2z" />
    <glyph glyph-name="uogonek" unicode="&#x173;" horiz-adv-x="511" 
d="M420 -193q-36 0 -64.5 22t-28.5 67q0 75 78 111v103h-2q-25 -59 -75.5 -91t-109.5 -32q-70 0 -107 41t-37 106v357h31v-346q0 -71 32.5 -101t91.5 -30q65 0 119.5 52.5t54.5 126.5v298h30v-491h-1q-34 -13 -55 -41.5t-21 -56.5q0 -35 19.5 -52.5t51.5 -17.5t67 20l12 -18
q-32 -27 -86 -27z" />
    <glyph glyph-name="Wcircumflex" unicode="&#x174;" horiz-adv-x="846" 
d="M319 787l89 147h32l84 -147h-31l-69 123l-73 -123h-32zM219 -4l-184 717h33l167 -674h1l171 674h34l168 -671h1l169 671h31l-185 -717h-33l-168 671h-2l-169 -671h-34z" />
    <glyph glyph-name="wcircumflex" unicode="&#x175;" horiz-adv-x="732" 
d="M263 567l89 147h32l84 -147h-31l-69 123l-73 -123h-32zM187 -2l-154 493h33l137 -455h1l146 455h34l139 -455h1l145 455h30l-161 -493h-31l-140 456h-2l-146 -456h-32z" />
    <glyph glyph-name="Ycircumflex" unicode="&#x176;" horiz-adv-x="558" 
d="M263 0v306l-223 407h37l203 -375l203 375h35l-224 -407v-306h-31zM177 787l89 147h32l84 -147h-31l-69 123l-73 -123h-32z" />
    <glyph glyph-name="ycircumflex" unicode="&#x177;" horiz-adv-x="460" 
d="M68 -204q-29 0 -60 8v27q28 -9 65 -9q77 0 108 81l41 107l-189 481h33l170 -441h1l162 441h30l-216 -581q-38 -114 -145 -114zM127 567l89 147h32l84 -147h-31l-69 123l-73 -123h-32z" />
    <glyph glyph-name="Ydieresis" unicode="&#x178;" horiz-adv-x="558" 
d="M263 0v306l-223 407h37l203 -375l203 375h35l-224 -407v-306h-31zM170 797v79h31v-79h-31zM355 797v79h32v-79h-32z" />
    <glyph glyph-name="Zacute" unicode="&#x179;" horiz-adv-x="520" 
d="M236 778l105 147h38l-115 -147h-28zM31 0v22l405 665h-392v26h429v-24l-402 -661h400v-28h-440z" />
    <glyph glyph-name="zacute" unicode="&#x17a;" horiz-adv-x="432" 
d="M202 571l105 147h38l-115 -147h-28zM42 0v20l306 446h-297v25h335v-22l-306 -445h307v-24h-345z" />
    <glyph glyph-name="Zdotaccent" unicode="&#x17b;" horiz-adv-x="520" 
d="M31 0v22l405 665h-392v26h429v-24l-402 -661h400v-28h-440zM247 774v85h35v-85h-35z" />
    <glyph glyph-name="zdotaccent" unicode="&#x17c;" horiz-adv-x="432" 
d="M42 0v20l306 446h-297v25h335v-22l-306 -445h307v-24h-345zM208 576v85h35v-85h-35z" />
    <glyph glyph-name="Zcaron" unicode="&#x17d;" horiz-adv-x="520" 
d="M239 787l-82 147h31l67 -123l75 123h32l-91 -147h-32zM31 0v22l405 665h-392v26h429v-24l-402 -661h400v-28h-440z" />
    <glyph glyph-name="zcaron" unicode="&#x17e;" horiz-adv-x="432" 
d="M203 567l-82 147h31l67 -123l75 123h32l-91 -147h-32zM42 0v20l306 446h-297v25h335v-22l-306 -445h307v-24h-345z" />
    <glyph glyph-name="florin" unicode="&#x192;" horiz-adv-x="367" 
d="M9 -210q-26 0 -35 1l2 27q11 -2 37 -2q53 0 77 29t30 83l52 491h-116l3 25h116l16 150q7 65 43 100.5t94 35.5q29 0 51 -7l-3 -28q-19 7 -53 7q-40 0 -68 -25t-34 -78l-16 -155h127l-3 -25h-127l-52 -495q-15 -134 -141 -134z" />
    <glyph glyph-name="Aringacute" unicode="&#x1fa;" horiz-adv-x="642" 
d="M41 0l267 717h32l262 -717h-33l-94 257h-309l-94 -257h-31zM175 284h291l-143 396h-1zM321 776q-39 0 -59.5 23.5t-20.5 55.5q0 38 27 63l97 93l23 -18l-77 -59q39 5 64.5 -16t25.5 -59q0 -35 -22.5 -59t-57.5 -24zM321 794q25 0 42.5 16.5t17.5 46.5q0 29 -17 45.5
t-45 16.5q-26 0 -41.5 -17t-15.5 -47q0 -31 17.5 -46t41.5 -15z" />
    <glyph glyph-name="aringacute" unicode="&#x1fb;" horiz-adv-x="487" 
d="M213 -12q-66 0 -112 36.5t-46 100.5q0 42 17.5 72t46.5 45.5t58.5 22.5t60.5 7h151v89q0 117 -141 117q-59 0 -101.5 -24.5t-42.5 -78.5v-16h-28v16q0 66 50.5 97.5t126.5 31.5q74 0 120 -31.5t46 -101.5v-239q0 -19 3 -73.5t3 -58.5h-29q-4 44 -4 93h-2
q-46 -105 -177 -105zM221 14q76 0 122 44t46 118v70h-141q-162 0 -162 -120q0 -54 40.5 -83t94.5 -29zM243 556q-39 0 -59.5 23.5t-20.5 55.5q0 38 27 63l97 93l23 -18l-77 -59q39 5 64.5 -16t25.5 -59q0 -35 -22.5 -59t-57.5 -24zM243 574q25 0 42.5 16.5t17.5 46.5
q0 29 -17 45.5t-45 16.5q-26 0 -41.5 -17t-15.5 -47q0 -31 17.5 -46t41.5 -15z" />
    <glyph glyph-name="AEacute" unicode="&#x1fc;" horiz-adv-x="948" 
d="M476 791l105 147h38l-115 -147h-28zM27 0l421 713h442v-28h-392v-299h315v-28h-315v-330h392v-28h-423v228h-271l-134 -228h-35zM212 255h255v433z" />
    <glyph glyph-name="aeacute" unicode="&#x1fd;" horiz-adv-x="814" 
d="M402 571l105 147h38l-115 -147h-28zM584 -13q-150 0 -185 121q-45 -120 -186 -120q-66 0 -112 36.5t-46 100.5q0 42 17.5 72t46.5 45.5t58.5 22.5t60.5 7h151v89q0 117 -141 117q-59 0 -101.5 -24.5t-42.5 -78.5v-16h-28v16q0 66 50.5 97.5t126.5 31.5q63 0 106.5 -24.5
t53.5 -76.5q23 49 68 75t104 26q83 0 131 -51t48 -143v-62h-345v-73q0 -75 44 -118.5t125 -43.5q85 0 142 63l22 -15q-58 -74 -168 -74zM221 14q75 0 121 43.5t47 117.5v71h-141q-162 0 -162 -120q0 -54 40.5 -83t94.5 -29zM419 272h315v42q0 69 -37.5 116.5t-118.5 47.5
q-74 0 -115.5 -50t-43.5 -116v-40z" />
    <glyph glyph-name="Oslashacute" unicode="&#x1fe;" 
d="M114 -37l-22 12l44 76q-68 60 -68 167v258q0 115 71 183.5t187 68.5q106 0 173 -51l38 66l23 -12l-41 -71q64 -62 64 -166v-255q0 -115 -71 -183.5t-186 -68.5q-102 0 -170 48zM101 229q0 -93 52 -148l329 568q-62 49 -161 49q-101 0 -160.5 -63t-59.5 -164v-242zM326 15
q102 0 163.5 60t61.5 158v260q0 84 -49 138l-330 -568q59 -48 154 -48zM311 791l105 147h38l-115 -147h-28z" />
    <glyph glyph-name="oslashacute" unicode="&#x1ff;" horiz-adv-x="486" 
d="M100 -45l-21 11l34 60q-58 47 -58 148v141q0 93 50.5 141t138.5 48q76 0 122 -33l34 60l21 -11l-37 -65q48 -46 48 -140v-139q0 -92 -49.5 -140.5t-136.5 -48.5q-68 0 -113 25zM85 176q0 -82 43 -124l223 393q-41 33 -108 33q-81 0 -119.5 -44.5t-38.5 -121.5v-136z
M246 13q82 0 118.5 42.5t36.5 123.5v138q0 70 -33 110l-221 -390q38 -24 99 -24zM219 571l105 147h38l-115 -147h-28z" />
    <glyph glyph-name="Scommaaccent" unicode="&#x218;" horiz-adv-x="570" 
d="M285 -187l4 139h38l-17 -139h-25zM293 -13q-97 0 -162 44t-86 121l30 9q23 -69 80.5 -107.5t141.5 -38.5q86 0 141 44.5t55 116.5q0 69 -31 104t-91 54l-148 47q-144 45 -144 173q0 75 60 124t150 49q158 0 219 -120l-26 -12q-59 104 -190 104q-73 0 -126.5 -37
t-53.5 -104q0 -52 28 -89t102 -62l148 -46q135 -40 135 -179q0 -87 -62 -141t-170 -54z" />
    <glyph glyph-name="scommaaccent" unicode="&#x219;" horiz-adv-x="443" 
d="M201 -187l4 139h38l-17 -139h-25zM221 -13q-116 0 -181 62l21 20q67 -55 161 -55q56 0 98.5 31t42.5 82q0 50 -27.5 73t-84.5 35l-49 11q-142 28 -142 125q0 56 41.5 94.5t119.5 38.5q97 0 149 -42l-19 -19q-57 36 -134 36q-55 0 -90.5 -29.5t-35.5 -72.5t28.5 -66.5
t91.5 -37.5l72 -16q111 -29 111 -119q0 -71 -51 -111t-122 -40z" />
    <glyph glyph-name="uni021A" unicode="&#x21a;" horiz-adv-x="593" 
d="M276 -187l4 139h38l-17 -139h-25zM282 0v685h-258v28h545v-28h-256v-685h-31z" />
    <glyph glyph-name="uni021B" unicode="&#x21b;" horiz-adv-x="363" 
d="M142 -187l4 139h38l-17 -139h-25zM238 -9q-110 0 -110 99v375h-104v25h104v158h30v-158h165v-25h-165v-365q0 -45 22 -63.5t69 -18.5q29 0 83 13v-25q-39 -15 -94 -15z" />
    <glyph glyph-name="dotlessj" unicode="&#x237;" horiz-adv-x="212" 
d="M4 -210q-26 0 -35 1v27q11 -1 37 -1q54 0 75.5 29t21.5 83v562h30v-567q0 -134 -129 -134z" />
    <glyph glyph-name="circumflex" unicode="&#x2c6;" horiz-adv-x="398" 
d="M97 567l89 147h32l84 -147h-31l-69 123l-73 -123h-32z" />
    <glyph glyph-name="caron" unicode="&#x2c7;" horiz-adv-x="396" 
d="M180 567l-82 147h31l67 -123l75 123h32l-91 -147h-32z" />
    <glyph glyph-name="breve" unicode="&#x2d8;" horiz-adv-x="361" 
d="M187 576q-51 0 -86 32t-37 87h26q4 -42 29 -68.5t71 -26.5q38 0 63 26.5t27 68.5h26q-3 -58 -38.5 -88.5t-80.5 -30.5z" />
    <glyph glyph-name="dotaccent" unicode="&#x2d9;" horiz-adv-x="185" 
d="M75 576v85h35v-85h-35z" />
    <glyph glyph-name="ring" unicode="&#x2da;" horiz-adv-x="289" 
d="M152 556q-39 0 -59.5 23.5t-20.5 55.5q0 34 22 58.5t56 24.5q40 0 61 -22t21 -57t-22.5 -59t-57.5 -24zM152 574q25 0 42.5 16.5t17.5 46.5q0 29 -17 45.5t-45 16.5q-26 0 -41.5 -17t-15.5 -47q0 -31 17.5 -46t41.5 -15z" />
    <glyph glyph-name="ogonek" unicode="&#x2db;" horiz-adv-x="321" 
d="M170 -193q-36 0 -64.5 22t-28.5 67q0 40 24.5 70t62.5 45l18 -11q-34 -13 -55 -41.5t-21 -56.5q0 -35 19.5 -52.5t51.5 -17.5t67 20l12 -18q-32 -27 -86 -27z" />
    <glyph glyph-name="tilde" unicode="&#x2dc;" horiz-adv-x="399" 
d="M83 577l-24 4q5 30 25.5 51t50.5 21q28 0 76 -19.5t71 -19.5q22 0 34 12t20 37l23 -5q-8 -34 -29 -53t-49 -19q-26 0 -75 20t-73 20q-34 0 -50 -49z" />
    <glyph glyph-name="hungarumlaut" unicode="&#x2dd;" horiz-adv-x="365" 
d="M80 580l38 105h39l-51 -105h-26zM202 580l38 105h39l-50 -105h-27z" />
    <glyph glyph-name="pi" unicode="&#x3c0;" horiz-adv-x="497" 
d="M414 -4q-41 0 -63.5 25t-22.5 72v376h-178q-10 -297 -24 -469h-42q16 186 24 469h-79l6 32h423v-32h-89v-372q0 -64 55 -64q27 0 44 5v-34q-22 -8 -54 -8z" />
    <glyph glyph-name="Wgrave" unicode="&#x1e80;" horiz-adv-x="846" 
d="M219 -4l-184 717h33l167 -674h1l171 674h34l168 -671h1l169 671h31l-185 -717h-33l-168 671h-2l-169 -671h-34zM405 791l-115 147h38l105 -147h-28z" />
    <glyph glyph-name="wgrave" unicode="&#x1e81;" horiz-adv-x="732" 
d="M187 -2l-154 493h33l137 -455h1l146 455h34l139 -455h1l145 455h30l-161 -493h-31l-140 456h-2l-146 -456h-32zM350 571l-115 147h38l105 -147h-28z" />
    <glyph glyph-name="Wacute" unicode="&#x1e82;" horiz-adv-x="846" 
d="M417 791l105 147h38l-115 -147h-28zM219 -4l-184 717h33l167 -674h1l171 674h34l168 -671h1l169 671h31l-185 -717h-33l-168 671h-2l-169 -671h-34z" />
    <glyph glyph-name="wacute" unicode="&#x1e83;" horiz-adv-x="732" 
d="M356 571l105 147h38l-115 -147h-28zM187 -2l-154 493h33l137 -455h1l146 455h34l139 -455h1l145 455h30l-161 -493h-31l-140 456h-2l-146 -456h-32z" />
    <glyph glyph-name="Wdieresis" unicode="&#x1e84;" horiz-adv-x="846" 
d="M314 797v79h31v-79h-31zM499 797v79h32v-79h-32zM219 -4l-184 717h33l167 -674h1l171 674h34l168 -671h1l169 671h31l-185 -717h-33l-168 671h-2l-169 -671h-34z" />
    <glyph glyph-name="wdieresis" unicode="&#x1e85;" horiz-adv-x="732" 
d="M257 577v79h31v-79h-31zM442 577v79h32v-79h-32zM187 -2l-154 493h33l137 -455h1l146 455h34l139 -455h1l145 455h30l-161 -493h-31l-140 456h-2l-146 -456h-32z" />
    <glyph glyph-name="Ygrave" unicode="&#x1ef2;" horiz-adv-x="558" 
d="M263 0v306l-223 407h37l203 -375l203 375h35l-224 -407v-306h-31zM259 791l-115 147h38l105 -147h-28z" />
    <glyph glyph-name="ygrave" unicode="&#x1ef3;" horiz-adv-x="460" 
d="M68 -204q-29 0 -60 8v27q28 -9 65 -9q77 0 108 81l41 107l-189 481h33l170 -441h1l162 441h30l-216 -581q-38 -114 -145 -114zM224 571l-115 147h38l105 -147h-28z" />
    <glyph glyph-name="endash" unicode="&#x2013;" horiz-adv-x="425" 
d="M0 273v24h425v-24h-425z" />
    <glyph glyph-name="emdash" unicode="&#x2014;" horiz-adv-x="740" 
d="M0 273v24h740v-24h-740z" />
    <glyph glyph-name="quoteleft" unicode="&#x2018;" horiz-adv-x="187" 
d="M74 537v87l18 94h18l-13 -94h13v-87h-36z" />
    <glyph glyph-name="quoteright" unicode="&#x2019;" horiz-adv-x="188" 
d="M77 536l13 95h-13v86h36v-87l-18 -94h-18z" />
    <glyph glyph-name="quotesinglbase" unicode="&#x201a;" horiz-adv-x="186" 
d="M75 -94l13 94h-13v87h36v-87l-18 -94h-18z" />
    <glyph glyph-name="quotedblleft" unicode="&#x201c;" horiz-adv-x="302" 
d="M74 537v87l18 94h18l-13 -94h13v-87h-36zM192 537v87l18 94h18l-12 -94h12v-87h-36z" />
    <glyph glyph-name="quotedblright" unicode="&#x201d;" horiz-adv-x="302" 
d="M75 536l13 95h-13v86h36v-87l-18 -94h-18zM193 536l13 95h-13v86h36v-87l-18 -94h-18z" />
    <glyph glyph-name="quotedblbase" unicode="&#x201e;" horiz-adv-x="302" 
d="M75 -94l13 94h-13v87h36v-87l-18 -94h-18zM193 -94l13 94h-13v87h36v-87l-18 -94h-18z" />
    <glyph glyph-name="dagger" unicode="&#x2020;" horiz-adv-x="546" 
d="M258 -160v659h-214v25h214v190h30v-190h214v-25h-214v-659h-30z" />
    <glyph glyph-name="daggerdbl" unicode="&#x2021;" horiz-adv-x="546" 
d="M258 -160v192h-214v25h214v442h-214v25h214v190h30v-190h214v-25h-214v-442h214v-25h-214v-192h-30z" />
    <glyph glyph-name="bullet" unicode="&#x2022;" horiz-adv-x="372" 
d="M187 281q-34 0 -58 24t-24 57q0 34 24 57.5t58 23.5q33 0 57 -23.5t24 -57.5q0 -33 -24 -57t-57 -24z" />
    <glyph glyph-name="ellipsis" unicode="&#x2026;" horiz-adv-x="677" 
d="M76 0v87h36v-87h-36zM321 0v87h35v-87h-35zM565 0v87h36v-87h-36z" />
    <glyph glyph-name="perthousand" unicode="&#x2030;" horiz-adv-x="1048" 
d="M863 -11q-54 0 -86 28.5t-32 82.5v126q0 57 34 89.5t86 32.5q54 0 88 -29t34 -87v-133q0 -52 -35.5 -81t-88.5 -29zM865 10q45 0 72 25.5t27 62.5v140q0 37 -27 63.5t-72 26.5t-70.5 -25.5t-25.5 -64.5v-140q0 -40 25 -64t71 -24zM179 365q-57 0 -87.5 31.5t-30.5 85.5
v127q0 57 33.5 86t86.5 29q54 0 88 -28.5t34 -86.5v-134q0 -52 -35.5 -81t-88.5 -29zM181 386q45 0 71.5 25.5t26.5 62.5v141q0 37 -26.5 63t-71.5 26t-70.5 -25t-25.5 -64v-141q0 -40 25 -64t71 -24zM554 -11q-54 0 -86 28.5t-32 82.5v126q0 57 34 89.5t86 32.5
q54 0 88 -29t34 -87v-133q0 -52 -35.5 -81t-88.5 -29zM556 10q45 0 72 25.5t27 62.5v140q0 37 -27 63.5t-72 26.5t-70.5 -25.5t-25.5 -64.5v-140q0 -40 25 -64t71 -24zM141 0l442 717h26l-440 -717h-28z" />
    <glyph glyph-name="guilsinglleft" unicode="&#x2039;" horiz-adv-x="320" 
d="M241 91l-178 178l176 178l20 -18l-148 -160l149 -160z" />
    <glyph glyph-name="guilsinglright" unicode="&#x203a;" horiz-adv-x="320" 
d="M83 91l-19 18l148 160l-149 160l18 18l178 -178z" />
    <glyph glyph-name="fraction" unicode="&#x2044;" horiz-adv-x="130" 
d="M-144 -2l394 716h25l-392 -716h-27z" />
    <glyph glyph-name="uni2070" unicode="&#x2070;" horiz-adv-x="344" 
d="M173 367q-55 0 -91.5 29.5t-36.5 82.5v190q0 52 37 82t91 30q55 0 90.5 -30t35.5 -82v-190q0 -52 -36.5 -82t-89.5 -30zM173 388q47 0 73 26t26 68v188q0 37 -27.5 63.5t-72.5 26.5t-72.5 -27t-27.5 -65v-188q0 -39 27.5 -65.5t73.5 -26.5z" />
    <glyph glyph-name="uni2074" unicode="&#x2074;" horiz-adv-x="342" 
d="M216 380v116h-177v20l168 263h30l-171 -262h150v102l25 18v-120h61v-21h-61v-116h-25z" />
    <glyph glyph-name="uni2075" unicode="&#x2075;" horiz-adv-x="342" 
d="M167 367q-56 0 -85.5 25t-29.5 58v20h25v-14q0 -32 26.5 -49.5t63.5 -17.5q40 0 68 24t28 83v7q0 48 -25 72t-64 24q-46 0 -86 -31l-26 3l12 203h195v-22h-173l-10 -164q45 32 96 32q46 0 77 -29t31 -83v-12q0 -64 -33.5 -96.5t-89.5 -32.5z" />
    <glyph glyph-name="uni2076" unicode="&#x2076;" horiz-adv-x="343" 
d="M170 367q-52 0 -84 31.5t-32 80.5v193q0 50 34 79.5t86 29.5t81 -24t29 -66v-11h-24v8q0 34 -23.5 53t-62.5 19q-43 0 -68 -25.5t-25 -62.5v-106q17 28 46.5 44t60.5 16q42 0 71.5 -25.5t29.5 -65.5v-65q0 -49 -32.5 -76t-86.5 -27zM174 389q43 0 66 22t23 56v59
q0 40 -26 59t-61 19q-34 0 -64.5 -24t-30.5 -62v-42q0 -35 25 -61t68 -26z" />
    <glyph glyph-name="uni2077" unicode="&#x2077;" horiz-adv-x="341" 
d="M111 380q1 107 46 215t101 162h-206v22h237v-18q-64 -66 -106 -166.5t-43 -214.5h-29z" />
    <glyph glyph-name="uni2078" unicode="&#x2078;" horiz-adv-x="343" 
d="M171 367q-52 0 -85 27.5t-33 73.5v19q0 32 20.5 57t52.5 35q-32 8 -50.5 31.5t-18.5 51.5v19q0 47 33.5 73.5t80.5 26.5q49 0 81.5 -24.5t32.5 -71.5q1 -6 0 -21q0 -27 -19 -51t-51 -33q32 -9 53.5 -33.5t21.5 -58.5v-18q0 -48 -33.5 -75.5t-85.5 -27.5zM171 388
q41 0 66 22.5t25 62.5v14q0 40 -27 60.5t-64 20.5t-64.5 -21t-27.5 -60v-18q0 -36 26.5 -58.5t65.5 -22.5zM172 588q32 0 59.5 22t27.5 56v20q0 36 -26.5 55t-63.5 19q-33 0 -59.5 -20.5t-26.5 -54.5v-19q0 -38 28 -58t61 -20z" />
    <glyph glyph-name="uni2079" unicode="&#x2079;" horiz-adv-x="343" 
d="M169 368q-51 0 -80.5 24t-29.5 65v12h24v-8q0 -34 23.5 -53t62.5 -19q44 0 68.5 25t24.5 63v107q-30 -61 -106 -61q-41 0 -71.5 26t-30.5 65v59q0 49 33.5 79t86.5 30q52 0 83.5 -32t31.5 -81v-192q0 -51 -33.5 -80t-86.5 -29zM167 544q34 0 64.5 24.5t30.5 63.5v41
q0 35 -24.5 61t-67.5 26q-42 0 -66 -24.5t-24 -58.5v-54q0 -40 26 -59.5t61 -19.5z" />
    <glyph glyph-name="uni207D" unicode="&#x207d;" horiz-adv-x="152" 
d="M112 305q-29 46 -44.5 118.5t-15.5 134.5q0 147 60 252l14 -1q-49 -126 -49 -251q0 -137 50 -252z" />
    <glyph glyph-name="uni207E" unicode="&#x207e;" horiz-adv-x="147" 
d="M36 305l-16 1q50 115 50 252q0 128 -49 251l15 1q60 -107 60 -252q0 -62 -15.5 -134.5t-44.5 -118.5z" />
    <glyph glyph-name="uni2080" unicode="&#x2080;" horiz-adv-x="344" 
d="M173 -146q-55 0 -91.5 29.5t-36.5 82.5v190q0 52 37 82t91 30q55 0 90.5 -30t35.5 -82v-190q0 -52 -36.5 -82t-89.5 -30zM173 -125q47 0 73 26t26 68v188q0 37 -27.5 63.5t-72.5 26.5t-72.5 -27t-27.5 -65v-188q0 -39 27.5 -65.5t73.5 -26.5z" />
    <glyph glyph-name="uni2081" unicode="&#x2081;" horiz-adv-x="305" 
d="M43 -133v20h104v352l-95 -19l-3 18l110 26h14v-377h97v-20h-227z" />
    <glyph glyph-name="uni2082" unicode="&#x2082;" horiz-adv-x="341" 
d="M63 -133v17l99 108q85 98 85 177v3q0 36 -21.5 58t-62.5 22q-37 0 -60.5 -18t-23.5 -51v-16h-24v15q0 44 30.5 68t80.5 24q53 0 80.5 -28t27.5 -74q0 -54 -25.5 -100.5t-77.5 -105.5l-72 -75v-2h187v-22h-223z" />
    <glyph glyph-name="uni2083" unicode="&#x2083;" horiz-adv-x="342" 
d="M167 -146q-56 0 -86 25.5t-30 58.5v19h25v-15q0 -32 28 -49t65 -17q39 0 67 24.5t28 66.5q0 27 -11 46.5t-28 28.5t-31.5 12.5t-26.5 3.5h-44v21h45q38 0 60.5 22.5t22.5 63.5q0 42 -24 62t-59 20q-37 0 -63 -17.5t-26 -54.5v-11h-24v15q0 40 31 64.5t83 24.5
q55 0 81 -30t26 -68q0 -83 -70 -99v-1q37 -9 61 -35t24 -65q0 -52 -35 -84t-89 -32z" />
    <glyph glyph-name="uni2084" unicode="&#x2084;" horiz-adv-x="342" 
d="M216 -133v116h-177v20l168 263h30l-171 -262h150v102l25 18v-120h61v-21h-61v-116h-25z" />
    <glyph glyph-name="uni2085" unicode="&#x2085;" horiz-adv-x="342" 
d="M167 -146q-56 0 -85.5 25t-29.5 58v20h25v-14q0 -32 26.5 -49.5t63.5 -17.5q40 0 68 24t28 83v7q0 48 -25 72t-64 24q-46 0 -86 -31l-26 3l12 203h195v-22h-173l-10 -164q45 32 96 32q46 0 77 -29t31 -83v-12q0 -64 -33.5 -96.5t-89.5 -32.5z" />
    <glyph glyph-name="uni2086" unicode="&#x2086;" horiz-adv-x="343" 
d="M170 -146q-52 0 -84 31.5t-32 80.5v193q0 50 34 79.5t86 29.5t81 -24t29 -66v-11h-24v8q0 34 -23.5 53t-62.5 19q-43 0 -68 -25.5t-25 -62.5v-106q17 28 46.5 44t60.5 16q42 0 71.5 -25.5t29.5 -65.5v-65q0 -49 -32.5 -76t-86.5 -27zM174 -124q43 0 66 22t23 56v59
q0 40 -26 59t-61 19q-34 0 -64.5 -24t-30.5 -62v-42q0 -35 25 -61t68 -26z" />
    <glyph glyph-name="uni2087" unicode="&#x2087;" horiz-adv-x="341" 
d="M111 -133q1 107 46 215t101 162h-206v22h237v-18q-64 -66 -106 -166.5t-43 -214.5h-29z" />
    <glyph glyph-name="uni2088" unicode="&#x2088;" horiz-adv-x="343" 
d="M171 -146q-52 0 -85 27.5t-33 73.5v19q0 32 20.5 57t52.5 35q-32 8 -50.5 31.5t-18.5 51.5v19q0 47 33.5 73.5t80.5 26.5q49 0 81.5 -24.5t32.5 -71.5q1 -6 0 -21q0 -27 -19 -51t-51 -33q32 -9 53.5 -33.5t21.5 -58.5v-18q0 -48 -33.5 -75.5t-85.5 -27.5zM171 -125
q41 0 66 22.5t25 62.5v14q0 40 -27 60.5t-64 20.5t-64.5 -21t-27.5 -60v-18q0 -36 26.5 -58.5t65.5 -22.5zM172 75q32 0 59.5 22t27.5 56v20q0 36 -26.5 55t-63.5 19q-33 0 -59.5 -20.5t-26.5 -54.5v-19q0 -38 28 -58t61 -20z" />
    <glyph glyph-name="uni2089" unicode="&#x2089;" horiz-adv-x="343" 
d="M169 -145q-51 0 -80.5 24t-29.5 65v12h24v-8q0 -34 23.5 -53t62.5 -19q44 0 68.5 25t24.5 63v107q-30 -61 -106 -61q-41 0 -71.5 26t-30.5 65v59q0 49 33.5 79t86.5 30q52 0 83.5 -32t31.5 -81v-192q0 -51 -33.5 -80t-86.5 -29zM167 31q34 0 64.5 24.5t30.5 63.5v41
q0 35 -24.5 61t-67.5 26q-42 0 -66 -24.5t-24 -58.5v-54q0 -40 26 -59.5t61 -19.5z" />
    <glyph glyph-name="uni208D" unicode="&#x208d;" horiz-adv-x="152" 
d="M112 -208q-29 46 -44.5 118.5t-15.5 134.5q0 147 60 252l14 -1q-49 -126 -49 -251q0 -137 50 -252z" />
    <glyph glyph-name="uni208E" unicode="&#x208e;" horiz-adv-x="147" 
d="M36 -208l-16 1q50 115 50 252q0 129 -49 251l15 1q60 -107 60 -252q0 -62 -15.5 -134.5t-44.5 -118.5z" />
    <glyph glyph-name="Euro" unicode="&#x20ac;" horiz-adv-x="704" 
d="M410 -13q-114 0 -180 59.5t-66 171.5v41h-115v23h115v138h-115v23h115v42q0 104 67 173t180 69q107 0 172 -56.5t65 -138.5v-47h-31v38q0 78 -54 126.5t-158 48.5q-99 0 -154 -60.5t-55 -156.5v-38h307v-23h-307v-138h307v-23h-307v-30q0 -99 55.5 -157t158.5 -58
t155 48.5t52 127.5v21h31v-31q0 -85 -64.5 -139t-173.5 -54z" />
    <glyph glyph-name="trademark" unicode="&#x2122;" horiz-adv-x="642" 
d="M323 412v305h22l104 -172l103 172h22v-305h-19l-1 270l-98 -167h-14l-100 167v-270h-19zM156 412v285h-107v20h234v-20h-106v-285h-21z" />
    <glyph glyph-name="Omega" unicode="&#x2126;" horiz-adv-x="649" 
d="M63 0v30l134 -3v3q-65 75 -97 178t-32 194v19q0 147 72.5 225.5t184.5 78.5q117 0 187 -82t70 -212v-25q0 -115 -37 -212.5t-91 -163.5v-3l132 3v-30h-175v13q2 2 20 27.5t22 32t20 31t21 37.5t17 39t16 47.5t11 51t9 61.5t2 68v48q0 106 -66 174t-160 68
q-89 0 -155.5 -67t-66.5 -177v-40q0 -80 12.5 -145.5t36.5 -114.5t43.5 -78t49.5 -64v-12h-180z" />
    <glyph glyph-name="uni2153" unicode="&#x2153;" horiz-adv-x="803" 
d="M61 317v20h104v352l-95 -19l-3 18l110 26h14v-377h97v-20h-227zM189 -1l394 716h25l-392 -716h-27zM608 -13q-56 0 -86 25.5t-30 58.5v19h25v-15q0 -32 28 -49t65 -17q39 0 67 24.5t28 66.5q0 27 -11 46.5t-28 28.5t-31.5 12.5t-26.5 3.5h-44v21h45q38 0 60.5 22.5
t22.5 63.5q0 42 -24 62t-59 20q-37 0 -63 -17.5t-26 -54.5v-11h-24v15q0 40 31 64.5t83 24.5q55 0 81 -30t26 -68q0 -83 -70 -99v-1q37 -9 61 -35t24 -65q0 -52 -35 -84t-89 -32z" />
    <glyph glyph-name="uni2154" unicode="&#x2154;" horiz-adv-x="803" 
d="M74 317v17l99 108q85 98 85 177v3q0 36 -21.5 58t-62.5 22q-37 0 -60.5 -18t-23.5 -51v-16h-24v15q0 44 30.5 68t80.5 24q53 0 80.5 -28t27.5 -74q0 -54 -25.5 -100.5t-77.5 -105.5l-72 -75v-2h187v-22h-223zM190 -1l394 716h25l-392 -716h-27zM608 -13q-56 0 -86 25.5
t-30 58.5v19h25v-15q0 -32 28 -49t65 -17q39 0 67 24.5t28 66.5q0 27 -11 46.5t-28 28.5t-31.5 12.5t-26.5 3.5h-44v21h45q38 0 60.5 22.5t22.5 63.5q0 42 -24 62t-59 20q-37 0 -63 -17.5t-26 -54.5v-11h-24v15q0 40 31 64.5t83 24.5q55 0 81 -30t26 -68q0 -83 -70 -99v-1
q37 -9 61 -35t24 -65q0 -52 -35 -84t-89 -32z" />
    <glyph glyph-name="uni2155" unicode="&#x2155;" horiz-adv-x="803" 
d="M61 317v20h104v352l-95 -19l-3 18l110 26h14v-377h97v-20h-227zM608 -13q-56 0 -85.5 25t-29.5 58v20h25v-14q0 -32 26.5 -49.5t63.5 -17.5q40 0 68 24t28 83v7q0 48 -25 72t-64 24q-46 0 -86 -31l-26 3l12 203h195v-22h-173l-10 -164q45 32 96 32q46 0 77 -29t31 -83
v-12q0 -64 -33.5 -96.5t-89.5 -32.5zM189 -1l394 716h25l-392 -716h-27z" />
    <glyph glyph-name="uni2156" unicode="&#x2156;" horiz-adv-x="803" 
d="M74 317v17l99 108q85 98 85 177v3q0 36 -21.5 58t-62.5 22q-37 0 -60.5 -18t-23.5 -51v-16h-24v15q0 44 30.5 68t80.5 24q53 0 80.5 -28t27.5 -74q0 -54 -25.5 -100.5t-77.5 -105.5l-72 -75v-2h187v-22h-223zM608 -13q-56 0 -85.5 25t-29.5 58v20h25v-14
q0 -32 26.5 -49.5t63.5 -17.5q40 0 68 24t28 83v7q0 48 -25 72t-64 24q-46 0 -86 -31l-26 3l12 203h195v-22h-173l-10 -164q45 32 96 32q46 0 77 -29t31 -83v-12q0 -64 -33.5 -96.5t-89.5 -32.5zM190 -1l394 716h25l-392 -716h-27z" />
    <glyph glyph-name="uni2157" unicode="&#x2157;" horiz-adv-x="803" 
d="M190 -1l394 716h25l-392 -716h-27zM608 -13q-56 0 -85.5 25t-29.5 58v20h25v-14q0 -32 26.5 -49.5t63.5 -17.5q40 0 68 24t28 83v7q0 48 -25 72t-64 24q-46 0 -86 -31l-26 3l12 203h195v-22h-173l-10 -164q45 32 96 32q46 0 77 -29t31 -83v-12q0 -64 -33.5 -96.5
t-89.5 -32.5zM178 304q-56 0 -86 25.5t-30 58.5v19h25v-15q0 -32 28 -49t65 -17q39 0 67 24.5t28 66.5q0 27 -11 46.5t-28 28.5t-31.5 12.5t-26.5 3.5h-44v21h45q38 0 60.5 22.5t22.5 63.5q0 42 -24 62t-59 20q-37 0 -63 -17.5t-26 -54.5v-11h-24v15q0 40 31 64.5t83 24.5
q55 0 81 -30t26 -68q0 -83 -70 -99v-1q37 -9 61 -35t24 -65q0 -52 -35 -84t-89 -32z" />
    <glyph glyph-name="uni2158" unicode="&#x2158;" horiz-adv-x="803" 
d="M227 317v116h-177v20l168 263h30l-171 -262h150v102l25 18v-120h61v-21h-61v-116h-25zM608 -13q-56 0 -85.5 25t-29.5 58v20h25v-14q0 -32 26.5 -49.5t63.5 -17.5q40 0 68 24t28 83v7q0 48 -25 72t-64 24q-46 0 -86 -31l-26 3l12 203h195v-22h-173l-10 -164q45 32 96 32
q46 0 77 -29t31 -83v-12q0 -64 -33.5 -96.5t-89.5 -32.5zM190 -1l394 716h25l-392 -716h-27z" />
    <glyph glyph-name="uni2159" unicode="&#x2159;" horiz-adv-x="803" 
d="M61 317v20h104v352l-95 -19l-3 18l110 26h14v-377h97v-20h-227zM610 -13q-52 0 -84 31.5t-32 80.5v193q0 50 34 79.5t86 29.5t81 -24t29 -66v-11h-24v8q0 34 -23.5 53t-62.5 19q-43 0 -68 -25.5t-25 -62.5v-106q17 28 46.5 44t60.5 16q42 0 71.5 -25.5t29.5 -65.5v-65
q0 -49 -32.5 -76t-86.5 -27zM614 9q43 0 66 22t23 56v59q0 40 -26 59t-61 19q-34 0 -64.5 -24t-30.5 -62v-42q0 -35 25 -61t68 -26zM189 -1l394 716h25l-392 -716h-27z" />
    <glyph glyph-name="uni215A" unicode="&#x215a;" horiz-adv-x="803" 
d="M610 -13q-52 0 -84 31.5t-32 80.5v193q0 50 34 79.5t86 29.5t81 -24t29 -66v-11h-24v8q0 34 -23.5 53t-62.5 19q-43 0 -68 -25.5t-25 -62.5v-106q17 28 46.5 44t60.5 16q42 0 71.5 -25.5t29.5 -65.5v-65q0 -49 -32.5 -76t-86.5 -27zM614 9q43 0 66 22t23 56v59
q0 40 -26 59t-61 19q-34 0 -64.5 -24t-30.5 -62v-42q0 -35 25 -61t68 -26zM185 304q-56 0 -85.5 25t-29.5 58v20h25v-14q0 -32 26.5 -49.5t63.5 -17.5q40 0 68 24t28 83v7q0 48 -25 72t-64 24q-46 0 -86 -31l-26 3l12 203h195v-22h-173l-10 -164q45 32 96 32q46 0 77 -29
t31 -83v-12q0 -64 -33.5 -96.5t-89.5 -32.5zM189 -1l394 716h25l-392 -716h-27z" />
    <glyph glyph-name="uni215B" unicode="&#x215b;" horiz-adv-x="803" 
d="M61 317v20h104v352l-95 -19l-3 18l110 26h14v-377h97v-20h-227zM611 -13q-52 0 -85 27.5t-33 73.5v19q0 32 20.5 57t52.5 35q-32 8 -50.5 31.5t-18.5 51.5v19q0 47 33.5 73.5t80.5 26.5q49 0 81.5 -24.5t32.5 -71.5q1 -6 0 -21q0 -27 -19 -51t-51 -33q32 -9 53.5 -33.5
t21.5 -58.5v-18q0 -48 -33.5 -75.5t-85.5 -27.5zM611 8q41 0 66 22.5t25 62.5v14q0 40 -27 60.5t-64 20.5t-64.5 -21t-27.5 -60v-18q0 -36 26.5 -58.5t65.5 -22.5zM612 208q32 0 59.5 22t27.5 56v20q0 36 -26.5 55t-63.5 19q-33 0 -59.5 -20.5t-26.5 -54.5v-19q0 -38 28 -58
t61 -20zM189 -1l394 716h25l-392 -716h-27z" />
    <glyph glyph-name="uni215C" unicode="&#x215c;" horiz-adv-x="803" 
d="M611 -13q-52 0 -85 27.5t-33 73.5v19q0 32 20.5 57t52.5 35q-32 8 -50.5 31.5t-18.5 51.5v19q0 47 33.5 73.5t80.5 26.5q49 0 81.5 -24.5t32.5 -71.5q1 -6 0 -21q0 -27 -19 -51t-51 -33q32 -9 53.5 -33.5t21.5 -58.5v-18q0 -48 -33.5 -75.5t-85.5 -27.5zM611 8
q41 0 66 22.5t25 62.5v14q0 40 -27 60.5t-64 20.5t-64.5 -21t-27.5 -60v-18q0 -36 26.5 -58.5t65.5 -22.5zM612 208q32 0 59.5 22t27.5 56v20q0 36 -26.5 55t-63.5 19q-33 0 -59.5 -20.5t-26.5 -54.5v-19q0 -38 28 -58t61 -20zM189 -1l394 716h25l-392 -716h-27zM185 304
q-56 0 -86 25.5t-30 58.5v19h25v-15q0 -32 28 -49t65 -17q39 0 67 24.5t28 66.5q0 27 -11 46.5t-28 28.5t-31.5 12.5t-26.5 3.5h-44v21h45q38 0 60.5 22.5t22.5 63.5q0 42 -24 62t-59 20q-37 0 -63 -17.5t-26 -54.5v-11h-24v15q0 40 31 64.5t83 24.5q55 0 81 -30t26 -68
q0 -83 -70 -99v-1q37 -9 61 -35t24 -65q0 -52 -35 -84t-89 -32z" />
    <glyph glyph-name="uni215D" unicode="&#x215d;" horiz-adv-x="803" 
d="M611 -13q-52 0 -85 27.5t-33 73.5v19q0 32 20.5 57t52.5 35q-32 8 -50.5 31.5t-18.5 51.5v19q0 47 33.5 73.5t80.5 26.5q49 0 81.5 -24.5t32.5 -71.5q1 -6 0 -21q0 -27 -19 -51t-51 -33q32 -9 53.5 -33.5t21.5 -58.5v-18q0 -48 -33.5 -75.5t-85.5 -27.5zM611 8
q41 0 66 22.5t25 62.5v14q0 40 -27 60.5t-64 20.5t-64.5 -21t-27.5 -60v-18q0 -36 26.5 -58.5t65.5 -22.5zM612 208q32 0 59.5 22t27.5 56v20q0 36 -26.5 55t-63.5 19q-33 0 -59.5 -20.5t-26.5 -54.5v-19q0 -38 28 -58t61 -20zM185 304q-56 0 -85.5 25t-29.5 58v20h25v-14
q0 -32 26.5 -49.5t63.5 -17.5q40 0 68 24t28 83v7q0 48 -25 72t-64 24q-46 0 -86 -31l-26 3l12 203h195v-22h-173l-10 -164q45 32 96 32q46 0 77 -29t31 -83v-12q0 -64 -33.5 -96.5t-89.5 -32.5zM189 -1l394 716h25l-392 -716h-27z" />
    <glyph glyph-name="uni215E" unicode="&#x215e;" horiz-adv-x="803" 
d="M611 -13q-52 0 -85 27.5t-33 73.5v19q0 32 20.5 57t52.5 35q-32 8 -50.5 31.5t-18.5 51.5v19q0 47 33.5 73.5t80.5 26.5q49 0 81.5 -24.5t32.5 -71.5q1 -6 0 -21q0 -27 -19 -51t-51 -33q32 -9 53.5 -33.5t21.5 -58.5v-18q0 -48 -33.5 -75.5t-85.5 -27.5zM611 8
q41 0 66 22.5t25 62.5v14q0 40 -27 60.5t-64 20.5t-64.5 -21t-27.5 -60v-18q0 -36 26.5 -58.5t65.5 -22.5zM612 208q32 0 59.5 22t27.5 56v20q0 36 -26.5 55t-63.5 19q-33 0 -59.5 -20.5t-26.5 -54.5v-19q0 -38 28 -58t61 -20zM141 317q1 107 46 215t101 162h-206v22h237
v-18q-64 -66 -106 -166.5t-43 -214.5h-29zM169 -1l394 716h25l-392 -716h-27z" />
    <glyph glyph-name="arrowleft" unicode="&#x2190;" horiz-adv-x="736" 
d="M285 163l-196 198v5l196 198l18 -17l-172 -172h516v-24h-516l171 -171z" />
    <glyph glyph-name="arrowup" unicode="&#x2191;" horiz-adv-x="736" 
d="M357 84v516l-173 -171l-16 18l197 196h5l198 -196l-17 -18l-171 171v-516h-23z" />
    <glyph glyph-name="arrowright" unicode="&#x2192;" horiz-adv-x="736" 
d="M451 163l-18 17l172 171h-516v24h516l-171 172l17 17l196 -198v-5z" />
    <glyph glyph-name="arrowdown" unicode="&#x2193;" horiz-adv-x="736" 
d="M365 84l-197 196l17 18l171 -171v516h23v-516l173 171l16 -18l-198 -196h-5z" />
    <glyph glyph-name="uni2196" unicode="&#x2196;" horiz-adv-x="736" 
d="M558 158l-366 365l-1 -243l-23 1v278l4 4h278l1 -24l-242 1l365 -365z" />
    <glyph glyph-name="uni2197" unicode="&#x2197;" horiz-adv-x="736" 
d="M185 158l-17 17l365 365l-241 -1v24h278l4 -4v-278l-23 -1l-1 243z" />
    <glyph glyph-name="uni2198" unicode="&#x2198;" horiz-adv-x="736" 
d="M570 158h-278v24l241 -1l-365 366l17 16l365 -365l1 243l23 -1v-278z" />
    <glyph glyph-name="uni2199" unicode="&#x2199;" horiz-adv-x="736" 
d="M450 158h-278l-4 4v278l23 1l1 -243l366 365l16 -16l-365 -366l242 1z" />
    <glyph glyph-name="partialdiff" unicode="&#x2202;" horiz-adv-x="486" 
d="M245 -13q-92 0 -141 47.5t-49 139.5v133q0 91 53.5 143t141.5 54q50 0 93 -23l-155 241l30 8q49 -74 110 -170.5t75 -118.5q28 -48 28 -133v-124q0 -96 -46.5 -146.5t-139.5 -50.5zM245 13q86 0 121 45t35 129v122q0 80 -32.5 125t-113.5 45q-83 0 -126.5 -47.5
t-43.5 -127.5v-130q0 -161 160 -161z" />
    <glyph glyph-name="Delta" unicode="&#x2206;" horiz-adv-x="642" 
d="M49 0v20l259 697h32l254 -697v-20h-545zM82 27h477l-236 653h-1z" />
    <glyph glyph-name="product" unicode="&#x220f;" horiz-adv-x="741" 
d="M157 -133v819h-106v27h639v-27h-98v-819h-31v819h-373v-819h-31z" />
    <glyph glyph-name="summation" unicode="&#x2211;" horiz-adv-x="472" 
d="M52 -133v30l305 412l-308 375v30h371v-36h-319l293 -353l1 -28l-294 -394h321v-36h-370z" />
    <glyph glyph-name="minus" unicode="&#x2212;" horiz-adv-x="560" 
d="M46 304v24h469v-24h-469z" />
    <glyph glyph-name="radical" unicode="&#x221a;" horiz-adv-x="459" 
d="M207 -2l-176 493h30l161 -458h1l179 478h28l-196 -513h-27z" />
    <glyph glyph-name="infinity" unicode="&#x221e;" horiz-adv-x="829" 
d="M210 166q-74 0 -119.5 45t-45.5 110q0 68 48 112.5t120 44.5q57 0 105.5 -32.5t99.5 -92.5q118 118 206 118q73 0 116.5 -39.5t43.5 -103.5q0 -72 -48.5 -117t-124.5 -45q-95 0 -198 124q-112 -124 -203 -124zM205 198q48 0 91 30.5t99 89.5q-90 128 -184 128
q-54 0 -91 -33t-37 -81q0 -55 32.5 -94.5t89.5 -39.5zM615 198q57 0 94.5 36t37.5 88q0 53 -32.5 85.5t-93.5 32.5q-71 0 -186 -119q44 -57 87 -90t93 -33z" />
    <glyph glyph-name="integral" unicode="&#x222b;" horiz-adv-x="352" 
d="M43 -189q-17 0 -41 4l3 34q27 -3 32 -3q42 0 55.5 22t16.5 68l35 670q4 57 35 89t81 32q27 0 51 -6l-4 -34q-21 6 -46 6q-33 0 -55 -21t-24 -62l-34 -681q-5 -118 -105 -118z" />
    <glyph glyph-name="approxequal" unicode="&#x2248;" horiz-adv-x="566" 
d="M66 185l-21 3q5 31 24 51.5t50 20.5q27 0 162.5 -21t164.5 -21q22 0 33.5 13t20.5 39l21 -5q-9 -33 -28.5 -53t-47.5 -20q-29 0 -167 21.5t-162 21.5q-17 0 -28 -9.5t-14 -16.5t-8 -24zM66 377l-21 3q5 31 24 51.5t50 20.5q27 0 162.5 -21t164.5 -21q22 0 33.5 13
t20.5 39l21 -5q-9 -33 -28.5 -53t-47.5 -20q-29 0 -167 21.5t-162 21.5q-17 0 -28 -10t-13.5 -16.5t-8.5 -23.5z" />
    <glyph glyph-name="notequal" unicode="&#x2260;" horiz-adv-x="560" 
d="M218 95l-22 8l47 116h-198v23h207l63 157h-270v22h280l41 103l23 -8l-39 -95h165v-22h-174l-63 -157h237v-23h-246z" />
    <glyph glyph-name="lessequal" unicode="&#x2264;" horiz-adv-x="566" 
d="M48 27v24h469v-24h-469zM483 177l-421 205v19l427 195l10 -21l-405 -184l399 -194z" />
    <glyph glyph-name="greaterequal" unicode="&#x2265;" horiz-adv-x="566" 
d="M48 27v24h469v-24h-469zM82 177l-10 20l399 194l-404 184l9 21l427 -195v-19z" />
    <glyph glyph-name="blacksquare" unicode="&#x25a0;" horiz-adv-x="772" 
d="M46 0v714h680v-714h-680z" />
    <glyph glyph-name="whitesquare" unicode="&#x25a1;" horiz-adv-x="773" 
d="M47 0v713h679v-713h-679zM76 29h621v655h-621v-655z" />
    <glyph glyph-name="blacksmallsquare" unicode="&#x25aa;" horiz-adv-x="658" 
d="M52 0v553h554v-553h-554z" />
    <glyph glyph-name="triagup" unicode="&#x25b2;" horiz-adv-x="600" 
d="M78 157v9l211 390h8l225 -390v-9h-444z" />
    <glyph glyph-name="triagrt" unicode="&#x25ba;" horiz-adv-x="600" 
d="M100 134v444h9l390 -211v-8l-390 -225h-9z" />
    <glyph glyph-name="triagdn" unicode="&#x25bc;" horiz-adv-x="600" 
d="M303 157l-225 390v9h444v-9l-211 -390h-8z" />
    <glyph glyph-name="triaglf" unicode="&#x25c4;" horiz-adv-x="600" 
d="M490 134l-390 225v8l390 211h9v-444h-9z" />
    <glyph glyph-name="lozenge" unicode="&#x25ca;" horiz-adv-x="480" 
d="M229 -2l-187 345v10l187 367h26l189 -367v-10l-189 -345h-26zM243 23l178 324l-179 349l-175 -348z" />
    <glyph glyph-name="uni25E2" unicode="&#x25e2;" horiz-adv-x="600" 
d="M513 84l-432 95l-3 8l316 326l7 -1l120 -422z" />
    <glyph glyph-name="uni25E3" unicode="&#x25e3;" horiz-adv-x="600" 
d="M85 84l-7 6l120 422l7 1l316 -326l-3 -8z" />
    <glyph glyph-name="uni25E4" unicode="&#x25e4;" horiz-adv-x="600" 
d="M198 84l-120 423l7 6l433 -95l3 -8l-316 -326h-7z" />
    <glyph glyph-name="uni25E5" unicode="&#x25e5;" horiz-adv-x="600" 
d="M394 84l-316 326l3 8l432 95l8 -6l-120 -423h-7z" />
    <glyph glyph-name="I.alt" unicode="&#xe131;" horiz-adv-x="483" 
d="M59 0v28h167v657h-167v28h364v-28h-166v-657h166v-28h-364z" />
    <glyph glyph-name="I.alt" unicode="&#xe488;" horiz-adv-x="483" 
d="M59 0v28h167v657h-167v28h364v-28h-166v-657h166v-28h-364z" />
    <glyph glyph-name="Igrave.alt" unicode="&#xe132;" horiz-adv-x="483" 
d="M59 0v28h167v657h-167v28h364v-28h-166v-657h166v-28h-364zM228 791l-115 147h38l105 -147h-28z" />
    <glyph glyph-name="Iacute.alt" unicode="&#xe133;" horiz-adv-x="483" 
d="M59 0v28h167v657h-167v28h364v-28h-166v-657h166v-28h-364zM232 791l105 147h38l-115 -147h-28z" />
    <glyph glyph-name="Icircumflex.alt" unicode="&#xe134;" horiz-adv-x="483" 
d="M59 0v28h167v657h-167v28h364v-28h-166v-657h166v-28h-364zM139 787l89 147h32l84 -147h-31l-69 123l-73 -123h-32z" />
    <glyph glyph-name="Idieresis.alt" unicode="&#xe135;" horiz-adv-x="483" 
d="M59 0v28h167v657h-167v28h364v-28h-166v-657h166v-28h-364zM133 797v79h31v-79h-31zM318 797v79h32v-79h-32z" />
    <glyph glyph-name="Itilde.alt" unicode="&#xe136;" horiz-adv-x="483" 
d="M59 0v28h167v657h-167v28h364v-28h-166v-657h166v-28h-364zM115 797l-24 4q5 30 25.5 51t50.5 21q28 0 76 -19.5t71 -19.5q22 0 34 12t20 37l23 -5q-8 -34 -29 -53t-49 -19q-26 0 -75 20t-73 20q-34 0 -50 -49z" />
    <glyph glyph-name="Imacron.alt" unicode="&#xe138;" horiz-adv-x="483" 
d="M59 0v28h167v657h-167v28h364v-28h-166v-657h166v-28h-364zM118 825v28h247v-28h-247z" />
    <glyph glyph-name="Ibreve.alt" unicode="&#xe139;" horiz-adv-x="483" 
d="M59 0v28h167v657h-167v28h364v-28h-166v-657h166v-28h-364zM243 796q-51 0 -86 32t-37 87h26q4 -42 29 -68.5t71 -26.5q38 0 63 26.5t27 68.5h26q-3 -58 -38.5 -88.5t-80.5 -30.5z" />
    <glyph glyph-name="Idotaccent.alt" unicode="&#xe13c;" horiz-adv-x="483" 
d="M59 0v28h167v657h-167v28h364v-28h-166v-657h166v-28h-364zM224 796v85h35v-85h-35z" />
    <glyph glyph-name="Iogonek.alt" unicode="&#xe13e;" horiz-adv-x="483" 
d="M59 0v28h167v657h-167v28h364v-28h-166v-657h166v-28h-12q-34 -13 -55 -41.5t-21 -56.5q0 -35 19.5 -52.5t51.5 -17.5t67 20l12 -18q-32 -27 -86 -27q-36 0 -64.5 22t-28.5 67q0 67 65 104h-312z" />
    <glyph glyph-name="zero.dnom" unicode="&#xe402;" horiz-adv-x="344" 
d="M173 -13q-55 0 -91.5 29.5t-36.5 82.5v190q0 52 37 82t91 30q55 0 90.5 -30t35.5 -82v-190q0 -52 -36.5 -82t-89.5 -30zM173 8q47 0 73 26t26 68v188q0 37 -27.5 63.5t-72.5 26.5t-72.5 -27t-27.5 -65v-188q0 -39 27.5 -65.5t73.5 -26.5z" />
    <glyph glyph-name="one.dnom" unicode="&#xe403;" horiz-adv-x="305" 
d="M43 0v20h104v352l-95 -19l-3 18l110 26h14v-377h97v-20h-227z" />
    <glyph glyph-name="two.dnom" unicode="&#xe404;" horiz-adv-x="341" 
d="M63 0v17l99 108q85 98 85 177v3q0 36 -21.5 58t-62.5 22q-37 0 -60.5 -18t-23.5 -51v-16h-24v15q0 44 30.5 68t80.5 24q53 0 80.5 -28t27.5 -74q0 -54 -25.5 -100.5t-77.5 -105.5l-72 -75v-2h187v-22h-223z" />
    <glyph glyph-name="three.dnom" unicode="&#xe405;" horiz-adv-x="342" 
d="M167 -13q-56 0 -86 25.5t-30 58.5v19h25v-15q0 -32 28 -49t65 -17q39 0 67 24.5t28 66.5q0 27 -11 46.5t-28 28.5t-31.5 12.5t-26.5 3.5h-44v21h45q38 0 60.5 22.5t22.5 63.5q0 42 -24 62t-59 20q-37 0 -63 -17.5t-26 -54.5v-11h-24v15q0 40 31 64.5t83 24.5q55 0 81 -30
t26 -68q0 -83 -70 -99v-1q37 -9 61 -35t24 -65q0 -52 -35 -84t-89 -32z" />
    <glyph glyph-name="four.dnom" unicode="&#xe406;" horiz-adv-x="342" 
d="M216 0v116h-177v20l168 263h30l-171 -262h150v102l25 18v-120h61v-21h-61v-116h-25z" />
    <glyph glyph-name="five.dnom" unicode="&#xe407;" horiz-adv-x="342" 
d="M167 -13q-56 0 -85.5 25t-29.5 58v20h25v-14q0 -32 26.5 -49.5t63.5 -17.5q40 0 68 24t28 83v7q0 48 -25 72t-64 24q-46 0 -86 -31l-26 3l12 203h195v-22h-173l-10 -164q45 32 96 32q46 0 77 -29t31 -83v-12q0 -64 -33.5 -96.5t-89.5 -32.5z" />
    <glyph glyph-name="six.dnom" unicode="&#xe408;" horiz-adv-x="343" 
d="M170 -13q-52 0 -84 31.5t-32 80.5v193q0 50 34 79.5t86 29.5t81 -24t29 -66v-11h-24v8q0 34 -23.5 53t-62.5 19q-43 0 -68 -25.5t-25 -62.5v-106q17 28 46.5 44t60.5 16q42 0 71.5 -25.5t29.5 -65.5v-65q0 -49 -32.5 -76t-86.5 -27zM174 9q43 0 66 22t23 56v59
q0 40 -26 59t-61 19q-34 0 -64.5 -24t-30.5 -62v-42q0 -35 25 -61t68 -26z" />
    <glyph glyph-name="seven.dnom" unicode="&#xe409;" horiz-adv-x="341" 
d="M111 0q1 107 46 215t101 162h-206v22h237v-18q-64 -66 -106 -166.5t-43 -214.5h-29z" />
    <glyph glyph-name="eight.dnom" unicode="&#xe40a;" horiz-adv-x="343" 
d="M171 -13q-52 0 -85 27.5t-33 73.5v19q0 32 20.5 57t52.5 35q-32 8 -50.5 31.5t-18.5 51.5v19q0 47 33.5 73.5t80.5 26.5q49 0 81.5 -24.5t32.5 -71.5q1 -6 0 -21q0 -27 -19 -51t-51 -33q32 -9 53.5 -33.5t21.5 -58.5v-18q0 -48 -33.5 -75.5t-85.5 -27.5zM171 8
q41 0 66 22.5t25 62.5v14q0 40 -27 60.5t-64 20.5t-64.5 -21t-27.5 -60v-18q0 -36 26.5 -58.5t65.5 -22.5zM172 208q32 0 59.5 22t27.5 56v20q0 36 -26.5 55t-63.5 19q-33 0 -59.5 -20.5t-26.5 -54.5v-19q0 -38 28 -58t61 -20z" />
    <glyph glyph-name="nine.dnom" unicode="&#xe40b;" horiz-adv-x="343" 
d="M169 -12q-51 0 -80.5 24t-29.5 65v12h24v-8q0 -34 23.5 -53t62.5 -19q44 0 68.5 25t24.5 63v107q-30 -61 -106 -61q-41 0 -71.5 26t-30.5 65v59q0 49 33.5 79t86.5 30q52 0 83.5 -32t31.5 -81v-192q0 -51 -33.5 -80t-86.5 -29zM167 164q34 0 64.5 24.5t30.5 63.5v41
q0 35 -24.5 61t-67.5 26q-42 0 -66 -24.5t-24 -58.5v-54q0 -40 26 -59.5t61 -19.5z" />
    <glyph glyph-name="comma.dnom" unicode="&#xe40d;" horiz-adv-x="151" 
d="M59 -34l7 34h-9v38h25v-36l-11 -36h-12z" />
    <glyph glyph-name="period.dnom" unicode="&#xe40e;" horiz-adv-x="139" 
d="M57 0v38h25v-38h-25z" />
    <glyph glyph-name="parenleft.dnom" unicode="&#xe40f;" horiz-adv-x="152" 
d="M112 -75q-29 46 -44.5 118.5t-15.5 134.5q0 147 60 252l14 -1q-49 -126 -49 -251q0 -137 50 -252z" />
    <glyph glyph-name="parenright.dnom" unicode="&#xe410;" horiz-adv-x="147" 
d="M36 -75l-16 1q50 115 50 252q0 129 -49 251l15 1q60 -107 60 -252q0 -62 -15.5 -134.5t-44.5 -118.5z" />
    <glyph glyph-name="caronSlovak" unicode="&#xe413;" horiz-adv-x="168" 
d="M61 571l4 142h36l-17 -142h-23z" />
    <glyph glyph-name="commaaccent" unicode="&#xe414;" horiz-adv-x="165" 
d="M60 -187l4 139h38l-17 -139h-25z" />
    <glyph glyph-name="commaaccent" unicode="&#xf6c3;" horiz-adv-x="165" 
d="M60 -187l4 139h38l-17 -139h-25z" />
    <glyph glyph-name="zero.numr" unicode="&#xe416;" horiz-adv-x="344" 
d="M173 305q-55 0 -91.5 29.5t-36.5 82.5v190q0 52 37 82t91 30q55 0 90.5 -30t35.5 -82v-190q0 -52 -36.5 -82t-89.5 -30zM173 326q47 0 73 26t26 68v188q0 37 -27.5 63.5t-72.5 26.5t-72.5 -27t-27.5 -65v-188q0 -39 27.5 -65.5t73.5 -26.5z" />
    <glyph glyph-name="one.numr" unicode="&#xe417;" horiz-adv-x="305" 
d="M43 318v20h104v352l-95 -19l-3 18l110 26h14v-377h97v-20h-227z" />
    <glyph glyph-name="two.numr" unicode="&#xe418;" horiz-adv-x="341" 
d="M63 318v17l99 108q85 98 85 177v3q0 36 -21.5 58t-62.5 22q-37 0 -60.5 -18t-23.5 -51v-16h-24v15q0 44 30.5 68t80.5 24q53 0 80.5 -28t27.5 -74q0 -54 -25.5 -100.5t-77.5 -105.5l-72 -75v-2h187v-22h-223z" />
    <glyph glyph-name="three.numr" unicode="&#xe419;" horiz-adv-x="342" 
d="M167 305q-56 0 -86 25.5t-30 58.5v19h25v-15q0 -32 28 -49t65 -17q39 0 67 24.5t28 66.5q0 27 -11 46.5t-28 28.5t-31.5 12.5t-26.5 3.5h-44v21h45q38 0 60.5 22.5t22.5 63.5q0 42 -24 62t-59 20q-37 0 -63 -17.5t-26 -54.5v-11h-24v15q0 40 31 64.5t83 24.5q55 0 81 -30
t26 -68q0 -83 -70 -99v-1q37 -9 61 -35t24 -65q0 -52 -35 -84t-89 -32z" />
    <glyph glyph-name="four.numr" unicode="&#xe41a;" horiz-adv-x="342" 
d="M216 318v116h-177v20l168 263h30l-171 -262h150v102l25 18v-120h61v-21h-61v-116h-25z" />
    <glyph glyph-name="five.numr" unicode="&#xe41b;" horiz-adv-x="342" 
d="M167 305q-56 0 -85.5 25t-29.5 58v20h25v-14q0 -32 26.5 -49.5t63.5 -17.5q40 0 68 24t28 83v7q0 48 -25 72t-64 24q-46 0 -86 -31l-26 3l12 203h195v-22h-173l-10 -164q45 32 96 32q46 0 77 -29t31 -83v-12q0 -64 -33.5 -96.5t-89.5 -32.5z" />
    <glyph glyph-name="six.numr" unicode="&#xe41c;" horiz-adv-x="343" 
d="M170 305q-52 0 -84 31.5t-32 80.5v193q0 50 34 79.5t86 29.5t81 -24t29 -66v-11h-24v8q0 34 -23.5 53t-62.5 19q-43 0 -68 -25.5t-25 -62.5v-106q17 28 46.5 44t60.5 16q42 0 71.5 -25.5t29.5 -65.5v-65q0 -49 -32.5 -76t-86.5 -27zM174 327q43 0 66 22t23 56v59
q0 40 -26 59t-61 19q-34 0 -64.5 -24t-30.5 -62v-42q0 -35 25 -61t68 -26z" />
    <glyph glyph-name="seven.numr" unicode="&#xe41d;" horiz-adv-x="341" 
d="M111 318q1 107 46 215t101 162h-206v22h237v-18q-64 -66 -106 -166.5t-43 -214.5h-29z" />
    <glyph glyph-name="eight.numr" unicode="&#xe41e;" horiz-adv-x="343" 
d="M171 305q-52 0 -85 27.5t-33 73.5v19q0 32 20.5 57t52.5 35q-32 8 -50.5 31.5t-18.5 51.5v19q0 47 33.5 73.5t80.5 26.5q49 0 81.5 -24.5t32.5 -71.5q1 -6 0 -21q0 -27 -19 -51t-51 -33q32 -9 53.5 -33.5t21.5 -58.5v-18q0 -48 -33.5 -75.5t-85.5 -27.5zM171 326
q41 0 66 22.5t25 62.5v14q0 40 -27 60.5t-64 20.5t-64.5 -21t-27.5 -60v-18q0 -36 26.5 -58.5t65.5 -22.5zM172 526q32 0 59.5 22t27.5 56v20q0 36 -26.5 55t-63.5 19q-33 0 -59.5 -20.5t-26.5 -54.5v-19q0 -38 28 -58t61 -20z" />
    <glyph glyph-name="nine.numr" unicode="&#xe41f;" horiz-adv-x="343" 
d="M169 306q-51 0 -80.5 24t-29.5 65v12h24v-8q0 -34 23.5 -53t62.5 -19q44 0 68.5 25t24.5 63v107q-30 -61 -106 -61q-41 0 -71.5 26t-30.5 65v59q0 49 33.5 79t86.5 30q52 0 83.5 -32t31.5 -81v-192q0 -51 -33.5 -80t-86.5 -29zM167 482q34 0 64.5 24.5t30.5 63.5v41
q0 35 -24.5 61t-67.5 26q-42 0 -66 -24.5t-24 -58.5v-54q0 -40 26 -59.5t61 -19.5z" />
    <glyph glyph-name="comma.numr" unicode="&#xe421;" horiz-adv-x="151" 
d="M59 284l7 34h-9v38h25v-36l-11 -36h-12z" />
    <glyph glyph-name="period.numr" unicode="&#xe422;" horiz-adv-x="139" 
d="M57 318v38h25v-38h-25z" />
    <glyph glyph-name="parenleft.numr" unicode="&#xe423;" horiz-adv-x="152" 
d="M112 243q-29 46 -44.5 118.5t-15.5 134.5q0 147 60 252l14 -1q-49 -126 -49 -251q0 -137 50 -252z" />
    <glyph glyph-name="parenright.numr" unicode="&#xe424;" horiz-adv-x="147" 
d="M36 243l-16 1q50 115 50 252q0 128 -49 251l15 1q60 -107 60 -252q0 -62 -15.5 -134.5t-44.5 -118.5z" />
    <glyph glyph-name="numbersign.LP" unicode="&#xe533;" horiz-adv-x="560" 
d="M92 -6l35 205h-101l5 23h100l48 267h-105l5 22h103l35 188h21l-33 -188h208l33 188h22l-31 -188h99l-4 -22h-100l-48 -267h103l-4 -23h-102l-35 -205h-24l34 205h-205l-35 -205h-24zM155 222h205l50 267h-208z" />
    <glyph glyph-name="zero.LT" unicode="&#xe53f;" horiz-adv-x="560" 
d="M282 -13q-98 0 -160.5 52t-62.5 144v346q0 92 64.5 145t158.5 53q97 0 158 -53t61 -145v-345q0 -91 -62.5 -144t-156.5 -53zM282 13q87 0 136.5 48.5t49.5 127.5v342q0 71 -50.5 120.5t-136.5 49.5t-138 -50.5t-52 -124.5v-341q0 -74 52 -123t139 -49z" />
    <glyph glyph-name="one.LT" unicode="&#xe541;" horiz-adv-x="560" 
d="M71 0v26h192v657l-176 -38l-3 22l191 46h19v-687h178v-26h-401z" />
    <glyph glyph-name="two.LT" unicode="&#xe542;" horiz-adv-x="560" 
d="M93 0v20l166 180q81 91 123 169.5t42 172.5v5q0 69 -40 111t-119 42q-68 0 -112.5 -34.5t-44.5 -94.5v-29h-29v26q0 77 52 118t139 41q92 0 140 -49t48 -129q0 -100 -45.5 -186t-139.5 -191l-135 -144v-1h343v-27h-388z" />
    <glyph glyph-name="three.LT" unicode="&#xe543;" horiz-adv-x="560" 
d="M276 -13q-98 0 -151 44t-53 101v34h30v-27q0 -60 52.5 -92.5t121.5 -32.5q74 0 126 47t52 125q0 41 -14.5 73t-35 50t-46.5 30t-46 15.5t-37 3.5h-79v28h82q70 0 112.5 42t42.5 119q0 79 -45.5 116t-111.5 37q-69 0 -118.5 -32t-49.5 -102v-22h-29v28q0 69 54 111.5
t144 42.5q51 0 89 -16.5t57.5 -43.5t29 -55.5t9.5 -57.5q0 -150 -127 -178v-3q66 -15 109.5 -62t43.5 -116q0 -93 -58.5 -150t-153.5 -57z" />
    <glyph glyph-name="four.LT" unicode="&#xe544;" horiz-adv-x="560" 
d="M368 0v212h-322v26l310 475h36l-313 -474h289v199l31 18v-217h114v-27h-114v-212h-31z" />
    <glyph glyph-name="five.LT" unicode="&#xe545;" horiz-adv-x="560" 
d="M273 -13q-98 0 -149 44t-51 101v34h30v-27q0 -60 50 -92.5t118 -32.5q34 0 64 9t58.5 29.5t45 61.5t16.5 99v14q0 91 -47 136t-123 45q-85 0 -160 -59l-32 4l23 361h334v-28h-310l-19 -310q84 59 175 59q81 0 136 -53.5t55 -149.5v-12q0 -116 -58 -174.5t-156 -58.5z" />
    <glyph glyph-name="six.LT" unicode="&#xe546;" horiz-adv-x="560" 
d="M277 -13q-92 0 -146 56t-54 143v347q0 90 57.5 141.5t150.5 51.5q88 0 139 -42t51 -114v-20h-29v15q0 64 -44 99.5t-117 35.5q-82 0 -129.5 -47.5t-47.5 -118.5v-199q30 54 84 83t111 29q73 0 126.5 -45.5t53.5 -115.5v-117q0 -86 -56.5 -134t-149.5 -48zM284 14
q79 0 123.5 42t44.5 106v109q0 76 -48.5 112t-113.5 36t-123.5 -46t-58.5 -116v-78q0 -67 47 -116t129 -49z" />
    <glyph glyph-name="seven.LT" unicode="&#xe547;" horiz-adv-x="560" 
d="M184 0q0 196 84.5 397t180.5 288h-374v28h411v-22q-108 -113 -187.5 -298.5t-80.5 -392.5h-34z" />
    <glyph glyph-name="eight.LT" unicode="&#xe548;" horiz-adv-x="560" 
d="M280 -13q-91 0 -148 49t-57 129v34q0 59 38.5 104t97.5 63q-59 14 -93.5 56.5t-34.5 92.5v34q0 84 58.5 130.5t139.5 46.5q83 0 140 -43.5t57 -125.5q1 -35 0 -36q0 -49 -35 -93.5t-96 -59.5q60 -15 99.5 -59.5t39.5 -108.5v-31q0 -85 -57 -133.5t-149 -48.5zM281 12
q76 0 124 43t48 118v27q0 74 -52.5 113.5t-119.5 39.5q-69 0 -121.5 -40.5t-52.5 -114.5v-30q0 -69 51 -112.5t123 -43.5zM283 377q61 0 112 41.5t51 106.5v36q0 66 -50.5 102.5t-118.5 36.5q-63 0 -113 -39.5t-50 -104.5v-32q0 -48 28.5 -83t65.5 -49.5t75 -14.5z" />
    <glyph glyph-name="nine.LT" unicode="&#xe549;" horiz-adv-x="560" 
d="M274 -12q-88 0 -139 42t-51 114v20h29v-15q0 -64 44 -99.5t118 -35.5q81 0 128.5 47.5t47.5 118.5v202q-29 -61 -81 -88t-113 -27q-74 0 -127.5 45.5t-53.5 115.5v106q0 87 57 140t149 53t146 -55.5t54 -142.5v-349q0 -89 -57.5 -140.5t-150.5 -51.5zM269 294
q64 0 123 46t59 116v79q0 67 -47 116.5t-129 49.5q-78 0 -123 -47.5t-45 -111.5v-99q0 -76 48.5 -112.5t113.5 -36.5z" />
    <glyph glyph-name="apple" unicode="&#xf8ff;" horiz-adv-x="1009" 
d="M627 -77l-154 3l-18 -2l-6 7q9 3 21.5 6t18.5 5q45 15 55 60q7 67 14 219q-64 -2 -98 -3l2 11l97 6q8 147 10 219l39 23q-54 3 -178 7q-1 -30 -7 -139q-4 -73 -26.5 -130t-54 -87t-60.5 -44.5t-52 -14.5q-28 0 -78 15t-72 27l23 37q2 -1 34 -13.5t68 -23t56 -10.5
q48 1 87 63.5t37 135.5q1 28 5 185q-10 0 -30 0.5t-31 0.5q-59 0 -106.5 -43t-47.5 -104q18 -40 77 -67q0 -5 -6 -19t-10 -18q-66 28 -73 96q0 73 55 125t142 67h31q1 34 5 166l40 18q-203 8 -243 8q-59 0 -106.5 -42.5t-47.5 -102.5q18 -38 78 -63q0 -2 -21 -37
q-67 28 -74 96q0 69 56.5 118.5t131.5 68.5q64 0 180.5 -5t162.5 -6q14 0 62 -2q5 0 20.5 -0.5t19.5 -0.5q12 -1 33 3q15 11 22 27l8 -3q-8 -21 -24 -34q-57 -29 -113 -29q-46 0 -140 4q-3 -14 -4.5 -70.5t-2.5 -64.5q-1 -7 -1.5 -24.5t-0.5 -25.5q14 0 165.5 -7t230.5 -7
h67q63 3 88 15l4 -6q-97 -43 -224 -43q-67 0 -147 3q-3 -20 -8 -102.5t-5 -84.5q0 -9 -2 -53l147 10h4l4 -3l-35 -52l-7 4l23 35q-44 -3 -137 -9q-6 -107 -13 -193q-2 -17 -20 -42t-35 -33l1 -1q30 5 89.5 6t75.5 2v-1q0 -10 -8.5 -22t-19.5 -13q-11 -2 -43 -2z" />
    <glyph glyph-name="CR" horiz-adv-x="0" 
 />
    <glyph glyph-name="altogonek" horiz-adv-x="321" 
d="M169 -193q-36 0 -63.5 22t-27.5 67q0 39 20.5 69.5t48.5 45.5l20 -11q-28 -13 -43.5 -41t-15.5 -57q0 -70 68 -70q31 0 66 20l12 -18q-30 -27 -85 -27z" />
    <glyph glyph-name="commatop" horiz-adv-x="188" 
d="M75 576v56l17 55h18l-12 -53h13v-58h-36z" />
    <glyph glyph-name="ogonekplus" horiz-adv-x="321" 
d="M172 -193q-36 0 -65 22t-29 67q0 40 29 71.5t69 47.5l11 -9q-33 -14 -56 -45t-23 -59q0 -35 19 -52.5t51 -17.5t67 20l12 -18q-30 -27 -85 -27z" />
    <glyph glyph-name="period.sub" horiz-adv-x="139" 
d="M57 -133v38h25v-38h-25z" />
    <glyph glyph-name="comma.sub" horiz-adv-x="151" 
d="M59 -167l7 34h-9v38h25v-36l-11 -36h-12z" />
    <glyph glyph-name="period.sup" horiz-adv-x="139" 
d="M57 380v38h25v-38h-25z" />
    <glyph glyph-name="comma.sup" horiz-adv-x="151" 
d="M59 346l7 34h-9v38h25v-36l-11 -36h-12z" />
    <glyph glyph-name="ringacute" horiz-adv-x="289" 
d="M152 556q-39 0 -59.5 23.5t-20.5 55.5q0 38 27 63l97 93l23 -18l-77 -59q39 5 64.5 -16t25.5 -59q0 -35 -22.5 -59t-57.5 -24zM152 574q25 0 42.5 16.5t17.5 46.5q0 29 -17 45.5t-45 16.5q-26 0 -41.5 -17t-15.5 -47q0 -31 17.5 -46t41.5 -15z" />
    <glyph glyph-name="IJ.alt" horiz-adv-x="949" 
d="M59 0v28h167v657h-167v28h364v-28h-166v-657h166v-28h-364zM648 -12q-98 0 -156.5 52.5t-58.5 150.5v55h29v-44q0 -80 46 -133.5t149 -53.5q86 0 134 52.5t48 121.5v525h31v-507q0 -99 -54.5 -159t-167.5 -60z" />
    <glyph glyph-name="idotaccent" horiz-adv-x="187" 
d="M79 0v491h30v-491h-30zM79 607v90h30v-90h-30z" />
    </font>
</defs>
</svg>
