<?xml version="1.0" standalone="no"?>
<!DOCTYPE svg PUBLIC "-//W3C//DTD SVG 1.1//EN" "http://www.w3.org/Graphics/SVG/1.1/DTD/svg11.dtd" >
<svg xmlns="http://www.w3.org/2000/svg" xmlns:xlink="http://www.w3.org/1999/xlink" version="1.1">
<metadata>
Created by FontForge 20150824 at Mon Sep 26 06:38:37 2016
 By Everything Fonts
Copyright (c) 2008 by Mrio Feliciano. All rights reserved.
</metadata>
<defs>
<font id="FlamaBold" horiz-adv-x="590" >
  <font-face 
    font-family="FlamaBold"
    font-weight="750"
    font-stretch="normal"
    units-per-em="1000"
    panose-1="2 0 0 0 0 0 0 0 0 0"
    ascent="800"
    descent="-200"
    x-height="526"
    cap-height="713"
    bbox="-184 -225 1162 1082"
    underline-thickness="50"
    underline-position="-150"
    unicode-range="U+0020-E549"
  />
<missing-glyph horiz-adv-x="822" 
d="M235 118l-40 40l185 185l-185 185l40 40l185 -185l185 185l40 -40l-185 -185l185 -185l-40 -40l-185 185zM55 -18v716h712v-716h-712zM115 42h592v596h-592v-596z" />
    <glyph glyph-name="fi" unicode="fi" horiz-adv-x="640" 
d="M419 0v526h165v-526h-165zM419 589v147h165v-147h-165zM88 0v400h-69v120h69v55q0 78 46.5 116.5t119.5 38.5q53 0 89 -9v-114q-24 3 -51 3q-40 0 -40 -37v-53h93v-120h-93v-400h-164z" />
    <glyph glyph-name="fl" unicode="fl" horiz-adv-x="691" 
d="M565 -10q-77 0 -113 42t-36 103v578h166v-545q0 -19 8.5 -29.5t32.5 -10.5q10 0 48 4v-125q-57 -17 -106 -17zM88 0v400h-69v120h69v55q0 78 46.5 116.5t119.5 38.5q53 0 89 -9v-114q-24 3 -51 3q-40 0 -40 -37v-53h93v-120h-93v-400h-164z" />
    <glyph glyph-name=".notdef" horiz-adv-x="822" 
d="M235 118l-40 40l185 185l-185 185l40 40l185 -185l185 185l40 -40l-185 -185l185 -185l-40 -40l-185 185zM55 -18v716h712v-716h-712zM115 42h592v596h-592v-596z" />
    <glyph glyph-name=".null" horiz-adv-x="0" 
 />
    <glyph glyph-name="nonmarkingreturn" horiz-adv-x="333" 
 />
    <glyph glyph-name="space" unicode=" " horiz-adv-x="225" 
 />
    <glyph glyph-name="exclam" unicode="!" horiz-adv-x="307" 
d="M105 226l-39 248v239h175v-239l-39 -248h-97zM69 0v172h169v-172h-169z" />
    <glyph glyph-name="quotedbl" unicode="&#x22;" horiz-adv-x="476" 
d="M89 413l-21 166v134h137v-134l-21 -166h-95zM292 413l-21 166v134h137v-134l-21 -166h-95z" />
    <glyph glyph-name="numbersign" unicode="#" horiz-adv-x="613" 
d="M106 -1l28 174h-115l16 96h112l31 191h-119l15 93h115l25 161h88l-22 -161h126l24 161h89l-25 -161h112l-13 -93h-112l-30 -191h115l-12 -96h-117l-26 -174h-89l26 174h-127l-27 -174h-88zM236 269h126l30 191h-127z" />
    <glyph glyph-name="dollar" unicode="$" horiz-adv-x="578" 
d="M243 -54v84q-137 13 -209 112l101 92q59 -78 151 -78q39 0 65.5 13t26.5 41q0 18 -12 30t-22.5 16.5t-32.5 10.5l-111 29q-141 38 -141 171q0 76 50 129.5t134 67.5v87h116v-87q120 -16 167 -93l-100 -91q-44 60 -129 60q-35 0 -57 -14t-22 -41q0 -21 16 -31.5t47 -18.5
l105 -29q157 -42 157 -174q0 -80 -51.5 -131t-132.5 -66v-89h-116z" />
    <glyph glyph-name="percent" unicode="%" horiz-adv-x="838" 
d="M195 326q-64 0 -110 31t-46 97v141q0 66 45 98t109 32q65 0 111 -32.5t46 -99.5v-140q0 -62 -47 -94.5t-108 -32.5zM194 412q23 0 35 12t12 30v146q0 17 -12.5 29t-34.5 12t-34 -11.5t-12 -29.5v-147q0 -41 46 -41zM643 -11q-63 0 -109 31.5t-46 96.5v142q0 65 45 97
t109 32q65 0 111 -32t46 -99v-140q0 -63 -47 -95.5t-109 -32.5zM643 75q23 0 34.5 12.5t11.5 30.5v146q0 17 -12 28.5t-34 11.5q-46 0 -46 -40v-147q0 -42 46 -42zM141 0l470 717h93l-470 -717h-93z" />
    <glyph glyph-name="ampersand" unicode="&#x26;" horiz-adv-x="811" 
d="M289 -17q-107 0 -176.5 56.5t-69.5 151.5q0 70 48 124t124 81q-72 76 -72 140q0 85 63 137.5t187 52.5q99 0 159 -47.5t60 -121.5q0 -68 -42 -114t-109 -70l99 -110q14 38 26 90l139 -14q-17 -99 -70 -176l149 -164h-225l-57 62q-98 -78 -233 -78zM327 110q67 0 111 43
l-149 165q-37 -18 -55 -49t-18 -63q0 -43 29.5 -69.5t81.5 -26.5zM393 448q35 13 56 41t21 65q0 28 -19.5 44.5t-47.5 16.5q-37 0 -56.5 -18t-19.5 -47q0 -24 43 -76z" />
    <glyph glyph-name="quotesingle" unicode="'" horiz-adv-x="273" 
d="M89 413l-21 166v134h137v-134l-21 -166h-95z" />
    <glyph glyph-name="parenleft" unicode="(" horiz-adv-x="334" 
d="M226 -181q-67 77 -107 207.5t-40 249.5q0 117 38 238.5t108 206.5l77 -2q-53 -120 -74 -217t-21 -226q0 -241 95 -455z" />
    <glyph glyph-name="parenright" unicode=")" horiz-adv-x="334" 
d="M108 -181l-76 2q95 214 95 455q0 129 -21 226t-74 217l77 2q70 -85 108 -206.5t38 -238.5q0 -119 -40 -249.5t-107 -207.5z" />
    <glyph glyph-name="asterisk" unicode="*" horiz-adv-x="478" 
d="M153 337l-75 49l82 118l-126 69l46 74l114 -62v128h91v-128l113 62l46 -74l-127 -69l85 -118l-77 -49l-86 122z" />
    <glyph glyph-name="plus" unicode="+" 
d="M245 46v221h-221v99h221v222h101v-222h220v-99h-220v-221h-101z" />
    <glyph glyph-name="comma" unicode="," horiz-adv-x="283" 
d="M82 -140l33 141h-57v170h168v-161l-65 -150h-79z" />
    <glyph glyph-name="hyphen" unicode="-" horiz-adv-x="363" 
d="M32 232v135h299v-135h-299z" />
    <glyph glyph-name="period" unicode="." horiz-adv-x="283" 
d="M58 0v172h168v-172h-168z" />
    <glyph glyph-name="slash" unicode="/" horiz-adv-x="360" 
d="M-32 -178l268 896h113l-264 -896h-117z" />
    <glyph glyph-name="zero" unicode="0" horiz-adv-x="619" 
d="M311 -12q-51 0 -97 12t-86 37t-63.5 69t-23.5 103v291q0 111 79 168t190 57q51 0 97.5 -13t85.5 -39.5t62 -71.5t23 -104v-286q0 -74 -41.5 -126.5t-100 -74.5t-125.5 -22zM311 127q42 0 65.5 25.5t23.5 61.5v292q0 35 -24 58t-65 23q-42 0 -66.5 -24t-24.5 -60v-291
q0 -36 23.5 -60.5t67.5 -24.5z" />
    <glyph glyph-name="one" unicode="1" horiz-adv-x="527" 
d="M54 0v120h139v445l-133 -9l-11 117l234 45h77v-598h127v-120h-433z" />
    <glyph glyph-name="two" unicode="2" horiz-adv-x="592" 
d="M67 0v101l210 244q32 37 47.5 56.5t29 48t13.5 55.5v15q0 32 -19 52t-60 20q-40 0 -59.5 -23t-19.5 -62v-21h-161v35q0 98 70 152t183 54q114 0 176 -58.5t62 -152.5q0 -25 -5 -49.5t-18 -49.5t-23.5 -43t-32.5 -44.5t-32.5 -38.5t-37 -39.5t-33.5 -35.5l-68 -74v-2h256
v-140h-478z" />
    <glyph glyph-name="three" unicode="3" horiz-adv-x="599" 
d="M291 -12q-119 0 -181.5 51.5t-62.5 144.5v25h165v-19q0 -68 91 -68q36 0 58.5 24.5t22.5 66.5q0 33 -19.5 53.5t-39.5 25.5t-40 5h-61v124h59q46 0 69 19t23 65q0 40 -23.5 60.5t-56.5 20.5q-80 0 -80 -72v-13h-162v25q0 89 66 144t180 55q115 0 178.5 -54.5t63.5 -141.5
q0 -58 -28.5 -101t-76.5 -59v-5q56 -15 91.5 -58t35.5 -105q0 -56 -23 -98.5t-62.5 -67t-86.5 -36t-100 -11.5z" />
    <glyph glyph-name="four" unicode="4" horiz-adv-x="613" 
d="M342 0v156h-305v127l262 431h192l-276 -425h127v88l165 106v-194h75v-133h-75v-156h-165z" />
    <glyph glyph-name="five" unicode="5" horiz-adv-x="593" 
d="M294 -12q-110 0 -178.5 48.5t-68.5 128.5v44h163v-17q0 -31 24 -49.5t64 -18.5q85 0 85 94v50q0 36 -25 56t-62 20q-48 0 -82 -38l-150 20l19 387h430v-144h-294l-6 -144q61 42 150 42q74 0 133 -44t59 -131v-84q0 -104 -75.5 -162t-185.5 -58z" />
    <glyph glyph-name="six" unicode="6" horiz-adv-x="606" 
d="M302 -12q-108 0 -183.5 58.5t-75.5 156.5v304q0 101 78 159.5t190 58.5q113 0 179 -50t66 -139v-32h-165v18q0 34 -22.5 51.5t-59.5 17.5q-41 0 -64 -22.5t-23 -59.5v-110q69 57 161 57q84 0 134 -45t50 -117v-103q0 -96 -76.5 -149.5t-188.5 -53.5zM308 123
q42 0 65.5 21t23.5 53v72q0 37 -27 53.5t-61 16.5t-60.5 -23t-26.5 -69v-43q0 -35 22.5 -58t63.5 -23z" />
    <glyph glyph-name="seven" unicode="7" horiz-adv-x="589" 
d="M119 0q3 148 76 307.5t167 261.5h-317v144h506v-122q-41 -41 -80 -94t-79.5 -128t-66 -172t-25.5 -197h-181z" />
    <glyph glyph-name="eight" unicode="8" horiz-adv-x="603" 
d="M301 -12q-119 0 -190 47.5t-71 146.5v39q0 46 24.5 83.5t62.5 56.5q-34 15 -55.5 51t-21.5 76v38q0 94 72 146.5t178 52.5q107 0 179.5 -49t72.5 -142q1 -50 0 -52q0 -39 -22 -71.5t-55 -49.5q37 -15 62.5 -53t25.5 -82v-46q0 -89 -74.5 -140.5t-187.5 -51.5zM300 115
q40 0 64.5 19.5t24.5 55.5v34q0 38 -25.5 55.5t-62.5 17.5t-62.5 -16.5t-25.5 -49.5v-43q0 -34 25 -53.5t62 -19.5zM302 419q37 0 61.5 19t24.5 53v35q0 37 -25.5 54t-62.5 17q-35 0 -60 -17.5t-25 -49.5v-41q0 -34 24.5 -52t62.5 -18z" />
    <glyph glyph-name="nine" unicode="9" horiz-adv-x="604" 
d="M295 -13q-112 0 -178 50.5t-66 138.5v33h165v-18q0 -34 22.5 -51.5t59.5 -17.5q42 0 64.5 23t22.5 59v114q-49 -64 -161 -64q-84 0 -134 46t-50 119v103q0 96 76.5 149.5t188.5 53.5q108 0 183.5 -58.5t75.5 -156.5v-305q0 -101 -78.5 -159.5t-190.5 -58.5zM294 373
q34 0 62.5 24.5t28.5 69.5v45q0 35 -23 58.5t-63 23.5q-42 0 -65.5 -21t-23.5 -53v-74q0 -37 25.5 -55t58.5 -18z" />
    <glyph glyph-name="colon" unicode=":" horiz-adv-x="283" 
d="M58 0v172h168v-172h-168zM58 361v171h168v-171h-168z" />
    <glyph glyph-name="semicolon" unicode=";" horiz-adv-x="283" 
d="M82 -140l33 141h-57v170h168v-161l-65 -150h-79zM58 361v171h168v-171h-168z" />
    <glyph glyph-name="less" unicode="&#x3c;" 
d="M496 63l-447 216v78l445 217l45 -91l-341 -164l343 -166z" />
    <glyph glyph-name="equal" unicode="=" 
d="M24 155v99h542v-99h-542zM24 370v100h542v-100h-542z" />
    <glyph glyph-name="greater" unicode="&#x3e;" 
d="M95 63l-46 90l344 166l-342 164l45 91l445 -217v-78z" />
    <glyph glyph-name="question" unicode="?" horiz-adv-x="555" 
d="M190 221v36q0 40 13.5 67t44.5 56q10 9 34.5 29t38.5 32.5t26.5 33t12.5 41.5q0 32 -22 53.5t-56 21.5q-36 0 -63 -17.5t-27 -51.5v-30l-148 -1v38q0 94 72 144t174 50q110 0 171 -52.5t61 -145.5q0 -96 -91 -166q-8 -6 -28.5 -20t-32 -23t-22 -25.5t-10.5 -33.5v-36
h-148zM178 0v172h169v-172h-169z" />
    <glyph glyph-name="at" unicode="@" horiz-adv-x="959" 
d="M499 -149q-104 0 -173 23q-123 41 -199.5 141.5t-76.5 247.5q1 207 138 330.5t336 123.5q100 0 186.5 -37.5t143 -115t56.5 -179.5q0 -139 -81.5 -225.5t-192.5 -97.5h-122l10 51h-4q-25 -27 -62 -44.5t-73 -17.5q-63 0 -100.5 32.5t-37.5 94.5q0 21 4 38q23 127 24 134
q13 74 65.5 119.5t127.5 45.5q33 0 65.5 -12.5t47.5 -36.5h3l8 41h133l-64 -369q69 16 114 78.5t45 166.5q0 84 -46.5 145t-114.5 88t-146 27q-166 0 -269 -104t-103 -274q0 -111 57.5 -192t150.5 -117q66 -27 155 -27q122 0 262 42l20 -69q-123 -51 -287 -51zM452 157
q35 0 59.5 21t30.5 56l18 108q2 10 2 14q0 28 -20.5 43.5t-48.5 15.5q-34 0 -56 -21.5t-28 -56.5l-18 -106q-2 -8 -2 -16q0 -27 17.5 -42.5t45.5 -15.5z" />
    <glyph glyph-name="A" unicode="A" horiz-adv-x="711" 
d="M9 0l253 714h191l250 -714h-183l-43 133h-255l-44 -133h-169zM265 273h168l-82 258h-3z" />
    <glyph glyph-name="B" unicode="B" horiz-adv-x="689" 
d="M62 0v713h363q103 0 158 -48.5t55 -132.5q0 -53 -26.5 -96t-80.5 -64v-2q58 -16 90 -62t32 -104q0 -89 -60.5 -146.5t-157.5 -57.5h-373zM240 141h142q43 0 66.5 22t23.5 58q0 75 -91 75h-141v-155zM240 429h136q41 0 63.5 21.5t22.5 55.5q0 33 -23.5 51t-64.5 18h-134
v-146z" />
    <glyph glyph-name="C" unicode="C" horiz-adv-x="673" 
d="M347 -12q-82 0 -149 26t-111 86t-44 145v218q0 125 87 193.5t213 68.5q54 0 104 -14t92 -41.5t67.5 -74t25.5 -105.5v-33h-168v16q0 52 -35.5 79t-82.5 27q-52 0 -88 -28.5t-36 -85.5v-216q0 -54 35 -84.5t91 -30.5q46 0 81 27t35 79v17h168v-35q0 -78 -43.5 -132.5
t-106 -78t-135.5 -23.5z" />
    <glyph glyph-name="D" unicode="D" horiz-adv-x="693" 
d="M61 0v713h298q125 0 208 -65.5t83 -185.5v-201q0 -126 -84.5 -193.5t-205.5 -67.5h-299zM240 146h109q51 0 86.5 30.5t35.5 83.5v196q0 51 -36 81t-91 30h-104v-421z" />
    <glyph glyph-name="E" unicode="E" horiz-adv-x="638" 
d="M61 0v713h525v-145h-346v-136h291v-144h-291v-142h348v-146h-527z" />
    <glyph glyph-name="F" unicode="F" horiz-adv-x="606" 
d="M61 0v713h517v-145h-338v-144h279v-145h-279v-279h-179z" />
    <glyph glyph-name="G" unicode="G" horiz-adv-x="673" 
d="M347 -12q-82 0 -149 26t-111 86t-44 145v218q0 125 87 193.5t213 68.5q54 0 104 -13t93 -39.5t69 -72.5t26 -106v-26h-168v14q0 51 -35.5 76t-83.5 25q-52 0 -89 -28.5t-37 -85.5v-220q0 -54 35 -86t91 -32q53 0 84.5 25.5t31.5 79.5v18h-144v132h315v-164
q0 -59 -25.5 -105.5t-67.5 -73.5t-91.5 -41t-103.5 -14z" />
    <glyph glyph-name="H" unicode="H" horiz-adv-x="712" 
d="M61 0v713h179v-274h232v274h179v-713h-179v284h-232v-284h-179z" />
    <glyph glyph-name="I" unicode="I" horiz-adv-x="301" 
d="M61 0v713h179v-713h-179z" />
    <glyph glyph-name="J" unicode="J" horiz-adv-x="633" 
d="M310 -12q-275 0 -275 240v38h173v-31q0 -100 99 -100q46 0 68.5 30.5t22.5 76.5v471h178v-474q0 -109 -72 -180t-194 -71z" />
    <glyph glyph-name="K" unicode="K" horiz-adv-x="697" 
d="M61 0v713h179v-323l247 323h190l-226 -286l239 -427h-199l-166 304l-85 -96v-208h-179z" />
    <glyph glyph-name="L" unicode="L" horiz-adv-x="602" 
d="M61 0v713h179v-567h339v-146h-518z" />
    <glyph glyph-name="M" unicode="M" horiz-adv-x="852" 
d="M61 0v713h222l145 -368h2l142 368h219v-713h-165v454h-2l-136 -358h-123l-137 357h-2v-453h-165z" />
    <glyph glyph-name="N" unicode="N" horiz-adv-x="734" 
d="M61 0v713h173l272 -403h2v403h165v-713h-166l-279 419h-2v-419h-165z" />
    <glyph glyph-name="O" unicode="O" horiz-adv-x="693" 
d="M348 -12q-62 0 -115.5 15.5t-96.5 46t-68 81.5t-25 118v206q0 128 88.5 199t212.5 71q83 0 150.5 -28t111.5 -90.5t44 -150.5v-198q0 -89 -45.5 -152t-112 -90.5t-144.5 -27.5zM348 135q51 0 87 30t36 87v211q0 54 -36.5 85t-89.5 31t-88 -29t-35 -88v-209q0 -56 35 -87
t91 -31z" />
    <glyph glyph-name="P" unicode="P" horiz-adv-x="662" 
d="M61 0v713h323q116 0 182.5 -64t66.5 -165q0 -46 -14.5 -87t-43 -75t-77 -54.5t-111.5 -20.5h-147v-247h-179zM240 384h115q48 0 76 26t28 69q0 45 -28 69.5t-77 24.5h-114v-189z" />
    <glyph glyph-name="Q" unicode="Q" horiz-adv-x="693" 
d="M563 -120l-176 111q-15 -3 -39 -3q-62 0 -115.5 15.5t-96.5 46t-68 81.5t-25 118v206q0 128 88.5 199t212.5 71q83 0 150.5 -28t111.5 -90.5t44 -150.5v-198q0 -123 -85 -196l102 -46zM348 135q51 0 87 30t36 87v211q0 54 -36.5 85t-89.5 31t-88 -29t-35 -88v-209
q0 -56 35 -87t91 -31z" />
    <glyph glyph-name="R" unicode="R" horiz-adv-x="677" 
d="M61 0v713h312q119 0 187 -62t68 -163q0 -69 -34 -126t-100 -84l163 -278h-195l-141 252h-81v-252h-179zM240 384h110q48 0 76 25.5t28 69.5q0 45 -27.5 69.5t-76.5 24.5h-110v-189z" />
    <glyph glyph-name="S" unicode="S" horiz-adv-x="635" 
d="M316 -12q-210 0 -302 129l113 101q28 -40 77 -65t104 -25q46 0 79 16t33 51q0 30 -20.5 45.5t-59.5 26.5l-123 32q-169 45 -169 197q0 100 77 164.5t195 64.5q94 0 155.5 -25t108.5 -83l-113 -98q-25 32 -66 49t-85 17q-43 0 -70 -16t-27 -51q0 -28 24 -42t73 -27
l112 -30q171 -44 171 -198q0 -110 -84.5 -171.5t-202.5 -61.5z" />
    <glyph glyph-name="T" unicode="T" horiz-adv-x="632" 
d="M227 0v570h-202v143h583v-143h-202v-570h-179z" />
    <glyph glyph-name="U" unicode="U" horiz-adv-x="709" 
d="M352 -12q-139 0 -216.5 67t-77.5 198v460h178v-448q0 -61 31.5 -95.5t90.5 -34.5q57 0 87.5 33.5t30.5 96.5v448h175v-453q0 -129 -84 -200.5t-215 -71.5z" />
    <glyph glyph-name="V" unicode="V" horiz-adv-x="646" 
d="M229 -2l-226 715h184l140 -503h3l144 503h170l-232 -715h-183z" />
    <glyph glyph-name="W" unicode="W" horiz-adv-x="942" 
d="M190 -2l-180 715h178l99 -435h2l110 435h157l105 -436h2l98 436h171l-180 -715h-167l-114 451h-3l-116 -451h-162z" />
    <glyph glyph-name="X" unicode="X" horiz-adv-x="650" 
d="M-4 0l222 370l-205 343h195l124 -221l124 221h182l-206 -346l222 -367h-196l-139 240l-135 -240h-188z" />
    <glyph glyph-name="Y" unicode="Y" horiz-adv-x="645" 
d="M234 0v282l-235 431h189l142 -281l138 281h178l-235 -432v-281h-177z" />
    <glyph glyph-name="Z" unicode="Z" horiz-adv-x="627" 
d="M35 0v118l331 452h-317v143h538v-125l-321 -442h323v-146h-554z" />
    <glyph glyph-name="bracketleft" unicode="[" horiz-adv-x="342" 
d="M77 -184v897h237v-82h-106v-734h106v-81h-237z" />
    <glyph glyph-name="backslash" unicode="\" horiz-adv-x="360" 
d="M268 -178l-265 896h114l265 -896h-114z" />
    <glyph glyph-name="bracketright" unicode="]" horiz-adv-x="342" 
d="M29 -184v81h105v734h-106v82h237v-897h-236z" />
    <glyph glyph-name="asciicircum" unicode="^" horiz-adv-x="566" 
d="M80 122l139 494h136l131 -494h-115l-87 373l-92 -373h-112z" />
    <glyph glyph-name="underscore" unicode="_" horiz-adv-x="500" 
d="M0 -152v108h500v-108h-500z" />
    <glyph glyph-name="grave" unicode="`" horiz-adv-x="340" 
d="M184 593l-137 179h163l87 -179h-113z" />
    <glyph glyph-name="a" unicode="a" horiz-adv-x="573" 
d="M203 -11q-78 0 -126 40.5t-48 113.5q0 58 38 98.5t89 56t109 15.5h91v41q0 66 -82 66q-38 0 -58 -15t-20 -38v-15h-147v19q0 81 68 123.5t166 42.5q101 0 169.5 -44t68.5 -137v-240q0 -94 9 -116h-157q-1 2 -3 29.5t-3 29.5h-4q-52 -70 -160 -70zM267 107q44 0 66.5 22.5
t22.5 61.5v30h-79q-83 0 -83 -57t73 -57z" />
    <glyph glyph-name="b" unicode="b" horiz-adv-x="598" 
d="M350 -13q-81 0 -130 62h-3v-49h-161v713h165v-248h2q55 72 144 72t142 -52t53 -143v-159q0 -89 -61.5 -142.5t-150.5 -53.5zM312 109q35 0 59.5 22t24.5 65v129q0 40 -24.5 62t-61.5 22t-63 -22.5t-26 -72.5v-121q0 -41 27 -62.5t64 -21.5z" />
    <glyph glyph-name="c" unicode="c" horiz-adv-x="555" 
d="M291 -13q-66 0 -122 21.5t-94.5 72t-38.5 122.5v105q0 74 37.5 127.5t93.5 77.5t122 24q99 0 170.5 -52t71.5 -144v-22h-160v15q0 39 -23.5 58.5t-57.5 19.5q-37 0 -61 -21t-24 -64v-130q0 -40 23.5 -62.5t63.5 -22.5q34 0 56.5 19.5t22.5 58.5v13h160v-24
q0 -92 -70 -142t-170 -50z" />
    <glyph glyph-name="d" unicode="d" horiz-adv-x="598" 
d="M231 -12q-89 0 -142 52t-53 143v159q0 89 59 142t148 53q38 0 74 -15.5t58 -42.5h2v234h165v-713h-161v62h-3q-25 -34 -66.5 -54t-80.5 -20zM289 116q36 0 62 22.5t26 67.5v126q0 41 -27 62.5t-63 21.5q-35 0 -60 -23t-25 -68v-123q0 -40 25 -63t62 -23z" />
    <glyph glyph-name="e" unicode="e" horiz-adv-x="562" 
d="M294 -13q-69 0 -125.5 21.5t-94.5 72t-38 123.5v97q0 113 75 174.5t181 61.5q97 0 165 -56t68 -158v-101h-321v-22q0 -41 33 -63.5t78 -22.5q33 0 75 15t62 33l63 -93q-81 -82 -221 -82zM204 318h165v17q0 39 -23 59.5t-58 20.5q-36 0 -60 -21.5t-24 -61.5v-14z" />
    <glyph glyph-name="f" unicode="f" horiz-adv-x="363" 
d="M88 0v400h-69v120h69v55q0 78 46.5 116.5t119.5 38.5q53 0 89 -9v-114q-24 3 -51 3q-40 0 -40 -37v-53h93v-120h-93v-400h-164z" />
    <glyph glyph-name="g" unicode="g" horiz-adv-x="596" 
d="M272 -197q-148 3 -225 83l88 92q57 -48 135 -48q53 0 81 28.5t28 77.5v50h-2q-51 -65 -141 -65q-93 0 -145 51t-52 143v121q0 90 58.5 145.5t146.5 55.5q40 0 77.5 -17t60.5 -45h2v51h158v-474q0 -113 -71.5 -180.5t-198.5 -68.5zM292 145q36 0 61.5 21.5t25.5 66.5v95
q0 41 -27 62t-64 21q-34 0 -58.5 -22.5t-24.5 -67.5v-92q0 -40 24.5 -62t62.5 -22z" />
    <glyph glyph-name="h" unicode="h" horiz-adv-x="602" 
d="M56 0v713h165v-256h3q55 80 155 80q75 0 124 -44.5t49 -128.5v-364h-165v307q0 99 -81 99q-38 0 -61.5 -28t-23.5 -81v-297h-165z" />
    <glyph glyph-name="i" unicode="i" horiz-adv-x="277" 
d="M56 0v526h165v-526h-165zM56 589v147h165v-147h-165z" />
    <glyph glyph-name="j" unicode="j" horiz-adv-x="292" 
d="M60 -193q-25 0 -65 6v124q16 -2 32 -2q43 0 43 44v547h165v-559q0 -78 -47.5 -119t-127.5 -41zM70 589v147h165v-147h-165z" />
    <glyph glyph-name="k" unicode="k" horiz-adv-x="574" 
d="M57 0v713h165v-393l163 206h174l-157 -191l159 -335h-180l-104 225l-55 -65v-160h-165z" />
    <glyph glyph-name="l" unicode="l" horiz-adv-x="328" 
d="M202 -10q-77 0 -113 42t-36 103v578h166v-545q0 -19 8.5 -29.5t32.5 -10.5q10 0 48 4v-125q-57 -17 -106 -17z" />
    <glyph glyph-name="m" unicode="m" horiz-adv-x="925" 
d="M56 0v526h161v-69h2q57 80 159 80q111 0 151 -82h2q61 82 169 82q71 0 121.5 -41.5t50.5 -124.5v-371h-165v308q0 98 -79 98q-38 0 -59.5 -28.5t-21.5 -76.5v-301h-165v307q0 99 -80 99q-32 0 -56.5 -26t-24.5 -76v-304h-165z" />
    <glyph glyph-name="n" unicode="n" horiz-adv-x="602" 
d="M56 0v526h162v-66h2q57 77 159 77q75 0 124 -44.5t49 -128.5v-364h-165v307q0 99 -81 99q-38 0 -61.5 -28t-23.5 -81v-297h-165z" />
    <glyph glyph-name="o" unicode="o" horiz-adv-x="575" 
d="M289 -12q-105 0 -179 52.5t-74 158.5v114q0 107 74.5 165.5t174.5 58.5q104 0 179 -57t75 -164v-109q0 -55 -22 -98.5t-59 -69t-80 -38.5t-89 -13zM289 113q37 0 60 21.5t23 62.5v130q0 38 -24 61t-61 23t-60.5 -23t-23.5 -64v-129q0 -38 23 -60t63 -22z" />
    <glyph glyph-name="p" unicode="p" horiz-adv-x="598" 
d="M56 -189v715h162v-63h1q29 36 69 55t79 19q89 0 142 -52t53 -143v-159q0 -89 -60 -142.5t-150 -53.5q-37 0 -72 17t-56 43h-3v-236h-165zM311 109q35 0 60 21.5t25 63.5v130q0 40 -24.5 62.5t-61.5 22.5t-63 -22.5t-26 -72.5v-121q0 -41 27 -62.5t63 -21.5z" />
    <glyph glyph-name="q" unicode="q" horiz-adv-x="598" 
d="M379 -189v250h-2q-27 -34 -66.5 -53.5t-78.5 -19.5q-89 0 -142.5 52t-53.5 143v157q0 92 58.5 144.5t148.5 52.5q84 0 136 -62h2v52h161v-716h-163zM289 116q36 0 62 22.5t26 67.5v126q0 41 -27 62.5t-63 21.5q-35 0 -60 -23t-25 -68v-123q0 -40 25 -63t62 -23z" />
    <glyph glyph-name="r" unicode="r" horiz-adv-x="440" 
d="M53 0v526h162v-87h1q22 40 67.5 68t92.5 28q32 0 52 -5v-142q-37 6 -70 6q-59 0 -99.5 -28.5t-40.5 -91.5v-274h-165z" />
    <glyph glyph-name="s" unicode="s" horiz-adv-x="542" 
d="M270 -12q-158 0 -245 81l86 99q65 -63 151 -63q81 0 81 44q0 22 -15.5 31t-50.5 16l-13 2q-12 2 -34.5 7t-45.5 12q-136 32 -136 141q0 78 62 129t159 51q75 0 124 -16t94 -54l-94 -91q-50 46 -121 46q-70 0 -70 -42q0 -26 66 -38q5 -1 8 -2l91 -19q70 -15 107.5 -54
t37.5 -96q0 -46 -22 -82.5t-57.5 -58t-77.5 -32.5t-85 -11z" />
    <glyph glyph-name="t" unicode="t" horiz-adv-x="382" 
d="M243 -10q-68 0 -113 34t-45 110v265h-67v121h67v148h165v-148h111v-121h-111v-223q0 -45 45 -45q37 0 64 5v-129q-59 -17 -116 -17z" />
    <glyph glyph-name="u" unicode="u" horiz-adv-x="605" 
d="M228 -11q-75 0 -124 45t-49 129v363h165v-307q0 -99 81 -99q39 0 62 28t23 82v296h165v-526h-161v72h-3q-57 -83 -159 -83z" />
    <glyph glyph-name="v" unicode="v" horiz-adv-x="546" 
d="M192 -2l-187 528h177l101 -333h3l102 333h153l-181 -528h-168z" />
    <glyph glyph-name="w" unicode="w" horiz-adv-x="835" 
d="M172 -2l-166 528h170l82 -317h4l86 317h152l87 -316h3l83 316h157l-166 -528h-152l-92 334h-2l-92 -334h-154z" />
    <glyph glyph-name="x" unicode="x" horiz-adv-x="554" 
d="M8 1l173 270l-164 255h182l87 -145l87 145h161l-163 -254l176 -271h-182l-98 159l-96 -159h-163z" />
    <glyph glyph-name="y" unicode="y" horiz-adv-x="554" 
d="M145 -193q-34 0 -80 8v127q34 -6 65 -6q44 0 57 36l13 36l-192 518h177l105 -331h3l103 331h155l-206 -581q-49 -138 -200 -138z" />
    <glyph glyph-name="z" unicode="z" horiz-adv-x="523" 
d="M34 0v110l248 292h-236v124h439l-1 -111l-245 -288h250v-127h-455z" />
    <glyph glyph-name="braceleft" unicode="{" horiz-adv-x="341" 
d="M185 -184q-50 0 -79 32.5t-29 95.5v243q0 38 -9 52t-36 17v89q31 6 38 15.5t7 37.5v187q0 63 29 95.5t79 32.5h128v-82h-83q-22 0 -22 -23v-184q0 -49 -14 -76.5t-48 -40.5v-6q38 -15 50 -38t12 -77v-265q0 -23 22 -23h83v-82h-128z" />
    <glyph glyph-name="bar" unicode="|" horiz-adv-x="321" 
d="M101 -53v778h119v-778h-119z" />
    <glyph glyph-name="braceright" unicode="}" horiz-adv-x="341" 
d="M28 -184v82h83q22 0 22 23v265q0 54 12 77t50 38v6q-34 13 -48 40.5t-14 76.5v184q0 23 -22 23h-83v82h128q50 0 79 -32.5t29 -95.5v-187q0 -28 7 -37.5t38 -15.5v-89q-27 -3 -36 -17t-9 -52v-243q0 -63 -29 -95.5t-79 -32.5h-128z" />
    <glyph glyph-name="asciitilde" unicode="~" horiz-adv-x="581" 
d="M97 232l-75 15q24 143 125 143q30 0 146 -16.5t146 -16.5q10 0 17.5 3t13 12t8 13.5t8.5 19.5l73 -16q-23 -143 -120 -143q-30 0 -147 16t-147 16q-19 0 -28 -9t-20 -37z" />
    <glyph glyph-name="nbspace" unicode="&#xa0;" horiz-adv-x="225" 
 />
    <glyph glyph-name="exclamdown" unicode="&#xa1;" horiz-adv-x="307" 
d="M66 -162v239l39 249h97l39 -249v-239h-175zM69 380v171h169v-171h-169z" />
    <glyph glyph-name="cent" unicode="&#xa2;" horiz-adv-x="573" 
d="M231 -56v89q-79 15 -128.5 64t-49.5 132v128q0 85 50 138t128 70v87h142v-88q70 -15 115 -60t45 -114v-28h-154v17q0 36 -23 55t-56 19q-37 0 -61 -21t-24 -61v-143q0 -38 24 -60t63 -22q32 0 54.5 19t22.5 55v18h154v-33q0 -70 -44 -113.5t-116 -57.5v-90h-142z" />
    <glyph glyph-name="sterling" unicode="&#xa3;" horiz-adv-x="625" 
d="M46 0v134h80v166h-61v97h61v119q0 57 21.5 99t57.5 65t76 34t84 11q91 0 154 -50t63 -141v-43h-150v31q0 31 -19.5 50.5t-52.5 19.5q-31 0 -50 -20t-19 -50v-125h177v-97h-177v-166h305l-29 -134h-521z" />
    <glyph glyph-name="currency" unicode="&#xa4;" horiz-adv-x="576" 
d="M111 119l-55 56l61 63q-33 53 -33 112q0 56 32 110l-60 63l55 55l60 -59q52 37 119 37t116 -37l59 59l56 -55l-59 -60q33 -52 33 -113q0 -62 -34 -115l60 -60l-56 -56l-61 60q-49 -34 -114 -34q-64 0 -116 35zM290 223q57 0 87 36.5t30 90.5t-31 91.5t-86 37.5
q-58 0 -88 -37t-30 -92q0 -53 31.5 -90t86.5 -37z" />
    <glyph glyph-name="yen" unicode="&#xa5;" horiz-adv-x="645" 
d="M234 0v250h-190v97h167l-212 366h188l141 -261l139 261h179l-212 -366h167v-97h-190v-250h-177z" />
    <glyph glyph-name="brokenbar" unicode="&#xa6;" horiz-adv-x="402" 
d="M152 -47v356h98v-356h-98zM152 383v330h98v-330h-98z" />
    <glyph glyph-name="section" unicode="&#xa7;" horiz-adv-x="552" 
d="M269 -88q-38 0 -72.5 8t-67 25.5t-52 50t-19.5 77.5v38h119v-21q0 -33 25 -53t74 -20q48 0 73.5 20t25.5 45t-18 37t-50 21l-97 28q-141 43 -141 153q0 76 58 121q-59 41 -59 115q0 76 56.5 122t155.5 46q94 0 150.5 -42t56.5 -120v-35h-116v29q0 26 -24.5 44.5
t-71.5 18.5q-40 0 -62.5 -15.5t-22.5 -40.5q0 -8 4.5 -15t15 -12.5t17 -8.5t20.5 -8t16 -6l96 -34q30 -11 49 -20.5t41.5 -26t34 -41.5t11.5 -58q0 -80 -57 -123q59 -41 59 -116q0 -80 -62 -131.5t-166 -51.5zM327 262q47 17 47 54q0 17 -12.5 27t-40.5 19q-68 21 -81 25
q-49 -17 -49 -60q0 -26 68 -45q1 0 15.5 -4.5t31 -9t21.5 -6.5z" />
    <glyph glyph-name="dieresis" unicode="&#xa8;" horiz-adv-x="492" 
d="M65 590v151h145v-151h-145zM286 590v151h145v-151h-145z" />
    <glyph glyph-name="copyright" unicode="&#xa9;" horiz-adv-x="921" 
d="M464 80q-90 0 -151 45t-61 137v170q0 87 61 135t150 48q84 0 145.5 -41.5t61.5 -123.5v-46h-133v33q0 66 -71 66q-35 0 -54 -19t-19 -53v-168q0 -34 18.5 -53t54.5 -19q32 0 51.5 17t19.5 47v39h133v-48q0 -82 -61.5 -124t-144.5 -42zM459 -63q-186 0 -296 118t-110 292
q0 170 115 288.5t291 118.5q183 0 296.5 -117.5t113.5 -289.5q0 -171 -114.5 -290.5t-295.5 -119.5zM459 10q131 0 225.5 93.5t94.5 243.5q0 151 -93.5 244.5t-226.5 93.5q-134 0 -225 -92.5t-91 -245.5q0 -151 92.5 -244t223.5 -93z" />
    <glyph glyph-name="ordfeminine" unicode="&#xaa;" horiz-adv-x="420" 
d="M159 364q-49 0 -81.5 25.5t-32.5 72.5q0 36 17.5 60.5t47 36t56 16t55.5 4.5h35v25q0 44 -48 44q-24 0 -36.5 -11.5t-12.5 -28.5v-13h-101v17q0 54 45.5 83.5t113.5 29.5q64 0 108.5 -30t44.5 -91v-154q0 -13 5 -78h-107l-3 41q-36 -49 -106 -49zM203 444q18 0 34.5 12
t16.5 34v30h-30q-63 0 -63 -41q0 -35 42 -35zM66 227v85h302v-85h-302z" />
    <glyph glyph-name="guillemotleft" unicode="&#xab;" horiz-adv-x="626" 
d="M253 53l-222 209l222 212l75 -68l-123 -144l124 -144zM522 53l-221 209l221 212l75 -68l-122 -144l124 -144z" />
    <glyph glyph-name="logicalnot" unicode="&#xac;" horiz-adv-x="682" 
d="M496 109v167l-438 1v101l551 -1v-268h-113z" />
    <glyph glyph-name="registered" unicode="&#xae;" horiz-adv-x="514" 
d="M166 408v240h109q40 0 63 -20.5t23 -54.5q0 -51 -43 -72l51 -93h-72l-43 83h-21v-83h-67zM256 302q-100 0 -160.5 64t-60.5 157q0 91 63 155.5t158 64.5q100 0 161.5 -63.5t61.5 -156.5q0 -92 -62.5 -156.5t-160.5 -64.5zM256 350q67 0 116 48t49 125q0 78 -47.5 126
t-117.5 48q-69 0 -116 -47.5t-47 -126.5q0 -78 48 -125.5t115 -47.5zM233 539h32q14 0 22.5 8t8.5 21t-8.5 21t-21.5 8h-33v-58z" />
    <glyph glyph-name="macron" unicode="&#xaf;" horiz-adv-x="441" 
d="M57 598v120h326v-120h-326z" />
    <glyph glyph-name="degree" unicode="&#xb0;" horiz-adv-x="348" 
d="M174 499q-56 0 -90 34.5t-34 83.5q0 50 36 86t88 36q55 0 90 -34.5t35 -83.5q0 -51 -37 -86.5t-88 -35.5zM174 563q22 0 37.5 16t15.5 38q0 24 -14.5 41t-38.5 17q-22 0 -36.5 -16.5t-14.5 -41.5q0 -22 15 -38t36 -16z" />
    <glyph glyph-name="plusminus" unicode="&#xb1;" 
d="M28 0v99h534v-99h-534zM245 165v199h-221v99h221v199h101v-199h220v-99h-220v-199h-101z" />
    <glyph glyph-name="twosuperior" unicode="&#xb2;" horiz-adv-x="370" 
d="M45 380v69l127 140q41 44 41 73v5q0 33 -36 33q-34 0 -34 -42v-12h-108v22q0 57 42.5 88t108.5 31q68 0 105 -33t37 -88q0 -30 -18 -63t-32.5 -48.5t-46.5 -47.5l-34 -35v-1h135v-91h-287z" />
    <glyph glyph-name="threesuperior" unicode="&#xb3;" horiz-adv-x="373" 
d="M182 368q-71 0 -109.5 30t-38.5 85v14h112v-8q0 -37 43 -37q37 0 37 45q0 41 -51 41h-29v74h29q24 0 35.5 9t11.5 33q0 20 -10.5 30.5t-26.5 10.5q-37 0 -37 -39v-5h-111v14q0 52 40 84.5t109 32.5t108.5 -31t39.5 -82q0 -68 -62 -88v-3q34 -8 54 -32t20 -58
q0 -42 -26.5 -70.5t-62 -39t-75.5 -10.5z" />
    <glyph glyph-name="acute" unicode="&#xb4;" horiz-adv-x="340" 
d="M45 593l87 179h163l-137 -179h-113z" />
    <glyph glyph-name="mu" unicode="&#xb5;" horiz-adv-x="615" 
d="M55 -178v704h165v-325q0 -32 20.5 -56.5t60.5 -24.5q31 0 58 25.5t27 65.5v315h165v-328q0 -46 38 -47l-1 -156q-65 0 -106 23.5t-55 64.5q-37 -95 -127 -95q-80 0 -108 61l-8 -2l42 -213z" />
    <glyph glyph-name="paragraph" unicode="&#xb6;" horiz-adv-x="621" 
d="M252 -90v304q-96 9 -142.5 79t-46.5 168q0 99 58 175.5t149 76.5h306v-90h-48v-713h-98v713h-81v-713h-97z" />
    <glyph glyph-name="periodcentered" unicode="&#xb7;" horiz-adv-x="283" 
d="M58 287v172h168v-172h-168z" />
    <glyph glyph-name="periodcentered" unicode="&#x22c5;" horiz-adv-x="283" 
d="M58 287v172h168v-172h-168z" />
    <glyph glyph-name="cedilla" unicode="&#xb8;" horiz-adv-x="330" 
d="M150 -225q-53 0 -110 17v72q65 -18 99 -18q48 0 48 30q0 8 -4.5 13t-16 7.5t-16.5 2.5t-20 1l-40 2l27 129h68l-15 -71q133 0 133 -83q0 -46 -43.5 -74t-109.5 -28z" />
    <glyph glyph-name="onesuperior" unicode="&#xb9;" horiz-adv-x="357" 
d="M60 380v81h72v216l-70 -4l-7 79l131 28h60v-319h66v-81h-252z" />
    <glyph glyph-name="ordmasculine" unicode="&#xba;" horiz-adv-x="430" 
d="M215 363q-72 0 -119.5 35t-47.5 110v74q0 73 48 111.5t118 38.5q72 0 120 -36.5t48 -111.5v-75q0 -73 -49 -109.5t-118 -36.5zM215 448q50 0 50 57v85q0 26 -12.5 41.5t-36.5 15.5q-50 0 -50 -60v-83q0 -56 49 -56zM67 227v85h302v-85h-302z" />
    <glyph glyph-name="guillemotright" unicode="&#xbb;" horiz-adv-x="626" 
d="M105 53l-77 66l124 144l-123 144l75 67l222 -211zM374 53l-76 66l123 144l-123 144l76 67l221 -211z" />
    <glyph glyph-name="onequarter" unicode="&#xbc;" horiz-adv-x="903" 
d="M60 315v81h72v216l-70 -4l-7 79l131 28h60v-319h66v-81h-252zM688 0v80h-177v80l149 240h125l-159 -236h62v42l106 71v-113h40v-84h-40v-80h-106zM197 -2l396 718h96l-396 -718h-96z" />
    <glyph glyph-name="onehalf" unicode="&#xbd;" horiz-adv-x="903" 
d="M60 315v81h72v216l-70 -4l-7 79l131 28h60v-319h66v-81h-252zM559 0v69l127 140q41 44 41 73v5q0 33 -36 33q-34 0 -34 -42v-12h-108v22q0 57 42.5 88t108.5 31q68 0 105 -33t37 -88q0 -30 -18 -63t-32.5 -48.5t-46.5 -47.5l-34 -35v-1h135v-91h-287zM197 -2l396 718h96
l-396 -718h-96z" />
    <glyph glyph-name="threequarters" unicode="&#xbe;" horiz-adv-x="903" 
d="M695 0v80h-177v80l149 240h125l-159 -236h62v42l106 71v-113h40v-84h-40v-80h-106zM182 304q-71 0 -109.5 30t-38.5 85v14h112v-8q0 -37 43 -37q37 0 37 45q0 41 -51 41h-29v74h29q24 0 35.5 9t11.5 33q0 20 -10.5 30.5t-26.5 10.5q-37 0 -37 -39v-5h-111v14
q0 52 40 84.5t109 32.5t108.5 -31t39.5 -82q0 -68 -62 -88v-3q34 -8 54 -32t20 -58q0 -42 -26.5 -70.5t-62 -39t-75.5 -10.5zM207 -2l396 718h96l-396 -718h-96z" />
    <glyph glyph-name="questiondown" unicode="&#xbf;" horiz-adv-x="555" 
d="M272 -172q-110 0 -170.5 53t-60.5 146q0 59 29.5 99.5t86.5 86.5q2 2 10.5 8t12 8t11 8t11 10t8.5 10t7.5 11.5t4.5 12.5t2 14v35h149v-35q0 -40 -14 -67.5t-45 -56.5q-9 -8 -33 -27t-38 -32t-27 -34t-13 -42q0 -33 21.5 -54.5t55.5 -21.5q36 0 63.5 17.5t27.5 51.5v31
h148v-37q0 -94 -72.5 -144.5t-174.5 -50.5zM216 380v171h168v-171h-168z" />
    <glyph glyph-name="Agrave" unicode="&#xc0;" horiz-adv-x="711" 
d="M9 0l253 714h191l250 -714h-183l-43 133h-255l-44 -133h-169zM265 273h168l-82 258h-3zM307 776l-137 179h163l87 -179h-113z" />
    <glyph glyph-name="Aacute" unicode="&#xc1;" horiz-adv-x="711" 
d="M9 0l253 714h191l250 -714h-183l-43 133h-255l-44 -133h-169zM265 273h168l-82 258h-3zM294 776l87 179h163l-137 -179h-113z" />
    <glyph glyph-name="Acircumflex" unicode="&#xc2;" horiz-adv-x="711" 
d="M9 0l253 714h191l250 -714h-183l-43 133h-255l-44 -133h-169zM265 273h168l-82 258h-3zM163 777l131 186h129l124 -186h-139l-52 97l-55 -97h-138z" />
    <glyph glyph-name="Atilde" unicode="&#xc3;" horiz-adv-x="711" 
d="M9 0l253 714h191l250 -714h-183l-43 133h-255l-44 -133h-169zM265 273h168l-82 258h-3zM228 767l-93 20q11 63 46 102.5t91 39.5q30 0 87 -16.5t87 -16.5q14 0 22.5 9t11 15t8.5 26l88 -22q-9 -62 -41.5 -101.5t-88.5 -39.5q-31 0 -88 16t-83 16q-18 0 -27 -9.5
t-20 -38.5z" />
    <glyph glyph-name="Adieresis" unicode="&#xc4;" horiz-adv-x="711" 
d="M9 0l253 714h191l250 -714h-183l-43 133h-255l-44 -133h-169zM265 273h168l-82 258h-3zM172 773v151h145v-151h-145zM393 773v151h145v-151h-145z" />
    <glyph glyph-name="Aring" unicode="&#xc5;" horiz-adv-x="711" 
d="M9 0l253 714h191l250 -714h-183l-43 133h-255l-44 -133h-169zM265 273h168l-82 258h-3zM355 771q-51 0 -83 27.5t-32 72.5t33.5 75.5t81.5 30.5q51 0 83.5 -26.5t32.5 -72.5q0 -45 -34.5 -76t-81.5 -31zM355 826q21 0 35.5 14t14.5 34q0 21 -13.5 35t-36.5 14
q-22 0 -35.5 -14t-13.5 -35q0 -20 14.5 -34t34.5 -14z" />
    <glyph glyph-name="AE" unicode="&#xc6;" horiz-adv-x="1047" 
d="M7 0l358 713h630v-145h-346v-136h291v-144h-291v-142h348v-146h-526v145h-209l-73 -145h-182zM323 282h148v300z" />
    <glyph glyph-name="Ccedilla" unicode="&#xc7;" horiz-adv-x="673" 
d="M342 -225q-53 0 -110 17v72q65 -18 99 -18q48 0 48 30q0 8 -4.5 13t-16 7.5t-16.5 2.5t-20 1l-40 2l18 89q-112 11 -184.5 75.5t-72.5 178.5v218q0 125 87 193.5t213 68.5q54 0 104 -14t92 -41.5t67.5 -74t25.5 -105.5v-33h-168v16q0 52 -35.5 79t-82.5 27
q-52 0 -88 -28.5t-36 -85.5v-216q0 -54 35 -84.5t91 -30.5q46 0 81 27t35 79v17h168v-35q0 -109 -77.5 -168t-186.5 -65l-6 -29q133 0 133 -83q0 -46 -43.5 -74t-109.5 -28z" />
    <glyph glyph-name="Egrave" unicode="&#xc8;" horiz-adv-x="638" 
d="M61 0v713h525v-145h-346v-136h291v-144h-291v-142h348v-146h-527zM294 776l-137 179h163l87 -179h-113z" />
    <glyph glyph-name="Eacute" unicode="&#xc9;" horiz-adv-x="638" 
d="M260 776l87 179h163l-137 -179h-113zM61 0v713h525v-145h-346v-136h291v-144h-291v-142h348v-146h-527z" />
    <glyph glyph-name="Ecircumflex" unicode="&#xca;" horiz-adv-x="638" 
d="M127 777l131 186h129l124 -186h-139l-52 97l-55 -97h-138zM61 0v713h525v-145h-346v-136h291v-144h-291v-142h348v-146h-527z" />
    <glyph glyph-name="Edieresis" unicode="&#xcb;" horiz-adv-x="638" 
d="M149 773v151h145v-151h-145zM370 773v151h145v-151h-145zM61 0v713h525v-145h-346v-136h291v-144h-291v-142h348v-146h-527z" />
    <glyph glyph-name="Igrave" unicode="&#xcc;" horiz-adv-x="301" 
d="M61 0v713h179v-713h-179zM97 776l-137 179h163l87 -179h-113z" />
    <glyph glyph-name="Iacute" unicode="&#xcd;" horiz-adv-x="301" 
d="M61 0v713h179v-713h-179zM98 776l87 179h163l-137 -179h-113z" />
    <glyph glyph-name="Icircumflex" unicode="&#xce;" horiz-adv-x="301" 
d="M61 0v713h179v-713h-179zM-41 777l131 186h129l124 -186h-139l-52 97l-55 -97h-138z" />
    <glyph glyph-name="Idieresis" unicode="&#xcf;" horiz-adv-x="301" 
d="M61 0v713h179v-713h-179zM-32 773v151h145v-151h-145zM189 773v151h145v-151h-145z" />
    <glyph glyph-name="Eth" unicode="&#xd0;" horiz-adv-x="716" 
d="M25 314v101h59v298h298q125 0 208 -65.5t83 -185.5v-201q0 -126 -84.5 -193.5t-205.5 -67.5h-299v314h-59zM263 146h109q51 0 86.5 30.5t35.5 83.5v196q0 51 -36 81t-91 30h-104v-152h133v-101h-133v-168z" />
    <glyph glyph-name="Ntilde" unicode="&#xd1;" horiz-adv-x="734" 
d="M61 0v713h173l272 -403h2v403h165v-713h-166l-279 419h-2v-419h-165zM239 767l-93 20q11 63 46 102.5t91 39.5q30 0 87 -16.5t87 -16.5q14 0 22.5 9t11 15t8.5 26l88 -22q-9 -62 -41.5 -101.5t-88.5 -39.5q-31 0 -88 16t-83 16q-18 0 -27 -9.5t-20 -38.5z" />
    <glyph glyph-name="Ograve" unicode="&#xd2;" horiz-adv-x="693" 
d="M348 -12q-62 0 -115.5 15.5t-96.5 46t-68 81.5t-25 118v206q0 128 88.5 199t212.5 71q83 0 150.5 -28t111.5 -90.5t44 -150.5v-198q0 -89 -45.5 -152t-112 -90.5t-144.5 -27.5zM348 135q51 0 87 30t36 87v211q0 54 -36.5 85t-89.5 31t-88 -29t-35 -88v-209q0 -56 35 -87
t91 -31zM298 776l-137 179h163l87 -179h-113z" />
    <glyph glyph-name="Oacute" unicode="&#xd3;" horiz-adv-x="693" 
d="M284 776l87 179h163l-137 -179h-113zM348 -12q-62 0 -115.5 15.5t-96.5 46t-68 81.5t-25 118v206q0 128 88.5 199t212.5 71q83 0 150.5 -28t111.5 -90.5t44 -150.5v-198q0 -89 -45.5 -152t-112 -90.5t-144.5 -27.5zM348 135q51 0 87 30t36 87v211q0 54 -36.5 85t-89.5 31
t-88 -29t-35 -88v-209q0 -56 35 -87t91 -31z" />
    <glyph glyph-name="Ocircumflex" unicode="&#xd4;" horiz-adv-x="693" 
d="M154 777l131 186h129l124 -186h-139l-52 97l-55 -97h-138zM348 -12q-62 0 -115.5 15.5t-96.5 46t-68 81.5t-25 118v206q0 128 88.5 199t212.5 71q83 0 150.5 -28t111.5 -90.5t44 -150.5v-198q0 -89 -45.5 -152t-112 -90.5t-144.5 -27.5zM348 135q51 0 87 30t36 87v211
q0 54 -36.5 85t-89.5 31t-88 -29t-35 -88v-209q0 -56 35 -87t91 -31z" />
    <glyph glyph-name="Otilde" unicode="&#xd5;" horiz-adv-x="693" 
d="M348 -12q-62 0 -115.5 15.5t-96.5 46t-68 81.5t-25 118v206q0 128 88.5 199t212.5 71q83 0 150.5 -28t111.5 -90.5t44 -150.5v-198q0 -89 -45.5 -152t-112 -90.5t-144.5 -27.5zM348 135q51 0 87 30t36 87v211q0 54 -36.5 85t-89.5 31t-88 -29t-35 -88v-209q0 -56 35 -87
t91 -31zM219 767l-93 20q11 63 46 102.5t91 39.5q30 0 87 -16.5t87 -16.5q14 0 22.5 9t11 15t8.5 26l88 -22q-9 -62 -41.5 -101.5t-88.5 -39.5q-31 0 -88 16t-83 16q-18 0 -27 -9.5t-20 -38.5z" />
    <glyph glyph-name="Odieresis" unicode="&#xd6;" horiz-adv-x="693" 
d="M163 773v151h145v-151h-145zM384 773v151h145v-151h-145zM348 -12q-62 0 -115.5 15.5t-96.5 46t-68 81.5t-25 118v206q0 128 88.5 199t212.5 71q83 0 150.5 -28t111.5 -90.5t44 -150.5v-198q0 -89 -45.5 -152t-112 -90.5t-144.5 -27.5zM348 135q51 0 87 30t36 87v211
q0 54 -36.5 85t-89.5 31t-88 -29t-35 -88v-209q0 -56 35 -87t91 -31z" />
    <glyph glyph-name="multiply" unicode="&#xd7;" 
d="M119 67l-70 71l176 181l-179 181l71 72l179 -181l177 181l70 -72l-176 -180l180 -179l-72 -73l-180 180z" />
    <glyph glyph-name="Oslash" unicode="&#xd8;" horiz-adv-x="693" 
d="M129 -57l-62 41l52 78q-76 68 -76 187v206q0 128 88.5 199t212.5 71q106 0 186 -48l53 79l62 -41l-57 -85q62 -70 62 -174v-198q0 -89 -45.5 -152t-112 -90.5t-144.5 -27.5q-94 0 -167 33zM222 253q0 -17 3 -32l215 321q-35 37 -95 37q-53 0 -88 -29t-35 -88v-209z
M348 135q51 0 87 30t36 87v202l-200 -299q32 -20 77 -20z" />
    <glyph glyph-name="Ugrave" unicode="&#xd9;" horiz-adv-x="709" 
d="M352 -12q-139 0 -216.5 67t-77.5 198v460h178v-448q0 -61 31.5 -95.5t90.5 -34.5q57 0 87.5 33.5t30.5 96.5v448h175v-453q0 -129 -84 -200.5t-215 -71.5zM313 776l-137 179h163l87 -179h-113z" />
    <glyph glyph-name="Uacute" unicode="&#xda;" horiz-adv-x="709" 
d="M300 776l87 179h163l-137 -179h-113zM352 -12q-139 0 -216.5 67t-77.5 198v460h178v-448q0 -61 31.5 -95.5t90.5 -34.5q57 0 87.5 33.5t30.5 96.5v448h175v-453q0 -129 -84 -200.5t-215 -71.5z" />
    <glyph glyph-name="Ucircumflex" unicode="&#xdb;" horiz-adv-x="709" 
d="M162 777l131 186h129l124 -186h-139l-52 97l-55 -97h-138zM352 -12q-139 0 -216.5 67t-77.5 198v460h178v-448q0 -61 31.5 -95.5t90.5 -34.5q57 0 87.5 33.5t30.5 96.5v448h175v-453q0 -129 -84 -200.5t-215 -71.5z" />
    <glyph glyph-name="Udieresis" unicode="&#xdc;" horiz-adv-x="709" 
d="M179 773v151h145v-151h-145zM400 773v151h145v-151h-145zM352 -12q-139 0 -216.5 67t-77.5 198v460h178v-448q0 -61 31.5 -95.5t90.5 -34.5q57 0 87.5 33.5t30.5 96.5v448h175v-453q0 -129 -84 -200.5t-215 -71.5z" />
    <glyph glyph-name="Yacute" unicode="&#xdd;" horiz-adv-x="645" 
d="M234 0v282l-235 431h189l142 -281l138 281h178l-235 -432v-281h-177zM269 776l87 179h163l-137 -179h-113z" />
    <glyph glyph-name="Thorn" unicode="&#xde;" horiz-adv-x="662" 
d="M61 0v713h179v-122h144q116 0 182.5 -60.5t66.5 -158.5q0 -43 -14.5 -82.5t-43 -72t-77 -52t-111.5 -19.5h-147v-146h-179zM240 277h115q48 0 76 25t28 66q0 44 -28 67.5t-77 23.5h-114v-182z" />
    <glyph glyph-name="germandbls" unicode="&#xdf;" horiz-adv-x="679" 
d="M433 -12q-82 0 -129 17l15 131q37 -10 68 -10q88 0 88 78q0 46 -38.5 68t-100.5 22v119h26q32 13 53 45t21 67q0 80 -88 80q-46 0 -71 -26.5t-25 -67.5v-511h-168v400h-65v120h65v5q0 79 68 142.5t201 63.5q114 0 182.5 -52t68.5 -144q0 -50 -27 -91t-75 -57v-5
q72 -24 110.5 -74.5t38.5 -114.5q0 -91 -65 -148.5t-153 -56.5z" />
    <glyph glyph-name="agrave" unicode="&#xe0;" horiz-adv-x="573" 
d="M203 -11q-78 0 -126 40.5t-48 113.5q0 58 38 98.5t89 56t109 15.5h91v41q0 66 -82 66q-38 0 -58 -15t-20 -38v-15h-147v19q0 81 68 123.5t166 42.5q101 0 169.5 -44t68.5 -137v-240q0 -94 9 -116h-157q-1 2 -3 29.5t-3 29.5h-4q-52 -70 -160 -70zM267 107q44 0 66.5 22.5
t22.5 61.5v30h-79q-83 0 -83 -57t73 -57zM248 593l-137 179h163l87 -179h-113z" />
    <glyph glyph-name="aacute" unicode="&#xe1;" horiz-adv-x="573" 
d="M203 -11q-78 0 -126 40.5t-48 113.5q0 58 38 98.5t89 56t109 15.5h91v41q0 66 -82 66q-38 0 -58 -15t-20 -38v-15h-147v19q0 81 68 123.5t166 42.5q101 0 169.5 -44t68.5 -137v-240q0 -94 9 -116h-157q-1 2 -3 29.5t-3 29.5h-4q-52 -70 -160 -70zM267 107q44 0 66.5 22.5
t22.5 61.5v30h-79q-83 0 -83 -57t73 -57zM215 593l87 179h163l-137 -179h-113z" />
    <glyph glyph-name="acircumflex" unicode="&#xe2;" horiz-adv-x="573" 
d="M203 -11q-78 0 -126 40.5t-48 113.5q0 58 38 98.5t89 56t109 15.5h91v41q0 66 -82 66q-38 0 -58 -15t-20 -38v-15h-147v19q0 81 68 123.5t166 42.5q101 0 169.5 -44t68.5 -137v-240q0 -94 9 -116h-157q-1 2 -3 29.5t-3 29.5h-4q-52 -70 -160 -70zM267 107q44 0 66.5 22.5
t22.5 61.5v30h-79q-83 0 -83 -57t73 -57zM94 594l131 186h129l124 -186h-139l-52 97l-55 -97h-138z" />
    <glyph glyph-name="atilde" unicode="&#xe3;" horiz-adv-x="573" 
d="M203 -11q-78 0 -126 40.5t-48 113.5q0 58 38 98.5t89 56t109 15.5h91v41q0 66 -82 66q-38 0 -58 -15t-20 -38v-15h-147v19q0 81 68 123.5t166 42.5q101 0 169.5 -44t68.5 -137v-240q0 -94 9 -116h-157q-1 2 -3 29.5t-3 29.5h-4q-52 -70 -160 -70zM267 107q44 0 66.5 22.5
t22.5 61.5v30h-79q-83 0 -83 -57t73 -57zM159 584l-93 20q11 63 46 102.5t91 39.5q30 0 87 -16.5t87 -16.5q14 0 22.5 9t11 15t8.5 26l88 -22q-9 -62 -41.5 -101.5t-88.5 -39.5q-31 0 -88 16t-83 16q-18 0 -27 -9.5t-20 -38.5z" />
    <glyph glyph-name="adieresis" unicode="&#xe4;" horiz-adv-x="573" 
d="M203 -11q-78 0 -126 40.5t-48 113.5q0 58 38 98.5t89 56t109 15.5h91v41q0 66 -82 66q-38 0 -58 -15t-20 -38v-15h-147v19q0 81 68 123.5t166 42.5q101 0 169.5 -44t68.5 -137v-240q0 -94 9 -116h-157q-1 2 -3 29.5t-3 29.5h-4q-52 -70 -160 -70zM267 107q44 0 66.5 22.5
t22.5 61.5v30h-79q-83 0 -83 -57t73 -57zM103 590v151h145v-151h-145zM324 590v151h145v-151h-145z" />
    <glyph glyph-name="aring" unicode="&#xe5;" horiz-adv-x="573" 
d="M203 -11q-78 0 -126 40.5t-48 113.5q0 58 38 98.5t89 56t109 15.5h91v41q0 66 -82 66q-38 0 -58 -15t-20 -38v-15h-147v19q0 81 68 123.5t166 42.5q101 0 169.5 -44t68.5 -137v-240q0 -94 9 -116h-157q-1 2 -3 29.5t-3 29.5h-4q-52 -70 -160 -70zM267 107q44 0 66.5 22.5
t22.5 61.5v30h-79q-83 0 -83 -57t73 -57zM286 588q-51 0 -83 27.5t-32 72.5t33.5 75.5t81.5 30.5q51 0 83.5 -26.5t32.5 -72.5q0 -45 -34.5 -76t-81.5 -31zM286 643q21 0 35.5 14t14.5 34q0 21 -13.5 35t-36.5 14q-22 0 -35.5 -14t-13.5 -35q0 -20 14.5 -34t34.5 -14z" />
    <glyph glyph-name="ae" unicode="&#xe6;" horiz-adv-x="884" 
d="M613 -13q-153 0 -220 94q-58 -92 -190 -92q-78 0 -126 40.5t-48 113.5q0 58 38 98.5t89 56t109 15.5h91v41q0 66 -82 66q-38 0 -58 -15t-20 -38v-15h-147v19q0 81 68 123.5t166 42.5q109 0 169 -46q67 46 159 46q97 0 165 -56t68 -158v-101h-321v-22q0 -41 33 -63.5
t78 -22.5q33 0 75 15t61 33l65 -94q-84 -81 -222 -81zM267 107q44 0 66.5 22.5t22.5 61.5v30h-79q-83 0 -83 -57t73 -57zM523 318h164v17q0 39 -22.5 59.5t-57.5 20.5q-36 0 -60 -21.5t-24 -61.5v-14z" />
    <glyph glyph-name="ccedilla" unicode="&#xe7;" horiz-adv-x="555" 
d="M283 -225q-53 0 -110 17v72q65 -18 99 -18q48 0 48 30q0 8 -4.5 13t-16 7.5t-16.5 2.5t-20 1l-40 2l18 89q-88 11 -146.5 65t-58.5 147v105q0 74 37.5 127.5t93.5 77.5t122 24q99 0 170.5 -52t71.5 -144v-22h-160v15q0 39 -23.5 58.5t-57.5 19.5q-37 0 -61 -21t-24 -64
v-130q0 -40 23.5 -62.5t63.5 -22.5q34 0 56.5 19.5t22.5 58.5v13h160v-24q0 -88 -64 -137t-158 -54l-6 -28q133 0 133 -83q0 -46 -43.5 -74t-109.5 -28z" />
    <glyph glyph-name="egrave" unicode="&#xe8;" horiz-adv-x="562" 
d="M294 -13q-69 0 -125.5 21.5t-94.5 72t-38 123.5v97q0 113 75 174.5t181 61.5q97 0 165 -56t68 -158v-101h-321v-22q0 -41 33 -63.5t78 -22.5q33 0 75 15t62 33l63 -93q-81 -82 -221 -82zM204 318h165v17q0 39 -23 59.5t-58 20.5q-36 0 -60 -21.5t-24 -61.5v-14zM251 593
l-137 179h163l87 -179h-113z" />
    <glyph glyph-name="eacute" unicode="&#xe9;" horiz-adv-x="562" 
d="M221 593l87 179h163l-137 -179h-113zM294 -13q-69 0 -125.5 21.5t-94.5 72t-38 123.5v97q0 113 75 174.5t181 61.5q97 0 165 -56t68 -158v-101h-321v-22q0 -41 33 -63.5t78 -22.5q33 0 75 15t62 33l63 -93q-81 -82 -221 -82zM204 318h165v17q0 39 -23 59.5t-58 20.5
q-36 0 -60 -21.5t-24 -61.5v-14z" />
    <glyph glyph-name="ecircumflex" unicode="&#xea;" horiz-adv-x="562" 
d="M89 594l131 186h129l124 -186h-139l-52 97l-55 -97h-138zM294 -13q-69 0 -125.5 21.5t-94.5 72t-38 123.5v97q0 113 75 174.5t181 61.5q97 0 165 -56t68 -158v-101h-321v-22q0 -41 33 -63.5t78 -22.5q33 0 75 15t62 33l63 -93q-81 -82 -221 -82zM204 318h165v17
q0 39 -23 59.5t-58 20.5q-36 0 -60 -21.5t-24 -61.5v-14z" />
    <glyph glyph-name="edieresis" unicode="&#xeb;" horiz-adv-x="562" 
d="M97 590v151h145v-151h-145zM318 590v151h145v-151h-145zM294 -13q-69 0 -125.5 21.5t-94.5 72t-38 123.5v97q0 113 75 174.5t181 61.5q97 0 165 -56t68 -158v-101h-321v-22q0 -41 33 -63.5t78 -22.5q33 0 75 15t62 33l63 -93q-81 -82 -221 -82zM204 318h165v17
q0 39 -23 59.5t-58 20.5q-36 0 -60 -21.5t-24 -61.5v-14z" />
    <glyph glyph-name="igrave" unicode="&#xec;" horiz-adv-x="277" 
d="M56 0v526h165v-526h-165zM93 593l-137 179h163l87 -179h-113z" />
    <glyph glyph-name="iacute" unicode="&#xed;" horiz-adv-x="277" 
d="M80 593l87 179h163l-137 -179h-113zM56 0v526h165v-526h-165z" />
    <glyph glyph-name="icircumflex" unicode="&#xee;" horiz-adv-x="277" 
d="M-53 594l131 186h129l124 -186h-139l-52 97l-55 -97h-138zM56 0v526h165v-526h-165z" />
    <glyph glyph-name="idieresis" unicode="&#xef;" horiz-adv-x="277" 
d="M-44 590v151h145v-151h-145zM177 590v151h145v-151h-145zM56 0v526h165v-526h-165z" />
    <glyph glyph-name="eth" unicode="&#xf0;" horiz-adv-x="573" 
d="M286 -12q-49 0 -92.5 11.5t-79.5 36t-57 67t-21 98.5v95q0 94 53.5 152t142.5 67q5 1 16 1l-30 46l-99 -26l-44 82l86 24l-50 71l168 33l43 -62l106 28l44 -82l-95 -26l122 -178q38 -53 38 -126v-94q0 -107 -74.5 -162.5t-176.5 -55.5zM287 113q39 0 60.5 23t21.5 64v110
q0 39 -22.5 63.5t-60.5 24.5q-39 0 -60.5 -24.5t-21.5 -66.5v-109q0 -39 21 -62t62 -23z" />
    <glyph glyph-name="ntilde" unicode="&#xf1;" horiz-adv-x="602" 
d="M56 0v526h162v-66h2q57 77 159 77q75 0 124 -44.5t49 -128.5v-364h-165v307q0 99 -81 99q-38 0 -61.5 -28t-23.5 -81v-297h-165zM178 584l-93 20q11 63 46 102.5t91 39.5q30 0 87 -16.5t87 -16.5q14 0 22.5 9t11 15t8.5 26l88 -22q-9 -62 -41.5 -101.5t-88.5 -39.5
q-31 0 -88 16t-83 16q-18 0 -27 -9.5t-20 -38.5z" />
    <glyph glyph-name="ograve" unicode="&#xf2;" horiz-adv-x="575" 
d="M289 -12q-105 0 -179 52.5t-74 158.5v114q0 107 74.5 165.5t174.5 58.5q104 0 179 -57t75 -164v-109q0 -55 -22 -98.5t-59 -69t-80 -38.5t-89 -13zM289 113q37 0 60 21.5t23 62.5v130q0 38 -24 61t-61 23t-60.5 -23t-23.5 -64v-129q0 -38 23 -60t63 -22zM243 593
l-137 179h163l87 -179h-113z" />
    <glyph glyph-name="oacute" unicode="&#xf3;" horiz-adv-x="575" 
d="M219 593l87 179h163l-137 -179h-113zM289 -12q-105 0 -179 52.5t-74 158.5v114q0 107 74.5 165.5t174.5 58.5q104 0 179 -57t75 -164v-109q0 -55 -22 -98.5t-59 -69t-80 -38.5t-89 -13zM289 113q37 0 60 21.5t23 62.5v130q0 38 -24 61t-61 23t-60.5 -23t-23.5 -64v-129
q0 -38 23 -60t63 -22z" />
    <glyph glyph-name="ocircumflex" unicode="&#xf4;" horiz-adv-x="575" 
d="M95 594l131 186h129l124 -186h-139l-52 97l-55 -97h-138zM289 -12q-105 0 -179 52.5t-74 158.5v114q0 107 74.5 165.5t174.5 58.5q104 0 179 -57t75 -164v-109q0 -55 -22 -98.5t-59 -69t-80 -38.5t-89 -13zM289 113q37 0 60 21.5t23 62.5v130q0 38 -24 61t-61 23
t-60.5 -23t-23.5 -64v-129q0 -38 23 -60t63 -22z" />
    <glyph glyph-name="otilde" unicode="&#xf5;" horiz-adv-x="575" 
d="M289 -12q-105 0 -179 52.5t-74 158.5v114q0 107 74.5 165.5t174.5 58.5q104 0 179 -57t75 -164v-109q0 -55 -22 -98.5t-59 -69t-80 -38.5t-89 -13zM289 113q37 0 60 21.5t23 62.5v130q0 38 -24 61t-61 23t-60.5 -23t-23.5 -64v-129q0 -38 23 -60t63 -22zM160 584l-93 20
q11 63 46 102.5t91 39.5q30 0 87 -16.5t87 -16.5q14 0 22.5 9t11 15t8.5 26l88 -22q-9 -62 -41.5 -101.5t-88.5 -39.5q-31 0 -88 16t-83 16q-18 0 -27 -9.5t-20 -38.5z" />
    <glyph glyph-name="odieresis" unicode="&#xf6;" horiz-adv-x="575" 
d="M104 590v151h145v-151h-145zM325 590v151h145v-151h-145zM289 -12q-105 0 -179 52.5t-74 158.5v114q0 107 74.5 165.5t174.5 58.5q104 0 179 -57t75 -164v-109q0 -55 -22 -98.5t-59 -69t-80 -38.5t-89 -13zM289 113q37 0 60 21.5t23 62.5v130q0 38 -24 61t-61 23
t-60.5 -23t-23.5 -64v-129q0 -38 23 -60t63 -22z" />
    <glyph glyph-name="divide" unicode="&#xf7;" 
d="M221 43v143h148v-143h-148zM34 267v99h522v-99h-522zM221 442v143h148v-143h-148z" />
    <glyph glyph-name="oslash" unicode="&#xf8;" horiz-adv-x="575" 
d="M153 -75l-58 28l37 72q-96 56 -96 174v114q0 107 74.5 165.5t174.5 58.5q54 0 101 -16l37 73l58 -28l-37 -72q95 -59 95 -178v-109q0 -55 -22 -98.5t-59 -69t-80 -38.5t-89 -13q-52 0 -97 13zM203 195q0 -15 3 -25l119 233q-18 8 -38 8q-37 0 -60.5 -23t-23.5 -64v-129z
M289 113q37 0 60 21.5t23 62.5v130q0 9 -2 21l-118 -229q16 -6 37 -6z" />
    <glyph glyph-name="ugrave" unicode="&#xf9;" horiz-adv-x="605" 
d="M228 -11q-75 0 -124 45t-49 129v363h165v-307q0 -99 81 -99q39 0 62 28t23 82v296h165v-526h-161v72h-3q-57 -83 -159 -83zM271 593l-137 179h163l87 -179h-113z" />
    <glyph glyph-name="uacute" unicode="&#xfa;" horiz-adv-x="605" 
d="M242 593l87 179h163l-137 -179h-113zM228 -11q-75 0 -124 45t-49 129v363h165v-307q0 -99 81 -99q39 0 62 28t23 82v296h165v-526h-161v72h-3q-57 -83 -159 -83z" />
    <glyph glyph-name="ucircumflex" unicode="&#xfb;" horiz-adv-x="605" 
d="M110 594l131 186h129l124 -186h-139l-52 97l-55 -97h-138zM228 -11q-75 0 -124 45t-49 129v363h165v-307q0 -99 81 -99q39 0 62 28t23 82v296h165v-526h-161v72h-3q-57 -83 -159 -83z" />
    <glyph glyph-name="udieresis" unicode="&#xfc;" horiz-adv-x="605" 
d="M119 590v151h145v-151h-145zM340 590v151h145v-151h-145zM228 -11q-75 0 -124 45t-49 129v363h165v-307q0 -99 81 -99q39 0 62 28t23 82v296h165v-526h-161v72h-3q-57 -83 -159 -83z" />
    <glyph glyph-name="yacute" unicode="&#xfd;" horiz-adv-x="554" 
d="M145 -193q-34 0 -80 8v127q34 -6 65 -6q44 0 57 36l13 36l-192 518h177l105 -331h3l103 331h155l-206 -581q-49 -138 -200 -138zM238 593l87 179h163l-137 -179h-113z" />
    <glyph glyph-name="thorn" unicode="&#xfe;" horiz-adv-x="598" 
d="M56 -189v902h165v-250h1q29 36 69 55t80 19q89 0 140 -52t51 -143v-159q0 -89 -60 -142.5t-150 -53.5q-37 0 -72 17t-56 43h-3v-236h-165zM311 109q35 0 60 21.5t25 63.5v130q0 40 -24.5 62.5t-61.5 22.5t-63 -22.5t-26 -72.5v-121q0 -41 27 -62.5t63 -21.5z" />
    <glyph glyph-name="ydieresis" unicode="&#xff;" horiz-adv-x="554" 
d="M145 -193q-34 0 -80 8v127q34 -6 65 -6q44 0 57 36l13 36l-192 518h177l105 -331h3l103 331h155l-206 -581q-49 -138 -200 -138zM116 590v151h145v-151h-145zM337 590v151h145v-151h-145z" />
    <glyph glyph-name="Amacron" unicode="&#x100;" horiz-adv-x="711" 
d="M9 0l253 714h191l250 -714h-183l-43 133h-255l-44 -133h-169zM265 273h168l-82 258h-3zM192 781v120h326v-120h-326z" />
    <glyph glyph-name="amacron" unicode="&#x101;" horiz-adv-x="573" 
d="M203 -11q-78 0 -126 40.5t-48 113.5q0 58 38 98.5t89 56t109 15.5h91v41q0 66 -82 66q-38 0 -58 -15t-20 -38v-15h-147v19q0 81 68 123.5t166 42.5q101 0 169.5 -44t68.5 -137v-240q0 -94 9 -116h-157q-1 2 -3 29.5t-3 29.5h-4q-52 -70 -160 -70zM267 107q44 0 66.5 22.5
t22.5 61.5v30h-79q-83 0 -83 -57t73 -57zM123 598v120h326v-120h-326z" />
    <glyph glyph-name="Abreve" unicode="&#x102;" horiz-adv-x="711" 
d="M9 0l253 714h191l250 -714h-183l-43 133h-255l-44 -133h-169zM265 273h168l-82 258h-3zM355 775q-79 0 -132.5 50.5t-55.5 133.5h100q23 -90 93 -90q34 0 57 23.5t26 66.5h100q-1 -87 -57.5 -135.5t-130.5 -48.5z" />
    <glyph glyph-name="abreve" unicode="&#x103;" horiz-adv-x="573" 
d="M203 -11q-78 0 -126 40.5t-48 113.5q0 58 38 98.5t89 56t109 15.5h91v41q0 66 -82 66q-38 0 -58 -15t-20 -38v-15h-147v19q0 81 68 123.5t166 42.5q101 0 169.5 -44t68.5 -137v-240q0 -94 9 -116h-157q-1 2 -3 29.5t-3 29.5h-4q-52 -70 -160 -70zM267 107q44 0 66.5 22.5
t22.5 61.5v30h-79q-83 0 -83 -57t73 -57zM286 592q-79 0 -132.5 50.5t-55.5 133.5h100q22 -90 93 -90q34 0 57 23.5t26 66.5h100q-1 -87 -57.5 -135.5t-130.5 -48.5z" />
    <glyph glyph-name="Aogonek" unicode="&#x104;" horiz-adv-x="711" 
d="M600 -223q-62 0 -101 31t-39 85q0 64 59 109l-42 131h-255l-44 -133h-169l253 714h191l250 -714h-30q-47 -8 -73.5 -30t-26.5 -49q0 -41 47 -41q32 0 71 24l51 -79q-59 -48 -142 -48zM265 273h168l-82 258h-3z" />
    <glyph glyph-name="aogonek" unicode="&#x105;" horiz-adv-x="573" 
d="M457 -223q-62 0 -101 31t-39 85q0 63 56 107q-1 2 -3 29.5t-3 29.5h-4q-52 -70 -160 -70q-78 0 -126 40.5t-48 113.5q0 58 38 98.5t89 56t109 15.5h91v41q0 66 -82 66q-38 0 -58 -15t-20 -38v-15h-147v19q0 81 68 123.5t166 42.5q101 0 169.5 -44t68.5 -137v-240
q0 -94 9 -116q-47 -8 -73.5 -30t-26.5 -49q0 -41 47 -41q32 0 71 24l51 -79q-59 -48 -142 -48zM267 107q44 0 66.5 22.5t22.5 61.5v30h-79q-83 0 -83 -57t73 -57z" />
    <glyph glyph-name="Cacute" unicode="&#x106;" horiz-adv-x="673" 
d="M284 776l87 179h163l-137 -179h-113zM347 -12q-82 0 -149 26t-111 86t-44 145v218q0 125 87 193.5t213 68.5q54 0 104 -14t92 -41.5t67.5 -74t25.5 -105.5v-33h-168v16q0 52 -35.5 79t-82.5 27q-52 0 -88 -28.5t-36 -85.5v-216q0 -54 35 -84.5t91 -30.5q46 0 81 27t35 79
v17h168v-35q0 -78 -43.5 -132.5t-106 -78t-135.5 -23.5z" />
    <glyph glyph-name="cacute" unicode="&#x107;" horiz-adv-x="555" 
d="M224 593l87 179h163l-137 -179h-113zM291 -13q-66 0 -122 21.5t-94.5 72t-38.5 122.5v105q0 74 37.5 127.5t93.5 77.5t122 24q99 0 170.5 -52t71.5 -144v-22h-160v15q0 39 -23.5 58.5t-57.5 19.5q-37 0 -61 -21t-24 -64v-130q0 -40 23.5 -62.5t63.5 -22.5q34 0 56.5 19.5
t22.5 58.5v13h160v-24q0 -92 -70 -142t-170 -50z" />
    <glyph glyph-name="Ccircumflex" unicode="&#x108;" horiz-adv-x="673" 
d="M148 777l131 186h129l124 -186h-139l-52 97l-55 -97h-138zM347 -12q-82 0 -149 26t-111 86t-44 145v218q0 125 87 193.5t213 68.5q54 0 104 -14t92 -41.5t67.5 -74t25.5 -105.5v-33h-168v16q0 52 -35.5 79t-82.5 27q-52 0 -88 -28.5t-36 -85.5v-216q0 -54 35 -84.5
t91 -30.5q46 0 81 27t35 79v17h168v-35q0 -78 -43.5 -132.5t-106 -78t-135.5 -23.5z" />
    <glyph glyph-name="ccircumflex" unicode="&#x109;" horiz-adv-x="555" 
d="M94 594l131 186h129l124 -186h-139l-52 97l-55 -97h-138zM291 -13q-66 0 -122 21.5t-94.5 72t-38.5 122.5v105q0 74 37.5 127.5t93.5 77.5t122 24q99 0 170.5 -52t71.5 -144v-22h-160v15q0 39 -23.5 58.5t-57.5 19.5q-37 0 -61 -21t-24 -64v-130q0 -40 23.5 -62.5
t63.5 -22.5q34 0 56.5 19.5t22.5 58.5v13h160v-24q0 -92 -70 -142t-170 -50z" />
    <glyph glyph-name="Cdotaccent" unicode="&#x10a;" horiz-adv-x="673" 
d="M347 -12q-82 0 -149 26t-111 86t-44 145v218q0 125 87 193.5t213 68.5q54 0 104 -14t92 -41.5t67.5 -74t25.5 -105.5v-33h-168v16q0 52 -35.5 79t-82.5 27q-52 0 -88 -28.5t-36 -85.5v-216q0 -54 35 -84.5t91 -30.5q46 0 81 27t35 79v17h168v-35q0 -78 -43.5 -132.5
t-106 -78t-135.5 -23.5zM262 772v151h148v-151h-148z" />
    <glyph glyph-name="cdotaccent" unicode="&#x10b;" horiz-adv-x="555" 
d="M291 -13q-66 0 -122 21.5t-94.5 72t-38.5 122.5v105q0 74 37.5 127.5t93.5 77.5t122 24q99 0 170.5 -52t71.5 -144v-22h-160v15q0 39 -23.5 58.5t-57.5 19.5q-37 0 -61 -21t-24 -64v-130q0 -40 23.5 -62.5t63.5 -22.5q34 0 56.5 19.5t22.5 58.5v13h160v-24
q0 -92 -70 -142t-170 -50zM212 589v151h148v-151h-148z" />
    <glyph glyph-name="Ccaron" unicode="&#x10c;" horiz-adv-x="673" 
d="M268 781l-124 186h139l52 -97l55 97h138l-131 -186h-129zM347 -12q-82 0 -149 26t-111 86t-44 145v218q0 125 87 193.5t213 68.5q54 0 104 -14t92 -41.5t67.5 -74t25.5 -105.5v-33h-168v16q0 52 -35.5 79t-82.5 27q-52 0 -88 -28.5t-36 -85.5v-216q0 -54 35 -84.5
t91 -30.5q46 0 81 27t35 79v17h168v-35q0 -78 -43.5 -132.5t-106 -78t-135.5 -23.5z" />
    <glyph glyph-name="ccaron" unicode="&#x10d;" horiz-adv-x="555" 
d="M217 598l-124 186h139l52 -97l55 97h138l-131 -186h-129zM291 -13q-66 0 -122 21.5t-94.5 72t-38.5 122.5v105q0 74 37.5 127.5t93.5 77.5t122 24q99 0 170.5 -52t71.5 -144v-22h-160v15q0 39 -23.5 58.5t-57.5 19.5q-37 0 -61 -21t-24 -64v-130q0 -40 23.5 -62.5
t63.5 -22.5q34 0 56.5 19.5t22.5 58.5v13h160v-24q0 -92 -70 -142t-170 -50z" />
    <glyph glyph-name="Dcaron" unicode="&#x10e;" horiz-adv-x="693" 
d="M264 781l-124 186h139l52 -97l55 97h138l-131 -186h-129zM61 0v713h298q125 0 208 -65.5t83 -185.5v-201q0 -126 -84.5 -193.5t-205.5 -67.5h-299zM240 146h109q51 0 86.5 30.5t35.5 83.5v196q0 51 -36 81t-91 30h-104v-421z" />
    <glyph glyph-name="dcaron" unicode="&#x10f;" horiz-adv-x="598" 
d="M587 512l15 201h141l-51 -201h-105zM231 -12q-89 0 -142 52t-53 143v159q0 89 59 142t148 53q38 0 74 -15.5t58 -42.5h2v234h165v-713h-161v62h-3q-25 -34 -66.5 -54t-80.5 -20zM289 116q36 0 62 22.5t26 67.5v126q0 41 -27 62.5t-63 21.5q-35 0 -60 -23t-25 -68v-123
q0 -40 25 -63t62 -23z" />
    <glyph glyph-name="Dcroat" unicode="&#x110;" horiz-adv-x="716" 
d="M25 314v101h59v298h298q125 0 208 -65.5t83 -185.5v-201q0 -126 -84.5 -193.5t-205.5 -67.5h-299v314h-59zM263 146h109q51 0 86.5 30.5t35.5 83.5v196q0 51 -36 81t-91 30h-104v-152h133v-101h-133v-168z" />
    <glyph glyph-name="dcroat" unicode="&#x111;" horiz-adv-x="618" 
d="M288 581v79h89v53h165v-53h54v-79h-54v-581h-161v62h-3q-25 -34 -66.5 -54t-80.5 -20q-89 0 -142 52t-53 143v159q0 89 59 142t148 53q38 0 74 -15.5t58 -42.5h2v102h-89zM289 116q36 0 62 22.5t26 67.5v126q0 41 -27 62.5t-63 21.5q-35 0 -60 -23t-25 -68v-123
q0 -40 25 -63t62 -23z" />
    <glyph glyph-name="Emacron" unicode="&#x112;" horiz-adv-x="638" 
d="M61 0v713h525v-145h-346v-136h291v-144h-291v-142h348v-146h-527zM162 781v120h326v-120h-326z" />
    <glyph glyph-name="emacron" unicode="&#x113;" horiz-adv-x="562" 
d="M294 -13q-69 0 -125.5 21.5t-94.5 72t-38 123.5v97q0 113 75 174.5t181 61.5q97 0 165 -56t68 -158v-101h-321v-22q0 -41 33 -63.5t78 -22.5q33 0 75 15t62 33l63 -93q-81 -82 -221 -82zM204 318h165v17q0 39 -23 59.5t-58 20.5q-36 0 -60 -21.5t-24 -61.5v-14zM117 598
v120h326v-120h-326z" />
    <glyph glyph-name="Ebreve" unicode="&#x114;" horiz-adv-x="638" 
d="M61 0v713h525v-145h-346v-136h291v-144h-291v-142h348v-146h-527zM324 775q-79 0 -132.5 50.5t-55.5 133.5h100q22 -90 93 -90q34 0 57 23.5t26 66.5h100q-1 -87 -57.5 -135.5t-130.5 -48.5z" />
    <glyph glyph-name="ebreve" unicode="&#x115;" horiz-adv-x="562" 
d="M294 -13q-69 0 -125.5 21.5t-94.5 72t-38 123.5v97q0 113 75 174.5t181 61.5q97 0 165 -56t68 -158v-101h-321v-22q0 -41 33 -63.5t78 -22.5q33 0 75 15t62 33l63 -93q-81 -82 -221 -82zM204 318h165v17q0 39 -23 59.5t-58 20.5q-36 0 -60 -21.5t-24 -61.5v-14zM281 592
q-79 0 -132.5 50.5t-55.5 133.5h100q23 -90 93 -90q34 0 57 23.5t26 66.5h100q-1 -87 -57.5 -135.5t-130.5 -48.5z" />
    <glyph glyph-name="Edotaccent" unicode="&#x116;" horiz-adv-x="638" 
d="M61 0v713h525v-145h-346v-136h291v-144h-291v-142h348v-146h-527zM257 772v151h148v-151h-148z" />
    <glyph glyph-name="edotaccent" unicode="&#x117;" horiz-adv-x="562" 
d="M294 -13q-69 0 -125.5 21.5t-94.5 72t-38 123.5v97q0 113 75 174.5t181 61.5q97 0 165 -56t68 -158v-101h-321v-22q0 -41 33 -63.5t78 -22.5q33 0 75 15t62 33l63 -93q-81 -82 -221 -82zM204 318h165v17q0 39 -23 59.5t-58 20.5q-36 0 -60 -21.5t-24 -61.5v-14zM207 589
v151h148v-151h-148z" />
    <glyph glyph-name="Eogonek" unicode="&#x118;" horiz-adv-x="638" 
d="M61 0v713h525v-145h-346v-136h291v-144h-291v-142h348v-146q-47 -8 -73.5 -30t-26.5 -49q0 -41 47 -41q32 0 71 24l51 -79q-59 -48 -142 -48q-62 0 -101 31t-39 85q0 63 56 107h-370z" />
    <glyph glyph-name="eogonek" unicode="&#x119;" horiz-adv-x="562" 
d="M294 -13q-69 0 -125.5 21.5t-94.5 72t-38 123.5v97q0 113 75 174.5t181 61.5q97 0 165 -56t68 -158v-101h-321v-22q0 -41 33 -63.5t78 -22.5q33 0 75 15t62 33l63 -93q-31 -31 -73 -51l3 -3q-68 -32 -68 -94q0 -41 47 -41q29 0 61 20l45 -77q-55 -43 -132 -43
q-59 0 -96 31.5t-37 85.5q0 51 39 90h-10zM204 318h165v17q0 39 -23 59.5t-58 20.5q-36 0 -60 -21.5t-24 -61.5v-14z" />
    <glyph glyph-name="Ecaron" unicode="&#x11a;" horiz-adv-x="638" 
d="M256 781l-124 186h139l52 -97l55 97h138l-131 -186h-129zM61 0v713h525v-145h-346v-136h291v-144h-291v-142h348v-146h-527z" />
    <glyph glyph-name="ecaron" unicode="&#x11b;" horiz-adv-x="562" 
d="M213 598l-124 186h139l52 -97l55 97h138l-131 -186h-129zM294 -13q-69 0 -125.5 21.5t-94.5 72t-38 123.5v97q0 113 75 174.5t181 61.5q97 0 165 -56t68 -158v-101h-321v-22q0 -41 33 -63.5t78 -22.5q33 0 75 15t62 33l63 -93q-81 -82 -221 -82zM204 318h165v17
q0 39 -23 59.5t-58 20.5q-36 0 -60 -21.5t-24 -61.5v-14z" />
    <glyph glyph-name="Gcircumflex" unicode="&#x11c;" horiz-adv-x="673" 
d="M144 777l131 186h129l124 -186h-139l-52 97l-55 -97h-138zM347 -12q-82 0 -149 26t-111 86t-44 145v218q0 125 87 193.5t213 68.5q54 0 104 -13t93 -39.5t69 -72.5t26 -106v-26h-168v14q0 51 -35.5 76t-83.5 25q-52 0 -89 -28.5t-37 -85.5v-220q0 -54 35 -86t91 -32
q53 0 84.5 25.5t31.5 79.5v18h-144v132h315v-164q0 -59 -25.5 -105.5t-67.5 -73.5t-91.5 -41t-103.5 -14z" />
    <glyph glyph-name="gcircumflex" unicode="&#x11d;" horiz-adv-x="596" 
d="M106 594l131 186h129l124 -186h-139l-52 97l-55 -97h-138zM272 -197q-148 3 -225 83l88 92q57 -48 135 -48q53 0 81 28.5t28 77.5v50h-2q-51 -65 -141 -65q-93 0 -145 51t-52 143v121q0 90 58.5 145.5t146.5 55.5q40 0 77.5 -17t60.5 -45h2v51h158v-474
q0 -113 -71.5 -180.5t-198.5 -68.5zM292 145q36 0 61.5 21.5t25.5 66.5v95q0 41 -27 62t-64 21q-34 0 -58.5 -22.5t-24.5 -67.5v-92q0 -40 24.5 -62t62.5 -22z" />
    <glyph glyph-name="Gbreve" unicode="&#x11e;" horiz-adv-x="673" 
d="M347 -12q-82 0 -149 26t-111 86t-44 145v218q0 125 87 193.5t213 68.5q54 0 104 -13t93 -39.5t69 -72.5t26 -106v-26h-168v14q0 51 -35.5 76t-83.5 25q-52 0 -89 -28.5t-37 -85.5v-220q0 -54 35 -86t91 -32q53 0 84.5 25.5t31.5 79.5v18h-144v132h315v-164
q0 -59 -25.5 -105.5t-67.5 -73.5t-91.5 -41t-103.5 -14zM336 775q-79 0 -132.5 50.5t-55.5 133.5h100q22 -90 93 -90q34 0 57 23.5t26 66.5h100q-1 -87 -57.5 -135.5t-130.5 -48.5z" />
    <glyph glyph-name="gbreve" unicode="&#x11f;" horiz-adv-x="596" 
d="M272 -197q-148 3 -225 83l88 92q57 -48 135 -48q53 0 81 28.5t28 77.5v50h-2q-51 -65 -141 -65q-93 0 -145 51t-52 143v121q0 90 58.5 145.5t146.5 55.5q40 0 77.5 -17t60.5 -45h2v51h158v-474q0 -113 -71.5 -180.5t-198.5 -68.5zM292 145q36 0 61.5 21.5t25.5 66.5v95
q0 41 -27 62t-64 21q-34 0 -58.5 -22.5t-24.5 -67.5v-92q0 -40 24.5 -62t62.5 -22zM297 592q-79 0 -132.5 50.5t-55.5 133.5h100q23 -90 93 -90q34 0 57 23.5t26 66.5h100q-1 -87 -57.5 -135.5t-130.5 -48.5z" />
    <glyph glyph-name="Gdotaccent" unicode="&#x120;" horiz-adv-x="673" 
d="M347 -12q-82 0 -149 26t-111 86t-44 145v218q0 125 87 193.5t213 68.5q54 0 104 -13t93 -39.5t69 -72.5t26 -106v-26h-168v14q0 51 -35.5 76t-83.5 25q-52 0 -89 -28.5t-37 -85.5v-220q0 -54 35 -86t91 -32q53 0 84.5 25.5t31.5 79.5v18h-144v132h315v-164
q0 -59 -25.5 -105.5t-67.5 -73.5t-91.5 -41t-103.5 -14zM262 772v151h148v-151h-148z" />
    <glyph glyph-name="gdotaccent" unicode="&#x121;" horiz-adv-x="596" 
d="M272 -197q-148 3 -225 83l88 92q57 -48 135 -48q53 0 81 28.5t28 77.5v50h-2q-51 -65 -141 -65q-93 0 -145 51t-52 143v121q0 90 58.5 145.5t146.5 55.5q40 0 77.5 -17t60.5 -45h2v51h158v-474q0 -113 -71.5 -180.5t-198.5 -68.5zM292 145q36 0 61.5 21.5t25.5 66.5v95
q0 41 -27 62t-64 21q-34 0 -58.5 -22.5t-24.5 -67.5v-92q0 -40 24.5 -62t62.5 -22zM224 589v151h148v-151h-148z" />
    <glyph glyph-name="Gcommaaccent" unicode="&#x122;" horiz-adv-x="673" 
d="M263 -207l12 174h152l-40 -174h-124zM347 -12q-82 0 -149 26t-111 86t-44 145v218q0 125 87 193.5t213 68.5q54 0 104 -13t93 -39.5t69 -72.5t26 -106v-26h-168v14q0 51 -35.5 76t-83.5 25q-52 0 -89 -28.5t-37 -85.5v-220q0 -54 35 -86t91 -32q53 0 84.5 25.5t31.5 79.5
v18h-144v132h315v-164q0 -59 -25.5 -105.5t-67.5 -73.5t-91.5 -41t-103.5 -14z" />
    <glyph glyph-name="gcommaaccent" unicode="&#x123;" horiz-adv-x="596" 
d="M272 -197q-148 3 -225 83l88 92q57 -48 135 -48q53 0 81 28.5t28 77.5v50h-2q-51 -65 -141 -65q-93 0 -145 51t-52 143v121q0 90 58.5 145.5t146.5 55.5q40 0 77.5 -17t60.5 -45h2v51h158v-474q0 -113 -71.5 -180.5t-198.5 -68.5zM292 145q36 0 61.5 21.5t25.5 66.5v95
q0 41 -27 62t-64 21q-34 0 -58.5 -22.5t-24.5 -67.5v-92q0 -40 24.5 -62t62.5 -22zM207 592v98l53 104h73l-25 -86h52v-116h-153z" />
    <glyph glyph-name="Hcircumflex" unicode="&#x124;" horiz-adv-x="712" 
d="M163 777l131 186h129l124 -186h-139l-52 97l-55 -97h-138zM61 0v713h179v-274h232v274h179v-713h-179v284h-232v-284h-179z" />
    <glyph glyph-name="hcircumflex" unicode="&#x125;" horiz-adv-x="602" 
d="M-46 756l131 186h129l124 -186h-139l-52 97l-55 -97h-138zM56 0v713h165v-256h3q55 80 155 80q75 0 124 -44.5t49 -128.5v-364h-165v307q0 99 -81 99q-38 0 -61.5 -28t-23.5 -81v-297h-165z" />
    <glyph glyph-name="Hbar" unicode="&#x126;" horiz-adv-x="771" 
d="M22 541v84h68v88h179v-88h232v88h179v-88h69v-84h-69v-541h-179v284h-232v-284h-179v541h-68zM269 439h232v102h-232v-102z" />
    <glyph glyph-name="hbar" unicode="&#x127;" horiz-adv-x="619" 
d="M20 581v79h53v53h165v-53h98v-79h-98v-124h3q55 80 155 80q75 0 124 -44.5t49 -128.5v-364h-165v307q0 99 -81 99q-38 0 -61.5 -28t-23.5 -81v-297h-165v581h-53z" />
    <glyph glyph-name="Itilde" unicode="&#x128;" horiz-adv-x="301" 
d="M61 0v713h179v-713h-179zM23 767l-93 20q11 63 46 102.5t91 39.5q30 0 87 -16.5t87 -16.5q14 0 22.5 9t11 15t8.5 26l88 -22q-9 -62 -41.5 -101.5t-88.5 -39.5q-31 0 -88 16t-83 16q-18 0 -27 -9.5t-20 -38.5z" />
    <glyph glyph-name="itilde" unicode="&#x129;" horiz-adv-x="277" 
d="M56 0v526h165v-526h-165zM12 584l-93 20q11 63 46 102.5t91 39.5q30 0 87 -16.5t87 -16.5q14 0 22.5 9t11 15t8.5 26l88 -22q-9 -62 -41.5 -101.5t-88.5 -39.5q-31 0 -88 16t-83 16q-18 0 -27 -9.5t-20 -38.5z" />
    <glyph glyph-name="Imacron" unicode="&#x12a;" horiz-adv-x="301" 
d="M61 0v713h179v-713h-179zM-12 781v120h326v-120h-326z" />
    <glyph glyph-name="imacron" unicode="&#x12b;" horiz-adv-x="277" 
d="M56 0v526h165v-526h-165zM-24 598v120h326v-120h-326z" />
    <glyph glyph-name="Ibreve" unicode="&#x12c;" horiz-adv-x="301" 
d="M61 0v713h179v-713h-179zM151 775q-79 0 -132.5 50.5t-55.5 133.5h100q23 -90 93 -90q34 0 57 23.5t26 66.5h100q-1 -87 -57.5 -135.5t-130.5 -48.5z" />
    <glyph glyph-name="ibreve" unicode="&#x12d;" horiz-adv-x="277" 
d="M56 0v526h165v-526h-165zM139 592q-79 0 -132.5 50.5t-55.5 133.5h100q23 -90 93 -90q34 0 57 23.5t26 66.5h100q-1 -87 -57.5 -135.5t-130.5 -48.5z" />
    <glyph glyph-name="Iogonek" unicode="&#x12e;" horiz-adv-x="301" 
d="M61 0v713h179v-713h-19q-45 -9 -68 -30.5t-23 -48.5q0 -41 47 -41q32 0 64 20l51 -76q-59 -47 -135 -47q-62 0 -100.5 31t-38.5 85q0 64 52 107h-9z" />
    <glyph glyph-name="iogonek" unicode="&#x12f;" horiz-adv-x="277" 
d="M56 0v526h165v-526h-7q-45 -9 -68 -30.5t-23 -48.5q0 -41 47 -41q32 0 64 20l51 -76q-59 -47 -135 -47q-62 0 -100.5 31t-38.5 85q0 64 52 107h-7zM56 589v147h165v-147h-165z" />
    <glyph glyph-name="Idotaccent" unicode="&#x130;" horiz-adv-x="301" 
d="M61 0v713h179v-713h-179zM76 772v151h148v-151h-148z" />
    <glyph glyph-name="dotlessi" unicode="&#x131;" horiz-adv-x="277" 
d="M56 0v526h165v-526h-165z" />
    <glyph glyph-name="IJ" unicode="&#x132;" horiz-adv-x="915" 
d="M61 0v713h179v-713h-179zM591 -7q-275 0 -275 240v38h173v-31q0 -100 99 -100q46 0 68.5 30.5t22.5 76.5v471h178v-474q0 -109 -72 -180t-194 -71z" />
    <glyph glyph-name="ij" unicode="&#x133;" horiz-adv-x="541" 
d="M56 0v526h165v-526h-165zM56 589v147h165v-147h-165zM311 -193q-25 0 -65 6v124q16 -2 32 -2q43 0 43 44v547h165v-559q0 -78 -47.5 -119t-127.5 -41zM321 589v147h165v-147h-165z" />
    <glyph glyph-name="Jcircumflex" unicode="&#x134;" horiz-adv-x="633" 
d="M270 777l131 186h129l124 -186h-139l-52 97l-55 -97h-138zM310 -12q-275 0 -275 240v38h173v-31q0 -100 99 -100q46 0 68.5 30.5t22.5 76.5v471h178v-474q0 -109 -72 -180t-194 -71z" />
    <glyph glyph-name="jcircumflex" unicode="&#x135;" horiz-adv-x="292" 
d="M60 -193q-25 0 -65 6v124q16 -2 32 -2q43 0 43 44v547h165v-559q0 -78 -47.5 -119t-127.5 -41zM-45 594l131 186h129l124 -186h-139l-52 97l-55 -97h-138z" />
    <glyph glyph-name="Kcommaaccent" unicode="&#x136;" horiz-adv-x="697" 
d="M267 -207l12 174h152l-40 -174h-124zM61 0v713h179v-323l247 323h190l-226 -286l239 -427h-199l-166 304l-85 -96v-208h-179z" />
    <glyph glyph-name="kcommaaccent" unicode="&#x137;" horiz-adv-x="574" 
d="M200 -207l12 174h152l-40 -174h-124zM57 0v713h165v-393l163 206h174l-157 -191l159 -335h-180l-104 225l-55 -65v-160h-165z" />
    <glyph glyph-name="kgreenlandic" unicode="&#x138;" horiz-adv-x="574" 
d="M57 0v526h165v-206l163 206h174l-157 -191l159 -335h-180l-104 225l-55 -65v-160h-165z" />
    <glyph glyph-name="Lacute" unicode="&#x139;" horiz-adv-x="602" 
d="M100 776l87 179h163l-137 -179h-113zM61 0v713h179v-567h339v-146h-518z" />
    <glyph glyph-name="lacute" unicode="&#x13a;" horiz-adv-x="328" 
d="M88 759l87 179h163l-137 -179h-113zM202 -10q-77 0 -113 42t-36 103v578h166v-545q0 -19 8.5 -29.5t32.5 -10.5q10 0 48 4v-125q-57 -17 -106 -17z" />
    <glyph glyph-name="Lcommaaccent" unicode="&#x13b;" horiz-adv-x="602" 
d="M222 -207l12 174h152l-40 -174h-124zM61 0v713h179v-567h339v-146h-518z" />
    <glyph glyph-name="lcommaaccent" unicode="&#x13c;" horiz-adv-x="328" 
d="M82 -207l12 174h152l-40 -174h-124zM202 -10q-77 0 -113 42t-36 103v578h166v-545q0 -19 8.5 -29.5t32.5 -10.5q10 0 48 4v-125q-57 -17 -106 -17z" />
    <glyph glyph-name="Lcaron" unicode="&#x13d;" horiz-adv-x="602" 
d="M300 512l15 201h141l-51 -201h-105zM61 0v713h179v-567h339v-146h-518z" />
    <glyph glyph-name="lcaron" unicode="&#x13e;" horiz-adv-x="328" 
d="M265 512l15 201h141l-51 -201h-105zM202 -10q-77 0 -113 42t-36 103v578h166v-545q0 -19 8.5 -29.5t32.5 -10.5q10 0 48 4v-125q-57 -17 -106 -17z" />
    <glyph glyph-name="Ldot" unicode="&#x13f;" horiz-adv-x="602" 
d="M61 0v713h179v-567h339v-146h-518zM322 336v157h152v-157h-152z" />
    <glyph glyph-name="ldot" unicode="&#x140;" horiz-adv-x="423" 
d="M202 -10q-77 0 -113 42t-36 103v578h166v-545q0 -19 8.5 -29.5t32.5 -10.5q10 0 48 4v-125q-57 -17 -106 -17zM273 324v151h146v-151h-146z" />
    <glyph glyph-name="Lslash" unicode="&#x141;" horiz-adv-x="618" 
d="M25 209v118l52 32v354h179v-242l93 59v-118l-93 -59v-207h339v-146h-518v241z" />
    <glyph glyph-name="lslash" unicode="&#x142;" horiz-adv-x="342" 
d="M19 226v112l48 31v344h166v-234l71 47v-112l-71 -47v-199q0 -19 8.5 -29.5t32.5 -10.5q10 0 48 4v-125q-57 -17 -106 -17q-77 0 -113 42t-36 103v122z" />
    <glyph glyph-name="Nacute" unicode="&#x143;" horiz-adv-x="734" 
d="M310 776l87 179h163l-137 -179h-113zM61 0v713h173l272 -403h2v403h165v-713h-166l-279 419h-2v-419h-165z" />
    <glyph glyph-name="nacute" unicode="&#x144;" horiz-adv-x="602" 
d="M244 593l87 179h163l-137 -179h-113zM56 0v526h162v-66h2q57 77 159 77q75 0 124 -44.5t49 -128.5v-364h-165v307q0 99 -81 99q-38 0 -61.5 -28t-23.5 -81v-297h-165z" />
    <glyph glyph-name="Ncommaaccent" unicode="&#x145;" horiz-adv-x="734" 
d="M277 -207l12 174h152l-40 -174h-124zM61 0v713h173l272 -403h2v403h165v-713h-166l-279 419h-2v-419h-165z" />
    <glyph glyph-name="ncommaaccent" unicode="&#x146;" horiz-adv-x="602" 
d="M214 -207l12 174h152l-40 -174h-124zM56 0v526h162v-66h2q57 77 159 77q75 0 124 -44.5t49 -128.5v-364h-165v307q0 99 -81 99q-38 0 -61.5 -28t-23.5 -81v-297h-165z" />
    <glyph glyph-name="Ncaron" unicode="&#x147;" horiz-adv-x="734" 
d="M298 781l-124 186h139l52 -97l55 97h138l-131 -186h-129zM61 0v713h173l272 -403h2v403h165v-713h-166l-279 419h-2v-419h-165z" />
    <glyph glyph-name="ncaron" unicode="&#x148;" horiz-adv-x="602" 
d="M243 598l-124 186h139l52 -97l55 97h138l-131 -186h-129zM56 0v526h162v-66h2q57 77 159 77q75 0 124 -44.5t49 -128.5v-364h-165v307q0 99 -81 99q-38 0 -61.5 -28t-23.5 -81v-297h-165z" />
    <glyph glyph-name="Eng" unicode="&#x14a;" horiz-adv-x="734" 
d="M498 -193q-25 0 -65 6v124q16 -2 32 -2q43 0 43 44v20l-280 420h-2v-419h-165v713h173l272 -403h2v403h165v-746q0 -78 -47.5 -119t-127.5 -41z" />
    <glyph glyph-name="eng" unicode="&#x14b;" horiz-adv-x="602" 
d="M377 -193q-25 0 -65 6v124q16 -2 32 -2q43 0 43 44v328q0 99 -81 99q-38 0 -61.5 -28t-23.5 -81v-297h-165v526h162v-66h2q57 77 159 77q75 0 124 -44.5t49 -128.5v-397q0 -78 -47.5 -119t-127.5 -41z" />
    <glyph glyph-name="Omacron" unicode="&#x14c;" horiz-adv-x="693" 
d="M183 781v120h326v-120h-326zM348 -12q-62 0 -115.5 15.5t-96.5 46t-68 81.5t-25 118v206q0 128 88.5 199t212.5 71q83 0 150.5 -28t111.5 -90.5t44 -150.5v-198q0 -89 -45.5 -152t-112 -90.5t-144.5 -27.5zM348 135q51 0 87 30t36 87v211q0 54 -36.5 85t-89.5 31t-88 -29
t-35 -88v-209q0 -56 35 -87t91 -31z" />
    <glyph glyph-name="omacron" unicode="&#x14d;" horiz-adv-x="575" 
d="M124 598v120h326v-120h-326zM289 -12q-105 0 -179 52.5t-74 158.5v114q0 107 74.5 165.5t174.5 58.5q104 0 179 -57t75 -164v-109q0 -55 -22 -98.5t-59 -69t-80 -38.5t-89 -13zM289 113q37 0 60 21.5t23 62.5v130q0 38 -24 61t-61 23t-60.5 -23t-23.5 -64v-129
q0 -38 23 -60t63 -22z" />
    <glyph glyph-name="Obreve" unicode="&#x14e;" horiz-adv-x="693" 
d="M348 -12q-62 0 -115.5 15.5t-96.5 46t-68 81.5t-25 118v206q0 128 88.5 199t212.5 71q83 0 150.5 -28t111.5 -90.5t44 -150.5v-198q0 -89 -45.5 -152t-112 -90.5t-144.5 -27.5zM348 135q51 0 87 30t36 87v211q0 54 -36.5 85t-89.5 31t-88 -29t-35 -88v-209q0 -56 35 -87
t91 -31zM346 775q-79 0 -132.5 50.5t-55.5 133.5h100q22 -90 93 -90q34 0 57 23.5t26 66.5h100q-1 -87 -57.5 -135.5t-130.5 -48.5z" />
    <glyph glyph-name="obreve" unicode="&#x14f;" horiz-adv-x="575" 
d="M289 -12q-105 0 -179 52.5t-74 158.5v114q0 107 74.5 165.5t174.5 58.5q104 0 179 -57t75 -164v-109q0 -55 -22 -98.5t-59 -69t-80 -38.5t-89 -13zM289 113q37 0 60 21.5t23 62.5v130q0 38 -24 61t-61 23t-60.5 -23t-23.5 -64v-129q0 -38 23 -60t63 -22zM287 592
q-79 0 -132.5 50.5t-55.5 133.5h100q23 -90 93 -90q34 0 57 23.5t26 66.5h100q-1 -87 -57.5 -135.5t-130.5 -48.5z" />
    <glyph glyph-name="Ohungarumlaut" unicode="&#x150;" horiz-adv-x="693" 
d="M167 777l47 169h153l-89 -169h-111zM370 777l48 169h153l-89 -169h-112zM348 -12q-62 0 -115.5 15.5t-96.5 46t-68 81.5t-25 118v206q0 128 88.5 199t212.5 71q83 0 150.5 -28t111.5 -90.5t44 -150.5v-198q0 -89 -45.5 -152t-112 -90.5t-144.5 -27.5zM348 135q51 0 87 30
t36 87v211q0 54 -36.5 85t-89.5 31t-88 -29t-35 -88v-209q0 -56 35 -87t91 -31z" />
    <glyph glyph-name="ohungarumlaut" unicode="&#x151;" horiz-adv-x="575" 
d="M122 594l47 169h153l-89 -169h-111zM325 594l48 169h153l-89 -169h-112zM289 -12q-105 0 -179 52.5t-74 158.5v114q0 107 74.5 165.5t174.5 58.5q104 0 179 -57t75 -164v-109q0 -55 -22 -98.5t-59 -69t-80 -38.5t-89 -13zM289 113q37 0 60 21.5t23 62.5v130q0 38 -24 61
t-61 23t-60.5 -23t-23.5 -64v-129q0 -38 23 -60t63 -22z" />
    <glyph glyph-name="OE" unicode="&#x152;" horiz-adv-x="1048" 
d="M330 -12q-128 0 -207.5 65t-79.5 196v206q0 130 80.5 200t202.5 70q86 0 146 -37v25h524v-145h-347v-136h292v-144h-292v-142h349v-146h-526v24q-61 -36 -142 -36zM348 135q51 0 87 30t36 87v211q0 54 -36.5 85t-89.5 31t-88 -29t-35 -88v-209q0 -56 35 -87t91 -31z" />
    <glyph glyph-name="oe" unicode="&#x153;" horiz-adv-x="902" 
d="M289 -13q-105 0 -179 53t-74 159v114q0 107 74.5 165.5t174.5 58.5q103 0 174 -54q69 54 170 54q97 0 165 -56t68 -158v-101h-321v-22q0 -41 33 -63.5t78 -22.5q33 0 75 15t61 33l64 -92q-84 -83 -221 -83q-107 0 -177 52q-72 -52 -165 -52zM289 113q37 0 60 21.5
t23 62.5v130q0 38 -24 61t-61 23t-60.5 -23t-23.5 -64v-129q0 -38 23 -60t63 -22zM541 318h164v17q0 39 -22.5 59.5t-57.5 20.5q-36 0 -60 -21.5t-24 -61.5v-14z" />
    <glyph glyph-name="Racute" unicode="&#x154;" horiz-adv-x="677" 
d="M259 776l87 179h163l-137 -179h-113zM61 0v713h312q119 0 187 -62t68 -163q0 -69 -34 -126t-100 -84l163 -278h-195l-141 252h-81v-252h-179zM240 384h110q48 0 76 25.5t28 69.5q0 45 -27.5 69.5t-76.5 24.5h-110v-189z" />
    <glyph glyph-name="racute" unicode="&#x155;" horiz-adv-x="440" 
d="M160 593l87 179h163l-137 -179h-113zM53 0v526h162v-87h1q22 40 67.5 68t92.5 28q32 0 52 -5v-142q-37 6 -70 6q-59 0 -99.5 -28.5t-40.5 -91.5v-274h-165z" />
    <glyph glyph-name="Rcommaaccent" unicode="&#x156;" horiz-adv-x="677" 
d="M256 -207l12 174h152l-40 -174h-124zM61 0v713h312q119 0 187 -62t68 -163q0 -69 -34 -126t-100 -84l163 -278h-195l-141 252h-81v-252h-179zM240 384h110q48 0 76 25.5t28 69.5q0 45 -27.5 69.5t-76.5 24.5h-110v-189z" />
    <glyph glyph-name="rcommaaccent" unicode="&#x157;" horiz-adv-x="440" 
d="M51 -207l12 174h152l-40 -174h-124zM53 0v526h162v-87h1q22 40 67.5 68t92.5 28q32 0 52 -5v-142q-37 6 -70 6q-59 0 -99.5 -28.5t-40.5 -91.5v-274h-165z" />
    <glyph glyph-name="Rcaron" unicode="&#x158;" horiz-adv-x="677" 
d="M266 781l-124 186h139l52 -97l55 97h138l-131 -186h-129zM61 0v713h312q119 0 187 -62t68 -163q0 -69 -34 -126t-100 -84l163 -278h-195l-141 252h-81v-252h-179zM240 384h110q48 0 76 25.5t28 69.5q0 45 -27.5 69.5t-76.5 24.5h-110v-189z" />
    <glyph glyph-name="rcaron" unicode="&#x159;" horiz-adv-x="440" 
d="M151 598l-124 186h139l52 -97l55 97h138l-131 -186h-129zM53 0v526h162v-87h1q22 40 67.5 68t92.5 28q32 0 52 -5v-142q-37 6 -70 6q-59 0 -99.5 -28.5t-40.5 -91.5v-274h-165z" />
    <glyph glyph-name="Sacute" unicode="&#x15a;" horiz-adv-x="635" 
d="M256 776l87 179h163l-137 -179h-113zM316 -12q-210 0 -302 129l113 101q28 -40 77 -65t104 -25q46 0 79 16t33 51q0 30 -20.5 45.5t-59.5 26.5l-123 32q-169 45 -169 197q0 100 77 164.5t195 64.5q94 0 155.5 -25t108.5 -83l-113 -98q-25 32 -66 49t-85 17q-43 0 -70 -16
t-27 -51q0 -28 24 -42t73 -27l112 -30q171 -44 171 -198q0 -110 -84.5 -171.5t-202.5 -61.5z" />
    <glyph glyph-name="sacute" unicode="&#x15b;" horiz-adv-x="542" 
d="M208 593l87 179h163l-137 -179h-113zM270 -12q-158 0 -245 81l86 99q65 -63 151 -63q81 0 81 44q0 22 -15.5 31t-50.5 16l-13 2q-12 2 -34.5 7t-45.5 12q-136 32 -136 141q0 78 62 129t159 51q75 0 124 -16t94 -54l-94 -91q-50 46 -121 46q-70 0 -70 -42q0 -26 66 -38
q5 -1 8 -2l91 -19q70 -15 107.5 -54t37.5 -96q0 -46 -22 -82.5t-57.5 -58t-77.5 -32.5t-85 -11z" />
    <glyph glyph-name="Scircumflex" unicode="&#x15c;" horiz-adv-x="635" 
d="M125 777l131 186h129l124 -186h-139l-52 97l-55 -97h-138zM316 -12q-210 0 -302 129l113 101q28 -40 77 -65t104 -25q46 0 79 16t33 51q0 30 -20.5 45.5t-59.5 26.5l-123 32q-169 45 -169 197q0 100 77 164.5t195 64.5q94 0 155.5 -25t108.5 -83l-113 -98q-25 32 -66 49
t-85 17q-43 0 -70 -16t-27 -51q0 -28 24 -42t73 -27l112 -30q171 -44 171 -198q0 -110 -84.5 -171.5t-202.5 -61.5z" />
    <glyph glyph-name="scircumflex" unicode="&#x15d;" horiz-adv-x="542" 
d="M79 594l131 186h129l124 -186h-139l-52 97l-55 -97h-138zM270 -12q-158 0 -245 81l86 99q65 -63 151 -63q81 0 81 44q0 22 -15.5 31t-50.5 16l-13 2q-12 2 -34.5 7t-45.5 12q-136 32 -136 141q0 78 62 129t159 51q75 0 124 -16t94 -54l-94 -91q-50 46 -121 46
q-70 0 -70 -42q0 -26 66 -38q5 -1 8 -2l91 -19q70 -15 107.5 -54t37.5 -96q0 -46 -22 -82.5t-57.5 -58t-77.5 -32.5t-85 -11z" />
    <glyph glyph-name="Scedilla" unicode="&#x15e;" horiz-adv-x="635" 
d="M314 -225q-53 0 -110 17v72q65 -18 99 -18q48 0 48 30q0 8 -4.5 13t-16 7.5t-16.5 2.5t-20 1l-40 2l18 88q-176 12 -258 127l113 101q28 -40 77 -65t104 -25q46 0 79 16t33 51q0 30 -20.5 45.5t-59.5 26.5l-123 32q-169 45 -169 197q0 100 77 164.5t195 64.5
q94 0 155.5 -25t108.5 -83l-113 -98q-25 32 -66 49t-85 17q-43 0 -70 -16t-27 -51q0 -28 24 -42t73 -27l112 -30q171 -44 171 -198q0 -105 -76 -165.5t-187 -66.5l-6 -29q133 0 133 -83q0 -46 -43.5 -74t-109.5 -28z" />
    <glyph glyph-name="scedilla" unicode="&#x15f;" horiz-adv-x="542" 
d="M270 -225q-53 0 -110 17v72q65 -18 99 -18q48 0 48 30q0 8 -4.5 13t-16 7.5t-16.5 2.5t-20 1l-40 2l18 87q-127 8 -203 80l86 99q65 -63 151 -63q81 0 81 44q0 22 -15.5 31t-50.5 16l-13 2q-12 2 -34.5 7t-45.5 12q-136 32 -136 141q0 78 62 129t159 51q75 0 124 -16
t94 -54l-94 -91q-50 46 -121 46q-70 0 -70 -42q0 -26 66 -38q5 -1 8 -2l91 -19q70 -15 107.5 -54t37.5 -96q0 -82 -64 -129t-152 -54l-6 -29q133 0 133 -83q0 -46 -43.5 -74t-109.5 -28z" />
    <glyph glyph-name="Scaron" unicode="&#x160;" horiz-adv-x="635" 
d="M249 781l-124 186h139l52 -97l55 97h138l-131 -186h-129zM316 -12q-210 0 -302 129l113 101q28 -40 77 -65t104 -25q46 0 79 16t33 51q0 30 -20.5 45.5t-59.5 26.5l-123 32q-169 45 -169 197q0 100 77 164.5t195 64.5q94 0 155.5 -25t108.5 -83l-113 -98q-25 32 -66 49
t-85 17q-43 0 -70 -16t-27 -51q0 -28 24 -42t73 -27l112 -30q171 -44 171 -198q0 -110 -84.5 -171.5t-202.5 -61.5z" />
    <glyph glyph-name="scaron" unicode="&#x161;" horiz-adv-x="542" 
d="M203 598l-124 186h139l52 -97l55 97h138l-131 -186h-129zM270 -12q-158 0 -245 81l86 99q65 -63 151 -63q81 0 81 44q0 22 -15.5 31t-50.5 16l-13 2q-12 2 -34.5 7t-45.5 12q-136 32 -136 141q0 78 62 129t159 51q75 0 124 -16t94 -54l-94 -91q-50 46 -121 46
q-70 0 -70 -42q0 -26 66 -38q5 -1 8 -2l91 -19q70 -15 107.5 -54t37.5 -96q0 -46 -22 -82.5t-57.5 -58t-77.5 -32.5t-85 -11z" />
    <glyph glyph-name="Tcommaaccent" unicode="&#x162;" horiz-adv-x="632" 
d="M228 -207l12 174h152l-40 -174h-124zM227 0v570h-202v143h583v-143h-202v-570h-179z" />
    <glyph glyph-name="tcommaaccent" unicode="&#x163;" horiz-adv-x="382" 
d="M129 -207l12 174h152l-40 -174h-124zM243 -10q-68 0 -113 34t-45 110v265h-67v121h67v148h165v-148h111v-121h-111v-223q0 -45 45 -45q37 0 64 5v-129q-59 -17 -116 -17z" />
    <glyph glyph-name="Tcaron" unicode="&#x164;" horiz-adv-x="632" 
d="M248 781l-124 186h139l52 -97l55 97h138l-131 -186h-129zM227 0v570h-202v143h583v-143h-202v-570h-179z" />
    <glyph glyph-name="tcaron" unicode="&#x165;" horiz-adv-x="441" 
d="M296 562l15 151h141l-51 -151h-105zM243 -10q-68 0 -113 34t-45 110v265h-67v121h67v148h165v-148h111v-121h-111v-223q0 -45 45 -45q37 0 64 5v-129q-59 -17 -116 -17z" />
    <glyph glyph-name="Tbar" unicode="&#x166;" horiz-adv-x="632" 
d="M98 303v84h129v183h-202v143h583v-143h-202v-183h128v-84h-128v-303h-179v303h-129z" />
    <glyph glyph-name="tbar" unicode="&#x167;" horiz-adv-x="382" 
d="M33 244v78h52v77h-67v121h67v148h165v-148h111v-121h-111v-77h71v-78h-71v-68q0 -45 45 -45q37 0 64 5v-129q-59 -17 -116 -17q-68 0 -113 34t-45 110v110h-52z" />
    <glyph glyph-name="Utilde" unicode="&#x168;" horiz-adv-x="709" 
d="M352 -12q-139 0 -216.5 67t-77.5 198v460h178v-448q0 -61 31.5 -95.5t90.5 -34.5q57 0 87.5 33.5t30.5 96.5v448h175v-453q0 -129 -84 -200.5t-215 -71.5zM226 764l-93 20q11 63 46 102.5t91 39.5q30 0 87 -16.5t87 -16.5q14 0 22.5 9t11 15t8.5 26l88 -22
q-9 -62 -41.5 -101.5t-88.5 -39.5q-31 0 -88 16t-83 16q-18 0 -27 -9.5t-20 -38.5z" />
    <glyph glyph-name="utilde" unicode="&#x169;" horiz-adv-x="605" 
d="M228 -11q-75 0 -124 45t-49 129v363h165v-307q0 -99 81 -99q39 0 62 28t23 82v296h165v-526h-161v72h-3q-57 -83 -159 -83zM178 584l-93 20q11 63 46 102.5t91 39.5q30 0 87 -16.5t87 -16.5q14 0 22.5 9t11 15t8.5 26l88 -22q-9 -62 -41.5 -101.5t-88.5 -39.5
q-31 0 -88 16t-83 16q-18 0 -27 -9.5t-20 -38.5z" />
    <glyph glyph-name="Umacron" unicode="&#x16a;" horiz-adv-x="709" 
d="M352 -12q-139 0 -216.5 67t-77.5 198v460h178v-448q0 -61 31.5 -95.5t90.5 -34.5q57 0 87.5 33.5t30.5 96.5v448h175v-453q0 -129 -84 -200.5t-215 -71.5zM191 781v120h326v-120h-326z" />
    <glyph glyph-name="umacron" unicode="&#x16b;" horiz-adv-x="605" 
d="M228 -11q-75 0 -124 45t-49 129v363h165v-307q0 -99 81 -99q39 0 62 28t23 82v296h165v-526h-161v72h-3q-57 -83 -159 -83zM139 598v120h326v-120h-326z" />
    <glyph glyph-name="Ubreve" unicode="&#x16c;" horiz-adv-x="709" 
d="M352 -12q-139 0 -216.5 67t-77.5 198v460h178v-448q0 -61 31.5 -95.5t90.5 -34.5q57 0 87.5 33.5t30.5 96.5v448h175v-453q0 -129 -84 -200.5t-215 -71.5zM354 775q-79 0 -132.5 50.5t-55.5 133.5h100q22 -90 93 -90q34 0 57 23.5t26 66.5h100q-1 -87 -57.5 -135.5
t-130.5 -48.5z" />
    <glyph glyph-name="ubreve" unicode="&#x16d;" horiz-adv-x="605" 
d="M228 -11q-75 0 -124 45t-49 129v363h165v-307q0 -99 81 -99q39 0 62 28t23 82v296h165v-526h-161v72h-3q-57 -83 -159 -83zM302 592q-79 0 -132.5 50.5t-55.5 133.5h100q22 -90 93 -90q34 0 57 23.5t26 66.5h100q-1 -87 -57.5 -135.5t-130.5 -48.5z" />
    <glyph glyph-name="Uring" unicode="&#x16e;" horiz-adv-x="709" 
d="M353 771q-51 0 -83 27.5t-32 72.5t33.5 75.5t81.5 30.5q51 0 83.5 -26.5t32.5 -72.5q0 -45 -34.5 -76t-81.5 -31zM353 826q21 0 35.5 14t14.5 34q0 21 -13.5 35t-36.5 14q-22 0 -35.5 -14t-13.5 -35q0 -20 14.5 -34t34.5 -14zM352 -12q-139 0 -216.5 67t-77.5 198v460
h178v-448q0 -61 31.5 -95.5t90.5 -34.5q57 0 87.5 33.5t30.5 96.5v448h175v-453q0 -129 -84 -200.5t-215 -71.5z" />
    <glyph glyph-name="uring" unicode="&#x16f;" horiz-adv-x="605" 
d="M302 588q-51 0 -83 27.5t-32 72.5t33.5 75.5t81.5 30.5q51 0 83.5 -26.5t32.5 -72.5q0 -45 -34.5 -76t-81.5 -31zM302 643q21 0 35.5 14t14.5 34q0 21 -13.5 35t-36.5 14q-22 0 -35.5 -14t-13.5 -35q0 -20 14.5 -34t34.5 -14zM228 -11q-75 0 -124 45t-49 129v363h165
v-307q0 -99 81 -99q39 0 62 28t23 82v296h165v-526h-161v72h-3q-57 -83 -159 -83z" />
    <glyph glyph-name="Uhungarumlaut" unicode="&#x170;" horiz-adv-x="709" 
d="M352 -12q-139 0 -216.5 67t-77.5 198v460h178v-448q0 -61 31.5 -95.5t90.5 -34.5q57 0 87.5 33.5t30.5 96.5v448h175v-453q0 -129 -84 -200.5t-215 -71.5zM191 777l47 169h153l-89 -169h-111zM394 777l48 169h153l-89 -169h-112z" />
    <glyph glyph-name="uhungarumlaut" unicode="&#x171;" horiz-adv-x="605" 
d="M228 -11q-75 0 -124 45t-49 129v363h165v-307q0 -99 81 -99q39 0 62 28t23 82v296h165v-526h-161v72h-3q-57 -83 -159 -83zM146 594l47 169h153l-89 -169h-111zM349 594l48 169h153l-89 -169h-112z" />
    <glyph glyph-name="Uogonek" unicode="&#x172;" horiz-adv-x="709" 
d="M414 -220q-60 0 -97 31.5t-37 85.5q0 52 45 92q-127 6 -197 72.5t-70 191.5v460h178v-448q0 -61 31.5 -95.5t90.5 -34.5q57 0 87.5 33.5t30.5 96.5v448h175v-453q0 -102 -55 -169.5t-146 -90.5q-26 -13 -42 -35t-16 -44q0 -41 47 -41q30 0 62 20l45 -77q-57 -43 -132 -43
z" />
    <glyph glyph-name="uogonek" unicode="&#x173;" horiz-adv-x="605" 
d="M228 -11q-75 0 -124 45t-49 129v363h165v-307q0 -99 81 -99q39 0 62 28t23 82v296h165v-526h-1q-45 -9 -68 -30.5t-23 -48.5q0 -41 47 -41q32 0 64 20l51 -76q-59 -47 -135 -47q-62 0 -100.5 31t-38.5 85q0 64 52 107h-9v72h-3q-57 -83 -159 -83z" />
    <glyph glyph-name="Wcircumflex" unicode="&#x174;" horiz-adv-x="942" 
d="M279 777l131 186h129l124 -186h-139l-52 97l-55 -97h-138zM190 -2l-180 715h178l99 -435h2l110 435h157l105 -436h2l98 436h171l-180 -715h-167l-114 451h-3l-116 -451h-162z" />
    <glyph glyph-name="wcircumflex" unicode="&#x175;" horiz-adv-x="835" 
d="M225 594l131 186h129l124 -186h-139l-52 97l-55 -97h-138zM172 -2l-166 528h170l82 -317h4l86 317h152l87 -316h3l83 316h157l-166 -528h-152l-92 334h-2l-92 -334h-154z" />
    <glyph glyph-name="Ycircumflex" unicode="&#x176;" horiz-adv-x="645" 
d="M234 0v282l-235 431h189l142 -281l138 281h178l-235 -432v-281h-177zM138 777l131 186h129l124 -186h-139l-52 97l-55 -97h-138z" />
    <glyph glyph-name="ycircumflex" unicode="&#x177;" horiz-adv-x="554" 
d="M145 -193q-34 0 -80 8v127q34 -6 65 -6q44 0 57 36l13 36l-192 518h177l105 -331h3l103 331h155l-206 -581q-49 -138 -200 -138zM92 594l131 186h129l124 -186h-139l-52 97l-55 -97h-138z" />
    <glyph glyph-name="Ydieresis" unicode="&#x178;" horiz-adv-x="645" 
d="M234 0v282l-235 431h189l142 -281l138 281h178l-235 -432v-281h-177zM143 773v151h145v-151h-145zM364 773v151h145v-151h-145z" />
    <glyph glyph-name="Zacute" unicode="&#x179;" horiz-adv-x="627" 
d="M255 776l87 179h163l-137 -179h-113zM35 0v118l331 452h-317v143h538v-125l-321 -442h323v-146h-554z" />
    <glyph glyph-name="zacute" unicode="&#x17a;" horiz-adv-x="523" 
d="M203 593l87 179h163l-137 -179h-113zM34 0v110l248 292h-236v124h439l-1 -111l-245 -288h250v-127h-455z" />
    <glyph glyph-name="Zdotaccent" unicode="&#x17b;" horiz-adv-x="627" 
d="M35 0v118l331 452h-317v143h538v-125l-321 -442h323v-146h-554zM243 772v151h148v-151h-148z" />
    <glyph glyph-name="zdotaccent" unicode="&#x17c;" horiz-adv-x="523" 
d="M34 0v110l248 292h-236v124h439l-1 -111l-245 -288h250v-127h-455zM193 589v151h148v-151h-148z" />
    <glyph glyph-name="Zcaron" unicode="&#x17d;" horiz-adv-x="627" 
d="M245 781l-124 186h139l52 -97l55 97h138l-131 -186h-129zM35 0v118l331 452h-317v143h538v-125l-321 -442h323v-146h-554z" />
    <glyph glyph-name="zcaron" unicode="&#x17e;" horiz-adv-x="523" 
d="M197 598l-124 186h139l52 -97l55 97h138l-131 -186h-129zM34 0v110l248 292h-236v124h439l-1 -111l-245 -288h250v-127h-455z" />
    <glyph glyph-name="florin" unicode="&#x192;" horiz-adv-x="413" 
d="M71 -193q-38 0 -72 8l10 122q16 -4 30 -4q37 0 41 45l38 368h-86l11 111h86l12 118q9 78 59 115.5t124 37.5q52 0 88 -10l-13 -120q-22 3 -51 3q-40 0 -44 -37l-11 -107h96l-12 -111h-95l-39 -379q-17 -160 -172 -160z" />
    <glyph glyph-name="Aringacute" unicode="&#x1fa;" horiz-adv-x="711" 
d="M9 0l253 714h191l250 -714h-183l-43 133h-255l-44 -133h-169zM265 273h168l-82 258h-3zM355 771q-55 0 -85 28.5t-30 70.5q0 49 40 83l144 129l73 -83l-76 -40q50 -26 50 -84q0 -45 -33.5 -74.5t-82.5 -29.5zM355 826q21 0 35.5 13.5t14.5 34.5t-13.5 35t-36.5 14
q-22 0 -35.5 -14t-13.5 -35q0 -20 14.5 -34t34.5 -14z" />
    <glyph glyph-name="aringacute" unicode="&#x1fb;" horiz-adv-x="573" 
d="M203 -11q-78 0 -126 40.5t-48 113.5q0 58 38 98.5t89 56t109 15.5h91v41q0 66 -82 66q-38 0 -58 -15t-20 -38v-15h-147v19q0 81 68 123.5t166 42.5q101 0 169.5 -44t68.5 -137v-240q0 -94 9 -116h-157q-1 2 -3 29.5t-3 29.5h-4q-52 -70 -160 -70zM267 107q44 0 66.5 22.5
t22.5 61.5v30h-79q-83 0 -83 -57t73 -57zM286 588q-55 0 -85 28.5t-30 70.5q0 49 40 83l144 129l73 -83l-76 -40q50 -26 50 -84q0 -45 -33.5 -74.5t-82.5 -29.5zM286 643q21 0 35.5 13.5t14.5 34.5t-13.5 35t-36.5 14q-22 0 -35.5 -14t-13.5 -35q0 -20 14.5 -34t34.5 -14z
" />
    <glyph glyph-name="AEacute" unicode="&#x1fc;" horiz-adv-x="1047" 
d="M519 776l87 179h163l-137 -179h-113zM7 0l358 713h630v-145h-346v-136h291v-144h-291v-142h348v-146h-526v145h-209l-73 -145h-182zM323 282h148v300z" />
    <glyph glyph-name="aeacute" unicode="&#x1fd;" horiz-adv-x="884" 
d="M373 593l87 179h163l-137 -179h-113zM613 -13q-153 0 -220 94q-58 -92 -190 -92q-78 0 -126 40.5t-48 113.5q0 58 38 98.5t89 56t109 15.5h91v41q0 66 -82 66q-38 0 -58 -15t-20 -38v-15h-147v19q0 81 68 123.5t166 42.5q109 0 169 -46q67 46 159 46q97 0 165 -56
t68 -158v-101h-321v-22q0 -41 33 -63.5t78 -22.5q33 0 75 15t61 33l65 -94q-84 -81 -222 -81zM267 107q44 0 66.5 22.5t22.5 61.5v30h-79q-83 0 -83 -57t73 -57zM523 318h164v17q0 39 -22.5 59.5t-57.5 20.5q-36 0 -60 -21.5t-24 -61.5v-14z" />
    <glyph glyph-name="Oslashacute" unicode="&#x1fe;" horiz-adv-x="693" 
d="M129 -57l-62 41l52 78q-76 68 -76 187v206q0 128 88.5 199t212.5 71q106 0 186 -48l53 79l62 -41l-57 -85q62 -70 62 -174v-198q0 -89 -45.5 -152t-112 -90.5t-144.5 -27.5q-94 0 -167 33zM222 253q0 -17 3 -32l215 321q-35 37 -95 37q-53 0 -88 -29t-35 -88v-209z
M348 135q51 0 87 30t36 87v202l-200 -299q32 -20 77 -20zM288 776l87 179h163l-137 -179h-113z" />
    <glyph glyph-name="oslashacute" unicode="&#x1ff;" horiz-adv-x="575" 
d="M153 -75l-58 28l37 72q-96 56 -96 174v114q0 107 74.5 165.5t174.5 58.5q54 0 101 -16l37 73l58 -28l-37 -72q95 -59 95 -178v-109q0 -55 -22 -98.5t-59 -69t-80 -38.5t-89 -13q-52 0 -97 13zM219 593l87 179h163l-137 -179h-113zM203 195q0 -15 3 -25l119 233
q-18 8 -38 8q-37 0 -60.5 -23t-23.5 -64v-129zM289 113q37 0 60 21.5t23 62.5v130q0 9 -2 21l-118 -229q16 -6 37 -6z" />
    <glyph glyph-name="Scommaaccent" unicode="&#x218;" horiz-adv-x="635" 
d="M237 -207l12 174h152l-40 -174h-124zM316 -12q-210 0 -302 129l113 101q28 -40 77 -65t104 -25q46 0 79 16t33 51q0 30 -20.5 45.5t-59.5 26.5l-123 32q-169 45 -169 197q0 100 77 164.5t195 64.5q94 0 155.5 -25t108.5 -83l-113 -98q-25 32 -66 49t-85 17q-43 0 -70 -16
t-27 -51q0 -28 24 -42t73 -27l112 -30q171 -44 171 -198q0 -110 -84.5 -171.5t-202.5 -61.5z" />
    <glyph glyph-name="scommaaccent" unicode="&#x219;" horiz-adv-x="542" 
d="M183 -207l12 174h152l-40 -174h-124zM270 -12q-158 0 -245 81l86 99q65 -63 151 -63q81 0 81 44q0 22 -15.5 31t-50.5 16l-13 2q-12 2 -34.5 7t-45.5 12q-136 32 -136 141q0 78 62 129t159 51q75 0 124 -16t94 -54l-94 -91q-50 46 -121 46q-70 0 -70 -42q0 -26 66 -38
q5 -1 8 -2l91 -19q70 -15 107.5 -54t37.5 -96q0 -46 -22 -82.5t-57.5 -58t-77.5 -32.5t-85 -11z" />
    <glyph glyph-name="uni021A" unicode="&#x21a;" horiz-adv-x="632" 
d="M229 -207l12 174h152l-40 -174h-124zM227 0v570h-202v143h583v-143h-202v-570h-179z" />
    <glyph glyph-name="uni021B" unicode="&#x21b;" horiz-adv-x="382" 
d="M129 -207l12 174h152l-40 -174h-124zM243 -10q-68 0 -113 34t-45 110v265h-67v121h67v148h165v-148h111v-121h-111v-223q0 -45 45 -45q37 0 64 5v-129q-59 -17 -116 -17z" />
    <glyph glyph-name="dotlessj" unicode="&#x237;" horiz-adv-x="292" 
d="M60 -193q-25 0 -65 6v124q16 -2 32 -2q43 0 43 44v547h165v-559q0 -78 -47.5 -119t-127.5 -41z" />
    <glyph glyph-name="circumflex" unicode="&#x2c6;" horiz-adv-x="434" 
d="M25 594l131 186h129l124 -186h-139l-52 97l-55 -97h-138z" />
    <glyph glyph-name="caron" unicode="&#x2c7;" horiz-adv-x="386" 
d="M125 598l-124 186h139l52 -97l55 97h138l-131 -186h-129z" />
    <glyph glyph-name="breve" unicode="&#x2d8;" horiz-adv-x="433" 
d="M216 592q-79 0 -132.5 50.5t-55.5 133.5h100q22 -90 93 -90q34 0 57 23.5t26 66.5h100q-1 -87 -57.5 -135.5t-130.5 -48.5z" />
    <glyph glyph-name="dotaccent" unicode="&#x2d9;" horiz-adv-x="258" 
d="M55 589v151h148v-151h-148z" />
    <glyph glyph-name="ring" unicode="&#x2da;" horiz-adv-x="331" 
d="M165 588q-51 0 -83 27.5t-32 72.5t33.5 75.5t81.5 30.5q51 0 83.5 -26.5t32.5 -72.5q0 -45 -34.5 -76t-81.5 -31zM165 643q21 0 35.5 14t14.5 34q0 21 -13.5 35t-36.5 14q-22 0 -35.5 -14t-13.5 -35q0 -20 14.5 -34t34.5 -14z" />
    <glyph glyph-name="ogonek" unicode="&#x2db;" horiz-adv-x="392" 
d="M197 -223q-62 0 -101 31t-39 85q0 52 40 92.5t107 57.5l66 -43q-47 -8 -73.5 -30t-26.5 -49q0 -41 47 -41q32 0 71 24l51 -79q-59 -48 -142 -48z" />
    <glyph glyph-name="tilde" unicode="&#x2dc;" horiz-adv-x="511" 
d="M128 584l-93 20q11 63 46 102.5t91 39.5q30 0 87 -16.5t87 -16.5q14 0 22.5 9t11 15t8.5 26l88 -22q-9 -62 -41.5 -101.5t-88.5 -39.5q-31 0 -88 16t-83 16q-18 0 -27 -9.5t-20 -38.5z" />
    <glyph glyph-name="hungarumlaut" unicode="&#x2dd;" horiz-adv-x="504" 
d="M44 594l47 169h153l-89 -169h-111zM247 594l48 169h153l-89 -169h-112z" />
    <glyph glyph-name="pi" unicode="&#x3c0;" horiz-adv-x="670" 
d="M537 -8q-66 0 -104 34.5t-38 100.5v251h-116q-7 -176 -29 -378h-165q27 214 33 378h-92l20 149h591v-149h-79l-1 -193q0 -52 45 -52q15 0 41 6v-131q-52 -16 -106 -16z" />
    <glyph glyph-name="Wgrave" unicode="&#x1e80;" horiz-adv-x="942" 
d="M190 -2l-180 715h178l99 -435h2l110 435h157l105 -436h2l98 436h171l-180 -715h-167l-114 451h-3l-116 -451h-162zM419 776l-137 179h163l87 -179h-113z" />
    <glyph glyph-name="wgrave" unicode="&#x1e81;" horiz-adv-x="835" 
d="M172 -2l-166 528h170l82 -317h4l86 317h152l87 -316h3l83 316h157l-166 -528h-152l-92 334h-2l-92 -334h-154zM367 593l-137 179h163l87 -179h-113z" />
    <glyph glyph-name="Wacute" unicode="&#x1e82;" horiz-adv-x="942" 
d="M427 776l87 179h163l-137 -179h-113zM190 -2l-180 715h178l99 -435h2l110 435h157l105 -436h2l98 436h171l-180 -715h-167l-114 451h-3l-116 -451h-162z" />
    <glyph glyph-name="wacute" unicode="&#x1e83;" horiz-adv-x="835" 
d="M373 593l87 179h163l-137 -179h-113zM172 -2l-166 528h170l82 -317h4l86 317h152l87 -316h3l83 316h157l-166 -528h-152l-92 334h-2l-92 -334h-154z" />
    <glyph glyph-name="Wdieresis" unicode="&#x1e84;" horiz-adv-x="942" 
d="M287 773v151h145v-151h-145zM508 773v151h145v-151h-145zM190 -2l-180 715h178l99 -435h2l110 435h157l105 -436h2l98 436h171l-180 -715h-167l-114 451h-3l-116 -451h-162z" />
    <glyph glyph-name="wdieresis" unicode="&#x1e85;" horiz-adv-x="835" 
d="M238 590v151h145v-151h-145zM459 590v151h145v-151h-145zM172 -2l-166 528h170l82 -317h4l86 317h152l87 -316h3l83 316h157l-166 -528h-152l-92 334h-2l-92 -334h-154z" />
    <glyph glyph-name="Ygrave" unicode="&#x1ef2;" horiz-adv-x="645" 
d="M234 0v282l-235 431h189l142 -281l138 281h178l-235 -432v-281h-177zM282 776l-137 179h163l87 -179h-113z" />
    <glyph glyph-name="ygrave" unicode="&#x1ef3;" horiz-adv-x="554" 
d="M145 -193q-34 0 -80 8v127q34 -6 65 -6q44 0 57 36l13 36l-192 518h177l105 -331h3l103 331h155l-206 -581q-49 -138 -200 -138zM234 593l-137 179h163l87 -179h-113z" />
    <glyph glyph-name="endash" unicode="&#x2013;" horiz-adv-x="521" 
d="M0 264v104h521v-104h-521z" />
    <glyph glyph-name="emdash" unicode="&#x2014;" horiz-adv-x="885" 
d="M0 264v104h885v-104h-885z" />
    <glyph glyph-name="quoteleft" unicode="&#x2018;" horiz-adv-x="294" 
d="M62 405v161l65 150h80l-33 -141h57v-170h-169z" />
    <glyph glyph-name="quoteright" unicode="&#x2019;" horiz-adv-x="294" 
d="M88 405l33 141h-58v170h169v-161l-65 -150h-79z" />
    <glyph glyph-name="quotesinglbase" unicode="&#x201a;" horiz-adv-x="295" 
d="M88 -140l33 141h-58v170h169v-161l-65 -150h-79z" />
    <glyph glyph-name="quotedblleft" unicode="&#x201c;" horiz-adv-x="519" 
d="M62 405v161l65 150h80l-33 -141h57v-170h-169zM287 405v161l65 150h79l-33 -141h57v-170h-168z" />
    <glyph glyph-name="quotedblright" unicode="&#x201d;" horiz-adv-x="519" 
d="M88 405l33 141h-58v170h169v-161l-65 -150h-79zM312 405l33 141h-57v170h168v-161l-64 -150h-80z" />
    <glyph glyph-name="quotedblbase" unicode="&#x201e;" horiz-adv-x="519" 
d="M88 -140l33 141h-58v170h169v-161l-65 -150h-79zM312 -140l33 141h-57v170h168v-161l-64 -150h-80z" />
    <glyph glyph-name="dagger" unicode="&#x2020;" horiz-adv-x="579" 
d="M234 -152v595h-185v97h185v177h111v-177h185v-97h-185v-595h-111z" />
    <glyph glyph-name="daggerdbl" unicode="&#x2021;" horiz-adv-x="579" 
d="M234 -151v187h-185v97h185v310h-185v98h185v177h111v-177h185v-98h-185v-310h185v-97h-185v-187h-111z" />
    <glyph glyph-name="bullet" unicode="&#x2022;" horiz-adv-x="444" 
d="M223 208q-65 0 -110.5 46t-45.5 110q0 65 45.5 110.5t110.5 45.5q64 0 109 -45.5t45 -110.5q0 -64 -45 -110t-109 -46z" />
    <glyph glyph-name="ellipsis" unicode="&#x2026;" horiz-adv-x="783" 
d="M65 0v172h169v-172h-169zM307 0v172h169v-172h-169zM549 0v172h169v-172h-169z" />
    <glyph glyph-name="perthousand" unicode="&#x2030;" horiz-adv-x="1201" 
d="M1007 -11q-64 0 -110 31.5t-46 96.5v142q0 65 45.5 97t109.5 32t110 -32t46 -99v-140q0 -63 -47 -95.5t-108 -32.5zM1006 75q23 0 34.5 12.5t11.5 30.5v146q0 18 -11.5 29t-34.5 11q-46 0 -46 -40v-147q0 -42 46 -42zM195 326q-64 0 -110 31t-46 97v141q0 66 45 98
t109 32q65 0 111 -32.5t46 -99.5v-140q0 -62 -47 -94.5t-108 -32.5zM194 412q23 0 35 12t12 30v146q0 17 -12.5 29t-34.5 12t-34 -11.5t-12 -29.5v-147q0 -41 46 -41zM643 -11q-63 0 -109 31.5t-46 96.5v142q0 65 45 97t109 32q65 0 111 -32t46 -99v-140q0 -63 -47 -95.5
t-109 -32.5zM643 75q23 0 34.5 12.5t11.5 30.5v146q0 17 -12 28.5t-34 11.5q-46 0 -46 -40v-147q0 -42 46 -42zM141 0l470 717h93l-470 -717h-93z" />
    <glyph glyph-name="guilsinglleft" unicode="&#x2039;" horiz-adv-x="356" 
d="M253 53l-222 209l222 212l75 -68l-123 -144l124 -144z" />
    <glyph glyph-name="guilsinglright" unicode="&#x203a;" horiz-adv-x="356" 
d="M104 53l-76 66l123 144l-123 144l76 67l221 -211z" />
    <glyph glyph-name="fraction" unicode="&#x2044;" horiz-adv-x="122" 
d="M-184 -2l396 718h96l-396 -718h-96z" />
    <glyph glyph-name="uni2070" unicode="&#x2070;" horiz-adv-x="386" 
d="M194 368q-40 0 -74.5 11t-60.5 41t-26 75v158q0 65 47.5 97t112.5 32q64 0 112 -32.5t48 -98.5v-156q0 -62 -48.5 -94.5t-110.5 -32.5zM193 457q20 0 30.5 11.5t10.5 28.5v160q0 16 -11 26t-30 10t-30 -10.5t-11 -26.5v-161q0 -16 10.5 -27t30.5 -11z" />
    <glyph glyph-name="uni2074" unicode="&#x2074;" horiz-adv-x="376" 
d="M203 380v80h-177v80l149 240h125l-159 -236h62v42l106 71v-113h40v-84h-40v-80h-106z" />
    <glyph glyph-name="uni2075" unicode="&#x2075;" horiz-adv-x="373" 
d="M183 368q-66 0 -107.5 27t-41.5 75v27h110v-9q0 -35 42 -35q40 0 40 46v23q0 18 -11.5 29t-30.5 11q-22 0 -37 -19l-102 12l10 219h259v-93h-170l-3 -69q37 24 87 24q44 0 78 -24.5t34 -74.5v-48q0 -58 -46 -89.5t-111 -31.5z" />
    <glyph glyph-name="uni2076" unicode="&#x2076;" horiz-adv-x="382" 
d="M191 368q-64 0 -110.5 33t-46.5 90v168q0 57 47 90t114 33t107 -29t40 -80v-21h-110v10q0 35 -38 35q-20 0 -31 -11t-11 -28v-56q35 29 89 29q50 0 79 -26t29 -66v-54q0 -55 -46 -86t-112 -31zM193 453q20 0 31 10t11 25v37q0 18 -12.5 26t-28.5 8t-29 -11t-13 -34v-24
q0 -16 11 -26.5t30 -10.5z" />
    <glyph glyph-name="uni2077" unicode="&#x2077;" horiz-adv-x="369" 
d="M76 380q1 77 40.5 159.5t93.5 141.5h-176v96h303v-85q-54 -50 -94.5 -131t-40.5 -181h-126z" />
    <glyph glyph-name="uni2078" unicode="&#x2078;" horiz-adv-x="382" 
d="M191 368q-157 0 -157 111v20q0 53 49 77q-19 8 -31 28.5t-12 41.5v22q0 53 43 83t107 30q65 0 108.5 -28.5t43.5 -81.5v-25q0 -46 -42 -70q19 -9 33.5 -30t14.5 -44v-26q0 -50 -45 -79t-112 -29zM191 447q41 0 41 36v18q0 37 -42 37q-17 0 -28.5 -8t-11.5 -24v-24
q0 -35 41 -35zM191 612q41 0 41 35v18q0 36 -42 36q-17 0 -28.5 -8t-11.5 -23v-24q0 -34 41 -34z" />
    <glyph glyph-name="uni2079" unicode="&#x2079;" horiz-adv-x="382" 
d="M188 367q-67 0 -107.5 29t-40.5 80v21h111v-10q0 -16 10.5 -25t27.5 -9q41 0 41 39v56q-30 -30 -89 -30q-50 0 -78.5 26.5t-28.5 66.5v54q0 55 45.5 85.5t111.5 30.5q65 0 111.5 -33t46.5 -89v-168q0 -57 -47 -90.5t-114 -33.5zM187 590q16 0 29.5 11.5t13.5 34.5v24
q0 16 -10.5 27t-29.5 11q-20 0 -31.5 -10t-11.5 -25v-38q0 -18 12.5 -26.5t27.5 -8.5z" />
    <glyph glyph-name="uni207D" unicode="&#x207d;" horiz-adv-x="220" 
d="M147 303q-42 47 -68 116t-26 142q0 69 25.5 135.5t68.5 114.5h56q-30 -70 -42 -124.5t-12 -125.5q0 -135 54 -258h-56z" />
    <glyph glyph-name="uni207E" unicode="&#x207e;" horiz-adv-x="220" 
d="M73 303h-56q54 123 54 258q0 71 -12 125.5t-42 124.5h56q43 -48 68.5 -114.5t25.5 -135.5q0 -73 -26 -142t-68 -116z" />
    <glyph glyph-name="uni2080" unicode="&#x2080;" horiz-adv-x="386" 
d="M194 -145q-40 0 -74.5 11t-60.5 41t-26 75v158q0 65 47.5 97t112.5 32q64 0 112 -32.5t48 -98.5v-156q0 -62 -48.5 -94.5t-110.5 -32.5zM193 -56q20 0 30.5 11.5t10.5 28.5v160q0 16 -11 26t-30 10t-30 -10.5t-11 -26.5v-161q0 -16 10.5 -27t30.5 -11z" />
    <glyph glyph-name="uni2081" unicode="&#x2081;" horiz-adv-x="357" 
d="M60 -133v81h72v216l-70 -4l-7 79l131 28h60v-319h66v-81h-252z" />
    <glyph glyph-name="uni2082" unicode="&#x2082;" horiz-adv-x="370" 
d="M45 -133v69l127 140q41 44 41 73v5q0 33 -36 33q-34 0 -34 -42v-12h-108v22q0 57 42.5 88t108.5 31q68 0 105 -33t37 -88q0 -30 -18 -63t-32.5 -48.5t-46.5 -47.5l-34 -35v-1h135v-91h-287z" />
    <glyph glyph-name="uni2083" unicode="&#x2083;" horiz-adv-x="373" 
d="M182 -145q-71 0 -109.5 30t-38.5 85v14h112v-8q0 -37 43 -37q37 0 37 45q0 41 -51 41h-29v74h29q24 0 35.5 9t11.5 33q0 20 -10.5 30.5t-26.5 10.5q-37 0 -37 -39v-5h-111v14q0 52 40 84.5t109 32.5t108.5 -31t39.5 -82q0 -68 -62 -88v-3q34 -8 54 -32t20 -58
q0 -42 -26.5 -70.5t-62 -39t-75.5 -10.5z" />
    <glyph glyph-name="uni2084" unicode="&#x2084;" horiz-adv-x="376" 
d="M203 -133v80h-177v80l149 240h125l-159 -236h62v42l106 71v-113h40v-84h-40v-80h-106z" />
    <glyph glyph-name="uni2085" unicode="&#x2085;" horiz-adv-x="373" 
d="M183 -145q-66 0 -107.5 27t-41.5 75v27h110v-9q0 -35 42 -35q40 0 40 46v23q0 18 -11.5 29t-30.5 11q-22 0 -37 -19l-102 12l10 219h259v-93h-170l-3 -69q37 24 87 24q44 0 78 -24.5t34 -74.5v-48q0 -58 -46 -89.5t-111 -31.5z" />
    <glyph glyph-name="uni2086" unicode="&#x2086;" horiz-adv-x="382" 
d="M191 -145q-64 0 -110.5 33t-46.5 90v168q0 57 47 90t114 33t107 -29t40 -80v-21h-110v10q0 35 -38 35q-20 0 -31 -11t-11 -28v-56q35 29 89 29q50 0 79 -26t29 -66v-54q0 -55 -46 -86t-112 -31zM193 -60q20 0 31 10t11 25v37q0 18 -12.5 26t-28.5 8t-29 -11t-13 -34v-24
q0 -16 11 -26.5t30 -10.5z" />
    <glyph glyph-name="uni2087" unicode="&#x2087;" horiz-adv-x="369" 
d="M76 -133q1 77 40.5 159.5t93.5 141.5h-176v96h303v-85q-54 -50 -94.5 -131t-40.5 -181h-126z" />
    <glyph glyph-name="uni2088" unicode="&#x2088;" horiz-adv-x="382" 
d="M191 -145q-157 0 -157 111v20q0 53 49 77q-19 8 -31 28.5t-12 41.5v22q0 53 43 83t107 30q65 0 108.5 -28.5t43.5 -81.5v-25q0 -46 -42 -70q19 -9 33.5 -30t14.5 -44v-26q0 -50 -45 -79t-112 -29zM191 -66q41 0 41 36v18q0 37 -42 37q-17 0 -28.5 -8t-11.5 -24v-24
q0 -35 41 -35zM191 99q41 0 41 35v18q0 36 -42 36q-17 0 -28.5 -8t-11.5 -23v-24q0 -34 41 -34z" />
    <glyph glyph-name="uni2089" unicode="&#x2089;" horiz-adv-x="382" 
d="M188 -146q-67 0 -107.5 29t-40.5 80v21h111v-10q0 -16 10.5 -25t27.5 -9q41 0 41 39v56q-30 -30 -89 -30q-50 0 -78.5 26.5t-28.5 66.5v54q0 55 45.5 85.5t111.5 30.5q65 0 111.5 -33t46.5 -89v-168q0 -57 -47 -90.5t-114 -33.5zM187 77q16 0 29.5 11.5t13.5 34.5v24
q0 16 -10.5 27t-29.5 11q-20 0 -31.5 -10t-11.5 -25v-38q0 -18 12.5 -26.5t27.5 -8.5z" />
    <glyph glyph-name="uni208D" unicode="&#x208d;" horiz-adv-x="220" 
d="M147 -210q-42 47 -68 116t-26 142q0 69 25.5 135.5t68.5 114.5h56q-30 -70 -42 -124.5t-12 -125.5q0 -135 54 -258h-56z" />
    <glyph glyph-name="uni208E" unicode="&#x208e;" horiz-adv-x="220" 
d="M73 -210h-56q54 123 54 258q0 71 -12 125.5t-42 124.5h56q43 -48 68.5 -114.5t25.5 -135.5q0 -73 -26 -142t-68 -116z" />
    <glyph glyph-name="Euro" unicode="&#x20ac;" horiz-adv-x="742" 
d="M416 -12q-121 0 -200 61.5t-84 181.5v6h-84v87h84v68h-84v87h84v4q6 114 87.5 178t199.5 64q115 0 198.5 -60t83.5 -175v-33h-168v16q0 53 -34 82t-82 29q-44 0 -74 -26.5t-31 -74.5v-4h176v-87h-177v-68h177v-87h-177v-6q2 -47 30.5 -73.5t77.5 -26.5q52 0 83 27.5
t31 81.5v17h168v-35q0 -78 -43.5 -132.5t-106 -78t-135.5 -23.5z" />
    <glyph glyph-name="trademark" unicode="&#x2122;" horiz-adv-x="686" 
d="M335 398v315h106l45 -129l45 129h106v-315h-80v176l-42 -124h-58l-42 123v-175h-80zM124 398v240h-82v75h252v-75h-82v-240h-88z" />
    <glyph glyph-name="Omega" unicode="&#x2126;" horiz-adv-x="701" 
d="M52 0v149l150 -7v11q-159 87 -160 270v11q0 132 81.5 211.5t225.5 79.5q148 0 228.5 -78t80.5 -208v-15q0 -57 -15 -105t-41 -80t-51 -52.5t-53 -33.5v-11l152 7v-149h-270v142q3 3 22 21.5t23.5 24t17.5 26t17 38t8.5 47.5t4.5 67v99q0 54 -36.5 85t-88.5 31t-87 -30
t-35 -94v-83q0 -95 21 -140t75 -92v-142h-270z" />
    <glyph glyph-name="uni2153" unicode="&#x2153;" horiz-adv-x="903" 
d="M60 315v81h72v216l-70 -4l-7 79l131 28h60v-319h66v-81h-252zM197 -2l396 718h96l-396 -718h-96zM697 -12q-71 0 -109.5 30t-38.5 85v14h112v-8q0 -37 43 -37q37 0 37 45q0 41 -51 41h-29v74h29q24 0 35.5 9t11.5 33q0 20 -10.5 30.5t-26.5 10.5q-37 0 -37 -39v-5h-111
v14q0 52 40 84.5t109 32.5t108.5 -31t39.5 -82q0 -68 -62 -88v-3q34 -8 54 -32t20 -58q0 -42 -26.5 -70.5t-62 -39t-75.5 -10.5z" />
    <glyph glyph-name="uni2154" unicode="&#x2154;" horiz-adv-x="903" 
d="M45 315v69l127 140q41 44 41 73v5q0 33 -36 33q-34 0 -34 -42v-12h-108v22q0 57 42.5 88t108.5 31q68 0 105 -33t37 -88q0 -30 -18 -63t-32.5 -48.5t-46.5 -47.5l-34 -35v-1h135v-91h-287zM205 -2l396 718h96l-396 -718h-96zM697 -12q-71 0 -109.5 30t-38.5 85v14h112v-8
q0 -37 43 -37q37 0 37 45q0 41 -51 41h-29v74h29q24 0 35.5 9t11.5 33q0 20 -10.5 30.5t-26.5 10.5q-37 0 -37 -39v-5h-111v14q0 52 40 84.5t109 32.5t108.5 -31t39.5 -82q0 -68 -62 -88v-3q34 -8 54 -32t20 -58q0 -42 -26.5 -70.5t-62 -39t-75.5 -10.5z" />
    <glyph glyph-name="uni2155" unicode="&#x2155;" horiz-adv-x="903" 
d="M60 315v81h72v216l-70 -4l-7 79l131 28h60v-319h66v-81h-252zM697 -12q-66 0 -107.5 27t-41.5 75v27h110v-9q0 -35 42 -35q40 0 40 46v23q0 18 -11.5 29t-30.5 11q-22 0 -37 -19l-102 12l10 219h259v-93h-170l-3 -69q37 24 87 24q44 0 78 -24.5t34 -74.5v-48
q0 -58 -46 -89.5t-111 -31.5zM192 -2l396 718h96l-396 -718h-96z" />
    <glyph glyph-name="uni2156" unicode="&#x2156;" horiz-adv-x="903" 
d="M45 315v69l127 140q41 44 41 73v5q0 33 -36 33q-34 0 -34 -42v-12h-108v22q0 57 42.5 88t108.5 31q68 0 105 -33t37 -88q0 -30 -18 -63t-32.5 -48.5t-46.5 -47.5l-34 -35v-1h135v-91h-287zM697 -12q-66 0 -107.5 27t-41.5 75v27h110v-9q0 -35 42 -35q40 0 40 46v23
q0 18 -11.5 29t-30.5 11q-22 0 -37 -19l-102 12l10 219h259v-93h-170l-3 -69q37 24 87 24q44 0 78 -24.5t34 -74.5v-48q0 -58 -46 -89.5t-111 -31.5zM200 -2l396 718h96l-396 -718h-96z" />
    <glyph glyph-name="uni2157" unicode="&#x2157;" horiz-adv-x="903" 
d="M182 303q-71 0 -109.5 30t-38.5 85v14h112v-8q0 -37 43 -37q37 0 37 45q0 41 -51 41h-29v74h29q24 0 35.5 9t11.5 33q0 20 -10.5 30.5t-26.5 10.5q-37 0 -37 -39v-5h-111v14q0 52 40 84.5t109 32.5t108.5 -31t39.5 -82q0 -68 -62 -88v-3q34 -8 54 -32t20 -58
q0 -42 -26.5 -70.5t-62 -39t-75.5 -10.5zM200 -2l396 718h96l-396 -718h-96zM697 -12q-66 0 -107.5 27t-41.5 75v27h110v-9q0 -35 42 -35q40 0 40 46v23q0 18 -11.5 29t-30.5 11q-22 0 -37 -19l-102 12l10 219h259v-93h-170l-3 -69q37 24 87 24q44 0 78 -24.5t34 -74.5v-48
q0 -58 -46 -89.5t-111 -31.5z" />
    <glyph glyph-name="uni2158" unicode="&#x2158;" horiz-adv-x="903" 
d="M203 315v80h-177v80l149 240h125l-159 -236h62v42l106 71v-113h40v-84h-40v-80h-106zM697 -12q-66 0 -107.5 27t-41.5 75v27h110v-9q0 -35 42 -35q40 0 40 46v23q0 18 -11.5 29t-30.5 11q-22 0 -37 -19l-102 12l10 219h259v-93h-170l-3 -69q37 24 87 24q44 0 78 -24.5
t34 -74.5v-48q0 -58 -46 -89.5t-111 -31.5zM200 -2l396 718h96l-396 -718h-96z" />
    <glyph glyph-name="uni2159" unicode="&#x2159;" horiz-adv-x="903" 
d="M60 315v81h72v216l-70 -4l-7 79l131 28h60v-319h66v-81h-252zM695 -12q-64 0 -110.5 33t-46.5 90v168q0 57 47 90t114 33t107 -29t40 -80v-21h-110v10q0 35 -38 35q-20 0 -31 -11t-11 -28v-56q35 29 89 29q50 0 79 -26t29 -66v-54q0 -55 -46 -86t-112 -31zM697 73
q20 0 31 10t11 25v37q0 18 -12.5 26t-28.5 8t-29 -11t-13 -34v-24q0 -16 11 -26.5t30 -10.5zM199 -2l396 718h96l-396 -718h-96z" />
    <glyph glyph-name="uni215A" unicode="&#x215a;" horiz-adv-x="903" 
d="M695 -12q-64 0 -110.5 33t-46.5 90v168q0 57 47 90t114 33t107 -29t40 -80v-21h-110v10q0 35 -38 35q-20 0 -31 -11t-11 -28v-56q35 29 89 29q50 0 79 -26t29 -66v-54q0 -55 -46 -86t-112 -31zM697 73q20 0 31 10t11 25v37q0 18 -12.5 26t-28.5 8t-29 -11t-13 -34v-24
q0 -16 11 -26.5t30 -10.5zM183 306q-66 0 -107.5 27t-41.5 75v27h110v-9q0 -35 42 -35q40 0 40 46v23q0 18 -11.5 29t-30.5 11q-22 0 -37 -19l-102 12l10 219h259v-93h-170l-3 -69q37 24 87 24q44 0 78 -24.5t34 -74.5v-48q0 -58 -46 -89.5t-111 -31.5zM194 -2l396 718h96
l-396 -718h-96z" />
    <glyph glyph-name="uni215B" unicode="&#x215b;" horiz-adv-x="903" 
d="M695 -12q-157 0 -157 111v20q0 53 49 77q-19 8 -31 28.5t-12 41.5v22q0 53 43 83t107 30q65 0 108.5 -28.5t43.5 -81.5v-25q0 -46 -42 -70q19 -9 33.5 -30t14.5 -44v-26q0 -50 -45 -79t-112 -29zM203 -2l396 718h96l-396 -718h-96zM60 315v81h72v216l-70 -4l-7 79l131 28
h60v-319h66v-81h-252zM695 67q41 0 41 36v18q0 37 -42 37q-17 0 -28.5 -8t-11.5 -24v-24q0 -35 41 -35zM695 232q41 0 41 35v18q0 36 -42 36q-17 0 -28.5 -8t-11.5 -23v-24q0 -34 41 -34z" />
    <glyph glyph-name="uni215C" unicode="&#x215c;" horiz-adv-x="903" 
d="M695 -12q-157 0 -157 111v20q0 53 49 77q-19 8 -31 28.5t-12 41.5v22q0 53 43 83t107 30q65 0 108.5 -28.5t43.5 -81.5v-25q0 -46 -42 -70q19 -9 33.5 -30t14.5 -44v-26q0 -50 -45 -79t-112 -29zM182 303q-71 0 -109.5 30t-38.5 85v14h112v-8q0 -37 43 -37q37 0 37 45
q0 41 -51 41h-29v74h29q24 0 35.5 9t11.5 33q0 20 -10.5 30.5t-26.5 10.5q-37 0 -37 -39v-5h-111v14q0 52 40 84.5t109 32.5t108.5 -31t39.5 -82q0 -68 -62 -88v-3q34 -8 54 -32t20 -58q0 -42 -26.5 -70.5t-62 -39t-75.5 -10.5zM201 -2l396 718h96l-396 -718h-96zM695 67
q41 0 41 36v18q0 37 -42 37q-17 0 -28.5 -8t-11.5 -24v-24q0 -35 41 -35zM695 232q41 0 41 35v18q0 36 -42 36q-17 0 -28.5 -8t-11.5 -23v-24q0 -34 41 -34z" />
    <glyph glyph-name="uni215D" unicode="&#x215d;" horiz-adv-x="903" 
d="M695 -12q-157 0 -157 111v20q0 53 49 77q-19 8 -31 28.5t-12 41.5v22q0 53 43 83t107 30q65 0 108.5 -28.5t43.5 -81.5v-25q0 -46 -42 -70q19 -9 33.5 -30t14.5 -44v-26q0 -50 -45 -79t-112 -29zM183 306q-66 0 -107.5 27t-41.5 75v27h110v-9q0 -35 42 -35q40 0 40 46v23
q0 18 -11.5 29t-30.5 11q-22 0 -37 -19l-102 12l10 219h259v-93h-170l-3 -69q37 24 87 24q44 0 78 -24.5t34 -74.5v-48q0 -58 -46 -89.5t-111 -31.5zM194 -2l396 718h96l-396 -718h-96zM695 67q41 0 41 36v18q0 37 -42 37q-17 0 -28.5 -8t-11.5 -24v-24q0 -35 41 -35z
M695 232q41 0 41 35v18q0 36 -42 36q-17 0 -28.5 -8t-11.5 -23v-24q0 -34 41 -34z" />
    <glyph glyph-name="uni215E" unicode="&#x215e;" horiz-adv-x="903" 
d="M695 -12q-157 0 -157 111v20q0 53 49 77q-19 8 -31 28.5t-12 41.5v22q0 53 43 83t107 30q65 0 108.5 -28.5t43.5 -81.5v-25q0 -46 -42 -70q19 -9 33.5 -30t14.5 -44v-26q0 -50 -45 -79t-112 -29zM188 -2l396 718h96l-396 -718h-96zM105 317q1 77 40.5 159.5t93.5 141.5
h-176v96h303v-85q-54 -50 -94.5 -131t-40.5 -181h-126zM695 67q41 0 41 36v18q0 37 -42 37q-17 0 -28.5 -8t-11.5 -24v-24q0 -35 41 -35zM695 232q41 0 41 35v18q0 36 -42 36q-17 0 -28.5 -8t-11.5 -23v-24q0 -34 41 -34z" />
    <glyph glyph-name="arrowleft" unicode="&#x2190;" horiz-adv-x="736" 
d="M296 86l-241 252v24l241 251l87 -84l-125 -118h413v-123h-413l123 -125z" />
    <glyph glyph-name="arrowup" unicode="&#x2191;" horiz-adv-x="736" 
d="M311 41v413l-121 -124l-81 87l251 240h24l252 -240l-80 -86l-122 123v-413h-123z" />
    <glyph glyph-name="arrowright" unicode="&#x2192;" horiz-adv-x="736" 
d="M440 86l-86 80l124 122h-413v123h413l-124 121l86 81l241 -251v-24z" />
    <glyph glyph-name="arrowdown" unicode="&#x2193;" horiz-adv-x="736" 
d="M361 41l-252 241l80 86l122 -124v413h123v-413l121 124l81 -86l-251 -241h-24z" />
    <glyph glyph-name="uni2196" unicode="&#x2196;" horiz-adv-x="736" 
d="M547 88l-293 292l3 -173l-119 3l8 349l17 16l348 8l5 -117l-174 1l292 -292z" />
    <glyph glyph-name="uni2197" unicode="&#x2197;" horiz-adv-x="736" 
d="M225 88l-87 87l292 292l-174 -1l5 117l348 -8l17 -16l8 -349l-119 -3l3 173z" />
    <glyph glyph-name="uni2198" unicode="&#x2198;" horiz-adv-x="736" 
d="M609 96l-348 -8l-5 117l174 -1l-292 292l87 87l293 -292l-3 173l119 -3l-8 -349z" />
    <glyph glyph-name="uni2199" unicode="&#x2199;" horiz-adv-x="736" 
d="M511 88l-348 8l-17 16l-8 349l119 3l-3 -173l293 292l87 -87l-292 -292l174 1z" />
    <glyph glyph-name="partialdiff" unicode="&#x2202;" horiz-adv-x="573" 
d="M286 -12q-49 0 -92.5 11.5t-79.5 36t-57 67t-21 98.5v95q0 83 47.5 138.5t123.5 74.5q14 4 42 8l-138 196l180 16l206 -301q40 -58 40 -133v-89q0 -107 -74.5 -162.5t-176.5 -55.5zM287 113q39 0 60.5 23t21.5 64v110q0 39 -22.5 63.5t-60.5 24.5q-39 0 -60.5 -24.5
t-21.5 -66.5v-109q0 -39 21 -62t62 -23z" />
    <glyph glyph-name="Delta" unicode="&#x2206;" horiz-adv-x="709" 
d="M30 0v66l232 649h190l227 -649v-66h-649zM222 133h256l-128 398h-4z" />
    <glyph glyph-name="product" unicode="&#x220f;" horiz-adv-x="800" 
d="M143 -133v695h-104v151h722v-151h-103v-695h-171v695h-173v-695h-171z" />
    <glyph glyph-name="summation" unicode="&#x2211;" horiz-adv-x="619" 
d="M45 -133v123l261 312l-266 289v122h538v-144h-307l231 -246v-34l-237 -278h313v-144h-533z" />
    <glyph glyph-name="minus" unicode="&#x2212;" 
d="M47 267v99h496v-99h-496z" />
    <glyph glyph-name="radical" unicode="&#x221a;" horiz-adv-x="605" 
d="M186 -68l-159 528h165l80 -326h2l179 579h150l-276 -781h-141z" />
    <glyph glyph-name="infinity" unicode="&#x221e;" horiz-adv-x="843" 
d="M233 152q-83 0 -133.5 49.5t-50.5 121.5q0 76 54 126.5t133 50.5q104 0 190 -96q89 89 184 89q84 0 134 -42.5t50 -118.5q0 -80 -54 -132t-137 -52q-105 0 -186 96q-94 -92 -184 -92zM228 243q57 0 134 85q-56 81 -124 81q-37 0 -62 -22t-25 -54q0 -37 21.5 -63.5
t55.5 -26.5zM601 240q39 0 65 24.5t26 59.5q0 37 -20 59t-60 22q-49 0 -131 -84q30 -40 56.5 -60.5t63.5 -20.5z" />
    <glyph glyph-name="integral" unicode="&#x222b;" horiz-adv-x="427" 
d="M88 -187q-61 0 -100 13l15 111q30 -4 48 -4q40 0 43 43l56 598q8 72 53 114t109 42q65 0 104 -13l-14 -113q-30 6 -55 6q-40 0 -45 -42l-54 -599q-7 -73 -50.5 -114.5t-109.5 -41.5z" />
    <glyph glyph-name="approxequal" unicode="&#x2248;" horiz-adv-x="581" 
d="M97 112l-75 16q24 143 125 143q30 0 146 -16.5t146 -16.5q14 0 23.5 7.5t12.5 14t11 25.5l73 -16q-23 -142 -120 -142q-30 0 -147 16t-147 16q-19 0 -28 -9t-20 -38zM97 355l-75 15q24 143 125 143q30 0 146 -16.5t146 -16.5q10 0 17.5 3t13 12t8 13.5t8.5 19.5l73 -16
q-23 -143 -120 -143q-30 0 -147 16t-147 16q-19 0 -28 -9t-20 -37z" />
    <glyph glyph-name="notequal" unicode="&#x2260;" 
d="M213 27l-81 31l48 97h-156v99h207l56 116h-263v100h314l56 112l81 -30l-40 -82h131v-100h-182l-57 -116h239v-99h-290z" />
    <glyph glyph-name="lessequal" unicode="&#x2264;" 
d="M28 0v99h534v-99h-534zM501 169l-452 207v78l450 206l45 -91l-346 -154l348 -155z" />
    <glyph glyph-name="greaterequal" unicode="&#x2265;" 
d="M28 0v99h534v-99h-534zM90 169l-46 91l349 155l-347 154l45 91l450 -206v-78z" />
    <glyph glyph-name="blacksquare" unicode="&#x25a0;" horiz-adv-x="772" 
d="M46 0v714h680v-714h-680z" />
    <glyph glyph-name="whitesquare" unicode="&#x25a1;" horiz-adv-x="773" 
d="M47 0v713h679v-713h-679zM139 89h495v535h-495v-535z" />
    <glyph glyph-name="blacksmallsquare" unicode="&#x25aa;" horiz-adv-x="658" 
d="M52 0v553h554v-553h-554z" />
    <glyph glyph-name="triagup" unicode="&#x25b2;" horiz-adv-x="636" 
d="M69 132v10l237 439h9l253 -439v-10h-499z" />
    <glyph glyph-name="triagrt" unicode="&#x25ba;" horiz-adv-x="636" 
d="M93 107v499h10l439 -237v-9l-439 -253h-10z" />
    <glyph glyph-name="triagdn" unicode="&#x25bc;" horiz-adv-x="636" 
d="M322 132l-253 439v10h499v-10l-237 -439h-9z" />
    <glyph glyph-name="triaglf" unicode="&#x25c4;" horiz-adv-x="636" 
d="M532 107l-439 253v9l439 237h10v-499h-10z" />
    <glyph glyph-name="lozenge" unicode="&#x25ca;" 
d="M246 0l-221 339v13l221 362h99l220 -362v-13l-220 -339h-99zM300 119l137 222l-145 245l-138 -235z" />
    <glyph glyph-name="uni25E2" unicode="&#x25e2;" horiz-adv-x="636" 
d="M567 57l-487 107l-3 9l356 367l7 -1l135 -475z" />
    <glyph glyph-name="uni25E3" unicode="&#x25e3;" horiz-adv-x="636" 
d="M85 57l-8 7l135 475l8 1l355 -367l-3 -9z" />
    <glyph glyph-name="uni25E4" unicode="&#x25e4;" horiz-adv-x="636" 
d="M212 58l-135 475l8 7l487 -107l3 -9l-355 -367z" />
    <glyph glyph-name="uni25E5" unicode="&#x25e5;" horiz-adv-x="636" 
d="M433 57l-356 367l3 9l487 107l8 -7l-135 -475z" />
    <glyph glyph-name="I.alt" unicode="&#xe131;" horiz-adv-x="520" 
d="M48 0v120h123v474h-123v119h424v-119h-123v-474h123v-120h-424z" />
    <glyph glyph-name="I.alt" unicode="&#xe488;" horiz-adv-x="520" 
d="M48 0v120h123v474h-123v119h424v-119h-123v-474h123v-120h-424z" />
    <glyph glyph-name="Igrave.alt" unicode="&#xe132;" horiz-adv-x="520" 
d="M48 0v120h123v474h-123v119h424v-119h-123v-474h123v-120h-424zM218 776l-137 179h163l87 -179h-113z" />
    <glyph glyph-name="Iacute.alt" unicode="&#xe133;" horiz-adv-x="520" 
d="M48 0v120h123v474h-123v119h424v-119h-123v-474h123v-120h-424zM200 776l87 179h163l-137 -179h-113z" />
    <glyph glyph-name="Icircumflex.alt" unicode="&#xe134;" horiz-adv-x="520" 
d="M48 0v120h123v474h-123v119h424v-119h-123v-474h123v-120h-424zM68 777l131 186h129l124 -186h-139l-52 97l-55 -97h-138z" />
    <glyph glyph-name="Idieresis.alt" unicode="&#xe135;" horiz-adv-x="520" 
d="M48 0v120h123v474h-123v119h424v-119h-123v-474h123v-120h-424zM77 773v151h145v-151h-145zM298 773v151h145v-151h-145z" />
    <glyph glyph-name="Itilde.alt" unicode="&#xe136;" horiz-adv-x="520" 
d="M48 0v120h123v474h-123v119h424v-119h-123v-474h123v-120h-424zM134 764l-93 20q11 63 46 102.5t91 39.5q30 0 87 -16.5t87 -16.5q14 0 22.5 9t11 15t8.5 26l88 -22q-9 -62 -41.5 -101.5t-88.5 -39.5q-31 0 -88 16t-83 16q-18 0 -27 -9.5t-20 -38.5z" />
    <glyph glyph-name="Imacron.alt" unicode="&#xe138;" horiz-adv-x="520" 
d="M48 0v120h123v474h-123v119h424v-119h-123v-474h123v-120h-424zM97 781v120h326v-120h-326z" />
    <glyph glyph-name="Ibreve.alt" unicode="&#xe139;" horiz-adv-x="520" 
d="M48 0v120h123v474h-123v119h424v-119h-123v-474h123v-120h-424zM259 775q-79 0 -132.5 50.5t-55.5 133.5h100q23 -90 93 -90q34 0 57 23.5t26 66.5h100q-1 -87 -57.5 -135.5t-130.5 -48.5z" />
    <glyph glyph-name="Idotaccent.alt" unicode="&#xe13c;" horiz-adv-x="520" 
d="M48 0v120h123v474h-123v119h424v-119h-123v-474h123v-120h-424z" />
    <glyph glyph-name="Iogonek.alt" unicode="&#xe13e;" horiz-adv-x="520" 
d="M48 0v120h123v474h-123v119h424v-119h-123v-474h123v-120q-47 -8 -73.5 -30t-26.5 -49q0 -41 47 -41q32 0 71 24l51 -79q-59 -48 -142 -48q-62 0 -101 31t-39 85q0 63 56 107h-267z" />
    <glyph glyph-name="zero.dnom" unicode="&#xe402;" horiz-adv-x="386" 
d="M194 -12q-40 0 -74.5 11t-60.5 41t-26 75v158q0 65 47.5 97t112.5 32q64 0 112 -32.5t48 -98.5v-156q0 -62 -48.5 -94.5t-110.5 -32.5zM193 77q20 0 30.5 11.5t10.5 28.5v160q0 16 -11 26t-30 10t-30 -10.5t-11 -26.5v-161q0 -16 10.5 -27t30.5 -11z" />
    <glyph glyph-name="one.dnom" unicode="&#xe403;" horiz-adv-x="357" 
d="M60 0v81h72v216l-70 -4l-7 79l131 28h60v-319h66v-81h-252z" />
    <glyph glyph-name="two.dnom" unicode="&#xe404;" horiz-adv-x="370" 
d="M45 0v69l127 140q41 44 41 73v5q0 33 -36 33q-34 0 -34 -42v-12h-108v22q0 57 42.5 88t108.5 31q68 0 105 -33t37 -88q0 -30 -18 -63t-32.5 -48.5t-46.5 -47.5l-34 -35v-1h135v-91h-287z" />
    <glyph glyph-name="three.dnom" unicode="&#xe405;" horiz-adv-x="373" 
d="M179 -12q-71 0 -109.5 30t-38.5 85v14h112v-8q0 -37 43 -37q37 0 37 45q0 41 -51 41h-29v74h29q24 0 35.5 9t11.5 33q0 20 -10.5 30.5t-26.5 10.5q-37 0 -37 -39v-5h-111v14q0 52 40 84.5t109 32.5t108.5 -31t39.5 -82q0 -68 -62 -88v-3q34 -8 54 -32t20 -58
q0 -42 -26.5 -70.5t-62 -39t-75.5 -10.5z" />
    <glyph glyph-name="four.dnom" unicode="&#xe406;" horiz-adv-x="376" 
d="M203 0v80h-177v80l149 240h125l-159 -236h62v42l106 71v-113h40v-84h-40v-80h-106z" />
    <glyph glyph-name="five.dnom" unicode="&#xe407;" horiz-adv-x="373" 
d="M183 -12q-66 0 -107.5 27t-41.5 75v27h110v-9q0 -35 42 -35q40 0 40 46v23q0 18 -11.5 29t-30.5 11q-22 0 -37 -19l-102 12l10 219h259v-93h-170l-3 -69q37 24 87 24q44 0 78 -24.5t34 -74.5v-48q0 -58 -46 -89.5t-111 -31.5z" />
    <glyph glyph-name="six.dnom" unicode="&#xe408;" horiz-adv-x="382" 
d="M191 -12q-64 0 -110.5 33t-46.5 90v168q0 57 47 90t114 33t107 -29t40 -80v-21h-110v10q0 35 -38 35q-20 0 -31 -11t-11 -28v-56q35 29 89 29q50 0 79 -26t29 -66v-54q0 -55 -46 -86t-112 -31zM193 73q20 0 31 10t11 25v37q0 18 -12.5 26t-28.5 8t-29 -11t-13 -34v-24
q0 -16 11 -26.5t30 -10.5z" />
    <glyph glyph-name="seven.dnom" unicode="&#xe409;" horiz-adv-x="369" 
d="M76 0q1 77 40.5 159.5t93.5 141.5h-176v96h303v-85q-54 -50 -94.5 -131t-40.5 -181h-126z" />
    <glyph glyph-name="eight.dnom" unicode="&#xe40a;" horiz-adv-x="382" 
d="M191 -12q-157 0 -157 111v20q0 53 49 77q-19 8 -31 28.5t-12 41.5v22q0 53 43 83t107 30q65 0 108.5 -28.5t43.5 -81.5v-25q0 -46 -42 -70q19 -9 33.5 -30t14.5 -44v-26q0 -50 -45 -79t-112 -29zM191 67q41 0 41 36v18q0 37 -42 37q-17 0 -28.5 -8t-11.5 -24v-24
q0 -35 41 -35zM191 232q41 0 41 35v18q0 36 -42 36q-17 0 -28.5 -8t-11.5 -23v-24q0 -34 41 -34z" />
    <glyph glyph-name="nine.dnom" unicode="&#xe40b;" horiz-adv-x="382" 
d="M188 -13q-67 0 -107.5 29t-40.5 80v21h111v-10q0 -16 10.5 -25t27.5 -9q41 0 41 39v56q-30 -30 -89 -30q-50 0 -78.5 26.5t-28.5 66.5v54q0 55 45.5 85.5t111.5 30.5q65 0 111.5 -33t46.5 -89v-168q0 -57 -47 -90.5t-114 -33.5zM187 210q16 0 29.5 11.5t13.5 34.5v24
q0 16 -10.5 27t-29.5 11q-20 0 -31.5 -10t-11.5 -25v-38q0 -18 12.5 -26.5t27.5 -8.5z" />
    <glyph glyph-name="comma.dnom" unicode="&#xe40d;" horiz-adv-x="260" 
d="M63 -84l19 85h-38v111h110v-104l-41 -92h-50z" />
    <glyph glyph-name="period.dnom" unicode="&#xe40e;" horiz-adv-x="198" 
d="M44 0v113h110v-113h-110z" />
    <glyph glyph-name="parenleft.dnom" unicode="&#xe40f;" horiz-adv-x="220" 
d="M147 -77q-42 47 -68 116t-26 142q0 69 25.5 135.5t68.5 114.5h56q-30 -70 -42 -124.5t-12 -125.5q0 -135 54 -258h-56z" />
    <glyph glyph-name="parenright.dnom" unicode="&#xe410;" horiz-adv-x="220" 
d="M73 -77h-56q54 123 54 258q0 71 -12 125.5t-42 124.5h56q43 -48 68.5 -114.5t25.5 -135.5q0 -73 -26 -142t-68 -116z" />
    <glyph glyph-name="caronSlovak" unicode="&#xe413;" horiz-adv-x="287" 
d="M60 512l15 201h141l-51 -201h-105z" />
    <glyph glyph-name="commaaccent" unicode="&#xe414;" horiz-adv-x="287" 
d="M53 -207l12 174h152l-40 -174h-124z" />
    <glyph glyph-name="commaaccent" unicode="&#xf6c3;" horiz-adv-x="287" 
d="M53 -207l12 174h152l-40 -174h-124z" />
    <glyph glyph-name="zero.numr" unicode="&#xe416;" horiz-adv-x="386" 
d="M194 306q-40 0 -74.5 11t-60.5 41t-26 75v158q0 65 47.5 97t112.5 32q64 0 112 -32.5t48 -98.5v-156q0 -62 -48.5 -94.5t-110.5 -32.5zM193 395q20 0 30.5 11.5t10.5 28.5v160q0 16 -11 26t-30 10t-30 -10.5t-11 -26.5v-161q0 -16 10.5 -27t30.5 -11z" />
    <glyph glyph-name="one.numr" unicode="&#xe417;" horiz-adv-x="357" 
d="M60 317v81h72v216l-70 -4l-7 79l131 28h60v-319h66v-81h-252z" />
    <glyph glyph-name="two.numr" unicode="&#xe418;" horiz-adv-x="370" 
d="M45 317v69l127 140q41 44 41 73v5q0 33 -36 33q-34 0 -34 -42v-12h-108v22q0 57 42.5 88t108.5 31q68 0 105 -33t37 -88q0 -30 -18 -63t-32.5 -48.5t-46.5 -47.5l-34 -35v-1h135v-91h-287z" />
    <glyph glyph-name="three.numr" unicode="&#xe419;" horiz-adv-x="373" 
d="M182 305q-71 0 -109.5 30t-38.5 85v14h112v-8q0 -37 43 -37q37 0 37 45q0 41 -51 41h-29v74h29q24 0 35.5 9t11.5 33q0 20 -10.5 30.5t-26.5 10.5q-37 0 -37 -39v-5h-111v14q0 52 40 84.5t109 32.5t108.5 -31t39.5 -82q0 -68 -62 -88v-3q34 -8 54 -32t20 -58
q0 -42 -26.5 -70.5t-62 -39t-75.5 -10.5z" />
    <glyph glyph-name="four.numr" unicode="&#xe41a;" horiz-adv-x="376" 
d="M203 317v80h-177v80l149 240h125l-159 -236h62v42l106 71v-113h40v-84h-40v-80h-106z" />
    <glyph glyph-name="five.numr" unicode="&#xe41b;" horiz-adv-x="373" 
d="M183 305q-66 0 -107.5 27t-41.5 75v27h110v-9q0 -35 42 -35q40 0 40 46v23q0 18 -11.5 29t-30.5 11q-22 0 -37 -19l-102 12l10 219h259v-93h-170l-3 -69q37 24 87 24q44 0 78 -24.5t34 -74.5v-48q0 -58 -46 -89.5t-111 -31.5z" />
    <glyph glyph-name="six.numr" unicode="&#xe41c;" horiz-adv-x="382" 
d="M191 305q-64 0 -110.5 33t-46.5 90v168q0 57 47 90t114 33t107 -29t40 -80v-21h-110v10q0 35 -38 35q-20 0 -31 -11t-11 -28v-56q35 29 89 29q50 0 79 -26t29 -66v-54q0 -55 -46 -86t-112 -31zM193 390q20 0 31 10t11 25v37q0 18 -12.5 26t-28.5 8t-29 -11t-13 -34v-24
q0 -16 11 -26.5t30 -10.5z" />
    <glyph glyph-name="seven.numr" unicode="&#xe41d;" horiz-adv-x="369" 
d="M76 317q1 77 40.5 159.5t93.5 141.5h-176v96h303v-85q-54 -50 -94.5 -131t-40.5 -181h-126z" />
    <glyph glyph-name="eight.numr" unicode="&#xe41e;" horiz-adv-x="382" 
d="M191 306q-157 0 -157 111v20q0 53 49 77q-19 8 -31 28.5t-12 41.5v22q0 53 43 83t107 30q65 0 108.5 -28.5t43.5 -81.5v-25q0 -46 -42 -70q19 -9 33.5 -30t14.5 -44v-26q0 -50 -45 -79t-112 -29zM191 385q41 0 41 36v18q0 37 -42 37q-17 0 -28.5 -8t-11.5 -24v-24
q0 -35 41 -35zM191 550q41 0 41 35v18q0 36 -42 36q-17 0 -28.5 -8t-11.5 -23v-24q0 -34 41 -34z" />
    <glyph glyph-name="nine.numr" unicode="&#xe41f;" horiz-adv-x="382" 
d="M188 305q-67 0 -107.5 29t-40.5 80v21h111v-10q0 -16 10.5 -25t27.5 -9q41 0 41 39v56q-30 -30 -89 -30q-50 0 -78.5 26.5t-28.5 66.5v54q0 55 45.5 85.5t111.5 30.5q65 0 111.5 -33t46.5 -89v-168q0 -57 -47 -90.5t-114 -33.5zM187 528q16 0 29.5 11.5t13.5 34.5v24
q0 16 -10.5 27t-29.5 11q-20 0 -31.5 -10t-11.5 -25v-38q0 -18 12.5 -26.5t27.5 -8.5z" />
    <glyph glyph-name="comma.numr" unicode="&#xe421;" horiz-adv-x="260" 
d="M63 234l19 85h-38v111h110v-104l-41 -92h-50z" />
    <glyph glyph-name="period.numr" unicode="&#xe422;" horiz-adv-x="198" 
d="M44 318v113h110v-113h-110z" />
    <glyph glyph-name="parenleft.numr" unicode="&#xe423;" horiz-adv-x="220" 
d="M147 241q-42 47 -68 116t-26 142q0 69 25.5 135.5t68.5 114.5h56q-30 -70 -42 -124.5t-12 -125.5q0 -135 54 -258h-56z" />
    <glyph glyph-name="parenright.numr" unicode="&#xe424;" horiz-adv-x="220" 
d="M73 241h-56q54 123 54 258q0 71 -12 125.5t-42 124.5h56q43 -48 68.5 -114.5t25.5 -135.5q0 -73 -26 -142t-68 -116z" />
    <glyph glyph-name="numbersign.LP" unicode="&#xe533;" 
d="M91 -1l28 174h-110l16 96h107l31 191h-114l16 93h109l25 161h88l-22 -161h122l24 161h88l-25 -161h107l-13 -93h-106l-30 -191h109l-12 -96h-112l-26 -174h-88l25 174h-122l-27 -174h-88zM221 269h121l31 191h-123z" />
    <glyph glyph-name="zero.LT" unicode="&#xe53f;" 
d="M297 -13q-51 0 -97 12t-86 37t-63.5 69t-23.5 103v291q0 111 79 168t190 57q51 0 97.5 -13t85.5 -39.5t62 -71.5t23 -104v-286q0 -74 -41.5 -126.5t-100 -74.5t-125.5 -22zM297 126q42 0 65.5 25.5t23.5 61.5v292q0 35 -24 58t-65 23q-42 0 -66.5 -24t-24.5 -60v-291
q0 -36 23.5 -60.5t67.5 -24.5z" />
    <glyph glyph-name="one.LT" unicode="&#xe541;" 
d="M81 0v120h139v445l-133 -9l-11 117l234 45h77v-598h127v-120h-433z" />
    <glyph glyph-name="two.LT" unicode="&#xe542;" 
d="M66 0v101l210 244q32 37 47.5 56.5t29 48t13.5 55.5v15q0 32 -19 52t-60 20q-40 0 -59.5 -23t-19.5 -62v-21h-161v35q0 98 70 152t183 54q114 0 176 -58.5t62 -152.5q0 -25 -5 -49.5t-18 -49.5t-23.5 -43t-32.5 -44.5t-32.5 -38.5t-37 -39.5t-33.5 -35.5l-68 -74v-2h256
v-140h-478z" />
    <glyph glyph-name="three.LT" unicode="&#xe543;" 
d="M282 -12q-119 0 -181.5 51.5t-62.5 144.5v25h165v-19q0 -68 91 -68q36 0 58.5 24.5t22.5 66.5q0 33 -19.5 53.5t-39.5 25.5t-40 5h-61v124h59q46 0 69 19t23 65q0 40 -23.5 60.5t-56.5 20.5q-80 0 -80 -72v-13h-162v25q0 89 66 144t180 55q115 0 178.5 -54.5t63.5 -141.5
q0 -58 -28.5 -101t-76.5 -59v-5q56 -15 91.5 -58t35.5 -105q0 -56 -23 -98.5t-62.5 -67t-86.5 -36t-100 -11.5z" />
    <glyph glyph-name="four.LT" unicode="&#xe544;" 
d="M329 0v156h-305v127l262 431h192l-276 -425h127v88l165 106v-194h75v-133h-75v-156h-165z" />
    <glyph glyph-name="five.LT" unicode="&#xe545;" 
d="M289 -12q-110 0 -178.5 48.5t-68.5 128.5v44h163v-17q0 -31 24 -49.5t64 -18.5q85 0 85 94v50q0 36 -25 56t-62 20q-48 0 -82 -38l-150 20l19 387h430v-144h-294l-6 -144q61 42 150 42q74 0 133 -44t59 -131v-84q0 -104 -75.5 -162t-185.5 -58z" />
    <glyph glyph-name="six.LT" unicode="&#xe546;" 
d="M293 -12q-108 0 -183.5 58.5t-75.5 156.5v304q0 101 78 159.5t190 58.5q113 0 179 -50t66 -139v-32h-165v18q0 34 -22.5 51.5t-59.5 17.5q-42 0 -64.5 -22.5t-22.5 -59.5v-110q69 57 161 57q84 0 134 -45t50 -117v-103q0 -96 -76.5 -149.5t-188.5 -53.5zM299 123
q42 0 65.5 21t23.5 53v72q0 37 -27 53.5t-61 16.5t-60.5 -23t-26.5 -69v-43q0 -35 22.5 -58t63.5 -23z" />
    <glyph glyph-name="seven.LT" unicode="&#xe547;" 
d="M117 0q3 148 76 307.5t167 261.5h-317v144h506v-122q-41 -41 -80 -94t-79.5 -128t-66 -172t-25.5 -197h-181z" />
    <glyph glyph-name="eight.LT" unicode="&#xe548;" 
d="M295 -12q-119 0 -190 47.5t-71 146.5v39q0 46 24.5 83.5t62.5 56.5q-34 15 -55.5 51t-21.5 76v38q0 94 72 146.5t178 52.5q107 0 179.5 -49t72.5 -142q1 -50 0 -52q0 -39 -22 -71.5t-55 -49.5q37 -15 62.5 -53t25.5 -82v-46q0 -89 -74.5 -140.5t-187.5 -51.5zM294 115
q40 0 64.5 19.5t24.5 55.5v34q0 38 -25.5 55.5t-62.5 17.5t-62.5 -16.5t-25.5 -49.5v-43q0 -34 25 -53.5t62 -19.5zM296 419q37 0 61.5 19t24.5 53v35q0 37 -25.5 54t-62.5 17q-35 0 -60 -17.5t-25 -49.5v-41q0 -34 24.5 -52t62.5 -18z" />
    <glyph glyph-name="nine.LT" unicode="&#xe549;" 
d="M288 -13q-112 0 -178 50.5t-66 138.5v33h165v-18q0 -34 22.5 -51.5t59.5 -17.5q41 0 64 23t23 59v114q-49 -64 -161 -64q-84 0 -134 46t-50 119v103q0 96 76.5 149.5t188.5 53.5q108 0 183.5 -58.5t75.5 -156.5v-305q0 -101 -78.5 -159.5t-190.5 -58.5zM287 373
q34 0 62.5 24.5t28.5 69.5v45q0 35 -23 58.5t-63 23.5q-42 0 -65.5 -21t-23.5 -53v-74q0 -37 25.5 -55t58.5 -18z" />
    <glyph glyph-name="commatop" horiz-adv-x="287" 
d="M55 592v98l53 104h73l-25 -86h52v-116h-153z" />
    <glyph glyph-name="ringacute" horiz-adv-x="331" 
d="M165 588q-55 0 -85 28.5t-30 70.5q0 49 40 83l144 129l73 -83l-76 -40q50 -26 50 -84q0 -45 -33.5 -74.5t-82.5 -29.5zM165 643q21 0 35.5 13.5t14.5 34.5t-13.5 35t-36.5 14q-22 0 -35.5 -14t-13.5 -35q0 -20 14.5 -34t34.5 -14z" />
    <glyph glyph-name="altogonek" horiz-adv-x="392" 
d="M204 -223q-62 0 -100.5 31t-38.5 85q0 53 37.5 93.5t103.5 56.5l62 -43q-45 -9 -68 -30.5t-23 -48.5q0 -41 47 -41q32 0 64 20l51 -76q-59 -47 -135 -47z" />
    <glyph glyph-name="period.sub" horiz-adv-x="198" 
d="M44 -133v113h110v-113h-110z" />
    <glyph glyph-name="comma.sub" horiz-adv-x="260" 
d="M63 -217l19 85h-38v111h110v-104l-41 -92h-50z" />
    <glyph glyph-name="period.sup" horiz-adv-x="198" 
d="M44 380v113h110v-113h-110z" />
    <glyph glyph-name="comma.sup" horiz-adv-x="260" 
d="M63 296l19 85h-38v111h110v-104l-41 -92h-50z" />
    <glyph glyph-name="ogonekplus" horiz-adv-x="392" 
d="M199 -220q-60 0 -97 31.5t-37 85.5q0 51 42 89.5t110 54.5l25 -38q-28 -12 -46.5 -35t-18.5 -47q0 -41 47 -41q30 0 62 20l45 -77q-57 -43 -132 -43z" />
    <glyph glyph-name="LF" horiz-adv-x="0" 
 />
    <glyph glyph-name="CR" horiz-adv-x="0" 
 />
    <glyph glyph-name="RS" horiz-adv-x="0" 
 />
    <glyph glyph-name="US" horiz-adv-x="0" 
 />
    <glyph glyph-name="IJ.alt" horiz-adv-x="1090" 
d="M48 0v120h123v474h-123v119h424v-119h-123v-474h123v-120h-424zM766 -7q-275 0 -275 240v38h173v-31q0 -100 99 -100q46 0 68.5 30.5t22.5 76.5v471h178v-474q0 -109 -72 -180t-194 -71z" />
    <glyph glyph-name="idotaccent" horiz-adv-x="277" 
d="M56 0v526h165v-526h-165zM56 589v147h165v-147h-165z" />
    </font>
</defs>
</svg>
